<svg version="1.1" xmlns="http://www.w3.org/2000/svg" viewBox="0 0 235.31340007562903 153.19387074445876" width="705.9402002268871" height="459.5816122333763">
  <!-- svg-source:excalidraw -->
  
  <defs>
    <style class="style-fonts">
      
    </style>
    
  </defs>
  <g stroke-linecap="round" transform="translate(10 10) rotate(0 107.65670003781452 66.59693537222938)"><path d="M135 16.75 C149.82 26.06, 164.64 35.37, 188.31 50.25 C215.31 67, 215.31 67, 188.31 83.75 C174.66 92.12, 161.01 100.49, 135 116.44 C108 133.19, 108 133.19, 81 116.44 C69.37 109.4, 57.74 102.36, 27 83.75 C0 67, 0 67, 27 50.25 C38.18 43.31, 49.36 36.38, 81 16.75 C108 0, 108 0, 135 16.75" stroke="none" stroke-width="0" fill="#b2f2bb"></path><path d="M135 16.75 C151.22 26.94, 167.45 37.14, 188.31 50.25 M188.31 50.25 C215.31 67, 215.31 67, 188.31 83.75 M188.31 83.75 C174.14 92.44, 159.97 101.13, 135 116.44 M135 116.44 C108 133.19, 108 133.19, 81 116.44 M81 116.44 C61.49 104.63, 41.98 92.82, 27 83.75 M27 83.75 C0 67, 0 67, 27 50.25 M27 50.25 C42.9 40.39, 58.79 30.53, 81 16.75 M81 16.75 C108 0, 108 0, 135 16.75" stroke="#69db7c" stroke-width="2.5" fill="none" stroke-dasharray="1.5 8"></path></g><g stroke-linecap="round" transform="translate(28.712337801819558 21.575539556795775) rotate(0 88.94436165652314 55.02139581543088)"><path d="M89 0 L177.89 56 L89 110.04 L0 56" stroke="none" stroke-width="0" fill="#69db7c" fill-rule="evenodd"></path><path d="M89 0 C120.72 19.98, 152.44 39.97, 177.89 56 M177.89 56 C145.54 75.67, 113.2 95.33, 89 110.04 M89 110.04 C64.26 95.02, 39.52 80, 0 56 M0 56 C27.8 38.51, 55.6 21.02, 89 0" stroke="#69db7c" stroke-width="4.5" fill="none" stroke-dasharray="8 12"></path></g><g stroke-linecap="round" transform="translate(89.08560105902052 50.58239244637116) rotate(0 28.571098309179433 22.13475198678225)"><path d="M57.14 22.13 C57.14 23.42, 57 24.72, 56.71 25.98 C56.42 27.24, 55.98 28.5, 55.42 29.71 C54.85 30.91, 54.14 32.09, 53.31 33.2 C52.49 34.31, 51.52 35.38, 50.46 36.36 C49.39 37.34, 48.2 38.27, 46.94 39.09 C45.67 39.91, 44.29 40.66, 42.86 41.3 C41.42 41.94, 39.9 42.5, 38.34 42.93 C36.79 43.37, 35.16 43.71, 33.53 43.93 C31.9 44.16, 30.22 44.27, 28.57 44.27 C26.92 44.27, 25.24 44.16, 23.61 43.93 C21.98 43.71, 20.35 43.37, 18.8 42.93 C17.25 42.5, 15.72 41.94, 14.29 41.3 C12.85 40.66, 11.47 39.91, 10.21 39.09 C8.94 38.27, 7.75 37.34, 6.68 36.36 C5.62 35.38, 4.65 34.31, 3.83 33.2 C3 32.09, 2.29 30.91, 1.72 29.71 C1.16 28.5, 0.72 27.24, 0.43 25.98 C0.15 24.72, 0 23.42, 0 22.13 C0 20.85, 0.15 19.55, 0.43 18.29 C0.72 17.03, 1.16 15.77, 1.72 14.56 C2.29 13.36, 3 12.18, 3.83 11.07 C4.65 9.96, 5.62 8.89, 6.68 7.91 C7.75 6.93, 8.94 6, 10.21 5.18 C11.47 4.35, 12.85 3.61, 14.29 2.97 C15.72 2.32, 17.25 1.77, 18.8 1.33 C20.35 0.9, 21.98 0.56, 23.61 0.34 C25.24 0.11, 26.92 0, 28.57 0 C30.22 0, 31.9 0.11, 33.53 0.34 C35.16 0.56, 36.79 0.9, 38.34 1.33 C39.9 1.77, 41.42 2.32, 42.86 2.97 C44.29 3.61, 45.67 4.35, 46.94 5.18 C48.2 6, 49.39 6.93, 50.46 7.91 C51.52 8.89, 52.49 9.96, 53.31 11.07 C54.14 12.18, 54.85 13.36, 55.42 14.56 C55.98 15.77, 56.42 17.03, 56.71 18.29 C57 19.55, 57.07 21.49, 57.14 22.13 C57.21 22.78, 57.21 21.49, 57.14 22.13" stroke="none" stroke-width="0" fill="#a5d8ff"></path><path d="M57.14 22.13 C57.14 23.42, 57 24.72, 56.71 25.98 C56.42 27.24, 55.98 28.5, 55.42 29.71 C54.85 30.91, 54.14 32.09, 53.31 33.2 C52.49 34.31, 51.52 35.38, 50.46 36.36 C49.39 37.34, 48.2 38.27, 46.94 39.09 C45.67 39.91, 44.29 40.66, 42.86 41.3 C41.42 41.94, 39.9 42.5, 38.34 42.93 C36.79 43.37, 35.16 43.71, 33.53 43.93 C31.9 44.16, 30.22 44.27, 28.57 44.27 C26.92 44.27, 25.24 44.16, 23.61 43.93 C21.98 43.71, 20.35 43.37, 18.8 42.93 C17.25 42.5, 15.72 41.94, 14.29 41.3 C12.85 40.66, 11.47 39.91, 10.21 39.09 C8.94 38.27, 7.75 37.34, 6.68 36.36 C5.62 35.38, 4.65 34.31, 3.83 33.2 C3 32.09, 2.29 30.91, 1.72 29.71 C1.16 28.5, 0.72 27.24, 0.43 25.98 C0.15 24.72, 0 23.42, 0 22.13 C0 20.85, 0.15 19.55, 0.43 18.29 C0.72 17.03, 1.16 15.77, 1.72 14.56 C2.29 13.36, 3 12.18, 3.83 11.07 C4.65 9.96, 5.62 8.89, 6.68 7.91 C7.75 6.93, 8.94 6, 10.21 5.18 C11.47 4.35, 12.85 3.61, 14.29 2.97 C15.72 2.32, 17.25 1.77, 18.8 1.33 C20.35 0.9, 21.98 0.56, 23.61 0.34 C25.24 0.11, 26.92 0, 28.57 0 C30.22 0, 31.9 0.11, 33.53 0.34 C35.16 0.56, 36.79 0.9, 38.34 1.33 C39.9 1.77, 41.42 2.32, 42.86 2.97 C44.29 3.61, 45.67 4.35, 46.94 5.18 C48.2 6, 49.39 6.93, 50.46 7.91 C51.52 8.89, 52.49 9.96, 53.31 11.07 C54.14 12.18, 54.85 13.36, 55.42 14.56 C55.98 15.77, 56.42 17.03, 56.71 18.29 C57 19.55, 57.07 21.49, 57.14 22.13 C57.21 22.78, 57.21 21.49, 57.14 22.13" stroke="transparent" stroke-width="4" fill="none"></path></g><g stroke-linecap="round" transform="translate(83.25603720972049 77.78387026766904) rotate(0 34.40066215847946 10.90088340344937)"><path d="M68.8 10.9 C68.8 11.53, 68.62 12.17, 68.28 12.79 C67.93 13.42, 67.41 14.04, 66.73 14.63 C66.05 15.22, 65.19 15.8, 64.19 16.35 C63.2 16.9, 62.03 17.42, 60.75 17.91 C59.47 18.39, 58.04 18.85, 56.51 19.25 C54.99 19.66, 53.33 20.03, 51.6 20.34 C49.88 20.66, 48.04 20.93, 46.17 21.14 C44.3 21.36, 42.34 21.53, 40.37 21.64 C38.41 21.75, 36.39 21.8, 34.4 21.8 C32.41 21.8, 30.39 21.75, 28.43 21.64 C26.47 21.53, 24.51 21.36, 22.63 21.14 C20.76 20.93, 18.92 20.66, 17.2 20.34 C15.48 20.03, 13.81 19.66, 12.29 19.25 C10.76 18.85, 9.33 18.39, 8.05 17.91 C6.77 17.42, 5.6 16.9, 4.61 16.35 C3.61 15.8, 2.76 15.22, 2.07 14.63 C1.39 14.04, 0.87 13.42, 0.52 12.79 C0.18 12.17, 0 11.53, 0 10.9 C0 10.27, 0.18 9.63, 0.52 9.01 C0.87 8.39, 1.39 7.77, 2.07 7.17 C2.76 6.58, 3.61 6, 4.61 5.45 C5.6 4.9, 6.77 4.38, 8.05 3.89 C9.33 3.41, 10.76 2.96, 12.29 2.55 C13.81 2.14, 15.48 1.78, 17.2 1.46 C18.92 1.14, 20.76 0.87, 22.63 0.66 C24.51 0.44, 26.47 0.28, 28.43 0.17 C30.39 0.06, 32.41 0, 34.4 0 C36.39 0, 38.41 0.06, 40.37 0.17 C42.34 0.28, 44.3 0.44, 46.17 0.66 C48.04 0.87, 49.88 1.14, 51.6 1.46 C53.33 1.78, 54.99 2.14, 56.51 2.55 C58.04 2.96, 59.47 3.41, 60.75 3.89 C62.03 4.38, 63.2 4.9, 64.19 5.45 C65.19 6, 66.05 6.58, 66.73 7.17 C67.41 7.77, 67.93 8.39, 68.28 9.01 C68.62 9.63, 68.71 10.59, 68.8 10.9 C68.89 11.22, 68.89 10.59, 68.8 10.9" stroke="none" stroke-width="0" fill="#69db7c"></path><path d="M68.8 10.9 C68.8 11.53, 68.62 12.17, 68.28 12.79 C67.93 13.42, 67.41 14.04, 66.73 14.63 C66.05 15.22, 65.19 15.8, 64.19 16.35 C63.2 16.9, 62.03 17.42, 60.75 17.91 C59.47 18.39, 58.04 18.85, 56.51 19.25 C54.99 19.66, 53.33 20.03, 51.6 20.34 C49.88 20.66, 48.04 20.93, 46.17 21.14 C44.3 21.36, 42.34 21.53, 40.37 21.64 C38.41 21.75, 36.39 21.8, 34.4 21.8 C32.41 21.8, 30.39 21.75, 28.43 21.64 C26.47 21.53, 24.51 21.36, 22.63 21.14 C20.76 20.93, 18.92 20.66, 17.2 20.34 C15.48 20.03, 13.81 19.66, 12.29 19.25 C10.76 18.85, 9.33 18.39, 8.05 17.91 C6.77 17.42, 5.6 16.9, 4.61 16.35 C3.61 15.8, 2.76 15.22, 2.07 14.63 C1.39 14.04, 0.87 13.42, 0.52 12.79 C0.18 12.17, 0 11.53, 0 10.9 C0 10.27, 0.18 9.63, 0.52 9.01 C0.87 8.39, 1.39 7.77, 2.07 7.17 C2.76 6.58, 3.61 6, 4.61 5.45 C5.6 4.9, 6.77 4.38, 8.05 3.89 C9.33 3.41, 10.76 2.96, 12.29 2.55 C13.81 2.14, 15.48 1.78, 17.2 1.46 C18.92 1.14, 20.76 0.87, 22.63 0.66 C24.51 0.44, 26.47 0.28, 28.43 0.17 C30.39 0.06, 32.41 0, 34.4 0 C36.39 0, 38.41 0.06, 40.37 0.17 C42.34 0.28, 44.3 0.44, 46.17 0.66 C48.04 0.87, 49.88 1.14, 51.6 1.46 C53.33 1.78, 54.99 2.14, 56.51 2.55 C58.04 2.96, 59.47 3.41, 60.75 3.89 C62.03 4.38, 63.2 4.9, 64.19 5.45 C65.19 6, 66.05 6.58, 66.73 7.17 C67.41 7.77, 67.93 8.39, 68.28 9.01 C68.62 9.63, 68.71 10.59, 68.8 10.9 C68.89 11.22, 68.89 10.59, 68.8 10.9" stroke="transparent" stroke-width="4" fill="none"></path></g><g stroke-linecap="round" transform="translate(83.25603720972049 69.70486580359466) rotate(0 34.40066215847946 10.90088340344937)"><path d="M68.8 10.9 C68.8 11.53, 68.62 12.17, 68.28 12.79 C67.93 13.42, 67.41 14.04, 66.73 14.63 C66.05 15.22, 65.19 15.8, 64.19 16.35 C63.2 16.9, 62.03 17.42, 60.75 17.91 C59.47 18.39, 58.04 18.85, 56.51 19.25 C54.99 19.66, 53.33 20.03, 51.6 20.34 C49.88 20.66, 48.04 20.93, 46.17 21.14 C44.3 21.36, 42.34 21.53, 40.37 21.64 C38.41 21.75, 36.39 21.8, 34.4 21.8 C32.41 21.8, 30.39 21.75, 28.43 21.64 C26.47 21.53, 24.51 21.36, 22.63 21.14 C20.76 20.93, 18.92 20.66, 17.2 20.34 C15.48 20.03, 13.81 19.66, 12.29 19.25 C10.76 18.85, 9.33 18.39, 8.05 17.91 C6.77 17.42, 5.6 16.9, 4.61 16.35 C3.61 15.8, 2.76 15.22, 2.07 14.63 C1.39 14.04, 0.87 13.42, 0.52 12.79 C0.18 12.17, 0 11.53, 0 10.9 C0 10.27, 0.18 9.63, 0.52 9.01 C0.87 8.39, 1.39 7.77, 2.07 7.17 C2.76 6.58, 3.61 6, 4.61 5.45 C5.6 4.9, 6.77 4.38, 8.05 3.89 C9.33 3.41, 10.76 2.96, 12.29 2.55 C13.81 2.14, 15.48 1.78, 17.2 1.46 C18.92 1.14, 20.76 0.87, 22.63 0.66 C24.51 0.44, 26.47 0.28, 28.43 0.17 C30.39 0.06, 32.41 0, 34.4 0 C36.39 0, 38.41 0.06, 40.37 0.17 C42.34 0.28, 44.3 0.44, 46.17 0.66 C48.04 0.87, 49.88 1.14, 51.6 1.46 C53.33 1.78, 54.99 2.14, 56.51 2.55 C58.04 2.96, 59.47 3.41, 60.75 3.89 C62.03 4.38, 63.2 4.9, 64.19 5.45 C65.19 6, 66.05 6.58, 66.73 7.17 C67.41 7.77, 67.93 8.39, 68.28 9.01 C68.62 9.63, 68.71 10.59, 68.8 10.9 C68.89 11.22, 68.89 10.59, 68.8 10.9" stroke="none" stroke-width="0" fill="#40c057"></path><path d="M68.8 10.9 C68.8 11.53, 68.62 12.17, 68.28 12.79 C67.93 13.42, 67.41 14.04, 66.73 14.63 C66.05 15.22, 65.19 15.8, 64.19 16.35 C63.2 16.9, 62.03 17.42, 60.75 17.91 C59.47 18.39, 58.04 18.85, 56.51 19.25 C54.99 19.66, 53.33 20.03, 51.6 20.34 C49.88 20.66, 48.04 20.93, 46.17 21.14 C44.3 21.36, 42.34 21.53, 40.37 21.64 C38.41 21.75, 36.39 21.8, 34.4 21.8 C32.41 21.8, 30.39 21.75, 28.43 21.64 C26.47 21.53, 24.51 21.36, 22.63 21.14 C20.76 20.93, 18.92 20.66, 17.2 20.34 C15.48 20.03, 13.81 19.66, 12.29 19.25 C10.76 18.85, 9.33 18.39, 8.05 17.91 C6.77 17.42, 5.6 16.9, 4.61 16.35 C3.61 15.8, 2.76 15.22, 2.07 14.63 C1.39 14.04, 0.87 13.42, 0.52 12.79 C0.18 12.17, 0 11.53, 0 10.9 C0 10.27, 0.18 9.63, 0.52 9.01 C0.87 8.39, 1.39 7.77, 2.07 7.17 C2.76 6.58, 3.61 6, 4.61 5.45 C5.6 4.9, 6.77 4.38, 8.05 3.89 C9.33 3.41, 10.76 2.96, 12.29 2.55 C13.81 2.14, 15.48 1.78, 17.2 1.46 C18.92 1.14, 20.76 0.87, 22.63 0.66 C24.51 0.44, 26.47 0.28, 28.43 0.17 C30.39 0.06, 32.41 0, 34.4 0 C36.39 0, 38.41 0.06, 40.37 0.17 C42.34 0.28, 44.3 0.44, 46.17 0.66 C48.04 0.87, 49.88 1.14, 51.6 1.46 C53.33 1.78, 54.99 2.14, 56.51 2.55 C58.04 2.96, 59.47 3.41, 60.75 3.89 C62.03 4.38, 63.2 4.9, 64.19 5.45 C65.19 6, 66.05 6.58, 66.73 7.17 C67.41 7.77, 67.93 8.39, 68.28 9.01 C68.62 9.63, 68.71 10.59, 68.8 10.9 C68.89 11.22, 68.89 10.59, 68.8 10.9" stroke="transparent" stroke-width="4" fill="none"></path></g><g stroke-linecap="round" transform="translate(89.08560105902052 65.8362876903866) rotate(0 28.571098309179433 9.360267352578376)"><path d="M57.14 9.36 C57.14 9.9, 57 10.45, 56.71 10.99 C56.42 11.52, 55.98 12.05, 55.42 12.56 C54.85 13.07, 54.14 13.57, 53.31 14.04 C52.49 14.51, 51.52 14.96, 50.46 15.38 C49.39 15.79, 48.2 16.18, 46.94 16.53 C45.67 16.88, 44.29 17.2, 42.86 17.47 C41.42 17.74, 39.9 17.97, 38.34 18.16 C36.79 18.34, 35.16 18.48, 33.53 18.58 C31.9 18.67, 30.22 18.72, 28.57 18.72 C26.92 18.72, 25.24 18.67, 23.61 18.58 C21.98 18.48, 20.35 18.34, 18.8 18.16 C17.25 17.97, 15.72 17.74, 14.29 17.47 C12.85 17.2, 11.47 16.88, 10.21 16.53 C8.94 16.18, 7.75 15.79, 6.68 15.38 C5.62 14.96, 4.65 14.51, 3.83 14.04 C3 13.57, 2.29 13.07, 1.72 12.56 C1.16 12.05, 0.72 11.52, 0.43 10.99 C0.15 10.45, 0 9.9, 0 9.36 C0 8.82, 0.15 8.27, 0.43 7.73 C0.72 7.2, 1.16 6.67, 1.72 6.16 C2.29 5.65, 3 5.15, 3.83 4.68 C4.65 4.21, 5.62 3.76, 6.68 3.34 C7.75 2.93, 8.94 2.54, 10.21 2.19 C11.47 1.84, 12.85 1.52, 14.29 1.25 C15.72 0.98, 17.25 0.75, 18.8 0.56 C20.35 0.38, 21.98 0.24, 23.61 0.14 C25.24 0.05, 26.92 0, 28.57 0 C30.22 0, 31.9 0.05, 33.53 0.14 C35.16 0.24, 36.79 0.38, 38.34 0.56 C39.9 0.75, 41.42 0.98, 42.86 1.25 C44.29 1.52, 45.67 1.84, 46.94 2.19 C48.2 2.54, 49.39 2.93, 50.46 3.34 C51.52 3.76, 52.49 4.21, 53.31 4.68 C54.14 5.15, 54.85 5.65, 55.42 6.16 C55.98 6.67, 56.42 7.2, 56.71 7.73 C57 8.27, 57.07 9.09, 57.14 9.36 C57.21 9.63, 57.21 9.09, 57.14 9.36" stroke="none" stroke-width="0" fill="#a5d8ff"></path><path d="M57.14 9.36 C57.14 9.9, 57 10.45, 56.71 10.99 C56.42 11.52, 55.98 12.05, 55.42 12.56 C54.85 13.07, 54.14 13.57, 53.31 14.04 C52.49 14.51, 51.52 14.96, 50.46 15.38 C49.39 15.79, 48.2 16.18, 46.94 16.53 C45.67 16.88, 44.29 17.2, 42.86 17.47 C41.42 17.74, 39.9 17.97, 38.34 18.16 C36.79 18.34, 35.16 18.48, 33.53 18.58 C31.9 18.67, 30.22 18.72, 28.57 18.72 C26.92 18.72, 25.24 18.67, 23.61 18.58 C21.98 18.48, 20.35 18.34, 18.8 18.16 C17.25 17.97, 15.72 17.74, 14.29 17.47 C12.85 17.2, 11.47 16.88, 10.21 16.53 C8.94 16.18, 7.75 15.79, 6.68 15.38 C5.62 14.96, 4.65 14.51, 3.83 14.04 C3 13.57, 2.29 13.07, 1.72 12.56 C1.16 12.05, 0.72 11.52, 0.43 10.99 C0.15 10.45, 0 9.9, 0 9.36 C0 8.82, 0.15 8.27, 0.43 7.73 C0.72 7.2, 1.16 6.67, 1.72 6.16 C2.29 5.65, 3 5.15, 3.83 4.68 C4.65 4.21, 5.62 3.76, 6.68 3.34 C7.75 2.93, 8.94 2.54, 10.21 2.19 C11.47 1.84, 12.85 1.52, 14.29 1.25 C15.72 0.98, 17.25 0.75, 18.8 0.56 C20.35 0.38, 21.98 0.24, 23.61 0.14 C25.24 0.05, 26.92 0, 28.57 0 C30.22 0, 31.9 0.05, 33.53 0.14 C35.16 0.24, 36.79 0.38, 38.34 0.56 C39.9 0.75, 41.42 0.98, 42.86 1.25 C44.29 1.52, 45.67 1.84, 46.94 2.19 C48.2 2.54, 49.39 2.93, 50.46 3.34 C51.52 3.76, 52.49 4.21, 53.31 4.68 C54.14 5.15, 54.85 5.65, 55.42 6.16 C55.98 6.67, 56.42 7.2, 56.71 7.73 C57 8.27, 57.07 9.09, 57.14 9.36 C57.21 9.63, 57.21 9.09, 57.14 9.36" stroke="transparent" stroke-width="4" fill="none"></path></g><g stroke-linecap="round" transform="translate(100.2314690807334 58.588579335208124) rotate(0 8.241662973801795 5.886902124144399)"><path d="M16.48 5.89 C16.48 6.23, 16.44 6.57, 16.36 6.91 C16.28 7.24, 16.15 7.58, 15.99 7.9 C15.82 8.22, 15.62 8.54, 15.38 8.83 C15.14 9.13, 14.86 9.41, 14.56 9.67 C14.25 9.93, 13.9 10.18, 13.54 10.4 C13.17 10.62, 12.78 10.81, 12.36 10.99 C11.95 11.16, 11.51 11.3, 11.06 11.42 C10.61 11.54, 10.14 11.63, 9.67 11.68 C9.2 11.74, 8.72 11.77, 8.24 11.77 C7.76 11.77, 7.28 11.74, 6.81 11.68 C6.34 11.63, 5.87 11.54, 5.42 11.42 C4.97 11.3, 4.53 11.16, 4.12 10.99 C3.71 10.81, 3.31 10.62, 2.94 10.4 C2.58 10.18, 2.23 9.93, 1.93 9.67 C1.62 9.41, 1.34 9.13, 1.1 8.83 C0.87 8.54, 0.66 8.22, 0.5 7.9 C0.33 7.58, 0.21 7.24, 0.13 6.91 C0.04 6.57, 0 6.23, 0 5.89 C0 5.55, 0.04 5.2, 0.13 4.86 C0.21 4.53, 0.33 4.19, 0.5 3.87 C0.66 3.55, 0.87 3.24, 1.1 2.94 C1.34 2.65, 1.62 2.36, 1.93 2.1 C2.23 1.84, 2.58 1.6, 2.94 1.38 C3.31 1.16, 3.71 0.96, 4.12 0.79 C4.53 0.62, 4.97 0.47, 5.42 0.36 C5.87 0.24, 6.34 0.15, 6.81 0.09 C7.28 0.03, 7.76 0, 8.24 0 C8.72 0, 9.2 0.03, 9.67 0.09 C10.14 0.15, 10.61 0.24, 11.06 0.36 C11.51 0.47, 11.95 0.62, 12.36 0.79 C12.78 0.96, 13.17 1.16, 13.54 1.38 C13.9 1.6, 14.25 1.84, 14.56 2.1 C14.86 2.36, 15.14 2.65, 15.38 2.94 C15.62 3.24, 15.82 3.55, 15.99 3.87 C16.15 4.19, 16.28 4.53, 16.36 4.86 C16.44 5.2, 16.46 5.72, 16.48 5.89 C16.5 6.06, 16.5 5.72, 16.48 5.89" stroke="none" stroke-width="0" fill="#e7f5ff"></path><path d="M16.48 5.89 C16.48 6.23, 16.44 6.57, 16.36 6.91 C16.28 7.24, 16.15 7.58, 15.99 7.9 C15.82 8.22, 15.62 8.54, 15.38 8.83 C15.14 9.13, 14.86 9.41, 14.56 9.67 C14.25 9.93, 13.9 10.18, 13.54 10.4 C13.17 10.62, 12.78 10.81, 12.36 10.99 C11.95 11.16, 11.51 11.3, 11.06 11.42 C10.61 11.54, 10.14 11.63, 9.67 11.68 C9.2 11.74, 8.72 11.77, 8.24 11.77 C7.76 11.77, 7.28 11.74, 6.81 11.68 C6.34 11.63, 5.87 11.54, 5.42 11.42 C4.97 11.3, 4.53 11.16, 4.12 10.99 C3.71 10.81, 3.31 10.62, 2.94 10.4 C2.58 10.18, 2.23 9.93, 1.93 9.67 C1.62 9.41, 1.34 9.13, 1.1 8.83 C0.87 8.54, 0.66 8.22, 0.5 7.9 C0.33 7.58, 0.21 7.24, 0.13 6.91 C0.04 6.57, 0 6.23, 0 5.89 C0 5.55, 0.04 5.2, 0.13 4.86 C0.21 4.53, 0.33 4.19, 0.5 3.87 C0.66 3.55, 0.87 3.24, 1.1 2.94 C1.34 2.65, 1.62 2.36, 1.93 2.1 C2.23 1.84, 2.58 1.6, 2.94 1.38 C3.31 1.16, 3.71 0.96, 4.12 0.79 C4.53 0.62, 4.97 0.47, 5.42 0.36 C5.87 0.24, 6.34 0.15, 6.81 0.09 C7.28 0.03, 7.76 0, 8.24 0 C8.72 0, 9.2 0.03, 9.67 0.09 C10.14 0.15, 10.61 0.24, 11.06 0.36 C11.51 0.47, 11.95 0.62, 12.36 0.79 C12.78 0.96, 13.17 1.16, 13.54 1.38 C13.9 1.6, 14.25 1.84, 14.56 2.1 C14.86 2.36, 15.14 2.65, 15.38 2.94 C15.62 3.24, 15.82 3.55, 15.99 3.87 C16.15 4.19, 16.28 4.53, 16.36 4.86 C16.44 5.2, 16.46 5.72, 16.48 5.89 C16.5 6.06, 16.5 5.72, 16.48 5.89" stroke="transparent" stroke-width="4" fill="none"></path></g><g stroke-linecap="round" transform="translate(161.26392425041286 74.65850181972382) rotate(0 12.565831417171012 5.720039482876018)"><path d="M25.13 5.72 C25.13 6.05, 25.07 6.39, 24.94 6.71 C24.81 7.04, 24.62 7.37, 24.37 7.68 C24.13 7.99, 23.81 8.29, 23.45 8.58 C23.08 8.87, 22.66 9.14, 22.19 9.4 C21.72 9.65, 21.2 9.89, 20.64 10.1 C20.09 10.31, 19.48 10.51, 18.85 10.67 C18.22 10.84, 17.55 10.98, 16.86 11.1 C16.18 11.21, 15.46 11.3, 14.75 11.35 C14.03 11.41, 13.29 11.44, 12.57 11.44 C11.84 11.44, 11.1 11.41, 10.38 11.35 C9.67 11.3, 8.95 11.21, 8.27 11.1 C7.58 10.98, 6.91 10.84, 6.28 10.67 C5.65 10.51, 5.05 10.31, 4.49 10.1 C3.93 9.89, 3.41 9.65, 2.94 9.4 C2.47 9.14, 2.05 8.87, 1.68 8.58 C1.32 8.29, 1.01 7.99, 0.76 7.68 C0.51 7.37, 0.32 7.04, 0.19 6.71 C0.06 6.39, 0 6.05, 0 5.72 C0 5.39, 0.06 5.05, 0.19 4.73 C0.32 4.4, 0.51 4.07, 0.76 3.76 C1.01 3.45, 1.32 3.15, 1.68 2.86 C2.05 2.57, 2.47 2.3, 2.94 2.04 C3.41 1.79, 3.93 1.55, 4.49 1.34 C5.05 1.13, 5.65 0.93, 6.28 0.77 C6.91 0.6, 7.58 0.46, 8.27 0.34 C8.95 0.23, 9.67 0.14, 10.38 0.09 C11.1 0.03, 11.84 0, 12.57 0 C13.29 0, 14.03 0.03, 14.75 0.09 C15.46 0.14, 16.18 0.23, 16.86 0.34 C17.55 0.46, 18.22 0.6, 18.85 0.77 C19.48 0.93, 20.09 1.13, 20.64 1.34 C21.2 1.55, 21.72 1.79, 22.19 2.04 C22.66 2.3, 23.08 2.57, 23.45 2.86 C23.81 3.15, 24.13 3.45, 24.37 3.76 C24.62 4.07, 24.81 4.4, 24.94 4.73 C25.07 5.05, 25.1 5.55, 25.13 5.72 C25.16 5.89, 25.16 5.55, 25.13 5.72" stroke="none" stroke-width="0" fill="#40c057"></path><path d="M25.13 5.72 C25.13 6.05, 25.07 6.39, 24.94 6.71 C24.81 7.04, 24.62 7.37, 24.37 7.68 C24.13 7.99, 23.81 8.29, 23.45 8.58 C23.08 8.87, 22.66 9.14, 22.19 9.4 C21.72 9.65, 21.2 9.89, 20.64 10.1 C20.09 10.31, 19.48 10.51, 18.85 10.67 C18.22 10.84, 17.55 10.98, 16.86 11.1 C16.18 11.21, 15.46 11.3, 14.75 11.35 C14.03 11.41, 13.29 11.44, 12.57 11.44 C11.84 11.44, 11.1 11.41, 10.38 11.35 C9.67 11.3, 8.95 11.21, 8.27 11.1 C7.58 10.98, 6.91 10.84, 6.28 10.67 C5.65 10.51, 5.05 10.31, 4.49 10.1 C3.93 9.89, 3.41 9.65, 2.94 9.4 C2.47 9.14, 2.05 8.87, 1.68 8.58 C1.32 8.29, 1.01 7.99, 0.76 7.68 C0.51 7.37, 0.32 7.04, 0.19 6.71 C0.06 6.39, 0 6.05, 0 5.72 C0 5.39, 0.06 5.05, 0.19 4.73 C0.32 4.4, 0.51 4.07, 0.76 3.76 C1.01 3.45, 1.32 3.15, 1.68 2.86 C2.05 2.57, 2.47 2.3, 2.94 2.04 C3.41 1.79, 3.93 1.55, 4.49 1.34 C5.05 1.13, 5.65 0.93, 6.28 0.77 C6.91 0.6, 7.58 0.46, 8.27 0.34 C8.95 0.23, 9.67 0.14, 10.38 0.09 C11.1 0.03, 11.84 0, 12.57 0 C13.29 0, 14.03 0.03, 14.75 0.09 C15.46 0.14, 16.18 0.23, 16.86 0.34 C17.55 0.46, 18.22 0.6, 18.85 0.77 C19.48 0.93, 20.09 1.13, 20.64 1.34 C21.2 1.55, 21.72 1.79, 22.19 2.04 C22.66 2.3, 23.08 2.57, 23.45 2.86 C23.81 3.15, 24.13 3.45, 24.37 3.76 C24.62 4.07, 24.81 4.4, 24.94 4.73 C25.07 5.05, 25.1 5.55, 25.13 5.72 C25.16 5.89, 25.16 5.55, 25.13 5.72" stroke="transparent" stroke-width="2" fill="none"></path></g><g stroke-linecap="round" transform="translate(173.36692195751039 55.51203843430085) rotate(0 4.431055045743051 11.5475979979974)"><path d="M2.22 0 C3.18 0, 4.14 0, 6.65 0 C8.12 0, 8.86 0.74, 8.86 2.22 C8.86 9.5, 8.86 16.79, 8.86 20.88 C8.86 22.36, 8.12 23.1, 6.65 23.1 C5.55 23.1, 4.45 23.1, 2.22 23.1 C0.74 23.1, 0 22.36, 0 20.88 C0 13.94, 0 7.01, 0 2.22 C0 0.74, 0.74 0, 2.22 0" stroke="none" stroke-width="0" fill="#868e96"></path><path d="M2.22 0 C3.81 0, 5.41 0, 6.65 0 M2.22 0 C3.28 0, 4.34 0, 6.65 0 M6.65 0 C8.12 0, 8.86 0.74, 8.86 2.22 M6.65 0 C8.12 0, 8.86 0.74, 8.86 2.22 M8.86 2.22 C8.86 6.43, 8.86 10.64, 8.86 20.88 M8.86 2.22 C8.86 7.21, 8.86 12.21, 8.86 20.88 M8.86 20.88 C8.86 22.36, 8.12 23.1, 6.65 23.1 M8.86 20.88 C8.86 22.36, 8.12 23.1, 6.65 23.1 M6.65 23.1 C5.68 23.1, 4.71 23.1, 2.22 23.1 M6.65 23.1 C5.16 23.1, 3.68 23.1, 2.22 23.1 M2.22 23.1 C0.74 23.1, 0 22.36, 0 20.88 M2.22 23.1 C0.74 23.1, 0 22.36, 0 20.88 M0 20.88 C0 14.64, 0 8.4, 0 2.22 M0 20.88 C0 15, 0 9.13, 0 2.22 M0 2.22 C0 0.74, 0.74 0, 2.22 0 M0 2.22 C0 0.74, 0.74 0, 2.22 0" stroke="#ced4da" stroke-width="2" fill="none"></path></g><g stroke-linecap="round" transform="translate(166.45539785704295 58.56335898050929) rotate(0 4.431055045743051 11.97897895560709)"><path d="M2.22 0 C3.76 0, 5.3 0, 6.65 0 C8.12 0, 8.86 0.74, 8.86 2.22 C8.86 6.98, 8.86 11.74, 8.86 21.74 C8.86 23.22, 8.12 23.96, 6.65 23.96 C5.02 23.96, 3.38 23.96, 2.22 23.96 C0.74 23.96, 0 23.22, 0 21.74 C0 16.81, 0 11.89, 0 2.22 C0 0.74, 0.74 0, 2.22 0" stroke="none" stroke-width="0" fill="#868e96"></path><path d="M2.22 0 C3.57 0, 4.93 0, 6.65 0 M2.22 0 C3.71 0, 5.2 0, 6.65 0 M6.65 0 C8.12 0, 8.86 0.74, 8.86 2.22 M6.65 0 C8.12 0, 8.86 0.74, 8.86 2.22 M8.86 2.22 C8.86 6.45, 8.86 10.69, 8.86 21.74 M8.86 2.22 C8.86 6.76, 8.86 11.31, 8.86 21.74 M8.86 21.74 C8.86 23.22, 8.12 23.96, 6.65 23.96 M8.86 21.74 C8.86 23.22, 8.12 23.96, 6.65 23.96 M6.65 23.96 C5.66 23.96, 4.67 23.96, 2.22 23.96 M6.65 23.96 C5.71 23.96, 4.78 23.96, 2.22 23.96 M2.22 23.96 C0.74 23.96, 0 23.22, 0 21.74 M2.22 23.96 C0.74 23.96, 0 23.22, 0 21.74 M0 21.74 C0 17.81, 0 13.87, 0 2.22 M0 21.74 C0 14.06, 0 6.38, 0 2.22 M0 2.22 C0 0.74, 0.74 0, 2.22 0 M0 2.22 C0 0.74, 0.74 0, 2.22 0" stroke="#ced4da" stroke-width="2" fill="none"></path></g><g stroke-linecap="round"><g transform="translate(176.80307175455982 52.19559346008646) rotate(90 -2.4954765470970415 5.31296055200437)" fill-rule="evenodd"><path d="M0 0 L-4.99 -2.58 L-4.99 10.64 L-0.03 13.2 L0 0" stroke="none" stroke-width="0" fill="#868e96" fill-rule="evenodd"></path><path d="M0 0 C-1.34 -0.69, -2.68 -1.38, -4.99 -2.58 M0 0 C-1.85 -0.95, -3.69 -1.91, -4.99 -2.58 M-4.99 -2.58 C-4.99 2.26, -4.99 7.09, -4.99 10.64 M-4.99 -2.58 C-4.99 0.38, -4.99 3.34, -4.99 10.64 M-4.99 10.64 C-3.4 11.46, -1.81 12.28, -0.03 13.2 M-4.99 10.64 C-3.95 11.18, -2.9 11.72, -0.03 13.2 M-0.03 13.2 C-0.02 10.25, -0.02 7.3, 0 0 M-0.03 13.2 C-0.02 10.43, -0.02 7.65, 0 0 M0 0 C0 0, 0 0, 0 0 M0 0 C0 0, 0 0, 0 0" stroke="#ced4da" stroke-width="2" fill="none"></path></g></g><mask></mask><g stroke-linecap="round"><g transform="translate(175.27240657989296 59.918687144612704) rotate(0 3.5852810715832675 8.829909322599633)" fill-rule="evenodd"><path d="M0 0 L7.17 -4.28 L7.17 17.69 L0.04 21.94 L0 0" stroke="none" stroke-width="0" fill="#868e96" fill-rule="evenodd"></path><path d="M0 0 C1.89 -1.13, 3.78 -2.26, 7.17 -4.28 M0 0 C2.29 -1.37, 4.59 -2.74, 7.17 -4.28 M7.17 -4.28 C7.17 3.73, 7.17 11.73, 7.17 17.69 M7.17 -4.28 C7.17 1.56, 7.17 7.39, 7.17 17.69 M7.17 17.69 C4.56 19.25, 1.95 20.8, 0.04 21.94 M7.17 17.69 C5.34 18.78, 3.52 19.87, 0.04 21.94 M0.04 21.94 C0.03 15.52, 0.02 9.11, 0 0 M0.04 21.94 C0.03 16.09, 0.02 10.24, 0 0 M0 0 C0 0, 0 0, 0 0 M0 0 C0 0, 0 0, 0 0" stroke="#ced4da" stroke-width="2" fill="none"></path></g></g><mask></mask><g stroke-linecap="round" transform="translate(47.19765841845401 74.65850181972382) rotate(0 12.565831417171012 5.720039482876018)"><path d="M25.13 5.72 C25.13 6.05, 25.07 6.39, 24.94 6.71 C24.81 7.04, 24.62 7.37, 24.37 7.68 C24.13 7.99, 23.81 8.29, 23.45 8.58 C23.08 8.87, 22.66 9.14, 22.19 9.4 C21.72 9.65, 21.2 9.89, 20.64 10.1 C20.09 10.31, 19.48 10.51, 18.85 10.67 C18.22 10.84, 17.55 10.98, 16.86 11.1 C16.18 11.21, 15.46 11.3, 14.75 11.35 C14.03 11.41, 13.29 11.44, 12.57 11.44 C11.84 11.44, 11.1 11.41, 10.38 11.35 C9.67 11.3, 8.95 11.21, 8.27 11.1 C7.58 10.98, 6.91 10.84, 6.28 10.67 C5.65 10.51, 5.05 10.31, 4.49 10.1 C3.93 9.89, 3.41 9.65, 2.94 9.4 C2.47 9.14, 2.05 8.87, 1.68 8.58 C1.32 8.29, 1.01 7.99, 0.76 7.68 C0.51 7.37, 0.32 7.04, 0.19 6.71 C0.06 6.39, 0 6.05, 0 5.72 C0 5.39, 0.06 5.05, 0.19 4.73 C0.32 4.4, 0.51 4.07, 0.76 3.76 C1.01 3.45, 1.32 3.15, 1.68 2.86 C2.05 2.57, 2.47 2.3, 2.94 2.04 C3.41 1.79, 3.93 1.55, 4.49 1.34 C5.05 1.13, 5.65 0.93, 6.28 0.77 C6.91 0.6, 7.58 0.46, 8.27 0.34 C8.95 0.23, 9.67 0.14, 10.38 0.09 C11.1 0.03, 11.84 0, 12.57 0 C13.29 0, 14.03 0.03, 14.75 0.09 C15.46 0.14, 16.18 0.23, 16.86 0.34 C17.55 0.46, 18.22 0.6, 18.85 0.77 C19.48 0.93, 20.09 1.13, 20.64 1.34 C21.2 1.55, 21.72 1.79, 22.19 2.04 C22.66 2.3, 23.08 2.57, 23.45 2.86 C23.81 3.15, 24.13 3.45, 24.37 3.76 C24.62 4.07, 24.81 4.4, 24.94 4.73 C25.07 5.05, 25.1 5.55, 25.13 5.72 C25.16 5.89, 25.16 5.55, 25.13 5.72" stroke="none" stroke-width="0" fill="#40c057"></path><path d="M25.13 5.72 C25.13 6.05, 25.07 6.39, 24.94 6.71 C24.81 7.04, 24.62 7.37, 24.37 7.68 C24.13 7.99, 23.81 8.29, 23.45 8.58 C23.08 8.87, 22.66 9.14, 22.19 9.4 C21.72 9.65, 21.2 9.89, 20.64 10.1 C20.09 10.31, 19.48 10.51, 18.85 10.67 C18.22 10.84, 17.55 10.98, 16.86 11.1 C16.18 11.21, 15.46 11.3, 14.75 11.35 C14.03 11.41, 13.29 11.44, 12.57 11.44 C11.84 11.44, 11.1 11.41, 10.38 11.35 C9.67 11.3, 8.95 11.21, 8.27 11.1 C7.58 10.98, 6.91 10.84, 6.28 10.67 C5.65 10.51, 5.05 10.31, 4.49 10.1 C3.93 9.89, 3.41 9.65, 2.94 9.4 C2.47 9.14, 2.05 8.87, 1.68 8.58 C1.32 8.29, 1.01 7.99, 0.76 7.68 C0.51 7.37, 0.32 7.04, 0.19 6.71 C0.06 6.39, 0 6.05, 0 5.72 C0 5.39, 0.06 5.05, 0.19 4.73 C0.32 4.4, 0.51 4.07, 0.76 3.76 C1.01 3.45, 1.32 3.15, 1.68 2.86 C2.05 2.57, 2.47 2.3, 2.94 2.04 C3.41 1.79, 3.93 1.55, 4.49 1.34 C5.05 1.13, 5.65 0.93, 6.28 0.77 C6.91 0.6, 7.58 0.46, 8.27 0.34 C8.95 0.23, 9.67 0.14, 10.38 0.09 C11.1 0.03, 11.84 0, 12.57 0 C13.29 0, 14.03 0.03, 14.75 0.09 C15.46 0.14, 16.18 0.23, 16.86 0.34 C17.55 0.46, 18.22 0.6, 18.85 0.77 C19.48 0.93, 20.09 1.13, 20.64 1.34 C21.2 1.55, 21.72 1.79, 22.19 2.04 C22.66 2.3, 23.08 2.57, 23.45 2.86 C23.81 3.15, 24.13 3.45, 24.37 3.76 C24.62 4.07, 24.81 4.4, 24.94 4.73 C25.07 5.05, 25.1 5.55, 25.13 5.72 C25.16 5.89, 25.16 5.55, 25.13 5.72" stroke="transparent" stroke-width="2" fill="none"></path></g><g stroke-linecap="round" transform="translate(59.30065612555063 55.51203843430085) rotate(0 4.431055045743278 11.5475979979974)"><path d="M2.22 0 C3.44 0, 4.66 0, 6.65 0 C8.12 0, 8.86 0.74, 8.86 2.22 C8.86 9.03, 8.86 15.85, 8.86 20.88 C8.86 22.36, 8.12 23.1, 6.65 23.1 C5.41 23.1, 4.18 23.1, 2.22 23.1 C0.74 23.1, 0 22.36, 0 20.88 C0 16.17, 0 11.46, 0 2.22 C0 0.74, 0.74 0, 2.22 0" stroke="none" stroke-width="0" fill="#868e96"></path><path d="M2.22 0 C3.59 0, 4.97 0, 6.65 0 M2.22 0 C3.69 0, 5.16 0, 6.65 0 M6.65 0 C8.12 0, 8.86 0.74, 8.86 2.22 M6.65 0 C8.12 0, 8.86 0.74, 8.86 2.22 M8.86 2.22 C8.86 6.23, 8.86 10.25, 8.86 20.88 M8.86 2.22 C8.86 6.92, 8.86 11.63, 8.86 20.88 M8.86 20.88 C8.86 22.36, 8.12 23.1, 6.65 23.1 M8.86 20.88 C8.86 22.36, 8.12 23.1, 6.65 23.1 M6.65 23.1 C5.43 23.1, 4.2 23.1, 2.22 23.1 M6.65 23.1 C5.31 23.1, 3.98 23.1, 2.22 23.1 M2.22 23.1 C0.74 23.1, 0 22.36, 0 20.88 M2.22 23.1 C0.74 23.1, 0 22.36, 0 20.88 M0 20.88 C0 15, 0 9.13, 0 2.22 M0 20.88 C0 16.21, 0 11.54, 0 2.22 M0 2.22 C0 0.74, 0.74 0, 2.22 0 M0 2.22 C0 0.74, 0.74 0, 2.22 0" stroke="#ced4da" stroke-width="2" fill="none"></path></g><g stroke-linecap="round" transform="translate(52.38913202508502 58.56335898050929) rotate(0 4.431055045743278 11.97897895560709)"><path d="M2.22 0 C3.52 0, 4.82 0, 6.65 0 C8.12 0, 8.86 0.74, 8.86 2.22 C8.86 8.83, 8.86 15.45, 8.86 21.74 C8.86 23.22, 8.12 23.96, 6.65 23.96 C5.19 23.96, 3.73 23.96, 2.22 23.96 C0.74 23.96, 0 23.22, 0 21.74 C0 16.34, 0 10.93, 0 2.22 C0 0.74, 0.74 0, 2.22 0" stroke="none" stroke-width="0" fill="#868e96"></path><path d="M2.22 0 C3.17 0, 4.12 0, 6.65 0 M2.22 0 C3.87 0, 5.53 0, 6.65 0 M6.65 0 C8.12 0, 8.86 0.74, 8.86 2.22 M6.65 0 C8.12 0, 8.86 0.74, 8.86 2.22 M8.86 2.22 C8.86 6.55, 8.86 10.89, 8.86 21.74 M8.86 2.22 C8.86 7.55, 8.86 12.88, 8.86 21.74 M8.86 21.74 C8.86 23.22, 8.12 23.96, 6.65 23.96 M8.86 21.74 C8.86 23.22, 8.12 23.96, 6.65 23.96 M6.65 23.96 C5.38 23.96, 4.11 23.96, 2.22 23.96 M6.65 23.96 C5.51 23.96, 4.37 23.96, 2.22 23.96 M2.22 23.96 C0.74 23.96, 0 23.22, 0 21.74 M2.22 23.96 C0.74 23.96, 0 23.22, 0 21.74 M0 21.74 C0 16.68, 0 11.62, 0 2.22 M0 21.74 C0 17.52, 0 13.31, 0 2.22 M0 2.22 C0 0.74, 0.74 0, 2.22 0 M0 2.22 C0 0.74, 0.74 0, 2.22 0" stroke="#ced4da" stroke-width="2" fill="none"></path></g><g stroke-linecap="round"><g transform="translate(62.73680592260098 52.19559346008646) rotate(90 -2.495476547097269 5.31296055200437)" fill-rule="evenodd"><path d="M0 0 L-4.99 -2.58 L-4.99 10.64 L-0.03 13.2 L0 0" stroke="none" stroke-width="0" fill="#868e96" fill-rule="evenodd"></path><path d="M0 0 C-1.73 -0.89, -3.45 -1.78, -4.99 -2.58 M0 0 C-1.29 -0.67, -2.59 -1.34, -4.99 -2.58 M-4.99 -2.58 C-4.99 0.48, -4.99 3.53, -4.99 10.64 M-4.99 -2.58 C-4.99 0.59, -4.99 3.76, -4.99 10.64 M-4.99 10.64 C-3.37 11.48, -1.75 12.31, -0.03 13.2 M-4.99 10.64 C-3.4 11.46, -1.82 12.28, -0.03 13.2 M-0.03 13.2 C-0.02 9.79, -0.02 6.38, 0 0 M-0.03 13.2 C-0.02 9.61, -0.01 6.03, 0 0 M0 0 C0 0, 0 0, 0 0 M0 0 C0 0, 0 0, 0 0" stroke="#ced4da" stroke-width="2" fill="none"></path></g></g><mask></mask><g stroke-linecap="round"><g transform="translate(61.206140747935024 59.918687144612704) rotate(0 3.585281071583495 8.829909322599633)" fill-rule="evenodd"><path d="M0 0 L7.17 -4.28 L7.17 17.69 L0.04 21.94 L0 0" stroke="none" stroke-width="0" fill="#868e96" fill-rule="evenodd"></path><path d="M0 0 C2.36 -1.41, 4.71 -2.81, 7.17 -4.28 M0 0 C1.98 -1.18, 3.95 -2.36, 7.17 -4.28 M7.17 -4.28 C7.17 2.21, 7.17 8.7, 7.17 17.69 M7.17 -4.28 C7.17 2.24, 7.17 8.75, 7.17 17.69 M7.17 17.69 C4.58 19.24, 1.98 20.79, 0.04 21.94 M7.17 17.69 C4.98 18.99, 2.8 20.3, 0.04 21.94 M0.04 21.94 C0.03 14.58, 0.01 7.22, 0 0 M0.04 21.94 C0.03 16.61, 0.02 11.27, 0 0 M0 0 C0 0, 0 0, 0 0 M0 0 C0 0, 0 0, 0 0" stroke="#ced4da" stroke-width="2" fill="none"></path></g></g><mask></mask></svg>