<svg version="1.1" xmlns="http://www.w3.org/2000/svg" viewBox="0 0 80.01409957387841 77.49548026600132" width="160.02819914775682" height="154.99096053200265">
  <!-- svg-source:excalidraw -->
  
  <defs>
    <style class="style-fonts">
      
    </style>
    
  </defs>
  <g stroke-linecap="round" transform="translate(9.999999999999545 10.000000000001819) rotate(0 22.786157117558787 22.786157117559014)"><path d="M45.57 22.79 C45.57 24.11, 45.46 25.44, 45.23 26.74 C45 28.04, 44.65 29.34, 44.2 30.58 C43.75 31.82, 43.18 33.04, 42.52 34.18 C41.86 35.32, 41.09 36.42, 40.24 37.43 C39.39 38.44, 38.44 39.39, 37.43 40.24 C36.42 41.09, 35.32 41.86, 34.18 42.52 C33.04 43.18, 31.82 43.75, 30.58 44.2 C29.34 44.65, 28.04 45, 26.74 45.23 C25.44 45.46, 24.11 45.57, 22.79 45.57 C21.47 45.57, 20.13 45.46, 18.83 45.23 C17.53 45, 16.23 44.65, 14.99 44.2 C13.75 43.75, 12.54 43.18, 11.39 42.52 C10.25 41.86, 9.15 41.09, 8.14 40.24 C7.13 39.39, 6.18 38.44, 5.33 37.43 C4.48 36.42, 3.71 35.32, 3.05 34.18 C2.39 33.04, 1.83 31.82, 1.37 30.58 C0.92 29.34, 0.58 28.04, 0.35 26.74 C0.12 25.44, 0 24.11, 0 22.79 C0 21.47, 0.12 20.13, 0.35 18.83 C0.58 17.53, 0.92 16.23, 1.37 14.99 C1.83 13.75, 2.39 12.54, 3.05 11.39 C3.71 10.25, 4.48 9.15, 5.33 8.14 C6.18 7.13, 7.13 6.18, 8.14 5.33 C9.15 4.48, 10.25 3.71, 11.39 3.05 C12.54 2.39, 13.75 1.83, 14.99 1.37 C16.23 0.92, 17.53 0.58, 18.83 0.35 C20.13 0.12, 21.47 0, 22.79 0 C24.11 0, 25.44 0.12, 26.74 0.35 C28.04 0.58, 29.34 0.92, 30.58 1.37 C31.82 1.83, 33.04 2.39, 34.18 3.05 C35.32 3.71, 36.42 4.48, 37.43 5.33 C38.44 6.18, 39.39 7.13, 40.24 8.14 C41.09 9.15, 41.86 10.25, 42.52 11.39 C43.18 12.54, 43.75 13.75, 44.2 14.99 C44.65 16.23, 45 17.53, 45.23 18.83 C45.46 20.13, 45.51 22.13, 45.57 22.79 C45.63 23.45, 45.63 22.13, 45.57 22.79" stroke="none" stroke-width="0" fill="#ffffff"></path><path d="M45.57 22.79 C45.57 24.11, 45.46 25.44, 45.23 26.74 C45 28.04, 44.65 29.34, 44.2 30.58 C43.75 31.82, 43.18 33.04, 42.52 34.18 C41.86 35.32, 41.09 36.42, 40.24 37.43 C39.39 38.44, 38.44 39.39, 37.43 40.24 C36.42 41.09, 35.32 41.86, 34.18 42.52 C33.04 43.18, 31.82 43.75, 30.58 44.2 C29.34 44.65, 28.04 45, 26.74 45.23 C25.44 45.46, 24.11 45.57, 22.79 45.57 C21.47 45.57, 20.13 45.46, 18.83 45.23 C17.53 45, 16.23 44.65, 14.99 44.2 C13.75 43.75, 12.54 43.18, 11.39 42.52 C10.25 41.86, 9.15 41.09, 8.14 40.24 C7.13 39.39, 6.18 38.44, 5.33 37.43 C4.48 36.42, 3.71 35.32, 3.05 34.18 C2.39 33.04, 1.83 31.82, 1.37 30.58 C0.92 29.34, 0.58 28.04, 0.35 26.74 C0.12 25.44, 0 24.11, 0 22.79 C0 21.47, 0.12 20.13, 0.35 18.83 C0.58 17.53, 0.92 16.23, 1.37 14.99 C1.83 13.75, 2.39 12.54, 3.05 11.39 C3.71 10.25, 4.48 9.15, 5.33 8.14 C6.18 7.13, 7.13 6.18, 8.14 5.33 C9.15 4.48, 10.25 3.71, 11.39 3.05 C12.54 2.39, 13.75 1.83, 14.99 1.37 C16.23 0.92, 17.53 0.58, 18.83 0.35 C20.13 0.12, 21.47 0, 22.79 0 C24.11 0, 25.44 0.12, 26.74 0.35 C28.04 0.58, 29.34 0.92, 30.58 1.37 C31.82 1.83, 33.04 2.39, 34.18 3.05 C35.32 3.71, 36.42 4.48, 37.43 5.33 C38.44 6.18, 39.39 7.13, 40.24 8.14 C41.09 9.15, 41.86 10.25, 42.52 11.39 C43.18 12.54, 43.75 13.75, 44.2 14.99 C44.65 16.23, 45 17.53, 45.23 18.83 C45.46 20.13, 45.51 22.13, 45.57 22.79 C45.63 23.45, 45.63 22.13, 45.57 22.79" stroke="transparent" stroke-width="4" fill="none"></path></g><g stroke-linecap="round" transform="translate(11.943811828904472 11.943812129218713) rotate(0 20.84234510187389 20.842345101874344)"><path d="M41.68 20.84 C41.68 22.05, 41.58 23.27, 41.37 24.46 C41.16 25.65, 40.84 26.84, 40.43 27.97 C40.02 29.1, 39.5 30.22, 38.89 31.26 C38.29 32.31, 37.58 33.32, 36.81 34.24 C36.03 35.16, 35.16 36.03, 34.24 36.81 C33.32 37.58, 32.31 38.29, 31.26 38.89 C30.22 39.5, 29.1 40.02, 27.97 40.43 C26.84 40.84, 25.65 41.16, 24.46 41.37 C23.27 41.58, 22.05 41.68, 20.84 41.68 C19.64 41.68, 18.41 41.58, 17.22 41.37 C16.04 41.16, 14.85 40.84, 13.71 40.43 C12.58 40.02, 11.47 39.5, 10.42 38.89 C9.38 38.29, 8.37 37.58, 7.45 36.81 C6.52 36.03, 5.65 35.16, 4.88 34.24 C4.1 33.32, 3.4 32.31, 2.79 31.26 C2.19 30.22, 1.67 29.1, 1.26 27.97 C0.84 26.84, 0.53 25.65, 0.32 24.46 C0.11 23.27, 0 22.05, 0 20.84 C0 19.64, 0.11 18.41, 0.32 17.22 C0.53 16.04, 0.84 14.85, 1.26 13.71 C1.67 12.58, 2.19 11.47, 2.79 10.42 C3.4 9.38, 4.1 8.37, 4.88 7.45 C5.65 6.52, 6.52 5.65, 7.45 4.88 C8.37 4.1, 9.38 3.4, 10.42 2.79 C11.47 2.19, 12.58 1.67, 13.71 1.26 C14.85 0.84, 16.04 0.53, 17.22 0.32 C18.41 0.11, 19.64 0, 20.84 0 C22.05 0, 23.27 0.11, 24.46 0.32 C25.65 0.53, 26.84 0.84, 27.97 1.26 C29.1 1.67, 30.22 2.19, 31.26 2.79 C32.31 3.4, 33.32 4.1, 34.24 4.88 C35.16 5.65, 36.03 6.52, 36.81 7.45 C37.58 8.37, 38.29 9.38, 38.89 10.42 C39.5 11.47, 40.02 12.58, 40.43 13.71 C40.84 14.85, 41.16 16.04, 41.37 17.22 C41.58 18.41, 41.63 20.24, 41.68 20.84 C41.74 21.45, 41.74 20.24, 41.68 20.84" stroke="none" stroke-width="0" fill="#343a40"></path><path d="M41.68 20.84 C41.68 22.05, 41.58 23.27, 41.37 24.46 C41.16 25.65, 40.84 26.84, 40.43 27.97 C40.02 29.1, 39.5 30.22, 38.89 31.26 C38.29 32.31, 37.58 33.32, 36.81 34.24 C36.03 35.16, 35.16 36.03, 34.24 36.81 C33.32 37.58, 32.31 38.29, 31.26 38.89 C30.22 39.5, 29.1 40.02, 27.97 40.43 C26.84 40.84, 25.65 41.16, 24.46 41.37 C23.27 41.58, 22.05 41.68, 20.84 41.68 C19.64 41.68, 18.41 41.58, 17.22 41.37 C16.04 41.16, 14.85 40.84, 13.71 40.43 C12.58 40.02, 11.47 39.5, 10.42 38.89 C9.38 38.29, 8.37 37.58, 7.45 36.81 C6.52 36.03, 5.65 35.16, 4.88 34.24 C4.1 33.32, 3.4 32.31, 2.79 31.26 C2.19 30.22, 1.67 29.1, 1.26 27.97 C0.84 26.84, 0.53 25.65, 0.32 24.46 C0.11 23.27, 0 22.05, 0 20.84 C0 19.64, 0.11 18.41, 0.32 17.22 C0.53 16.04, 0.84 14.85, 1.26 13.71 C1.67 12.58, 2.19 11.47, 2.79 10.42 C3.4 9.38, 4.1 8.37, 4.88 7.45 C5.65 6.52, 6.52 5.65, 7.45 4.88 C8.37 4.1, 9.38 3.4, 10.42 2.79 C11.47 2.19, 12.58 1.67, 13.71 1.26 C14.85 0.84, 16.04 0.53, 17.22 0.32 C18.41 0.11, 19.64 0, 20.84 0 C22.05 0, 23.27 0.11, 24.46 0.32 C25.65 0.53, 26.84 0.84, 27.97 1.26 C29.1 1.67, 30.22 2.19, 31.26 2.79 C32.31 3.4, 33.32 4.1, 34.24 4.88 C35.16 5.65, 36.03 6.52, 36.81 7.45 C37.58 8.37, 38.29 9.38, 38.89 10.42 C39.5 11.47, 40.02 12.58, 40.43 13.71 C40.84 14.85, 41.16 16.04, 41.37 17.22 C41.58 18.41, 41.63 20.24, 41.68 20.84 C41.74 21.45, 41.74 20.24, 41.68 20.84" stroke="transparent" stroke-width="4" fill="none"></path></g><g stroke-linecap="round" transform="translate(14.787344916871916 14.787345217184338) rotate(0 17.998812013906672 17.9988120139069)"><path d="M36 18 C36 19.04, 35.91 20.1, 35.72 21.12 C35.54 22.15, 35.27 23.18, 34.91 24.15 C34.56 25.13, 34.11 26.1, 33.59 27 C33.07 27.9, 32.46 28.77, 31.79 29.57 C31.12 30.37, 30.37 31.12, 29.57 31.79 C28.77 32.46, 27.9 33.07, 27 33.59 C26.1 34.11, 25.13 34.56, 24.15 34.91 C23.18 35.27, 22.15 35.54, 21.12 35.72 C20.1 35.91, 19.04 36, 18 36 C16.96 36, 15.9 35.91, 14.87 35.72 C13.85 35.54, 12.82 35.27, 11.84 34.91 C10.86 34.56, 9.9 34.11, 9 33.59 C8.1 33.07, 7.23 32.46, 6.43 31.79 C5.63 31.12, 4.88 30.37, 4.21 29.57 C3.54 28.77, 2.93 27.9, 2.41 27 C1.89 26.1, 1.44 25.13, 1.09 24.15 C0.73 23.18, 0.45 22.15, 0.27 21.12 C0.09 20.1, 0 19.04, 0 18 C0 16.96, 0.09 15.9, 0.27 14.87 C0.45 13.85, 0.73 12.82, 1.09 11.84 C1.44 10.86, 1.89 9.9, 2.41 9 C2.93 8.1, 3.54 7.23, 4.21 6.43 C4.88 5.63, 5.63 4.88, 6.43 4.21 C7.23 3.54, 8.1 2.93, 9 2.41 C9.9 1.89, 10.86 1.44, 11.84 1.09 C12.82 0.73, 13.85 0.45, 14.87 0.27 C15.9 0.09, 16.96 0, 18 0 C19.04 0, 20.1 0.09, 21.12 0.27 C22.15 0.45, 23.18 0.73, 24.15 1.09 C25.13 1.44, 26.1 1.89, 27 2.41 C27.9 2.93, 28.77 3.54, 29.57 4.21 C30.37 4.88, 31.12 5.63, 31.79 6.43 C32.46 7.23, 33.07 8.1, 33.59 9 C34.11 9.9, 34.56 10.86, 34.91 11.84 C35.27 12.82, 35.54 13.85, 35.72 14.87 C35.91 15.9, 35.95 17.48, 36 18 C36.04 18.52, 36.04 17.48, 36 18" stroke="none" stroke-width="0" fill="#ffec99"></path><path d="M36 18 C36 19.04, 35.91 20.1, 35.72 21.12 C35.54 22.15, 35.27 23.18, 34.91 24.15 C34.56 25.13, 34.11 26.1, 33.59 27 C33.07 27.9, 32.46 28.77, 31.79 29.57 C31.12 30.37, 30.37 31.12, 29.57 31.79 C28.77 32.46, 27.9 33.07, 27 33.59 C26.1 34.11, 25.13 34.56, 24.15 34.91 C23.18 35.27, 22.15 35.54, 21.12 35.72 C20.1 35.91, 19.04 36, 18 36 C16.96 36, 15.9 35.91, 14.87 35.72 C13.85 35.54, 12.82 35.27, 11.84 34.91 C10.86 34.56, 9.9 34.11, 9 33.59 C8.1 33.07, 7.23 32.46, 6.43 31.79 C5.63 31.12, 4.88 30.37, 4.21 29.57 C3.54 28.77, 2.93 27.9, 2.41 27 C1.89 26.1, 1.44 25.13, 1.09 24.15 C0.73 23.18, 0.45 22.15, 0.27 21.12 C0.09 20.1, 0 19.04, 0 18 C0 16.96, 0.09 15.9, 0.27 14.87 C0.45 13.85, 0.73 12.82, 1.09 11.84 C1.44 10.86, 1.89 9.9, 2.41 9 C2.93 8.1, 3.54 7.23, 4.21 6.43 C4.88 5.63, 5.63 4.88, 6.43 4.21 C7.23 3.54, 8.1 2.93, 9 2.41 C9.9 1.89, 10.86 1.44, 11.84 1.09 C12.82 0.73, 13.85 0.45, 14.87 0.27 C15.9 0.09, 16.96 0, 18 0 C19.04 0, 20.1 0.09, 21.12 0.27 C22.15 0.45, 23.18 0.73, 24.15 1.09 C25.13 1.44, 26.1 1.89, 27 2.41 C27.9 2.93, 28.77 3.54, 29.57 4.21 C30.37 4.88, 31.12 5.63, 31.79 6.43 C32.46 7.23, 33.07 8.1, 33.59 9 C34.11 9.9, 34.56 10.86, 34.91 11.84 C35.27 12.82, 35.54 13.85, 35.72 14.87 C35.91 15.9, 35.95 17.48, 36 18 C36.04 18.52, 36.04 17.48, 36 18" stroke="transparent" stroke-width="1" fill="none"></path></g><g stroke-linecap="round" transform="translate(24.456514987475657 12.614269778336165) rotate(187.87299598606762 4.298173409372566 4.298173409372794)"><path d="M8.6 4.3 C8.6 4.55, 8.57 4.8, 8.53 5.04 C8.49 5.29, 8.42 5.53, 8.34 5.77 C8.25 6, 8.14 6.23, 8.02 6.45 C7.9 6.66, 7.75 6.87, 7.59 7.06 C7.43 7.25, 7.25 7.43, 7.06 7.59 C6.87 7.75, 6.66 7.9, 6.45 8.02 C6.23 8.14, 6 8.25, 5.77 8.34 C5.53 8.42, 5.29 8.49, 5.04 8.53 C4.8 8.57, 4.55 8.6, 4.3 8.6 C4.05 8.6, 3.8 8.57, 3.55 8.53 C3.31 8.49, 3.06 8.42, 2.83 8.34 C2.59 8.25, 2.36 8.14, 2.15 8.02 C1.93 7.9, 1.73 7.75, 1.54 7.59 C1.34 7.43, 1.17 7.25, 1.01 7.06 C0.85 6.87, 0.7 6.66, 0.58 6.45 C0.45 6.23, 0.34 6, 0.26 5.77 C0.17 5.53, 0.11 5.29, 0.07 5.04 C0.02 4.8, 0 4.55, 0 4.3 C0 4.05, 0.02 3.8, 0.07 3.55 C0.11 3.31, 0.17 3.06, 0.26 2.83 C0.34 2.59, 0.45 2.36, 0.58 2.15 C0.7 1.93, 0.85 1.73, 1.01 1.54 C1.17 1.34, 1.34 1.17, 1.54 1.01 C1.73 0.85, 1.93 0.7, 2.15 0.58 C2.36 0.45, 2.59 0.34, 2.83 0.26 C3.06 0.17, 3.31 0.11, 3.55 0.07 C3.8 0.02, 4.05 0, 4.3 0 C4.55 0, 4.8 0.02, 5.04 0.07 C5.29 0.11, 5.53 0.17, 5.77 0.26 C6 0.34, 6.23 0.45, 6.45 0.58 C6.66 0.7, 6.87 0.85, 7.06 1.01 C7.25 1.17, 7.43 1.34, 7.59 1.54 C7.75 1.73, 7.9 1.93, 8.02 2.15 C8.14 2.36, 8.25 2.59, 8.34 2.83 C8.42 3.06, 8.49 3.31, 8.53 3.55 C8.57 3.8, 8.59 4.17, 8.6 4.3 C8.61 4.42, 8.61 4.17, 8.6 4.3" stroke="none" stroke-width="0" fill="#343a40"></path><path d="M8.6 4.3 C8.6 4.55, 8.57 4.8, 8.53 5.04 C8.49 5.29, 8.42 5.53, 8.34 5.77 C8.25 6, 8.14 6.23, 8.02 6.45 C7.9 6.66, 7.75 6.87, 7.59 7.06 C7.43 7.25, 7.25 7.43, 7.06 7.59 C6.87 7.75, 6.66 7.9, 6.45 8.02 C6.23 8.14, 6 8.25, 5.77 8.34 C5.53 8.42, 5.29 8.49, 5.04 8.53 C4.8 8.57, 4.55 8.6, 4.3 8.6 C4.05 8.6, 3.8 8.57, 3.55 8.53 C3.31 8.49, 3.06 8.42, 2.83 8.34 C2.59 8.25, 2.36 8.14, 2.15 8.02 C1.93 7.9, 1.73 7.75, 1.54 7.59 C1.34 7.43, 1.17 7.25, 1.01 7.06 C0.85 6.87, 0.7 6.66, 0.58 6.45 C0.45 6.23, 0.34 6, 0.26 5.77 C0.17 5.53, 0.11 5.29, 0.07 5.04 C0.02 4.8, 0 4.55, 0 4.3 C0 4.05, 0.02 3.8, 0.07 3.55 C0.11 3.31, 0.17 3.06, 0.26 2.83 C0.34 2.59, 0.45 2.36, 0.58 2.15 C0.7 1.93, 0.85 1.73, 1.01 1.54 C1.17 1.34, 1.34 1.17, 1.54 1.01 C1.73 0.85, 1.93 0.7, 2.15 0.58 C2.36 0.45, 2.59 0.34, 2.83 0.26 C3.06 0.17, 3.31 0.11, 3.55 0.07 C3.8 0.02, 4.05 0, 4.3 0 C4.55 0, 4.8 0.02, 5.04 0.07 C5.29 0.11, 5.53 0.17, 5.77 0.26 C6 0.34, 6.23 0.45, 6.45 0.58 C6.66 0.7, 6.87 0.85, 7.06 1.01 C7.25 1.17, 7.43 1.34, 7.59 1.54 C7.75 1.73, 7.9 1.93, 8.02 2.15 C8.14 2.36, 8.25 2.59, 8.34 2.83 C8.42 3.06, 8.49 3.31, 8.53 3.55 C8.57 3.8, 8.59 4.17, 8.6 4.3 C8.61 4.42, 8.61 4.17, 8.6 4.3" stroke="transparent" stroke-width="4" fill="none"></path></g><g stroke-linecap="round" transform="translate(28.40130138397035 13.646111257190569) rotate(187.87299598606762 4.975072891037826 4.975072891037598)"><path d="M9.95 4.98 C9.95 5.26, 9.92 5.56, 9.87 5.84 C9.82 6.12, 9.75 6.41, 9.65 6.68 C9.55 6.95, 9.43 7.21, 9.28 7.46 C9.14 7.71, 8.97 7.95, 8.79 8.17 C8.6 8.39, 8.39 8.6, 8.17 8.79 C7.95 8.97, 7.71 9.14, 7.46 9.28 C7.21 9.43, 6.95 9.55, 6.68 9.65 C6.41 9.75, 6.12 9.82, 5.84 9.87 C5.56 9.92, 5.26 9.95, 4.98 9.95 C4.69 9.95, 4.39 9.92, 4.11 9.87 C3.83 9.82, 3.54 9.75, 3.27 9.65 C3 9.55, 2.74 9.43, 2.49 9.28 C2.24 9.14, 2 8.97, 1.78 8.79 C1.56 8.6, 1.35 8.39, 1.16 8.17 C0.98 7.95, 0.81 7.71, 0.67 7.46 C0.52 7.21, 0.4 6.95, 0.3 6.68 C0.2 6.41, 0.13 6.12, 0.08 5.84 C0.03 5.56, 0 5.26, 0 4.98 C0 4.69, 0.03 4.39, 0.08 4.11 C0.13 3.83, 0.2 3.54, 0.3 3.27 C0.4 3, 0.52 2.74, 0.67 2.49 C0.81 2.24, 0.98 2, 1.16 1.78 C1.35 1.56, 1.56 1.35, 1.78 1.16 C2 0.98, 2.24 0.81, 2.49 0.67 C2.74 0.52, 3 0.4, 3.27 0.3 C3.54 0.2, 3.83 0.13, 4.11 0.08 C4.39 0.03, 4.69 0, 4.98 0 C5.26 0, 5.56 0.03, 5.84 0.08 C6.12 0.13, 6.41 0.2, 6.68 0.3 C6.95 0.4, 7.21 0.52, 7.46 0.67 C7.71 0.81, 7.95 0.98, 8.17 1.16 C8.39 1.35, 8.6 1.56, 8.79 1.78 C8.97 2, 9.14 2.24, 9.28 2.49 C9.43 2.74, 9.55 3, 9.65 3.27 C9.75 3.54, 9.82 3.83, 9.87 4.11 C9.92 4.39, 9.94 4.83, 9.95 4.98 C9.96 5.12, 9.96 4.83, 9.95 4.98" stroke="none" stroke-width="0" fill="#343a40"></path><path d="M9.95 4.98 C9.95 5.26, 9.92 5.56, 9.87 5.84 C9.82 6.12, 9.75 6.41, 9.65 6.68 C9.55 6.95, 9.43 7.21, 9.28 7.46 C9.14 7.71, 8.97 7.95, 8.79 8.17 C8.6 8.39, 8.39 8.6, 8.17 8.79 C7.95 8.97, 7.71 9.14, 7.46 9.28 C7.21 9.43, 6.95 9.55, 6.68 9.65 C6.41 9.75, 6.12 9.82, 5.84 9.87 C5.56 9.92, 5.26 9.95, 4.98 9.95 C4.69 9.95, 4.39 9.92, 4.11 9.87 C3.83 9.82, 3.54 9.75, 3.27 9.65 C3 9.55, 2.74 9.43, 2.49 9.28 C2.24 9.14, 2 8.97, 1.78 8.79 C1.56 8.6, 1.35 8.39, 1.16 8.17 C0.98 7.95, 0.81 7.71, 0.67 7.46 C0.52 7.21, 0.4 6.95, 0.3 6.68 C0.2 6.41, 0.13 6.12, 0.08 5.84 C0.03 5.56, 0 5.26, 0 4.98 C0 4.69, 0.03 4.39, 0.08 4.11 C0.13 3.83, 0.2 3.54, 0.3 3.27 C0.4 3, 0.52 2.74, 0.67 2.49 C0.81 2.24, 0.98 2, 1.16 1.78 C1.35 1.56, 1.56 1.35, 1.78 1.16 C2 0.98, 2.24 0.81, 2.49 0.67 C2.74 0.52, 3 0.4, 3.27 0.3 C3.54 0.2, 3.83 0.13, 4.11 0.08 C4.39 0.03, 4.69 0, 4.98 0 C5.26 0, 5.56 0.03, 5.84 0.08 C6.12 0.13, 6.41 0.2, 6.68 0.3 C6.95 0.4, 7.21 0.52, 7.46 0.67 C7.71 0.81, 7.95 0.98, 8.17 1.16 C8.39 1.35, 8.6 1.56, 8.79 1.78 C8.97 2, 9.14 2.24, 9.28 2.49 C9.43 2.74, 9.55 3, 9.65 3.27 C9.75 3.54, 9.82 3.83, 9.87 4.11 C9.92 4.39, 9.94 4.83, 9.95 4.98 C9.96 5.12, 9.96 4.83, 9.95 4.98" stroke="transparent" stroke-width="4" fill="none"></path></g><g stroke-linecap="round" transform="translate(34.23584566986847 12.94810815240453) rotate(187.87299598606762 4.260951138225437 4.260951138225209)"><path d="M8.52 4.26 C8.52 4.51, 8.5 4.76, 8.46 5 C8.41 5.24, 8.35 5.49, 8.26 5.72 C8.18 5.95, 8.07 6.18, 7.95 6.39 C7.83 6.61, 7.68 6.81, 7.53 7 C7.37 7.19, 7.19 7.37, 7 7.53 C6.81 7.68, 6.61 7.83, 6.39 7.95 C6.18 8.07, 5.95 8.18, 5.72 8.26 C5.49 8.35, 5.24 8.41, 5 8.46 C4.76 8.5, 4.51 8.52, 4.26 8.52 C4.01 8.52, 3.76 8.5, 3.52 8.46 C3.28 8.41, 3.04 8.35, 2.8 8.26 C2.57 8.18, 2.34 8.07, 2.13 7.95 C1.92 7.83, 1.71 7.68, 1.52 7.53 C1.33 7.37, 1.16 7.19, 1 7 C0.84 6.81, 0.69 6.61, 0.57 6.39 C0.45 6.18, 0.34 5.95, 0.26 5.72 C0.17 5.49, 0.11 5.24, 0.06 5 C0.02 4.76, 0 4.51, 0 4.26 C0 4.01, 0.02 3.76, 0.06 3.52 C0.11 3.28, 0.17 3.04, 0.26 2.8 C0.34 2.57, 0.45 2.34, 0.57 2.13 C0.69 1.92, 0.84 1.71, 1 1.52 C1.16 1.33, 1.33 1.16, 1.52 1 C1.71 0.84, 1.92 0.69, 2.13 0.57 C2.34 0.45, 2.57 0.34, 2.8 0.26 C3.04 0.17, 3.28 0.11, 3.52 0.06 C3.76 0.02, 4.01 0, 4.26 0 C4.51 0, 4.76 0.02, 5 0.06 C5.24 0.11, 5.49 0.17, 5.72 0.26 C5.95 0.34, 6.18 0.45, 6.39 0.57 C6.61 0.69, 6.81 0.84, 7 1 C7.19 1.16, 7.37 1.33, 7.53 1.52 C7.68 1.71, 7.83 1.92, 7.95 2.13 C8.07 2.34, 8.18 2.57, 8.26 2.8 C8.35 3.04, 8.41 3.28, 8.46 3.52 C8.5 3.76, 8.51 4.14, 8.52 4.26 C8.53 4.38, 8.53 4.14, 8.52 4.26" stroke="none" stroke-width="0" fill="#343a40"></path><path d="M8.52 4.26 C8.52 4.51, 8.5 4.76, 8.46 5 C8.41 5.24, 8.35 5.49, 8.26 5.72 C8.18 5.95, 8.07 6.18, 7.95 6.39 C7.83 6.61, 7.68 6.81, 7.53 7 C7.37 7.19, 7.19 7.37, 7 7.53 C6.81 7.68, 6.61 7.83, 6.39 7.95 C6.18 8.07, 5.95 8.18, 5.72 8.26 C5.49 8.35, 5.24 8.41, 5 8.46 C4.76 8.5, 4.51 8.52, 4.26 8.52 C4.01 8.52, 3.76 8.5, 3.52 8.46 C3.28 8.41, 3.04 8.35, 2.8 8.26 C2.57 8.18, 2.34 8.07, 2.13 7.95 C1.92 7.83, 1.71 7.68, 1.52 7.53 C1.33 7.37, 1.16 7.19, 1 7 C0.84 6.81, 0.69 6.61, 0.57 6.39 C0.45 6.18, 0.34 5.95, 0.26 5.72 C0.17 5.49, 0.11 5.24, 0.06 5 C0.02 4.76, 0 4.51, 0 4.26 C0 4.01, 0.02 3.76, 0.06 3.52 C0.11 3.28, 0.17 3.04, 0.26 2.8 C0.34 2.57, 0.45 2.34, 0.57 2.13 C0.69 1.92, 0.84 1.71, 1 1.52 C1.16 1.33, 1.33 1.16, 1.52 1 C1.71 0.84, 1.92 0.69, 2.13 0.57 C2.34 0.45, 2.57 0.34, 2.8 0.26 C3.04 0.17, 3.28 0.11, 3.52 0.06 C3.76 0.02, 4.01 0, 4.26 0 C4.51 0, 4.76 0.02, 5 0.06 C5.24 0.11, 5.49 0.17, 5.72 0.26 C5.95 0.34, 6.18 0.45, 6.39 0.57 C6.61 0.69, 6.81 0.84, 7 1 C7.19 1.16, 7.37 1.33, 7.53 1.52 C7.68 1.71, 7.83 1.92, 7.95 2.13 C8.07 2.34, 8.18 2.57, 8.26 2.8 C8.35 3.04, 8.41 3.28, 8.46 3.52 C8.5 3.76, 8.51 4.14, 8.52 4.26 C8.53 4.38, 8.53 4.14, 8.52 4.26" stroke="transparent" stroke-width="4" fill="none"></path></g><g stroke-linecap="round" transform="translate(29.73037767185724 12.287792503229866) rotate(187.87299598606762 4.070457952450852 4.070457952450852)"><path d="M8.14 4.07 C8.14 4.31, 8.12 4.55, 8.08 4.78 C8.04 5.01, 7.98 5.24, 7.9 5.46 C7.81 5.68, 7.71 5.9, 7.6 6.11 C7.48 6.31, 7.34 6.51, 7.19 6.69 C7.04 6.87, 6.87 7.04, 6.69 7.19 C6.51 7.34, 6.31 7.48, 6.11 7.6 C5.9 7.71, 5.68 7.81, 5.46 7.9 C5.24 7.98, 5.01 8.04, 4.78 8.08 C4.55 8.12, 4.31 8.14, 4.07 8.14 C3.83 8.14, 3.6 8.12, 3.36 8.08 C3.13 8.04, 2.9 7.98, 2.68 7.9 C2.46 7.81, 2.24 7.71, 2.04 7.6 C1.83 7.48, 1.63 7.34, 1.45 7.19 C1.27 7.04, 1.1 6.87, 0.95 6.69 C0.8 6.51, 0.66 6.31, 0.55 6.11 C0.43 5.9, 0.33 5.68, 0.25 5.46 C0.16 5.24, 0.1 5.01, 0.06 4.78 C0.02 4.55, 0 4.31, 0 4.07 C0 3.83, 0.02 3.6, 0.06 3.36 C0.1 3.13, 0.16 2.9, 0.25 2.68 C0.33 2.46, 0.43 2.24, 0.55 2.04 C0.66 1.83, 0.8 1.63, 0.95 1.45 C1.1 1.27, 1.27 1.1, 1.45 0.95 C1.63 0.8, 1.83 0.66, 2.04 0.55 C2.24 0.43, 2.46 0.33, 2.68 0.25 C2.9 0.16, 3.13 0.1, 3.36 0.06 C3.6 0.02, 3.83 0, 4.07 0 C4.31 0, 4.55 0.02, 4.78 0.06 C5.01 0.1, 5.24 0.16, 5.46 0.25 C5.68 0.33, 5.9 0.43, 6.11 0.55 C6.31 0.66, 6.51 0.8, 6.69 0.95 C6.87 1.1, 7.04 1.27, 7.19 1.45 C7.34 1.63, 7.48 1.83, 7.6 2.04 C7.71 2.24, 7.81 2.46, 7.9 2.68 C7.98 2.9, 8.04 3.13, 8.08 3.36 C8.12 3.6, 8.13 3.95, 8.14 4.07 C8.15 4.19, 8.15 3.95, 8.14 4.07" stroke="none" stroke-width="0" fill="#343a40"></path><path d="M8.14 4.07 C8.14 4.31, 8.12 4.55, 8.08 4.78 C8.04 5.01, 7.98 5.24, 7.9 5.46 C7.81 5.68, 7.71 5.9, 7.6 6.11 C7.48 6.31, 7.34 6.51, 7.19 6.69 C7.04 6.87, 6.87 7.04, 6.69 7.19 C6.51 7.34, 6.31 7.48, 6.11 7.6 C5.9 7.71, 5.68 7.81, 5.46 7.9 C5.24 7.98, 5.01 8.04, 4.78 8.08 C4.55 8.12, 4.31 8.14, 4.07 8.14 C3.83 8.14, 3.6 8.12, 3.36 8.08 C3.13 8.04, 2.9 7.98, 2.68 7.9 C2.46 7.81, 2.24 7.71, 2.04 7.6 C1.83 7.48, 1.63 7.34, 1.45 7.19 C1.27 7.04, 1.1 6.87, 0.95 6.69 C0.8 6.51, 0.66 6.31, 0.55 6.11 C0.43 5.9, 0.33 5.68, 0.25 5.46 C0.16 5.24, 0.1 5.01, 0.06 4.78 C0.02 4.55, 0 4.31, 0 4.07 C0 3.83, 0.02 3.6, 0.06 3.36 C0.1 3.13, 0.16 2.9, 0.25 2.68 C0.33 2.46, 0.43 2.24, 0.55 2.04 C0.66 1.83, 0.8 1.63, 0.95 1.45 C1.1 1.27, 1.27 1.1, 1.45 0.95 C1.63 0.8, 1.83 0.66, 2.04 0.55 C2.24 0.43, 2.46 0.33, 2.68 0.25 C2.9 0.16, 3.13 0.1, 3.36 0.06 C3.6 0.02, 3.83 0, 4.07 0 C4.31 0, 4.55 0.02, 4.78 0.06 C5.01 0.1, 5.24 0.16, 5.46 0.25 C5.68 0.33, 5.9 0.43, 6.11 0.55 C6.31 0.66, 6.51 0.8, 6.69 0.95 C6.87 1.1, 7.04 1.27, 7.19 1.45 C7.34 1.63, 7.48 1.83, 7.6 2.04 C7.71 2.24, 7.81 2.46, 7.9 2.68 C7.98 2.9, 8.04 3.13, 8.08 3.36 C8.12 3.6, 8.13 3.95, 8.14 4.07 C8.15 4.19, 8.15 3.95, 8.14 4.07" stroke="transparent" stroke-width="4" fill="none"></path></g><g stroke-linecap="round" transform="translate(36.15378186639373 14.866044411519397) rotate(187.87299598606762 2.3430150597930606 2.343015059793288)"><path d="M4.69 2.34 C4.69 2.48, 4.67 2.62, 4.65 2.75 C4.63 2.88, 4.59 3.02, 4.54 3.14 C4.5 3.27, 4.44 3.4, 4.37 3.51 C4.3 3.63, 4.23 3.75, 4.14 3.85 C4.05 3.95, 3.95 4.05, 3.85 4.14 C3.75 4.23, 3.63 4.3, 3.51 4.37 C3.4 4.44, 3.27 4.5, 3.14 4.54 C3.02 4.59, 2.88 4.63, 2.75 4.65 C2.62 4.67, 2.48 4.69, 2.34 4.69 C2.21 4.69, 2.07 4.67, 1.94 4.65 C1.8 4.63, 1.67 4.59, 1.54 4.54 C1.41 4.5, 1.29 4.44, 1.17 4.37 C1.05 4.3, 0.94 4.23, 0.84 4.14 C0.73 4.05, 0.64 3.95, 0.55 3.85 C0.46 3.75, 0.38 3.63, 0.31 3.51 C0.25 3.4, 0.19 3.27, 0.14 3.14 C0.09 3.02, 0.06 2.88, 0.04 2.75 C0.01 2.62, 0 2.48, 0 2.34 C0 2.21, 0.01 2.07, 0.04 1.94 C0.06 1.8, 0.09 1.67, 0.14 1.54 C0.19 1.41, 0.25 1.29, 0.31 1.17 C0.38 1.05, 0.46 0.94, 0.55 0.84 C0.64 0.73, 0.73 0.64, 0.84 0.55 C0.94 0.46, 1.05 0.38, 1.17 0.31 C1.29 0.25, 1.41 0.19, 1.54 0.14 C1.67 0.09, 1.8 0.06, 1.94 0.04 C2.07 0.01, 2.21 0, 2.34 0 C2.48 0, 2.62 0.01, 2.75 0.04 C2.88 0.06, 3.02 0.09, 3.14 0.14 C3.27 0.19, 3.4 0.25, 3.51 0.31 C3.63 0.38, 3.75 0.46, 3.85 0.55 C3.95 0.64, 4.05 0.73, 4.14 0.84 C4.23 0.94, 4.3 1.05, 4.37 1.17 C4.44 1.29, 4.5 1.41, 4.54 1.54 C4.59 1.67, 4.63 1.8, 4.65 1.94 C4.67 2.07, 4.68 2.28, 4.69 2.34 C4.69 2.41, 4.69 2.28, 4.69 2.34" stroke="none" stroke-width="0" fill="#eebefa"></path><path d="M4.69 2.34 C4.69 2.48, 4.67 2.62, 4.65 2.75 C4.63 2.88, 4.59 3.02, 4.54 3.14 C4.5 3.27, 4.44 3.4, 4.37 3.51 C4.3 3.63, 4.23 3.75, 4.14 3.85 C4.05 3.95, 3.95 4.05, 3.85 4.14 C3.75 4.23, 3.63 4.3, 3.51 4.37 C3.4 4.44, 3.27 4.5, 3.14 4.54 C3.02 4.59, 2.88 4.63, 2.75 4.65 C2.62 4.67, 2.48 4.69, 2.34 4.69 C2.21 4.69, 2.07 4.67, 1.94 4.65 C1.8 4.63, 1.67 4.59, 1.54 4.54 C1.41 4.5, 1.29 4.44, 1.17 4.37 C1.05 4.3, 0.94 4.23, 0.84 4.14 C0.73 4.05, 0.64 3.95, 0.55 3.85 C0.46 3.75, 0.38 3.63, 0.31 3.51 C0.25 3.4, 0.19 3.27, 0.14 3.14 C0.09 3.02, 0.06 2.88, 0.04 2.75 C0.01 2.62, 0 2.48, 0 2.34 C0 2.21, 0.01 2.07, 0.04 1.94 C0.06 1.8, 0.09 1.67, 0.14 1.54 C0.19 1.41, 0.25 1.29, 0.31 1.17 C0.38 1.05, 0.46 0.94, 0.55 0.84 C0.64 0.73, 0.73 0.64, 0.84 0.55 C0.94 0.46, 1.05 0.38, 1.17 0.31 C1.29 0.25, 1.41 0.19, 1.54 0.14 C1.67 0.09, 1.8 0.06, 1.94 0.04 C2.07 0.01, 2.21 0, 2.34 0 C2.48 0, 2.62 0.01, 2.75 0.04 C2.88 0.06, 3.02 0.09, 3.14 0.14 C3.27 0.19, 3.4 0.25, 3.51 0.31 C3.63 0.38, 3.75 0.46, 3.85 0.55 C3.95 0.64, 4.05 0.73, 4.14 0.84 C4.23 0.94, 4.3 1.05, 4.37 1.17 C4.44 1.29, 4.5 1.41, 4.54 1.54 C4.59 1.67, 4.63 1.8, 4.65 1.94 C4.67 2.07, 4.68 2.28, 4.69 2.34 C4.69 2.41, 4.69 2.28, 4.69 2.34" stroke="transparent" stroke-width="4" fill="none"></path></g><g stroke-linecap="round" transform="translate(26.229682761775166 14.387437697891073) rotate(266.72510793710813 2.5250054965310937 2.5250054965308664)"><path d="M5.05 2.53 C5.05 2.67, 5.04 2.82, 5.01 2.96 C4.99 3.11, 4.95 3.25, 4.9 3.39 C4.85 3.53, 4.78 3.66, 4.71 3.79 C4.64 3.91, 4.55 4.04, 4.46 4.15 C4.37 4.26, 4.26 4.37, 4.15 4.46 C4.04 4.55, 3.91 4.64, 3.79 4.71 C3.66 4.78, 3.53 4.85, 3.39 4.9 C3.25 4.95, 3.11 4.99, 2.96 5.01 C2.82 5.04, 2.67 5.05, 2.53 5.05 C2.38 5.05, 2.23 5.04, 2.09 5.01 C1.94 4.99, 1.8 4.95, 1.66 4.9 C1.52 4.85, 1.39 4.78, 1.26 4.71 C1.14 4.64, 1.01 4.55, 0.9 4.46 C0.79 4.37, 0.68 4.26, 0.59 4.15 C0.5 4.04, 0.41 3.91, 0.34 3.79 C0.27 3.66, 0.2 3.53, 0.15 3.39 C0.1 3.25, 0.06 3.11, 0.04 2.96 C0.01 2.82, 0 2.67, 0 2.53 C0 2.38, 0.01 2.23, 0.04 2.09 C0.06 1.94, 0.1 1.8, 0.15 1.66 C0.2 1.52, 0.27 1.39, 0.34 1.26 C0.41 1.14, 0.5 1.01, 0.59 0.9 C0.68 0.79, 0.79 0.68, 0.9 0.59 C1.01 0.5, 1.14 0.41, 1.26 0.34 C1.39 0.27, 1.52 0.2, 1.66 0.15 C1.8 0.1, 1.94 0.06, 2.09 0.04 C2.23 0.01, 2.38 0, 2.53 0 C2.67 0, 2.82 0.01, 2.96 0.04 C3.11 0.06, 3.25 0.1, 3.39 0.15 C3.53 0.2, 3.66 0.27, 3.79 0.34 C3.91 0.41, 4.04 0.5, 4.15 0.59 C4.26 0.68, 4.37 0.79, 4.46 0.9 C4.55 1.01, 4.64 1.14, 4.71 1.26 C4.78 1.39, 4.85 1.52, 4.9 1.66 C4.95 1.8, 4.99 1.94, 5.01 2.09 C5.04 2.23, 5.04 2.45, 5.05 2.53 C5.06 2.6, 5.06 2.45, 5.05 2.53" stroke="none" stroke-width="0" fill="#eebefa"></path><path d="M5.05 2.53 C5.05 2.67, 5.04 2.82, 5.01 2.96 C4.99 3.11, 4.95 3.25, 4.9 3.39 C4.85 3.53, 4.78 3.66, 4.71 3.79 C4.64 3.91, 4.55 4.04, 4.46 4.15 C4.37 4.26, 4.26 4.37, 4.15 4.46 C4.04 4.55, 3.91 4.64, 3.79 4.71 C3.66 4.78, 3.53 4.85, 3.39 4.9 C3.25 4.95, 3.11 4.99, 2.96 5.01 C2.82 5.04, 2.67 5.05, 2.53 5.05 C2.38 5.05, 2.23 5.04, 2.09 5.01 C1.94 4.99, 1.8 4.95, 1.66 4.9 C1.52 4.85, 1.39 4.78, 1.26 4.71 C1.14 4.64, 1.01 4.55, 0.9 4.46 C0.79 4.37, 0.68 4.26, 0.59 4.15 C0.5 4.04, 0.41 3.91, 0.34 3.79 C0.27 3.66, 0.2 3.53, 0.15 3.39 C0.1 3.25, 0.06 3.11, 0.04 2.96 C0.01 2.82, 0 2.67, 0 2.53 C0 2.38, 0.01 2.23, 0.04 2.09 C0.06 1.94, 0.1 1.8, 0.15 1.66 C0.2 1.52, 0.27 1.39, 0.34 1.26 C0.41 1.14, 0.5 1.01, 0.59 0.9 C0.68 0.79, 0.79 0.68, 0.9 0.59 C1.01 0.5, 1.14 0.41, 1.26 0.34 C1.39 0.27, 1.52 0.2, 1.66 0.15 C1.8 0.1, 1.94 0.06, 2.09 0.04 C2.23 0.01, 2.38 0, 2.53 0 C2.67 0, 2.82 0.01, 2.96 0.04 C3.11 0.06, 3.25 0.1, 3.39 0.15 C3.53 0.2, 3.66 0.27, 3.79 0.34 C3.91 0.41, 4.04 0.5, 4.15 0.59 C4.26 0.68, 4.37 0.79, 4.46 0.9 C4.55 1.01, 4.64 1.14, 4.71 1.26 C4.78 1.39, 4.85 1.52, 4.9 1.66 C4.95 1.8, 4.99 1.94, 5.01 2.09 C5.04 2.23, 5.04 2.45, 5.05 2.53 C5.06 2.6, 5.06 2.45, 5.05 2.53" stroke="transparent" stroke-width="4" fill="none"></path></g><g stroke-linecap="round" transform="translate(30.249496650241326 15.494306286422216) rotate(187.87299598606762 3.1268776558399622 3.1268776558399622)"><path d="M6.25 3.13 C6.25 3.31, 6.24 3.49, 6.21 3.67 C6.17 3.85, 6.13 4.03, 6.07 4.2 C6 4.37, 5.93 4.53, 5.83 4.69 C5.74 4.85, 5.64 5, 5.52 5.14 C5.41 5.28, 5.28 5.41, 5.14 5.52 C5 5.64, 4.85 5.74, 4.69 5.83 C4.53 5.93, 4.37 6, 4.2 6.07 C4.03 6.13, 3.85 6.17, 3.67 6.21 C3.49 6.24, 3.31 6.25, 3.13 6.25 C2.95 6.25, 2.76 6.24, 2.58 6.21 C2.41 6.17, 2.23 6.13, 2.06 6.07 C1.89 6, 1.72 5.93, 1.56 5.83 C1.41 5.74, 1.26 5.64, 1.12 5.52 C0.98 5.41, 0.85 5.28, 0.73 5.14 C0.62 5, 0.51 4.85, 0.42 4.69 C0.33 4.53, 0.25 4.37, 0.19 4.2 C0.13 4.03, 0.08 3.85, 0.05 3.67 C0.02 3.49, 0 3.31, 0 3.13 C0 2.95, 0.02 2.76, 0.05 2.58 C0.08 2.41, 0.13 2.23, 0.19 2.06 C0.25 1.89, 0.33 1.72, 0.42 1.56 C0.51 1.41, 0.62 1.26, 0.73 1.12 C0.85 0.98, 0.98 0.85, 1.12 0.73 C1.26 0.62, 1.41 0.51, 1.56 0.42 C1.72 0.33, 1.89 0.25, 2.06 0.19 C2.23 0.13, 2.41 0.08, 2.58 0.05 C2.76 0.02, 2.95 0, 3.13 0 C3.31 0, 3.49 0.02, 3.67 0.05 C3.85 0.08, 4.03 0.13, 4.2 0.19 C4.37 0.25, 4.53 0.33, 4.69 0.42 C4.85 0.51, 5 0.62, 5.14 0.73 C5.28 0.85, 5.41 0.98, 5.52 1.12 C5.64 1.26, 5.74 1.41, 5.83 1.56 C5.93 1.72, 6 1.89, 6.07 2.06 C6.13 2.23, 6.17 2.41, 6.21 2.58 C6.24 2.76, 6.25 3.04, 6.25 3.13 C6.26 3.22, 6.26 3.04, 6.25 3.13" stroke="none" stroke-width="0" fill="#eebefa"></path><path d="M6.25 3.13 C6.25 3.31, 6.24 3.49, 6.21 3.67 C6.17 3.85, 6.13 4.03, 6.07 4.2 C6 4.37, 5.93 4.53, 5.83 4.69 C5.74 4.85, 5.64 5, 5.52 5.14 C5.41 5.28, 5.28 5.41, 5.14 5.52 C5 5.64, 4.85 5.74, 4.69 5.83 C4.53 5.93, 4.37 6, 4.2 6.07 C4.03 6.13, 3.85 6.17, 3.67 6.21 C3.49 6.24, 3.31 6.25, 3.13 6.25 C2.95 6.25, 2.76 6.24, 2.58 6.21 C2.41 6.17, 2.23 6.13, 2.06 6.07 C1.89 6, 1.72 5.93, 1.56 5.83 C1.41 5.74, 1.26 5.64, 1.12 5.52 C0.98 5.41, 0.85 5.28, 0.73 5.14 C0.62 5, 0.51 4.85, 0.42 4.69 C0.33 4.53, 0.25 4.37, 0.19 4.2 C0.13 4.03, 0.08 3.85, 0.05 3.67 C0.02 3.49, 0 3.31, 0 3.13 C0 2.95, 0.02 2.76, 0.05 2.58 C0.08 2.41, 0.13 2.23, 0.19 2.06 C0.25 1.89, 0.33 1.72, 0.42 1.56 C0.51 1.41, 0.62 1.26, 0.73 1.12 C0.85 0.98, 0.98 0.85, 1.12 0.73 C1.26 0.62, 1.41 0.51, 1.56 0.42 C1.72 0.33, 1.89 0.25, 2.06 0.19 C2.23 0.13, 2.41 0.08, 2.58 0.05 C2.76 0.02, 2.95 0, 3.13 0 C3.31 0, 3.49 0.02, 3.67 0.05 C3.85 0.08, 4.03 0.13, 4.2 0.19 C4.37 0.25, 4.53 0.33, 4.69 0.42 C4.85 0.51, 5 0.62, 5.14 0.73 C5.28 0.85, 5.41 0.98, 5.52 1.12 C5.64 1.26, 5.74 1.41, 5.83 1.56 C5.93 1.72, 6 1.89, 6.07 2.06 C6.13 2.23, 6.17 2.41, 6.21 2.58 C6.24 2.76, 6.25 3.04, 6.25 3.13 C6.26 3.22, 6.26 3.04, 6.25 3.13" stroke="transparent" stroke-width="4" fill="none"></path></g><g stroke-linecap="round" transform="translate(30.603817928357785 13.161232964870578) rotate(187.87299598606762 3.1970175681051387 3.197017568105366)"><path d="M6.39 3.2 C6.39 3.38, 6.38 3.57, 6.35 3.75 C6.31 3.93, 6.26 4.12, 6.2 4.29 C6.14 4.46, 6.06 4.64, 5.97 4.8 C5.87 4.96, 5.77 5.11, 5.65 5.25 C5.53 5.39, 5.39 5.53, 5.25 5.65 C5.11 5.77, 4.96 5.87, 4.8 5.97 C4.64 6.06, 4.46 6.14, 4.29 6.2 C4.12 6.26, 3.93 6.31, 3.75 6.35 C3.57 6.38, 3.38 6.39, 3.2 6.39 C3.01 6.39, 2.82 6.38, 2.64 6.35 C2.46 6.31, 2.28 6.26, 2.1 6.2 C1.93 6.14, 1.76 6.06, 1.6 5.97 C1.44 5.87, 1.28 5.77, 1.14 5.65 C1 5.53, 0.87 5.39, 0.75 5.25 C0.63 5.11, 0.52 4.96, 0.43 4.8 C0.34 4.64, 0.26 4.46, 0.19 4.29 C0.13 4.12, 0.08 3.93, 0.05 3.75 C0.02 3.57, 0 3.38, 0 3.2 C0 3.01, 0.02 2.82, 0.05 2.64 C0.08 2.46, 0.13 2.28, 0.19 2.1 C0.26 1.93, 0.34 1.76, 0.43 1.6 C0.52 1.44, 0.63 1.28, 0.75 1.14 C0.87 1, 1 0.87, 1.14 0.75 C1.28 0.63, 1.44 0.52, 1.6 0.43 C1.76 0.34, 1.93 0.26, 2.1 0.19 C2.28 0.13, 2.46 0.08, 2.64 0.05 C2.82 0.02, 3.01 0, 3.2 0 C3.38 0, 3.57 0.02, 3.75 0.05 C3.93 0.08, 4.12 0.13, 4.29 0.19 C4.46 0.26, 4.64 0.34, 4.8 0.43 C4.96 0.52, 5.11 0.63, 5.25 0.75 C5.39 0.87, 5.53 1, 5.65 1.14 C5.77 1.28, 5.87 1.44, 5.97 1.6 C6.06 1.76, 6.14 1.93, 6.2 2.1 C6.26 2.28, 6.31 2.46, 6.35 2.64 C6.38 2.82, 6.39 3.1, 6.39 3.2 C6.4 3.29, 6.4 3.1, 6.39 3.2" stroke="none" stroke-width="0" fill="#eebefa"></path><path d="M6.39 3.2 C6.39 3.38, 6.38 3.57, 6.35 3.75 C6.31 3.93, 6.26 4.12, 6.2 4.29 C6.14 4.46, 6.06 4.64, 5.97 4.8 C5.87 4.96, 5.77 5.11, 5.65 5.25 C5.53 5.39, 5.39 5.53, 5.25 5.65 C5.11 5.77, 4.96 5.87, 4.8 5.97 C4.64 6.06, 4.46 6.14, 4.29 6.2 C4.12 6.26, 3.93 6.31, 3.75 6.35 C3.57 6.38, 3.38 6.39, 3.2 6.39 C3.01 6.39, 2.82 6.38, 2.64 6.35 C2.46 6.31, 2.28 6.26, 2.1 6.2 C1.93 6.14, 1.76 6.06, 1.6 5.97 C1.44 5.87, 1.28 5.77, 1.14 5.65 C1 5.53, 0.87 5.39, 0.75 5.25 C0.63 5.11, 0.52 4.96, 0.43 4.8 C0.34 4.64, 0.26 4.46, 0.19 4.29 C0.13 4.12, 0.08 3.93, 0.05 3.75 C0.02 3.57, 0 3.38, 0 3.2 C0 3.01, 0.02 2.82, 0.05 2.64 C0.08 2.46, 0.13 2.28, 0.19 2.1 C0.26 1.93, 0.34 1.76, 0.43 1.6 C0.52 1.44, 0.63 1.28, 0.75 1.14 C0.87 1, 1 0.87, 1.14 0.75 C1.28 0.63, 1.44 0.52, 1.6 0.43 C1.76 0.34, 1.93 0.26, 2.1 0.19 C2.28 0.13, 2.46 0.08, 2.64 0.05 C2.82 0.02, 3.01 0, 3.2 0 C3.38 0, 3.57 0.02, 3.75 0.05 C3.93 0.08, 4.12 0.13, 4.29 0.19 C4.46 0.26, 4.64 0.34, 4.8 0.43 C4.96 0.52, 5.11 0.63, 5.25 0.75 C5.39 0.87, 5.53 1, 5.65 1.14 C5.77 1.28, 5.87 1.44, 5.97 1.6 C6.06 1.76, 6.14 1.93, 6.2 2.1 C6.26 2.28, 6.31 2.46, 6.35 2.64 C6.38 2.82, 6.39 3.1, 6.39 3.2 C6.4 3.29, 6.4 3.1, 6.39 3.2" stroke="transparent" stroke-width="4" fill="none"></path></g><g stroke-linecap="round" transform="translate(18.43443447698337 28.58823034260604) rotate(224.99999999999986 4.508875781743427 1.9145462818842134)"><path d="M0.96 0 C2.65 0, 4.35 0, 8.06 0 C8.7 0, 9.02 0.32, 9.02 0.96 C9.02 1.49, 9.02 2.03, 9.02 2.87 C9.02 3.51, 8.7 3.83, 8.06 3.83 C6.4 3.83, 4.74 3.83, 0.96 3.83 C0.32 3.83, 0 3.51, 0 2.87 C0 2.11, 0 1.34, 0 0.96 C0 0.32, 0.32 0, 0.96 0" stroke="none" stroke-width="0" fill="#343a40"></path><path d="M0.96 0 C3.61 0, 6.26 0, 8.06 0 M0.96 0 C2.61 0, 4.27 0, 8.06 0 M8.06 0 C8.7 0, 9.02 0.32, 9.02 0.96 M8.06 0 C8.7 0, 9.02 0.32, 9.02 0.96 M9.02 0.96 C9.02 1.53, 9.02 2.11, 9.02 2.87 M9.02 0.96 C9.02 1.47, 9.02 1.98, 9.02 2.87 M9.02 2.87 C9.02 3.51, 8.7 3.83, 8.06 3.83 M9.02 2.87 C9.02 3.51, 8.7 3.83, 8.06 3.83 M8.06 3.83 C6.41 3.83, 4.75 3.83, 0.96 3.83 M8.06 3.83 C5.93 3.83, 3.81 3.83, 0.96 3.83 M0.96 3.83 C0.32 3.83, 0 3.51, 0 2.87 M0.96 3.83 C0.32 3.83, 0 3.51, 0 2.87 M0 2.87 C0 2.39, 0 1.91, 0 0.96 M0 2.87 C0 2.43, 0 1.98, 0 0.96 M0 0.96 C0 0.32, 0.32 0, 0.96 0 M0 0.96 C0 0.32, 0.32 0, 0.96 0" stroke="transparent" stroke-width="4" fill="none"></path></g><g stroke-linecap="round" transform="translate(18.466551555927254 26.025993566279794) rotate(224.99999999999986 1.9060856402227273 1.9060856402229547)"><path d="M3.81 1.91 C3.81 2.02, 3.8 2.13, 3.78 2.24 C3.76 2.35, 3.73 2.45, 3.7 2.56 C3.66 2.66, 3.61 2.76, 3.56 2.86 C3.5 2.95, 3.44 3.05, 3.37 3.13 C3.3 3.22, 3.22 3.3, 3.13 3.37 C3.05 3.44, 2.95 3.5, 2.86 3.56 C2.76 3.61, 2.66 3.66, 2.56 3.7 C2.45 3.73, 2.35 3.76, 2.24 3.78 C2.13 3.8, 2.02 3.81, 1.91 3.81 C1.8 3.81, 1.68 3.8, 1.58 3.78 C1.47 3.76, 1.36 3.73, 1.25 3.7 C1.15 3.66, 1.05 3.61, 0.95 3.56 C0.86 3.5, 0.77 3.44, 0.68 3.37 C0.6 3.3, 0.52 3.22, 0.45 3.13 C0.38 3.05, 0.31 2.95, 0.26 2.86 C0.2 2.76, 0.15 2.66, 0.11 2.56 C0.08 2.45, 0.05 2.35, 0.03 2.24 C0.01 2.13, 0 2.02, 0 1.91 C0 1.8, 0.01 1.68, 0.03 1.58 C0.05 1.47, 0.08 1.36, 0.11 1.25 C0.15 1.15, 0.2 1.05, 0.26 0.95 C0.31 0.86, 0.38 0.77, 0.45 0.68 C0.52 0.6, 0.6 0.52, 0.68 0.45 C0.77 0.38, 0.86 0.31, 0.95 0.26 C1.05 0.2, 1.15 0.15, 1.25 0.11 C1.36 0.08, 1.47 0.05, 1.58 0.03 C1.68 0.01, 1.8 0, 1.91 0 C2.02 0, 2.13 0.01, 2.24 0.03 C2.35 0.05, 2.45 0.08, 2.56 0.11 C2.66 0.15, 2.76 0.2, 2.86 0.26 C2.95 0.31, 3.05 0.38, 3.13 0.45 C3.22 0.52, 3.3 0.6, 3.37 0.68 C3.44 0.77, 3.5 0.86, 3.56 0.95 C3.61 1.05, 3.66 1.15, 3.7 1.25 C3.73 1.36, 3.76 1.47, 3.78 1.58 C3.8 1.68, 3.81 1.85, 3.81 1.91 C3.82 1.96, 3.82 1.85, 3.81 1.91" stroke="none" stroke-width="0" fill="#343a40"></path><path d="M3.81 1.91 C3.81 2.02, 3.8 2.13, 3.78 2.24 C3.76 2.35, 3.73 2.45, 3.7 2.56 C3.66 2.66, 3.61 2.76, 3.56 2.86 C3.5 2.95, 3.44 3.05, 3.37 3.13 C3.3 3.22, 3.22 3.3, 3.13 3.37 C3.05 3.44, 2.95 3.5, 2.86 3.56 C2.76 3.61, 2.66 3.66, 2.56 3.7 C2.45 3.73, 2.35 3.76, 2.24 3.78 C2.13 3.8, 2.02 3.81, 1.91 3.81 C1.8 3.81, 1.68 3.8, 1.58 3.78 C1.47 3.76, 1.36 3.73, 1.25 3.7 C1.15 3.66, 1.05 3.61, 0.95 3.56 C0.86 3.5, 0.77 3.44, 0.68 3.37 C0.6 3.3, 0.52 3.22, 0.45 3.13 C0.38 3.05, 0.31 2.95, 0.26 2.86 C0.2 2.76, 0.15 2.66, 0.11 2.56 C0.08 2.45, 0.05 2.35, 0.03 2.24 C0.01 2.13, 0 2.02, 0 1.91 C0 1.8, 0.01 1.68, 0.03 1.58 C0.05 1.47, 0.08 1.36, 0.11 1.25 C0.15 1.15, 0.2 1.05, 0.26 0.95 C0.31 0.86, 0.38 0.77, 0.45 0.68 C0.52 0.6, 0.6 0.52, 0.68 0.45 C0.77 0.38, 0.86 0.31, 0.95 0.26 C1.05 0.2, 1.15 0.15, 1.25 0.11 C1.36 0.08, 1.47 0.05, 1.58 0.03 C1.68 0.01, 1.8 0, 1.91 0 C2.02 0, 2.13 0.01, 2.24 0.03 C2.35 0.05, 2.45 0.08, 2.56 0.11 C2.66 0.15, 2.76 0.2, 2.86 0.26 C2.95 0.31, 3.05 0.38, 3.13 0.45 C3.22 0.52, 3.3 0.6, 3.37 0.68 C3.44 0.77, 3.5 0.86, 3.56 0.95 C3.61 1.05, 3.66 1.15, 3.7 1.25 C3.73 1.36, 3.76 1.47, 3.78 1.58 C3.8 1.68, 3.81 1.85, 3.81 1.91 C3.82 1.96, 3.82 1.85, 3.81 1.91" stroke="transparent" stroke-width="2" fill="none"></path></g><g stroke-linecap="round" transform="translate(21.795362374693923 33.6247205222644) rotate(0 3.117769443708312 3.117769443708312)"><path d="M6.24 3.12 C6.24 3.3, 6.22 3.48, 6.19 3.66 C6.16 3.84, 6.11 4.01, 6.05 4.18 C5.99 4.35, 5.91 4.52, 5.82 4.68 C5.73 4.83, 5.62 4.98, 5.51 5.12 C5.39 5.26, 5.26 5.39, 5.12 5.51 C4.98 5.62, 4.83 5.73, 4.68 5.82 C4.52 5.91, 4.35 5.99, 4.18 6.05 C4.01 6.11, 3.84 6.16, 3.66 6.19 C3.48 6.22, 3.3 6.24, 3.12 6.24 C2.94 6.24, 2.75 6.22, 2.58 6.19 C2.4 6.16, 2.22 6.11, 2.05 6.05 C1.88 5.99, 1.72 5.91, 1.56 5.82 C1.4 5.73, 1.25 5.62, 1.11 5.51 C0.98 5.39, 0.85 5.26, 0.73 5.12 C0.61 4.98, 0.51 4.83, 0.42 4.68 C0.33 4.52, 0.25 4.35, 0.19 4.18 C0.13 4.01, 0.08 3.84, 0.05 3.66 C0.02 3.48, 0 3.3, 0 3.12 C0 2.94, 0.02 2.75, 0.05 2.58 C0.08 2.4, 0.13 2.22, 0.19 2.05 C0.25 1.88, 0.33 1.72, 0.42 1.56 C0.51 1.4, 0.61 1.25, 0.73 1.11 C0.85 0.98, 0.98 0.85, 1.11 0.73 C1.25 0.61, 1.4 0.51, 1.56 0.42 C1.72 0.33, 1.88 0.25, 2.05 0.19 C2.22 0.13, 2.4 0.08, 2.58 0.05 C2.75 0.02, 2.94 0, 3.12 0 C3.3 0, 3.48 0.02, 3.66 0.05 C3.84 0.08, 4.01 0.13, 4.18 0.19 C4.35 0.25, 4.52 0.33, 4.68 0.42 C4.83 0.51, 4.98 0.61, 5.12 0.73 C5.26 0.85, 5.39 0.98, 5.51 1.11 C5.62 1.25, 5.73 1.4, 5.82 1.56 C5.91 1.72, 5.99 1.88, 6.05 2.05 C6.11 2.22, 6.16 2.4, 6.19 2.58 C6.22 2.75, 6.23 3.03, 6.24 3.12 C6.24 3.21, 6.24 3.03, 6.24 3.12" stroke="none" stroke-width="0" fill="#f783ac"></path><path d="M6.24 3.12 C6.24 3.3, 6.22 3.48, 6.19 3.66 C6.16 3.84, 6.11 4.01, 6.05 4.18 C5.99 4.35, 5.91 4.52, 5.82 4.68 C5.73 4.83, 5.62 4.98, 5.51 5.12 C5.39 5.26, 5.26 5.39, 5.12 5.51 C4.98 5.62, 4.83 5.73, 4.68 5.82 C4.52 5.91, 4.35 5.99, 4.18 6.05 C4.01 6.11, 3.84 6.16, 3.66 6.19 C3.48 6.22, 3.3 6.24, 3.12 6.24 C2.94 6.24, 2.75 6.22, 2.58 6.19 C2.4 6.16, 2.22 6.11, 2.05 6.05 C1.88 5.99, 1.72 5.91, 1.56 5.82 C1.4 5.73, 1.25 5.62, 1.11 5.51 C0.98 5.39, 0.85 5.26, 0.73 5.12 C0.61 4.98, 0.51 4.83, 0.42 4.68 C0.33 4.52, 0.25 4.35, 0.19 4.18 C0.13 4.01, 0.08 3.84, 0.05 3.66 C0.02 3.48, 0 3.3, 0 3.12 C0 2.94, 0.02 2.75, 0.05 2.58 C0.08 2.4, 0.13 2.22, 0.19 2.05 C0.25 1.88, 0.33 1.72, 0.42 1.56 C0.51 1.4, 0.61 1.25, 0.73 1.11 C0.85 0.98, 0.98 0.85, 1.11 0.73 C1.25 0.61, 1.4 0.51, 1.56 0.42 C1.72 0.33, 1.88 0.25, 2.05 0.19 C2.22 0.13, 2.4 0.08, 2.58 0.05 C2.75 0.02, 2.94 0, 3.12 0 C3.3 0, 3.48 0.02, 3.66 0.05 C3.84 0.08, 4.01 0.13, 4.18 0.19 C4.35 0.25, 4.52 0.33, 4.68 0.42 C4.83 0.51, 4.98 0.61, 5.12 0.73 C5.26 0.85, 5.39 0.98, 5.51 1.11 C5.62 1.25, 5.73 1.4, 5.82 1.56 C5.91 1.72, 5.99 1.88, 6.05 2.05 C6.11 2.22, 6.16 2.4, 6.19 2.58 C6.22 2.75, 6.23 3.03, 6.24 3.12 C6.24 3.21, 6.24 3.03, 6.24 3.12" stroke="transparent" stroke-width="2" fill="none"></path></g><g stroke-linecap="round" transform="translate(20.65491725432412 27.801728326168814) rotate(269.9999999999999 4.290813186896457 4.778861552781564)"><path d="M2.15 0 C3.66 0, 5.18 0, 6.44 0 C7.87 0, 8.58 0.72, 8.58 2.15 C8.58 3.57, 8.58 5, 8.58 7.41 C8.58 8.84, 7.87 9.56, 6.44 9.56 C5.13 9.56, 3.83 9.56, 2.15 9.56 C0.72 9.56, 0 8.84, 0 7.41 C0 5.58, 0 3.75, 0 2.15 C0 0.72, 0.72 0, 2.15 0" stroke="none" stroke-width="0" fill="#343a40"></path><path d="M2.15 0 C3.49 0, 4.84 0, 6.44 0 M2.15 0 C3.05 0, 3.95 0, 6.44 0 M6.44 0 C7.87 0, 8.58 0.72, 8.58 2.15 M6.44 0 C7.87 0, 8.58 0.72, 8.58 2.15 M8.58 2.15 C8.58 3.23, 8.58 4.31, 8.58 7.41 M8.58 2.15 C8.58 3.46, 8.58 4.77, 8.58 7.41 M8.58 7.41 C8.58 8.84, 7.87 9.56, 6.44 9.56 M8.58 7.41 C8.58 8.84, 7.87 9.56, 6.44 9.56 M6.44 9.56 C4.78 9.56, 3.13 9.56, 2.15 9.56 M6.44 9.56 C4.93 9.56, 3.43 9.56, 2.15 9.56 M2.15 9.56 C0.72 9.56, 0 8.84, 0 7.41 M2.15 9.56 C0.72 9.56, 0 8.84, 0 7.41 M0 7.41 C0 5.8, 0 4.18, 0 2.15 M0 7.41 C0 5.96, 0 4.5, 0 2.15 M0 2.15 C0 0.72, 0.72 0, 2.15 0 M0 2.15 C0 0.72, 0.72 0, 2.15 0" stroke="transparent" stroke-width="4" fill="none"></path></g><g stroke-linecap="round" transform="translate(20.188030317915945 25.712054962883485) rotate(269.9999999999999 4.7577431105016785 4.757743110501906)"><path d="M9.52 4.76 C9.52 5.03, 9.49 5.31, 9.44 5.58 C9.4 5.86, 9.32 6.13, 9.23 6.38 C9.13 6.64, 9.02 6.9, 8.88 7.14 C8.74 7.38, 8.58 7.6, 8.4 7.82 C8.23 8.03, 8.03 8.23, 7.82 8.4 C7.6 8.58, 7.38 8.74, 7.14 8.88 C6.9 9.02, 6.64 9.13, 6.38 9.23 C6.13 9.32, 5.86 9.4, 5.58 9.44 C5.31 9.49, 5.03 9.52, 4.76 9.52 C4.48 9.52, 4.2 9.49, 3.93 9.44 C3.66 9.4, 3.39 9.32, 3.13 9.23 C2.87 9.13, 2.62 9.02, 2.38 8.88 C2.14 8.74, 1.91 8.58, 1.7 8.4 C1.49 8.23, 1.29 8.03, 1.11 7.82 C0.94 7.6, 0.78 7.38, 0.64 7.14 C0.5 6.9, 0.38 6.64, 0.29 6.38 C0.19 6.13, 0.12 5.86, 0.07 5.58 C0.02 5.31, 0 5.03, 0 4.76 C0 4.48, 0.02 4.2, 0.07 3.93 C0.12 3.66, 0.19 3.39, 0.29 3.13 C0.38 2.87, 0.5 2.62, 0.64 2.38 C0.78 2.14, 0.94 1.91, 1.11 1.7 C1.29 1.49, 1.49 1.29, 1.7 1.11 C1.91 0.94, 2.14 0.78, 2.38 0.64 C2.62 0.5, 2.87 0.38, 3.13 0.29 C3.39 0.19, 3.66 0.12, 3.93 0.07 C4.2 0.02, 4.48 0, 4.76 0 C5.03 0, 5.31 0.02, 5.58 0.07 C5.86 0.12, 6.13 0.19, 6.38 0.29 C6.64 0.38, 6.9 0.5, 7.14 0.64 C7.38 0.78, 7.6 0.94, 7.82 1.11 C8.03 1.29, 8.23 1.49, 8.4 1.7 C8.58 1.91, 8.74 2.14, 8.88 2.38 C9.02 2.62, 9.13 2.87, 9.23 3.13 C9.32 3.39, 9.4 3.66, 9.44 3.93 C9.49 4.2, 9.5 4.62, 9.52 4.76 C9.53 4.9, 9.53 4.62, 9.52 4.76" stroke="none" stroke-width="0" fill="#343a40"></path><path d="M9.52 4.76 C9.52 5.03, 9.49 5.31, 9.44 5.58 C9.4 5.86, 9.32 6.13, 9.23 6.38 C9.13 6.64, 9.02 6.9, 8.88 7.14 C8.74 7.38, 8.58 7.6, 8.4 7.82 C8.23 8.03, 8.03 8.23, 7.82 8.4 C7.6 8.58, 7.38 8.74, 7.14 8.88 C6.9 9.02, 6.64 9.13, 6.38 9.23 C6.13 9.32, 5.86 9.4, 5.58 9.44 C5.31 9.49, 5.03 9.52, 4.76 9.52 C4.48 9.52, 4.2 9.49, 3.93 9.44 C3.66 9.4, 3.39 9.32, 3.13 9.23 C2.87 9.13, 2.62 9.02, 2.38 8.88 C2.14 8.74, 1.91 8.58, 1.7 8.4 C1.49 8.23, 1.29 8.03, 1.11 7.82 C0.94 7.6, 0.78 7.38, 0.64 7.14 C0.5 6.9, 0.38 6.64, 0.29 6.38 C0.19 6.13, 0.12 5.86, 0.07 5.58 C0.02 5.31, 0 5.03, 0 4.76 C0 4.48, 0.02 4.2, 0.07 3.93 C0.12 3.66, 0.19 3.39, 0.29 3.13 C0.38 2.87, 0.5 2.62, 0.64 2.38 C0.78 2.14, 0.94 1.91, 1.11 1.7 C1.29 1.49, 1.49 1.29, 1.7 1.11 C1.91 0.94, 2.14 0.78, 2.38 0.64 C2.62 0.5, 2.87 0.38, 3.13 0.29 C3.39 0.19, 3.66 0.12, 3.93 0.07 C4.2 0.02, 4.48 0, 4.76 0 C5.03 0, 5.31 0.02, 5.58 0.07 C5.86 0.12, 6.13 0.19, 6.38 0.29 C6.64 0.38, 6.9 0.5, 7.14 0.64 C7.38 0.78, 7.6 0.94, 7.82 1.11 C8.03 1.29, 8.23 1.49, 8.4 1.7 C8.58 1.91, 8.74 2.14, 8.88 2.38 C9.02 2.62, 9.13 2.87, 9.23 3.13 C9.32 3.39, 9.4 3.66, 9.44 3.93 C9.49 4.2, 9.5 4.62, 9.52 4.76 C9.53 4.9, 9.53 4.62, 9.52 4.76" stroke="transparent" stroke-width="2" fill="none"></path></g><g stroke-linecap="round" transform="translate(23.249094649488597 30.06332195063078) rotate(0 1.6849129289662415 1.6849129289657867)"><path d="M3.37 1.68 C3.37 1.78, 3.36 1.88, 3.34 1.98 C3.33 2.07, 3.3 2.17, 3.27 2.26 C3.23 2.35, 3.19 2.44, 3.14 2.53 C3.1 2.61, 3.04 2.69, 2.98 2.77 C2.91 2.84, 2.84 2.91, 2.77 2.98 C2.69 3.04, 2.61 3.1, 2.53 3.14 C2.44 3.19, 2.35 3.23, 2.26 3.27 C2.17 3.3, 2.07 3.33, 1.98 3.34 C1.88 3.36, 1.78 3.37, 1.68 3.37 C1.59 3.37, 1.49 3.36, 1.39 3.34 C1.3 3.33, 1.2 3.3, 1.11 3.27 C1.02 3.23, 0.93 3.19, 0.84 3.14 C0.76 3.1, 0.68 3.04, 0.6 2.98 C0.53 2.91, 0.46 2.84, 0.39 2.77 C0.33 2.69, 0.27 2.61, 0.23 2.53 C0.18 2.44, 0.13 2.35, 0.1 2.26 C0.07 2.17, 0.04 2.07, 0.03 1.98 C0.01 1.88, 0 1.78, 0 1.68 C0 1.59, 0.01 1.49, 0.03 1.39 C0.04 1.3, 0.07 1.2, 0.1 1.11 C0.13 1.02, 0.18 0.93, 0.23 0.84 C0.27 0.76, 0.33 0.68, 0.39 0.6 C0.46 0.53, 0.53 0.46, 0.6 0.39 C0.68 0.33, 0.76 0.27, 0.84 0.23 C0.93 0.18, 1.02 0.13, 1.11 0.1 C1.2 0.07, 1.3 0.04, 1.39 0.03 C1.49 0.01, 1.59 0, 1.68 0 C1.78 0, 1.88 0.01, 1.98 0.03 C2.07 0.04, 2.17 0.07, 2.26 0.1 C2.35 0.13, 2.44 0.18, 2.53 0.23 C2.61 0.27, 2.69 0.33, 2.77 0.39 C2.84 0.46, 2.91 0.53, 2.98 0.6 C3.04 0.68, 3.1 0.76, 3.14 0.84 C3.19 0.93, 3.23 1.02, 3.27 1.11 C3.3 1.2, 3.33 1.3, 3.34 1.39 C3.36 1.49, 3.37 1.64, 3.37 1.68 C3.37 1.73, 3.37 1.64, 3.37 1.68" stroke="none" stroke-width="0" fill="#ffffff"></path><path d="M3.37 1.68 C3.37 1.78, 3.36 1.88, 3.34 1.98 C3.33 2.07, 3.3 2.17, 3.27 2.26 C3.23 2.35, 3.19 2.44, 3.14 2.53 C3.1 2.61, 3.04 2.69, 2.98 2.77 C2.91 2.84, 2.84 2.91, 2.77 2.98 C2.69 3.04, 2.61 3.1, 2.53 3.14 C2.44 3.19, 2.35 3.23, 2.26 3.27 C2.17 3.3, 2.07 3.33, 1.98 3.34 C1.88 3.36, 1.78 3.37, 1.68 3.37 C1.59 3.37, 1.49 3.36, 1.39 3.34 C1.3 3.33, 1.2 3.3, 1.11 3.27 C1.02 3.23, 0.93 3.19, 0.84 3.14 C0.76 3.1, 0.68 3.04, 0.6 2.98 C0.53 2.91, 0.46 2.84, 0.39 2.77 C0.33 2.69, 0.27 2.61, 0.23 2.53 C0.18 2.44, 0.13 2.35, 0.1 2.26 C0.07 2.17, 0.04 2.07, 0.03 1.98 C0.01 1.88, 0 1.78, 0 1.68 C0 1.59, 0.01 1.49, 0.03 1.39 C0.04 1.3, 0.07 1.2, 0.1 1.11 C0.13 1.02, 0.18 0.93, 0.23 0.84 C0.27 0.76, 0.33 0.68, 0.39 0.6 C0.46 0.53, 0.53 0.46, 0.6 0.39 C0.68 0.33, 0.76 0.27, 0.84 0.23 C0.93 0.18, 1.02 0.13, 1.11 0.1 C1.2 0.07, 1.3 0.04, 1.39 0.03 C1.49 0.01, 1.59 0, 1.68 0 C1.78 0, 1.88 0.01, 1.98 0.03 C2.07 0.04, 2.17 0.07, 2.26 0.1 C2.35 0.13, 2.44 0.18, 2.53 0.23 C2.61 0.27, 2.69 0.33, 2.77 0.39 C2.84 0.46, 2.91 0.53, 2.98 0.6 C3.04 0.68, 3.1 0.76, 3.14 0.84 C3.19 0.93, 3.23 1.02, 3.27 1.11 C3.3 1.2, 3.33 1.3, 3.34 1.39 C3.36 1.49, 3.37 1.64, 3.37 1.68 C3.37 1.73, 3.37 1.64, 3.37 1.68" stroke="transparent" stroke-width="2" fill="none"></path></g><g stroke-linecap="round" transform="translate(23.24285867264416 31.091854111626162) rotate(0 1.6911489058109055 2.317773047380797)"><path d="M0.85 0 C1.35 0, 1.85 0, 2.54 0 C3.1 0, 3.38 0.28, 3.38 0.85 C3.38 1.68, 3.38 2.51, 3.38 3.79 C3.38 4.35, 3.1 4.64, 2.54 4.64 C1.94 4.64, 1.34 4.64, 0.85 4.64 C0.28 4.64, 0 4.35, 0 3.79 C0 3.13, 0 2.48, 0 0.85 C0 0.28, 0.28 0, 0.85 0" stroke="none" stroke-width="0" fill="#ffffff"></path><path d="M0.85 0 C1.34 0, 1.84 0, 2.54 0 M0.85 0 C1.2 0, 1.55 0, 2.54 0 M2.54 0 C3.1 0, 3.38 0.28, 3.38 0.85 M2.54 0 C3.1 0, 3.38 0.28, 3.38 0.85 M3.38 0.85 C3.38 1.76, 3.38 2.68, 3.38 3.79 M3.38 0.85 C3.38 1.57, 3.38 2.29, 3.38 3.79 M3.38 3.79 C3.38 4.35, 3.1 4.64, 2.54 4.64 M3.38 3.79 C3.38 4.35, 3.1 4.64, 2.54 4.64 M2.54 4.64 C2.14 4.64, 1.74 4.64, 0.85 4.64 M2.54 4.64 C2.09 4.64, 1.65 4.64, 0.85 4.64 M0.85 4.64 C0.28 4.64, 0 4.35, 0 3.79 M0.85 4.64 C0.28 4.64, 0 4.35, 0 3.79 M0 3.79 C0 2.62, 0 1.45, 0 0.85 M0 3.79 C0 3.13, 0 2.46, 0 0.85 M0 0.85 C0 0.28, 0.28 0, 0.85 0 M0 0.85 C0 0.28, 0.28 0, 0.85 0" stroke="transparent" stroke-width="4" fill="none"></path></g><g stroke-linecap="round" transform="translate(38.77405827403936 28.58823034260604) rotate(135.00000000000017 4.508875781743654 1.9145462818842134)"><path d="M0.96 0 C3.58 0, 6.21 0, 8.06 0 C8.7 0, 9.02 0.32, 9.02 0.96 C9.02 1.57, 9.02 2.19, 9.02 2.87 C9.02 3.51, 8.7 3.83, 8.06 3.83 C6.1 3.83, 4.13 3.83, 0.96 3.83 C0.32 3.83, 0 3.51, 0 2.87 C0 2.31, 0 1.74, 0 0.96 C0 0.32, 0.32 0, 0.96 0" stroke="none" stroke-width="0" fill="#343a40"></path><path d="M0.96 0 C2.61 0, 4.26 0, 8.06 0 M0.96 0 C3.66 0, 6.35 0, 8.06 0 M8.06 0 C8.7 0, 9.02 0.32, 9.02 0.96 M8.06 0 C8.7 0, 9.02 0.32, 9.02 0.96 M9.02 0.96 C9.02 1.52, 9.02 2.08, 9.02 2.87 M9.02 0.96 C9.02 1.58, 9.02 2.2, 9.02 2.87 M9.02 2.87 C9.02 3.51, 8.7 3.83, 8.06 3.83 M9.02 2.87 C9.02 3.51, 8.7 3.83, 8.06 3.83 M8.06 3.83 C5.46 3.83, 2.85 3.83, 0.96 3.83 M8.06 3.83 C5.85 3.83, 3.64 3.83, 0.96 3.83 M0.96 3.83 C0.32 3.83, 0 3.51, 0 2.87 M0.96 3.83 C0.32 3.83, 0 3.51, 0 2.87 M0 2.87 C0 2.21, 0 1.54, 0 0.96 M0 2.87 C0 2.23, 0 1.6, 0 0.96 M0 0.96 C0 0.32, 0.32 0, 0.96 0 M0 0.96 C0 0.32, 0.32 0, 0.96 0" stroke="transparent" stroke-width="4" fill="none"></path></g><g stroke-linecap="round" transform="translate(43.94752147813733 26.025993566279794) rotate(135.00000000000017 1.9060856402227273 1.9060856402229547)"><path d="M3.81 1.91 C3.81 2.02, 3.8 2.13, 3.78 2.24 C3.76 2.35, 3.73 2.45, 3.7 2.56 C3.66 2.66, 3.61 2.76, 3.56 2.86 C3.5 2.95, 3.44 3.05, 3.37 3.13 C3.3 3.22, 3.22 3.3, 3.13 3.37 C3.05 3.44, 2.95 3.5, 2.86 3.56 C2.76 3.61, 2.66 3.66, 2.56 3.7 C2.45 3.73, 2.35 3.76, 2.24 3.78 C2.13 3.8, 2.02 3.81, 1.91 3.81 C1.8 3.81, 1.68 3.8, 1.58 3.78 C1.47 3.76, 1.36 3.73, 1.25 3.7 C1.15 3.66, 1.05 3.61, 0.95 3.56 C0.86 3.5, 0.77 3.44, 0.68 3.37 C0.6 3.3, 0.52 3.22, 0.45 3.13 C0.38 3.05, 0.31 2.95, 0.26 2.86 C0.2 2.76, 0.15 2.66, 0.11 2.56 C0.08 2.45, 0.05 2.35, 0.03 2.24 C0.01 2.13, 0 2.02, 0 1.91 C0 1.8, 0.01 1.68, 0.03 1.58 C0.05 1.47, 0.08 1.36, 0.11 1.25 C0.15 1.15, 0.2 1.05, 0.26 0.95 C0.31 0.86, 0.38 0.77, 0.45 0.68 C0.52 0.6, 0.6 0.52, 0.68 0.45 C0.77 0.38, 0.86 0.31, 0.95 0.26 C1.05 0.2, 1.15 0.15, 1.25 0.11 C1.36 0.08, 1.47 0.05, 1.58 0.03 C1.68 0.01, 1.8 0, 1.91 0 C2.02 0, 2.13 0.01, 2.24 0.03 C2.35 0.05, 2.45 0.08, 2.56 0.11 C2.66 0.15, 2.76 0.2, 2.86 0.26 C2.95 0.31, 3.05 0.38, 3.13 0.45 C3.22 0.52, 3.3 0.6, 3.37 0.68 C3.44 0.77, 3.5 0.86, 3.56 0.95 C3.61 1.05, 3.66 1.15, 3.7 1.25 C3.73 1.36, 3.76 1.47, 3.78 1.58 C3.8 1.68, 3.81 1.85, 3.81 1.91 C3.82 1.96, 3.82 1.85, 3.81 1.91" stroke="none" stroke-width="0" fill="#343a40"></path><path d="M3.81 1.91 C3.81 2.02, 3.8 2.13, 3.78 2.24 C3.76 2.35, 3.73 2.45, 3.7 2.56 C3.66 2.66, 3.61 2.76, 3.56 2.86 C3.5 2.95, 3.44 3.05, 3.37 3.13 C3.3 3.22, 3.22 3.3, 3.13 3.37 C3.05 3.44, 2.95 3.5, 2.86 3.56 C2.76 3.61, 2.66 3.66, 2.56 3.7 C2.45 3.73, 2.35 3.76, 2.24 3.78 C2.13 3.8, 2.02 3.81, 1.91 3.81 C1.8 3.81, 1.68 3.8, 1.58 3.78 C1.47 3.76, 1.36 3.73, 1.25 3.7 C1.15 3.66, 1.05 3.61, 0.95 3.56 C0.86 3.5, 0.77 3.44, 0.68 3.37 C0.6 3.3, 0.52 3.22, 0.45 3.13 C0.38 3.05, 0.31 2.95, 0.26 2.86 C0.2 2.76, 0.15 2.66, 0.11 2.56 C0.08 2.45, 0.05 2.35, 0.03 2.24 C0.01 2.13, 0 2.02, 0 1.91 C0 1.8, 0.01 1.68, 0.03 1.58 C0.05 1.47, 0.08 1.36, 0.11 1.25 C0.15 1.15, 0.2 1.05, 0.26 0.95 C0.31 0.86, 0.38 0.77, 0.45 0.68 C0.52 0.6, 0.6 0.52, 0.68 0.45 C0.77 0.38, 0.86 0.31, 0.95 0.26 C1.05 0.2, 1.15 0.15, 1.25 0.11 C1.36 0.08, 1.47 0.05, 1.58 0.03 C1.68 0.01, 1.8 0, 1.91 0 C2.02 0, 2.13 0.01, 2.24 0.03 C2.35 0.05, 2.45 0.08, 2.56 0.11 C2.66 0.15, 2.76 0.2, 2.86 0.26 C2.95 0.31, 3.05 0.38, 3.13 0.45 C3.22 0.52, 3.3 0.6, 3.37 0.68 C3.44 0.77, 3.5 0.86, 3.56 0.95 C3.61 1.05, 3.66 1.15, 3.7 1.25 C3.73 1.36, 3.76 1.47, 3.78 1.58 C3.8 1.68, 3.81 1.85, 3.81 1.91 C3.82 1.96, 3.82 1.85, 3.81 1.91" stroke="transparent" stroke-width="2" fill="none"></path></g><g stroke-linecap="round" transform="translate(38.195343052398584 33.6247205222644) rotate(0 3.1177694437085393 3.117769443708312)"><path d="M6.24 3.12 C6.24 3.3, 6.22 3.48, 6.19 3.66 C6.16 3.84, 6.11 4.01, 6.05 4.18 C5.99 4.35, 5.91 4.52, 5.82 4.68 C5.73 4.83, 5.62 4.98, 5.51 5.12 C5.39 5.26, 5.26 5.39, 5.12 5.51 C4.98 5.62, 4.83 5.73, 4.68 5.82 C4.52 5.91, 4.35 5.99, 4.18 6.05 C4.01 6.11, 3.84 6.16, 3.66 6.19 C3.48 6.22, 3.3 6.24, 3.12 6.24 C2.94 6.24, 2.75 6.22, 2.58 6.19 C2.4 6.16, 2.22 6.11, 2.05 6.05 C1.88 5.99, 1.72 5.91, 1.56 5.82 C1.4 5.73, 1.25 5.62, 1.11 5.51 C0.98 5.39, 0.85 5.26, 0.73 5.12 C0.61 4.98, 0.51 4.83, 0.42 4.68 C0.33 4.52, 0.25 4.35, 0.19 4.18 C0.13 4.01, 0.08 3.84, 0.05 3.66 C0.02 3.48, 0 3.3, 0 3.12 C0 2.94, 0.02 2.75, 0.05 2.58 C0.08 2.4, 0.13 2.22, 0.19 2.05 C0.25 1.88, 0.33 1.72, 0.42 1.56 C0.51 1.4, 0.61 1.25, 0.73 1.11 C0.85 0.98, 0.98 0.85, 1.11 0.73 C1.25 0.61, 1.4 0.51, 1.56 0.42 C1.72 0.33, 1.88 0.25, 2.05 0.19 C2.22 0.13, 2.4 0.08, 2.58 0.05 C2.75 0.02, 2.94 0, 3.12 0 C3.3 0, 3.48 0.02, 3.66 0.05 C3.84 0.08, 4.01 0.13, 4.18 0.19 C4.35 0.25, 4.52 0.33, 4.68 0.42 C4.83 0.51, 4.98 0.61, 5.12 0.73 C5.26 0.85, 5.39 0.98, 5.51 1.11 C5.62 1.25, 5.73 1.4, 5.82 1.56 C5.91 1.72, 5.99 1.88, 6.05 2.05 C6.11 2.22, 6.16 2.4, 6.19 2.58 C6.22 2.75, 6.23 3.03, 6.24 3.12 C6.24 3.21, 6.24 3.03, 6.24 3.12" stroke="none" stroke-width="0" fill="#f783ac"></path><path d="M6.24 3.12 C6.24 3.3, 6.22 3.48, 6.19 3.66 C6.16 3.84, 6.11 4.01, 6.05 4.18 C5.99 4.35, 5.91 4.52, 5.82 4.68 C5.73 4.83, 5.62 4.98, 5.51 5.12 C5.39 5.26, 5.26 5.39, 5.12 5.51 C4.98 5.62, 4.83 5.73, 4.68 5.82 C4.52 5.91, 4.35 5.99, 4.18 6.05 C4.01 6.11, 3.84 6.16, 3.66 6.19 C3.48 6.22, 3.3 6.24, 3.12 6.24 C2.94 6.24, 2.75 6.22, 2.58 6.19 C2.4 6.16, 2.22 6.11, 2.05 6.05 C1.88 5.99, 1.72 5.91, 1.56 5.82 C1.4 5.73, 1.25 5.62, 1.11 5.51 C0.98 5.39, 0.85 5.26, 0.73 5.12 C0.61 4.98, 0.51 4.83, 0.42 4.68 C0.33 4.52, 0.25 4.35, 0.19 4.18 C0.13 4.01, 0.08 3.84, 0.05 3.66 C0.02 3.48, 0 3.3, 0 3.12 C0 2.94, 0.02 2.75, 0.05 2.58 C0.08 2.4, 0.13 2.22, 0.19 2.05 C0.25 1.88, 0.33 1.72, 0.42 1.56 C0.51 1.4, 0.61 1.25, 0.73 1.11 C0.85 0.98, 0.98 0.85, 1.11 0.73 C1.25 0.61, 1.4 0.51, 1.56 0.42 C1.72 0.33, 1.88 0.25, 2.05 0.19 C2.22 0.13, 2.4 0.08, 2.58 0.05 C2.75 0.02, 2.94 0, 3.12 0 C3.3 0, 3.48 0.02, 3.66 0.05 C3.84 0.08, 4.01 0.13, 4.18 0.19 C4.35 0.25, 4.52 0.33, 4.68 0.42 C4.83 0.51, 4.98 0.61, 5.12 0.73 C5.26 0.85, 5.39 0.98, 5.51 1.11 C5.62 1.25, 5.73 1.4, 5.82 1.56 C5.91 1.72, 5.99 1.88, 6.05 2.05 C6.11 2.22, 6.16 2.4, 6.19 2.58 C6.22 2.75, 6.23 3.03, 6.24 3.12 C6.24 3.21, 6.24 3.03, 6.24 3.12" stroke="transparent" stroke-width="2" fill="none"></path></g><g stroke-linecap="round" transform="translate(36.95599622230384 27.835432790257983) rotate(90.0000000000001 4.3245176509856265 4.778861552782473)"><path d="M2.16 0 C3.39 0, 4.61 0, 6.49 0 C7.93 0, 8.65 0.72, 8.65 2.16 C8.65 3.38, 8.65 4.6, 8.65 7.4 C8.65 8.84, 7.93 9.56, 6.49 9.56 C5.57 9.56, 4.66 9.56, 2.16 9.56 C0.72 9.56, 0 8.84, 0 7.4 C0 5.51, 0 3.62, 0 2.16 C0 0.72, 0.72 0, 2.16 0" stroke="none" stroke-width="0" fill="#343a40"></path><path d="M2.16 0 C3.04 0, 3.92 0, 6.49 0 M2.16 0 C3.76 0, 5.37 0, 6.49 0 M6.49 0 C7.93 0, 8.65 0.72, 8.65 2.16 M6.49 0 C7.93 0, 8.65 0.72, 8.65 2.16 M8.65 2.16 C8.65 3.51, 8.65 4.86, 8.65 7.4 M8.65 2.16 C8.65 3.35, 8.65 4.55, 8.65 7.4 M8.65 7.4 C8.65 8.84, 7.93 9.56, 6.49 9.56 M8.65 7.4 C8.65 8.84, 7.93 9.56, 6.49 9.56 M6.49 9.56 C4.81 9.56, 3.14 9.56, 2.16 9.56 M6.49 9.56 C5.51 9.56, 4.54 9.56, 2.16 9.56 M2.16 9.56 C0.72 9.56, 0 8.84, 0 7.4 M2.16 9.56 C0.72 9.56, 0 8.84, 0 7.4 M0 7.4 C0 5.43, 0 3.47, 0 2.16 M0 7.4 C0 5.61, 0 3.83, 0 2.16 M0 2.16 C0 0.72, 0.72 0, 2.16 0 M0 2.16 C0 0.72, 0.72 0, 2.16 0" stroke="transparent" stroke-width="4" fill="none"></path></g><g stroke-linecap="round" transform="translate(36.52272777559028 25.712054962883485) rotate(90.0000000000001 4.7577431105016785 4.757743110501906)"><path d="M9.52 4.76 C9.52 5.03, 9.49 5.31, 9.44 5.58 C9.4 5.86, 9.32 6.13, 9.23 6.38 C9.13 6.64, 9.02 6.9, 8.88 7.14 C8.74 7.38, 8.58 7.6, 8.4 7.82 C8.23 8.03, 8.03 8.23, 7.82 8.4 C7.6 8.58, 7.38 8.74, 7.14 8.88 C6.9 9.02, 6.64 9.13, 6.38 9.23 C6.13 9.32, 5.86 9.4, 5.58 9.44 C5.31 9.49, 5.03 9.52, 4.76 9.52 C4.48 9.52, 4.2 9.49, 3.93 9.44 C3.66 9.4, 3.39 9.32, 3.13 9.23 C2.87 9.13, 2.62 9.02, 2.38 8.88 C2.14 8.74, 1.91 8.58, 1.7 8.4 C1.49 8.23, 1.29 8.03, 1.11 7.82 C0.94 7.6, 0.78 7.38, 0.64 7.14 C0.5 6.9, 0.38 6.64, 0.29 6.38 C0.19 6.13, 0.12 5.86, 0.07 5.58 C0.02 5.31, 0 5.03, 0 4.76 C0 4.48, 0.02 4.2, 0.07 3.93 C0.12 3.66, 0.19 3.39, 0.29 3.13 C0.38 2.87, 0.5 2.62, 0.64 2.38 C0.78 2.14, 0.94 1.91, 1.11 1.7 C1.29 1.49, 1.49 1.29, 1.7 1.11 C1.91 0.94, 2.14 0.78, 2.38 0.64 C2.62 0.5, 2.87 0.38, 3.13 0.29 C3.39 0.19, 3.66 0.12, 3.93 0.07 C4.2 0.02, 4.48 0, 4.76 0 C5.03 0, 5.31 0.02, 5.58 0.07 C5.86 0.12, 6.13 0.19, 6.38 0.29 C6.64 0.38, 6.9 0.5, 7.14 0.64 C7.38 0.78, 7.6 0.94, 7.82 1.11 C8.03 1.29, 8.23 1.49, 8.4 1.7 C8.58 1.91, 8.74 2.14, 8.88 2.38 C9.02 2.62, 9.13 2.87, 9.23 3.13 C9.32 3.39, 9.4 3.66, 9.44 3.93 C9.49 4.2, 9.5 4.62, 9.52 4.76 C9.53 4.9, 9.53 4.62, 9.52 4.76" stroke="none" stroke-width="0" fill="#343a40"></path><path d="M9.52 4.76 C9.52 5.03, 9.49 5.31, 9.44 5.58 C9.4 5.86, 9.32 6.13, 9.23 6.38 C9.13 6.64, 9.02 6.9, 8.88 7.14 C8.74 7.38, 8.58 7.6, 8.4 7.82 C8.23 8.03, 8.03 8.23, 7.82 8.4 C7.6 8.58, 7.38 8.74, 7.14 8.88 C6.9 9.02, 6.64 9.13, 6.38 9.23 C6.13 9.32, 5.86 9.4, 5.58 9.44 C5.31 9.49, 5.03 9.52, 4.76 9.52 C4.48 9.52, 4.2 9.49, 3.93 9.44 C3.66 9.4, 3.39 9.32, 3.13 9.23 C2.87 9.13, 2.62 9.02, 2.38 8.88 C2.14 8.74, 1.91 8.58, 1.7 8.4 C1.49 8.23, 1.29 8.03, 1.11 7.82 C0.94 7.6, 0.78 7.38, 0.64 7.14 C0.5 6.9, 0.38 6.64, 0.29 6.38 C0.19 6.13, 0.12 5.86, 0.07 5.58 C0.02 5.31, 0 5.03, 0 4.76 C0 4.48, 0.02 4.2, 0.07 3.93 C0.12 3.66, 0.19 3.39, 0.29 3.13 C0.38 2.87, 0.5 2.62, 0.64 2.38 C0.78 2.14, 0.94 1.91, 1.11 1.7 C1.29 1.49, 1.49 1.29, 1.7 1.11 C1.91 0.94, 2.14 0.78, 2.38 0.64 C2.62 0.5, 2.87 0.38, 3.13 0.29 C3.39 0.19, 3.66 0.12, 3.93 0.07 C4.2 0.02, 4.48 0, 4.76 0 C5.03 0, 5.31 0.02, 5.58 0.07 C5.86 0.12, 6.13 0.19, 6.38 0.29 C6.64 0.38, 6.9 0.5, 7.14 0.64 C7.38 0.78, 7.6 0.94, 7.82 1.11 C8.03 1.29, 8.23 1.49, 8.4 1.7 C8.58 1.91, 8.74 2.14, 8.88 2.38 C9.02 2.62, 9.13 2.87, 9.23 3.13 C9.32 3.39, 9.4 3.66, 9.44 3.93 C9.49 4.2, 9.5 4.62, 9.52 4.76 C9.53 4.9, 9.53 4.62, 9.52 4.76" stroke="transparent" stroke-width="2" fill="none"></path></g><g stroke-linecap="round" transform="translate(39.60732380708987 30.06332195063078) rotate(0 1.6849129289662415 1.6849129289657867)"><path d="M3.37 1.68 C3.37 1.78, 3.36 1.88, 3.34 1.98 C3.33 2.07, 3.3 2.17, 3.27 2.26 C3.23 2.35, 3.19 2.44, 3.14 2.53 C3.1 2.61, 3.04 2.69, 2.98 2.77 C2.91 2.84, 2.84 2.91, 2.77 2.98 C2.69 3.04, 2.61 3.1, 2.53 3.14 C2.44 3.19, 2.35 3.23, 2.26 3.27 C2.17 3.3, 2.07 3.33, 1.98 3.34 C1.88 3.36, 1.78 3.37, 1.68 3.37 C1.59 3.37, 1.49 3.36, 1.39 3.34 C1.3 3.33, 1.2 3.3, 1.11 3.27 C1.02 3.23, 0.93 3.19, 0.84 3.14 C0.76 3.1, 0.68 3.04, 0.6 2.98 C0.53 2.91, 0.46 2.84, 0.39 2.77 C0.33 2.69, 0.27 2.61, 0.23 2.53 C0.18 2.44, 0.13 2.35, 0.1 2.26 C0.07 2.17, 0.04 2.07, 0.03 1.98 C0.01 1.88, 0 1.78, 0 1.68 C0 1.59, 0.01 1.49, 0.03 1.39 C0.04 1.3, 0.07 1.2, 0.1 1.11 C0.13 1.02, 0.18 0.93, 0.23 0.84 C0.27 0.76, 0.33 0.68, 0.39 0.6 C0.46 0.53, 0.53 0.46, 0.6 0.39 C0.68 0.33, 0.76 0.27, 0.84 0.23 C0.93 0.18, 1.02 0.13, 1.11 0.1 C1.2 0.07, 1.3 0.04, 1.39 0.03 C1.49 0.01, 1.59 0, 1.68 0 C1.78 0, 1.88 0.01, 1.98 0.03 C2.07 0.04, 2.17 0.07, 2.26 0.1 C2.35 0.13, 2.44 0.18, 2.53 0.23 C2.61 0.27, 2.69 0.33, 2.77 0.39 C2.84 0.46, 2.91 0.53, 2.98 0.6 C3.04 0.68, 3.1 0.76, 3.14 0.84 C3.19 0.93, 3.23 1.02, 3.27 1.11 C3.3 1.2, 3.33 1.3, 3.34 1.39 C3.36 1.49, 3.37 1.64, 3.37 1.68 C3.37 1.73, 3.37 1.64, 3.37 1.68" stroke="none" stroke-width="0" fill="#ffffff"></path><path d="M3.37 1.68 C3.37 1.78, 3.36 1.88, 3.34 1.98 C3.33 2.07, 3.3 2.17, 3.27 2.26 C3.23 2.35, 3.19 2.44, 3.14 2.53 C3.1 2.61, 3.04 2.69, 2.98 2.77 C2.91 2.84, 2.84 2.91, 2.77 2.98 C2.69 3.04, 2.61 3.1, 2.53 3.14 C2.44 3.19, 2.35 3.23, 2.26 3.27 C2.17 3.3, 2.07 3.33, 1.98 3.34 C1.88 3.36, 1.78 3.37, 1.68 3.37 C1.59 3.37, 1.49 3.36, 1.39 3.34 C1.3 3.33, 1.2 3.3, 1.11 3.27 C1.02 3.23, 0.93 3.19, 0.84 3.14 C0.76 3.1, 0.68 3.04, 0.6 2.98 C0.53 2.91, 0.46 2.84, 0.39 2.77 C0.33 2.69, 0.27 2.61, 0.23 2.53 C0.18 2.44, 0.13 2.35, 0.1 2.26 C0.07 2.17, 0.04 2.07, 0.03 1.98 C0.01 1.88, 0 1.78, 0 1.68 C0 1.59, 0.01 1.49, 0.03 1.39 C0.04 1.3, 0.07 1.2, 0.1 1.11 C0.13 1.02, 0.18 0.93, 0.23 0.84 C0.27 0.76, 0.33 0.68, 0.39 0.6 C0.46 0.53, 0.53 0.46, 0.6 0.39 C0.68 0.33, 0.76 0.27, 0.84 0.23 C0.93 0.18, 1.02 0.13, 1.11 0.1 C1.2 0.07, 1.3 0.04, 1.39 0.03 C1.49 0.01, 1.59 0, 1.68 0 C1.78 0, 1.88 0.01, 1.98 0.03 C2.07 0.04, 2.17 0.07, 2.26 0.1 C2.35 0.13, 2.44 0.18, 2.53 0.23 C2.61 0.27, 2.69 0.33, 2.77 0.39 C2.84 0.46, 2.91 0.53, 2.98 0.6 C3.04 0.68, 3.1 0.76, 3.14 0.84 C3.19 0.93, 3.23 1.02, 3.27 1.11 C3.3 1.2, 3.33 1.3, 3.34 1.39 C3.36 1.49, 3.37 1.64, 3.37 1.68 C3.37 1.73, 3.37 1.64, 3.37 1.68" stroke="transparent" stroke-width="2" fill="none"></path></g><g stroke-linecap="round" transform="translate(39.60108783024407 31.091854111626162) rotate(0 1.6911489058109055 2.317773047380797)"><path d="M0.85 0 C1.33 0, 1.82 0, 2.54 0 C3.1 0, 3.38 0.28, 3.38 0.85 C3.38 1.52, 3.38 2.19, 3.38 3.79 C3.38 4.35, 3.1 4.64, 2.54 4.64 C1.88 4.64, 1.22 4.64, 0.85 4.64 C0.28 4.64, 0 4.35, 0 3.79 C0 3.03, 0 2.28, 0 0.85 C0 0.28, 0.28 0, 0.85 0" stroke="none" stroke-width="0" fill="#ffffff"></path><path d="M0.85 0 C1.26 0, 1.68 0, 2.54 0 M0.85 0 C1.4 0, 1.95 0, 2.54 0 M2.54 0 C3.1 0, 3.38 0.28, 3.38 0.85 M2.54 0 C3.1 0, 3.38 0.28, 3.38 0.85 M3.38 0.85 C3.38 1.64, 3.38 2.43, 3.38 3.79 M3.38 0.85 C3.38 1.72, 3.38 2.6, 3.38 3.79 M3.38 3.79 C3.38 4.35, 3.1 4.64, 2.54 4.64 M3.38 3.79 C3.38 4.35, 3.1 4.64, 2.54 4.64 M2.54 4.64 C1.93 4.64, 1.32 4.64, 0.85 4.64 M2.54 4.64 C2.18 4.64, 1.81 4.64, 0.85 4.64 M0.85 4.64 C0.28 4.64, 0 4.35, 0 3.79 M0.85 4.64 C0.28 4.64, 0 4.35, 0 3.79 M0 3.79 C0 3.2, 0 2.6, 0 0.85 M0 3.79 C0 2.97, 0 2.14, 0 0.85 M0 0.85 C0 0.28, 0.28 0, 0.85 0 M0 0.85 C0 0.28, 0.28 0, 0.85 0" stroke="transparent" stroke-width="4" fill="none"></path></g><g stroke-linecap="round" transform="translate(29.515915165688966 38.30844586510284) rotate(270.0000000000001 3.5972068746975765 3.597206874697804)"><path d="M7.19 3.6 C7.19 3.81, 7.18 4.02, 7.14 4.22 C7.1 4.43, 7.05 4.63, 6.98 4.83 C6.91 5.02, 6.82 5.22, 6.71 5.4 C6.61 5.58, 6.49 5.75, 6.35 5.91 C6.22 6.07, 6.07 6.22, 5.91 6.35 C5.75 6.49, 5.58 6.61, 5.4 6.71 C5.22 6.82, 5.02 6.91, 4.83 6.98 C4.63 7.05, 4.43 7.1, 4.22 7.14 C4.02 7.18, 3.81 7.19, 3.6 7.19 C3.39 7.19, 3.18 7.18, 2.97 7.14 C2.77 7.1, 2.56 7.05, 2.37 6.98 C2.17 6.91, 1.98 6.82, 1.8 6.71 C1.62 6.61, 1.44 6.49, 1.28 6.35 C1.13 6.22, 0.98 6.07, 0.84 5.91 C0.71 5.75, 0.59 5.58, 0.48 5.4 C0.38 5.22, 0.29 5.02, 0.22 4.83 C0.15 4.63, 0.09 4.43, 0.05 4.22 C0.02 4.02, 0 3.81, 0 3.6 C0 3.39, 0.02 3.18, 0.05 2.97 C0.09 2.77, 0.15 2.56, 0.22 2.37 C0.29 2.17, 0.38 1.98, 0.48 1.8 C0.59 1.62, 0.71 1.44, 0.84 1.28 C0.98 1.13, 1.13 0.98, 1.28 0.84 C1.44 0.71, 1.62 0.59, 1.8 0.48 C1.98 0.38, 2.17 0.29, 2.37 0.22 C2.56 0.15, 2.77 0.09, 2.97 0.05 C3.18 0.02, 3.39 0, 3.6 0 C3.81 0, 4.02 0.02, 4.22 0.05 C4.43 0.09, 4.63 0.15, 4.83 0.22 C5.02 0.29, 5.22 0.38, 5.4 0.48 C5.58 0.59, 5.75 0.71, 5.91 0.84 C6.07 0.98, 6.22 1.13, 6.35 1.28 C6.49 1.44, 6.61 1.62, 6.71 1.8 C6.82 1.98, 6.91 2.17, 6.98 2.37 C7.05 2.56, 7.1 2.77, 7.14 2.97 C7.18 3.18, 7.19 3.49, 7.19 3.6 C7.2 3.7, 7.2 3.49, 7.19 3.6" stroke="none" stroke-width="0" fill="#343a40"></path><path d="M7.19 3.6 C7.19 3.81, 7.18 4.02, 7.14 4.22 C7.1 4.43, 7.05 4.63, 6.98 4.83 C6.91 5.02, 6.82 5.22, 6.71 5.4 C6.61 5.58, 6.49 5.75, 6.35 5.91 C6.22 6.07, 6.07 6.22, 5.91 6.35 C5.75 6.49, 5.58 6.61, 5.4 6.71 C5.22 6.82, 5.02 6.91, 4.83 6.98 C4.63 7.05, 4.43 7.1, 4.22 7.14 C4.02 7.18, 3.81 7.19, 3.6 7.19 C3.39 7.19, 3.18 7.18, 2.97 7.14 C2.77 7.1, 2.56 7.05, 2.37 6.98 C2.17 6.91, 1.98 6.82, 1.8 6.71 C1.62 6.61, 1.44 6.49, 1.28 6.35 C1.13 6.22, 0.98 6.07, 0.84 5.91 C0.71 5.75, 0.59 5.58, 0.48 5.4 C0.38 5.22, 0.29 5.02, 0.22 4.83 C0.15 4.63, 0.09 4.43, 0.05 4.22 C0.02 4.02, 0 3.81, 0 3.6 C0 3.39, 0.02 3.18, 0.05 2.97 C0.09 2.77, 0.15 2.56, 0.22 2.37 C0.29 2.17, 0.38 1.98, 0.48 1.8 C0.59 1.62, 0.71 1.44, 0.84 1.28 C0.98 1.13, 1.13 0.98, 1.28 0.84 C1.44 0.71, 1.62 0.59, 1.8 0.48 C1.98 0.38, 2.17 0.29, 2.37 0.22 C2.56 0.15, 2.77 0.09, 2.97 0.05 C3.18 0.02, 3.39 0, 3.6 0 C3.81 0, 4.02 0.02, 4.22 0.05 C4.43 0.09, 4.63 0.15, 4.83 0.22 C5.02 0.29, 5.22 0.38, 5.4 0.48 C5.58 0.59, 5.75 0.71, 5.91 0.84 C6.07 0.98, 6.22 1.13, 6.35 1.28 C6.49 1.44, 6.61 1.62, 6.71 1.8 C6.82 1.98, 6.91 2.17, 6.98 2.37 C7.05 2.56, 7.1 2.77, 7.14 2.97 C7.18 3.18, 7.19 3.49, 7.19 3.6 C7.2 3.7, 7.2 3.49, 7.19 3.6" stroke="transparent" stroke-width="1" fill="none"></path></g><g stroke-linecap="round" transform="translate(30.079526686916324 36.72228859196184) rotate(270.0000000000001 3.0306111010654604 3.591292331960176)"><path d="M1.52 0 C2.52 0, 3.53 0, 4.55 0 C5.56 0, 6.06 0.51, 6.06 1.52 C6.06 3.17, 6.06 4.83, 6.06 5.67 C6.06 6.68, 5.56 7.18, 4.55 7.18 C3.88 7.18, 3.21 7.18, 1.52 7.18 C0.51 7.18, 0 6.68, 0 5.67 C0 4.5, 0 3.33, 0 1.52 C0 0.51, 0.51 0, 1.52 0" stroke="none" stroke-width="0" fill="#343a40"></path><path d="M1.52 0 C2.68 0, 3.84 0, 4.55 0 M1.52 0 C2.68 0, 3.84 0, 4.55 0 M4.55 0 C5.56 0, 6.06 0.51, 6.06 1.52 M4.55 0 C5.56 0, 6.06 0.51, 6.06 1.52 M6.06 1.52 C6.06 3.04, 6.06 4.57, 6.06 5.67 M6.06 1.52 C6.06 2.79, 6.06 4.06, 6.06 5.67 M6.06 5.67 C6.06 6.68, 5.56 7.18, 4.55 7.18 M6.06 5.67 C6.06 6.68, 5.56 7.18, 4.55 7.18 M4.55 7.18 C3.75 7.18, 2.96 7.18, 1.52 7.18 M4.55 7.18 C3.75 7.18, 2.94 7.18, 1.52 7.18 M1.52 7.18 C0.51 7.18, 0 6.68, 0 5.67 M1.52 7.18 C0.51 7.18, 0 6.68, 0 5.67 M0 5.67 C0 4.48, 0 3.29, 0 1.52 M0 5.67 C0 4.6, 0 3.53, 0 1.52 M0 1.52 C0 0.51, 0.51 0, 1.52 0 M0 1.52 C0 0.51, 0.51 0, 1.52 0" stroke="transparent" stroke-width="1" fill="none"></path></g><g stroke-linecap="round" transform="translate(30.981393390104586 39.64098053927955) rotate(270.0000000000001 2.1317286502815023 2.1317286502817296)"><path d="M4.26 2.13 C4.26 2.26, 4.25 2.38, 4.23 2.5 C4.21 2.62, 4.18 2.74, 4.13 2.86 C4.09 2.98, 4.04 3.09, 3.98 3.2 C3.92 3.3, 3.84 3.41, 3.76 3.5 C3.69 3.6, 3.6 3.69, 3.5 3.76 C3.41 3.84, 3.3 3.92, 3.2 3.98 C3.09 4.04, 2.98 4.09, 2.86 4.13 C2.74 4.18, 2.62 4.21, 2.5 4.23 C2.38 4.25, 2.26 4.26, 2.13 4.26 C2.01 4.26, 1.88 4.25, 1.76 4.23 C1.64 4.21, 1.52 4.18, 1.4 4.13 C1.29 4.09, 1.17 4.04, 1.07 3.98 C0.96 3.92, 0.86 3.84, 0.76 3.76 C0.67 3.69, 0.58 3.6, 0.5 3.5 C0.42 3.41, 0.35 3.3, 0.29 3.2 C0.22 3.09, 0.17 2.98, 0.13 2.86 C0.09 2.74, 0.05 2.62, 0.03 2.5 C0.01 2.38, 0 2.26, 0 2.13 C0 2.01, 0.01 1.88, 0.03 1.76 C0.05 1.64, 0.09 1.52, 0.13 1.4 C0.17 1.29, 0.22 1.17, 0.29 1.07 C0.35 0.96, 0.42 0.86, 0.5 0.76 C0.58 0.67, 0.67 0.58, 0.76 0.5 C0.86 0.42, 0.96 0.35, 1.07 0.29 C1.17 0.22, 1.29 0.17, 1.4 0.13 C1.52 0.09, 1.64 0.05, 1.76 0.03 C1.88 0.01, 2.01 0, 2.13 0 C2.26 0, 2.38 0.01, 2.5 0.03 C2.62 0.05, 2.74 0.09, 2.86 0.13 C2.98 0.17, 3.09 0.22, 3.2 0.29 C3.3 0.35, 3.41 0.42, 3.5 0.5 C3.6 0.58, 3.69 0.67, 3.76 0.76 C3.84 0.86, 3.92 0.96, 3.98 1.07 C4.04 1.17, 4.09 1.29, 4.13 1.4 C4.18 1.52, 4.21 1.64, 4.23 1.76 C4.25 1.88, 4.26 2.07, 4.26 2.13 C4.27 2.19, 4.27 2.07, 4.26 2.13" stroke="none" stroke-width="0" fill="#f783ac"></path><path d="M4.26 2.13 C4.26 2.26, 4.25 2.38, 4.23 2.5 C4.21 2.62, 4.18 2.74, 4.13 2.86 C4.09 2.98, 4.04 3.09, 3.98 3.2 C3.92 3.3, 3.84 3.41, 3.76 3.5 C3.69 3.6, 3.6 3.69, 3.5 3.76 C3.41 3.84, 3.3 3.92, 3.2 3.98 C3.09 4.04, 2.98 4.09, 2.86 4.13 C2.74 4.18, 2.62 4.21, 2.5 4.23 C2.38 4.25, 2.26 4.26, 2.13 4.26 C2.01 4.26, 1.88 4.25, 1.76 4.23 C1.64 4.21, 1.52 4.18, 1.4 4.13 C1.29 4.09, 1.17 4.04, 1.07 3.98 C0.96 3.92, 0.86 3.84, 0.76 3.76 C0.67 3.69, 0.58 3.6, 0.5 3.5 C0.42 3.41, 0.35 3.3, 0.29 3.2 C0.22 3.09, 0.17 2.98, 0.13 2.86 C0.09 2.74, 0.05 2.62, 0.03 2.5 C0.01 2.38, 0 2.26, 0 2.13 C0 2.01, 0.01 1.88, 0.03 1.76 C0.05 1.64, 0.09 1.52, 0.13 1.4 C0.17 1.29, 0.22 1.17, 0.29 1.07 C0.35 0.96, 0.42 0.86, 0.5 0.76 C0.58 0.67, 0.67 0.58, 0.76 0.5 C0.86 0.42, 0.96 0.35, 1.07 0.29 C1.17 0.22, 1.29 0.17, 1.4 0.13 C1.52 0.09, 1.64 0.05, 1.76 0.03 C1.88 0.01, 2.01 0, 2.13 0 C2.26 0, 2.38 0.01, 2.5 0.03 C2.62 0.05, 2.74 0.09, 2.86 0.13 C2.98 0.17, 3.09 0.22, 3.2 0.29 C3.3 0.35, 3.41 0.42, 3.5 0.5 C3.6 0.58, 3.69 0.67, 3.76 0.76 C3.84 0.86, 3.92 0.96, 3.98 1.07 C4.04 1.17, 4.09 1.29, 4.13 1.4 C4.18 1.52, 4.21 1.64, 4.23 1.76 C4.25 1.88, 4.26 2.07, 4.26 2.13 C4.27 2.19, 4.27 2.07, 4.26 2.13" stroke="transparent" stroke-width="2" fill="none"></path></g><g stroke-linecap="round" transform="translate(31.703190962959525 38.93555749755251) rotate(270.0000000000001 1.4073722576176806 2.6307447237886663)"><path d="M0.7 0 C1.2 0, 1.7 0, 2.11 0 C2.58 0, 2.81 0.23, 2.81 0.7 C2.81 1.56, 2.81 2.42, 2.81 4.56 C2.81 5.03, 2.58 5.26, 2.11 5.26 C1.58 5.26, 1.05 5.26, 0.7 5.26 C0.23 5.26, 0 5.03, 0 4.56 C0 3.67, 0 2.78, 0 0.7 C0 0.23, 0.23 0, 0.7 0" stroke="none" stroke-width="0" fill="#343a40"></path><path d="M0.7 0 C1.14 0, 1.58 0, 2.11 0 M0.7 0 C1.05 0, 1.39 0, 2.11 0 M2.11 0 C2.58 0, 2.81 0.23, 2.81 0.7 M2.11 0 C2.58 0, 2.81 0.23, 2.81 0.7 M2.81 0.7 C2.81 1.61, 2.81 2.52, 2.81 4.56 M2.81 0.7 C2.81 1.72, 2.81 2.73, 2.81 4.56 M2.81 4.56 C2.81 5.03, 2.58 5.26, 2.11 5.26 M2.81 4.56 C2.81 5.03, 2.58 5.26, 2.11 5.26 M2.11 5.26 C1.55 5.26, 0.99 5.26, 0.7 5.26 M2.11 5.26 C1.79 5.26, 1.48 5.26, 0.7 5.26 M0.7 5.26 C0.23 5.26, 0 5.03, 0 4.56 M0.7 5.26 C0.23 5.26, 0 5.03, 0 4.56 M0 4.56 C0 3.41, 0 2.27, 0 0.7 M0 4.56 C0 3.06, 0 1.56, 0 0.7 M0 0.7 C0 0.23, 0.23 0, 0.7 0 M0 0.7 C0 0.23, 0.23 0, 0.7 0" stroke="transparent" stroke-width="4" fill="none"></path></g><g stroke-linecap="round" transform="translate(31.198610288384316 39.10115344480073) rotate(0 1.9144908849734747 1.2244320438503564)"><path d="M0.61 0 C1.33 0, 2.05 0, 3.22 0 C3.62 0, 3.83 0.2, 3.83 0.61 C3.83 0.97, 3.83 1.34, 3.83 1.84 C3.83 2.24, 3.62 2.45, 3.22 2.45 C2.25 2.45, 1.29 2.45, 0.61 2.45 C0.2 2.45, 0 2.24, 0 1.84 C0 1.43, 0 1.02, 0 0.61 C0 0.2, 0.2 0, 0.61 0" stroke="none" stroke-width="0" fill="#ffffff"></path><path d="M0.61 0 C1.37 0, 2.14 0, 3.22 0 M0.61 0 C1.45 0, 2.3 0, 3.22 0 M3.22 0 C3.62 0, 3.83 0.2, 3.83 0.61 M3.22 0 C3.62 0, 3.83 0.2, 3.83 0.61 M3.83 0.61 C3.83 1.06, 3.83 1.51, 3.83 1.84 M3.83 0.61 C3.83 0.99, 3.83 1.37, 3.83 1.84 M3.83 1.84 C3.83 2.24, 3.62 2.45, 3.22 2.45 M3.83 1.84 C3.83 2.24, 3.62 2.45, 3.22 2.45 M3.22 2.45 C2.31 2.45, 1.41 2.45, 0.61 2.45 M3.22 2.45 C2.35 2.45, 1.48 2.45, 0.61 2.45 M0.61 2.45 C0.2 2.45, 0 2.24, 0 1.84 M0.61 2.45 C0.2 2.45, 0 2.24, 0 1.84 M0 1.84 C0 1.38, 0 0.93, 0 0.61 M0 1.84 C0 1.41, 0 0.98, 0 0.61 M0 0.61 C0 0.2, 0.2 0, 0.61 0 M0 0.61 C0 0.2, 0.2 0, 0.61 0" stroke="transparent" stroke-width="1" fill="none"></path></g><g stroke-linecap="round" transform="translate(31.332519020213567 42.63926728509068) rotate(0 1.7806030456104054 0.3060612637837039)"><path d="M3.56 0.31 C3.56 0.32, 3.55 0.34, 3.53 0.36 C3.52 0.38, 3.49 0.39, 3.45 0.41 C3.42 0.43, 3.37 0.44, 3.32 0.46 C3.27 0.47, 3.21 0.49, 3.14 0.5 C3.08 0.52, 3 0.53, 2.93 0.54 C2.85 0.55, 2.76 0.56, 2.67 0.57 C2.58 0.58, 2.49 0.59, 2.39 0.59 C2.29 0.6, 2.19 0.6, 2.09 0.61 C1.99 0.61, 1.88 0.61, 1.78 0.61 C1.68 0.61, 1.57 0.61, 1.47 0.61 C1.37 0.6, 1.27 0.6, 1.17 0.59 C1.07 0.59, 0.98 0.58, 0.89 0.57 C0.8 0.56, 0.72 0.55, 0.64 0.54 C0.56 0.53, 0.48 0.52, 0.42 0.5 C0.35 0.49, 0.29 0.47, 0.24 0.46 C0.19 0.44, 0.14 0.43, 0.11 0.41 C0.07 0.39, 0.04 0.38, 0.03 0.36 C0.01 0.34, 0 0.32, 0 0.31 C0 0.29, 0.01 0.27, 0.03 0.25 C0.04 0.24, 0.07 0.22, 0.11 0.2 C0.14 0.18, 0.19 0.17, 0.24 0.15 C0.29 0.14, 0.35 0.12, 0.42 0.11 C0.48 0.1, 0.56 0.08, 0.64 0.07 C0.72 0.06, 0.8 0.05, 0.89 0.04 C0.98 0.03, 1.07 0.02, 1.17 0.02 C1.27 0.01, 1.37 0.01, 1.47 0 C1.57 0, 1.68 0, 1.78 0 C1.88 0, 1.99 0, 2.09 0 C2.19 0.01, 2.29 0.01, 2.39 0.02 C2.49 0.02, 2.58 0.03, 2.67 0.04 C2.76 0.05, 2.85 0.06, 2.93 0.07 C3 0.08, 3.08 0.1, 3.14 0.11 C3.21 0.12, 3.27 0.14, 3.32 0.15 C3.37 0.17, 3.42 0.18, 3.45 0.2 C3.49 0.22, 3.52 0.24, 3.53 0.25 C3.55 0.27, 3.56 0.3, 3.56 0.31 C3.57 0.31, 3.57 0.3, 3.56 0.31" stroke="none" stroke-width="0" fill="#f783ac"></path><path d="M3.56 0.31 C3.56 0.32, 3.55 0.34, 3.53 0.36 C3.52 0.38, 3.49 0.39, 3.45 0.41 C3.42 0.43, 3.37 0.44, 3.32 0.46 C3.27 0.47, 3.21 0.49, 3.14 0.5 C3.08 0.52, 3 0.53, 2.93 0.54 C2.85 0.55, 2.76 0.56, 2.67 0.57 C2.58 0.58, 2.49 0.59, 2.39 0.59 C2.29 0.6, 2.19 0.6, 2.09 0.61 C1.99 0.61, 1.88 0.61, 1.78 0.61 C1.68 0.61, 1.57 0.61, 1.47 0.61 C1.37 0.6, 1.27 0.6, 1.17 0.59 C1.07 0.59, 0.98 0.58, 0.89 0.57 C0.8 0.56, 0.72 0.55, 0.64 0.54 C0.56 0.53, 0.48 0.52, 0.42 0.5 C0.35 0.49, 0.29 0.47, 0.24 0.46 C0.19 0.44, 0.14 0.43, 0.11 0.41 C0.07 0.39, 0.04 0.38, 0.03 0.36 C0.01 0.34, 0 0.32, 0 0.31 C0 0.29, 0.01 0.27, 0.03 0.25 C0.04 0.24, 0.07 0.22, 0.11 0.2 C0.14 0.18, 0.19 0.17, 0.24 0.15 C0.29 0.14, 0.35 0.12, 0.42 0.11 C0.48 0.1, 0.56 0.08, 0.64 0.07 C0.72 0.06, 0.8 0.05, 0.89 0.04 C0.98 0.03, 1.07 0.02, 1.17 0.02 C1.27 0.01, 1.37 0.01, 1.47 0 C1.57 0, 1.68 0, 1.78 0 C1.88 0, 1.99 0, 2.09 0 C2.19 0.01, 2.29 0.01, 2.39 0.02 C2.49 0.02, 2.58 0.03, 2.67 0.04 C2.76 0.05, 2.85 0.06, 2.93 0.07 C3 0.08, 3.08 0.1, 3.14 0.11 C3.21 0.12, 3.27 0.14, 3.32 0.15 C3.37 0.17, 3.42 0.18, 3.45 0.2 C3.49 0.22, 3.52 0.24, 3.53 0.25 C3.55 0.27, 3.56 0.3, 3.56 0.31 C3.57 0.31, 3.57 0.3, 3.56 0.31" stroke="transparent" stroke-width="2" fill="none"></path></g><g stroke-linecap="round" transform="translate(36.04195966145335 25.458012172928647) rotate(0 16.986069956212532 21.018734046536338)"><path d="M8.49 0 C12.22 0, 15.94 0, 25.48 0 C31.14 0, 33.97 2.83, 33.97 8.49 C33.97 17.55, 33.97 26.61, 33.97 33.54 C33.97 39.21, 31.14 42.04, 25.48 42.04 C18.88 42.04, 12.27 42.04, 8.49 42.04 C2.83 42.04, 0 39.21, 0 33.54 C0 25.47, 0 17.39, 0 8.49 C0 2.83, 2.83 0, 8.49 0" stroke="none" stroke-width="0" fill="#f8f9fa"></path><path d="M8.49 0 C14.66 0, 20.83 0, 25.48 0 M8.49 0 C13.57 0, 18.64 0, 25.48 0 M25.48 0 C31.14 0, 33.97 2.83, 33.97 8.49 M25.48 0 C31.14 0, 33.97 2.83, 33.97 8.49 M33.97 8.49 C33.97 15.84, 33.97 23.19, 33.97 33.54 M33.97 8.49 C33.97 16.96, 33.97 25.42, 33.97 33.54 M33.97 33.54 C33.97 39.21, 31.14 42.04, 25.48 42.04 M33.97 33.54 C33.97 39.21, 31.14 42.04, 25.48 42.04 M25.48 42.04 C19.93 42.04, 14.38 42.04, 8.49 42.04 M25.48 42.04 C21.33 42.04, 17.19 42.04, 8.49 42.04 M8.49 42.04 C2.83 42.04, 0 39.21, 0 33.54 M8.49 42.04 C2.83 42.04, 0 39.21, 0 33.54 M0 33.54 C0 28.38, 0 23.21, 0 8.49 M0 33.54 C0 28.22, 0 22.9, 0 8.49 M0 8.49 C0 2.83, 2.83 0, 8.49 0 M0 8.49 C0 2.83, 2.83 0, 8.49 0" stroke="#343a40" stroke-width="2" fill="none"></path></g><g stroke-linecap="round"><g transform="translate(41.174441230955836 36.456186964718654) rotate(0 11.730702318965768 0)"><path d="M0 0 C3.91 0, 19.55 0, 23.46 0 M0 0 C3.91 0, 19.55 0, 23.46 0" stroke="#868e96" stroke-width="2" fill="none"></path></g></g><mask></mask><g stroke-linecap="round"><g transform="translate(41.174441230955836 42.44991283671334) rotate(0 11.738750573100333 0)"><path d="M0 0 C3.91 0, 19.56 0, 23.48 0 M0 0 C3.91 0, 19.56 0, 23.48 0" stroke="#868e96" stroke-width="2" fill="none"></path></g></g><mask></mask><g stroke-linecap="round"><g transform="translate(41.174441230955836 48.009310746971096) rotate(0 8.431934007040581 0)"><path d="M0 0 C2.81 0, 14.05 0, 16.86 0 M0 0 C2.81 0, 14.05 0, 16.86 0" stroke="#868e96" stroke-width="2" fill="none"></path></g></g><mask></mask><g stroke-linecap="round"><g transform="translate(41.174441230955836 54.59204610183224) rotate(0 4.29099347793931 0)"><path d="M0 0 C1.43 0, 7.15 0, 8.58 0 M0 0 C1.43 0, 7.15 0, 8.58 0" stroke="#868e96" stroke-width="2" fill="none"></path></g></g><mask></mask><g stroke-linecap="round" transform="translate(54.70776695065706 51.42209849019673) rotate(0 5.281959000595862 5.281959000595634)"><path d="M2.64 0 C4.15 0, 5.65 0, 7.92 0 C9.68 0, 10.56 0.88, 10.56 2.64 C10.56 4.23, 10.56 5.82, 10.56 7.92 C10.56 9.68, 9.68 10.56, 7.92 10.56 C6.85 10.56, 5.77 10.56, 2.64 10.56 C0.88 10.56, 0 9.68, 0 7.92 C0 5.86, 0 3.79, 0 2.64 C0 0.88, 0.88 0, 2.64 0" stroke="none" stroke-width="0" fill="#ced4da"></path><path d="M2.64 0 C4.02 0, 5.4 0, 7.92 0 M2.64 0 C3.85 0, 5.06 0, 7.92 0 M7.92 0 C9.68 0, 10.56 0.88, 10.56 2.64 M7.92 0 C9.68 0, 10.56 0.88, 10.56 2.64 M10.56 2.64 C10.56 3.84, 10.56 5.03, 10.56 7.92 M10.56 2.64 C10.56 4.24, 10.56 5.85, 10.56 7.92 M10.56 7.92 C10.56 9.68, 9.68 10.56, 7.92 10.56 M10.56 7.92 C10.56 9.68, 9.68 10.56, 7.92 10.56 M7.92 10.56 C6.71 10.56, 5.49 10.56, 2.64 10.56 M7.92 10.56 C6.5 10.56, 5.08 10.56, 2.64 10.56 M2.64 10.56 C0.88 10.56, 0 9.68, 0 7.92 M2.64 10.56 C0.88 10.56, 0 9.68, 0 7.92 M0 7.92 C0 6.16, 0 4.39, 0 2.64 M0 7.92 C0 5.86, 0 3.8, 0 2.64 M0 2.64 C0 0.88, 0.88 0, 2.64 0 M0 2.64 C0 0.88, 0.88 0, 2.64 0" stroke="#868e96" stroke-width="1" fill="none"></path></g><g stroke-linecap="round"><g transform="translate(57.44063390451947 56.330113816628) rotate(0 4.248665878025577 -0.2912388187532997)"><path d="M0 0 C0.62 0.62, 1.25 1.25, 2.64 2.64 M0 0 C0.55 0.55, 1.1 1.1, 2.64 2.64 M2.64 2.64 C4.8 0.48, 6.96 -1.69, 8.5 -3.22 M2.64 2.64 C4.88 0.4, 7.12 -1.84, 8.5 -3.22" stroke="#40c057" stroke-width="2" fill="none"></path></g></g><mask></mask><g stroke-linecap="round"><g transform="translate(41.174441230955836 60.611946564207756) rotate(0 4.29099347793931 0)"><path d="M0 0 C1.43 0, 7.15 0, 8.58 0 M0 0 C1.43 0, 7.15 0, 8.58 0" stroke="#868e96" stroke-width="2" fill="none"></path></g></g><mask></mask></svg>