<?xml version="1.0" standalone="no"?>
<!DOCTYPE svg PUBLIC "-//W3C//DTD SVG 1.1//EN" "http://www.w3.org/Graphics/SVG/1.1/DTD/svg11.dtd">
<svg version="1.1" xmlns="http://www.w3.org/2000/svg" viewBox="0 0 108.86041298418331 102.77582717954283" width="326.58123895254994" height="308.3274815386285"><!-- svg-source:excalidraw --><metadata></metadata><defs><style class="style-fonts">
      </style></defs><g stroke-linecap="round" transform="translate(32.32892834338463 23.039943153620698) rotate(0 13.642099980000012 13.64209998000024)"><path d="M27.28 13.64 C27.28 14.43, 27.21 15.23, 27.08 16.01 C26.94 16.79, 26.73 17.57, 26.46 18.31 C26.19 19.05, 25.85 19.78, 25.46 20.46 C25.06 21.15, 24.6 21.81, 24.09 22.41 C23.58 23.02, 23.02 23.58, 22.41 24.09 C21.81 24.6, 21.15 25.06, 20.46 25.46 C19.78 25.85, 19.05 26.19, 18.31 26.46 C17.57 26.73, 16.79 26.94, 16.01 27.08 C15.23 27.21, 14.43 27.28, 13.64 27.28 C12.85 27.28, 12.05 27.21, 11.27 27.08 C10.5 26.94, 9.72 26.73, 8.98 26.46 C8.23 26.19, 7.5 25.85, 6.82 25.46 C6.14 25.06, 5.48 24.6, 4.87 24.09 C4.27 23.58, 3.7 23.02, 3.19 22.41 C2.68 21.81, 2.22 21.15, 1.83 20.46 C1.43 19.78, 1.09 19.05, 0.82 18.31 C0.55 17.57, 0.34 16.79, 0.21 16.01 C0.07 15.23, 0 14.43, 0 13.64 C0 12.85, 0.07 12.05, 0.21 11.27 C0.34 10.5, 0.55 9.72, 0.82 8.98 C1.09 8.23, 1.43 7.5, 1.83 6.82 C2.22 6.14, 2.68 5.48, 3.19 4.87 C3.7 4.27, 4.27 3.7, 4.87 3.19 C5.48 2.68, 6.14 2.22, 6.82 1.83 C7.5 1.43, 8.23 1.09, 8.98 0.82 C9.72 0.55, 10.5 0.34, 11.27 0.21 C12.05 0.07, 12.85 0, 13.64 0 C14.43 0, 15.23 0.07, 16.01 0.21 C16.79 0.34, 17.57 0.55, 18.31 0.82 C19.05 1.09, 19.78 1.43, 20.46 1.83 C21.15 2.22, 21.81 2.68, 22.41 3.19 C23.02 3.7, 23.58 4.27, 24.09 4.87 C24.6 5.48, 25.06 6.14, 25.46 6.82 C25.85 7.5, 26.19 8.23, 26.46 8.98 C26.73 9.72, 26.94 10.5, 27.08 11.27 C27.21 12.05, 27.25 13.25, 27.28 13.64 C27.32 14.04, 27.32 13.25, 27.28 13.64" stroke="none" stroke-width="0" fill="#343a40"></path><path d="M27.28 13.64 C27.28 14.43, 27.21 15.23, 27.08 16.01 C26.94 16.79, 26.73 17.57, 26.46 18.31 C26.19 19.05, 25.85 19.78, 25.46 20.46 C25.06 21.15, 24.6 21.81, 24.09 22.41 C23.58 23.02, 23.02 23.58, 22.41 24.09 C21.81 24.6, 21.15 25.06, 20.46 25.46 C19.78 25.85, 19.05 26.19, 18.31 26.46 C17.57 26.73, 16.79 26.94, 16.01 27.08 C15.23 27.21, 14.43 27.28, 13.64 27.28 C12.85 27.28, 12.05 27.21, 11.27 27.08 C10.5 26.94, 9.72 26.73, 8.98 26.46 C8.23 26.19, 7.5 25.85, 6.82 25.46 C6.14 25.06, 5.48 24.6, 4.87 24.09 C4.27 23.58, 3.7 23.02, 3.19 22.41 C2.68 21.81, 2.22 21.15, 1.83 20.46 C1.43 19.78, 1.09 19.05, 0.82 18.31 C0.55 17.57, 0.34 16.79, 0.21 16.01 C0.07 15.23, 0 14.43, 0 13.64 C0 12.85, 0.07 12.05, 0.21 11.27 C0.34 10.5, 0.55 9.72, 0.82 8.98 C1.09 8.23, 1.43 7.5, 1.83 6.82 C2.22 6.14, 2.68 5.48, 3.19 4.87 C3.7 4.27, 4.27 3.7, 4.87 3.19 C5.48 2.68, 6.14 2.22, 6.82 1.83 C7.5 1.43, 8.23 1.09, 8.98 0.82 C9.72 0.55, 10.5 0.34, 11.27 0.21 C12.05 0.07, 12.85 0, 13.64 0 C14.43 0, 15.23 0.07, 16.01 0.21 C16.79 0.34, 17.57 0.55, 18.31 0.82 C19.05 1.09, 19.78 1.43, 20.46 1.83 C21.15 2.22, 21.81 2.68, 22.41 3.19 C23.02 3.7, 23.58 4.27, 24.09 4.87 C24.6 5.48, 25.06 6.14, 25.46 6.82 C25.85 7.5, 26.19 8.23, 26.46 8.98 C26.73 9.72, 26.94 10.5, 27.08 11.27 C27.21 12.05, 27.25 13.25, 27.28 13.64 C27.32 14.04, 27.32 13.25, 27.28 13.64" stroke="#343a40" stroke-width="4" fill="none"></path></g><g stroke-linecap="round" transform="translate(14.385689179995097 56.25285521640944) rotate(330.00000000000006 11.981925665952303 11.981925665952076)"><path d="M5.99 0 C9.8 0, 13.6 0, 17.97 0 C21.97 0, 23.96 2, 23.96 5.99 C23.96 10.24, 23.96 14.49, 23.96 17.97 C23.96 21.97, 21.97 23.96, 17.97 23.96 C13.73 23.96, 9.5 23.96, 5.99 23.96 C2 23.96, 0 21.97, 0 17.97 C0 14.63, 0 11.29, 0 5.99 C0 2, 2 0, 5.99 0" stroke="none" stroke-width="0" fill="#ffec99"></path><path d="M5.99 0 C9.34 0, 12.69 0, 17.97 0 M5.99 0 C8.98 0, 11.97 0, 17.97 0 M17.97 0 C21.97 0, 23.96 2, 23.96 5.99 M17.97 0 C21.97 0, 23.96 2, 23.96 5.99 M23.96 5.99 C23.96 9.35, 23.96 12.7, 23.96 17.97 M23.96 5.99 C23.96 9.47, 23.96 12.94, 23.96 17.97 M23.96 17.97 C23.96 21.97, 21.97 23.96, 17.97 23.96 M23.96 17.97 C23.96 21.97, 21.97 23.96, 17.97 23.96 M17.97 23.96 C14.58 23.96, 11.19 23.96, 5.99 23.96 M17.97 23.96 C15.29 23.96, 12.6 23.96, 5.99 23.96 M5.99 23.96 C2 23.96, 0 21.97, 0 17.97 M5.99 23.96 C2 23.96, 0 21.97, 0 17.97 M0 17.97 C0 14.94, 0 11.92, 0 5.99 M0 17.97 C0 14.16, 0 10.35, 0 5.99 M0 5.99 C0 2, 2 0, 5.99 0 M0 5.99 C0 2, 2 0, 5.99 0" stroke="#343a40" stroke-width="4" fill="none"></path></g><g stroke-linecap="round" transform="translate(21.2569223968203 63.12408856500042) rotate(330.00000000000006 5.110692629121786 5.110692629121331)"><path d="M2.56 0 C4.57 0, 6.59 0, 7.67 0 C9.37 0, 10.22 0.85, 10.22 2.56 C10.22 4.14, 10.22 5.72, 10.22 7.67 C10.22 9.37, 9.37 10.22, 7.67 10.22 C5.91 10.22, 4.15 10.22, 2.56 10.22 C0.85 10.22, 0 9.37, 0 7.67 C0 6.19, 0 4.72, 0 2.56 C0 0.85, 0.85 0, 2.56 0" stroke="none" stroke-width="0" fill="#343a40"></path><path d="M2.56 0 C4.53 0, 6.5 0, 7.67 0 M2.56 0 C3.62 0, 4.68 0, 7.67 0 M7.67 0 C9.37 0, 10.22 0.85, 10.22 2.56 M7.67 0 C9.37 0, 10.22 0.85, 10.22 2.56 M10.22 2.56 C10.22 4.1, 10.22 5.64, 10.22 7.67 M10.22 2.56 C10.22 3.84, 10.22 5.12, 10.22 7.67 M10.22 7.67 C10.22 9.37, 9.37 10.22, 7.67 10.22 M10.22 7.67 C10.22 9.37, 9.37 10.22, 7.67 10.22 M7.67 10.22 C6.08 10.22, 4.5 10.22, 2.56 10.22 M7.67 10.22 C5.95 10.22, 4.24 10.22, 2.56 10.22 M2.56 10.22 C0.85 10.22, 0 9.37, 0 7.67 M2.56 10.22 C0.85 10.22, 0 9.37, 0 7.67 M0 7.67 C0 6.49, 0 5.32, 0 2.56 M0 7.67 C0 5.74, 0 3.81, 0 2.56 M0 2.56 C0 0.85, 0.85 0, 2.56 0 M0 2.56 C0 0.85, 0.85 0, 2.56 0" stroke="transparent" stroke-width="4" fill="none"></path></g><g stroke-linecap="round" transform="translate(67.17469486854225 20.414077108189304) rotate(78.85211195104061 12.634364281820808 12.634364281821036)"><path d="M25.27 12.63 C25.27 13.37, 25.2 14.11, 25.08 14.83 C24.95 15.55, 24.76 16.27, 24.51 16.96 C24.26 17.64, 23.94 18.32, 23.58 18.95 C23.21 19.58, 22.78 20.2, 22.31 20.76 C21.84 21.32, 21.32 21.84, 20.76 22.31 C20.2 22.78, 19.58 23.21, 18.95 23.58 C18.32 23.94, 17.64 24.26, 16.96 24.51 C16.27 24.76, 15.55 24.95, 14.83 25.08 C14.11 25.2, 13.37 25.27, 12.63 25.27 C11.9 25.27, 11.16 25.2, 10.44 25.08 C9.72 24.95, 9 24.76, 8.31 24.51 C7.63 24.26, 6.95 23.94, 6.32 23.58 C5.68 23.21, 5.07 22.78, 4.51 22.31 C3.95 21.84, 3.43 21.32, 2.96 20.76 C2.49 20.2, 2.06 19.58, 1.69 18.95 C1.33 18.32, 1.01 17.64, 0.76 16.96 C0.51 16.27, 0.32 15.55, 0.19 14.83 C0.06 14.11, 0 13.37, 0 12.63 C0 11.9, 0.06 11.16, 0.19 10.44 C0.32 9.72, 0.51 9, 0.76 8.31 C1.01 7.63, 1.33 6.95, 1.69 6.32 C2.06 5.68, 2.49 5.07, 2.96 4.51 C3.43 3.95, 3.95 3.43, 4.51 2.96 C5.07 2.49, 5.68 2.06, 6.32 1.69 C6.95 1.33, 7.63 1.01, 8.31 0.76 C9 0.51, 9.72 0.32, 10.44 0.19 C11.16 0.06, 11.9 0, 12.63 0 C13.37 0, 14.11 0.06, 14.83 0.19 C15.55 0.32, 16.27 0.51, 16.96 0.76 C17.64 1.01, 18.32 1.33, 18.95 1.69 C19.58 2.06, 20.2 2.49, 20.76 2.96 C21.32 3.43, 21.84 3.95, 22.31 4.51 C22.78 5.07, 23.21 5.68, 23.58 6.32 C23.94 6.95, 24.26 7.63, 24.51 8.31 C24.76 9, 24.95 9.72, 25.08 10.44 C25.2 11.16, 25.24 12.27, 25.27 12.63 C25.3 13, 25.3 12.27, 25.27 12.63" stroke="none" stroke-width="0" fill="#343a40"></path><path d="M25.27 12.63 C25.27 13.37, 25.2 14.11, 25.08 14.83 C24.95 15.55, 24.76 16.27, 24.51 16.96 C24.26 17.64, 23.94 18.32, 23.58 18.95 C23.21 19.58, 22.78 20.2, 22.31 20.76 C21.84 21.32, 21.32 21.84, 20.76 22.31 C20.2 22.78, 19.58 23.21, 18.95 23.58 C18.32 23.94, 17.64 24.26, 16.96 24.51 C16.27 24.76, 15.55 24.95, 14.83 25.08 C14.11 25.2, 13.37 25.27, 12.63 25.27 C11.9 25.27, 11.16 25.2, 10.44 25.08 C9.72 24.95, 9 24.76, 8.31 24.51 C7.63 24.26, 6.95 23.94, 6.32 23.58 C5.68 23.21, 5.07 22.78, 4.51 22.31 C3.95 21.84, 3.43 21.32, 2.96 20.76 C2.49 20.2, 2.06 19.58, 1.69 18.95 C1.33 18.32, 1.01 17.64, 0.76 16.96 C0.51 16.27, 0.32 15.55, 0.19 14.83 C0.06 14.11, 0 13.37, 0 12.63 C0 11.9, 0.06 11.16, 0.19 10.44 C0.32 9.72, 0.51 9, 0.76 8.31 C1.01 7.63, 1.33 6.95, 1.69 6.32 C2.06 5.68, 2.49 5.07, 2.96 4.51 C3.43 3.95, 3.95 3.43, 4.51 2.96 C5.07 2.49, 5.68 2.06, 6.32 1.69 C6.95 1.33, 7.63 1.01, 8.31 0.76 C9 0.51, 9.72 0.32, 10.44 0.19 C11.16 0.06, 11.9 0, 12.63 0 C13.37 0, 14.11 0.06, 14.83 0.19 C15.55 0.32, 16.27 0.51, 16.96 0.76 C17.64 1.01, 18.32 1.33, 18.95 1.69 C19.58 2.06, 20.2 2.49, 20.76 2.96 C21.32 3.43, 21.84 3.95, 22.31 4.51 C22.78 5.07, 23.21 5.68, 23.58 6.32 C23.94 6.95, 24.26 7.63, 24.51 8.31 C24.76 9, 24.95 9.72, 25.08 10.44 C25.2 11.16, 25.24 12.27, 25.27 12.63 C25.3 13, 25.3 12.27, 25.27 12.63" stroke="#343a40" stroke-width="4" fill="none"></path></g><g stroke-linecap="round" transform="translate(47.324603249332085 10) rotate(0 15.09315757888021 15.093157578879982)"><path d="M30.19 15.09 C30.19 15.97, 30.11 16.85, 29.96 17.71 C29.81 18.57, 29.57 19.43, 29.28 20.26 C28.98 21.08, 28.6 21.88, 28.16 22.64 C27.73 23.4, 27.22 24.13, 26.66 24.79 C26.09 25.46, 25.46 26.09, 24.79 26.66 C24.13 27.22, 23.4 27.73, 22.64 28.16 C21.88 28.6, 21.08 28.98, 20.26 29.28 C19.43 29.57, 18.57 29.81, 17.71 29.96 C16.85 30.11, 15.97 30.19, 15.09 30.19 C14.22 30.19, 13.33 30.11, 12.47 29.96 C11.61 29.81, 10.75 29.57, 9.93 29.28 C9.11 28.98, 8.3 28.6, 7.55 28.16 C6.79 27.73, 6.06 27.22, 5.39 26.66 C4.72 26.09, 4.09 25.46, 3.53 24.79 C2.97 24.13, 2.46 23.4, 2.02 22.64 C1.59 21.88, 1.21 21.08, 0.91 20.26 C0.61 19.43, 0.38 18.57, 0.23 17.71 C0.08 16.85, 0 15.97, 0 15.09 C0 14.22, 0.08 13.33, 0.23 12.47 C0.38 11.61, 0.61 10.75, 0.91 9.93 C1.21 9.11, 1.59 8.3, 2.02 7.55 C2.46 6.79, 2.97 6.06, 3.53 5.39 C4.09 4.72, 4.72 4.09, 5.39 3.53 C6.06 2.97, 6.79 2.46, 7.55 2.02 C8.3 1.59, 9.11 1.21, 9.93 0.91 C10.75 0.61, 11.61 0.38, 12.47 0.23 C13.33 0.08, 14.22 0, 15.09 0 C15.97 0, 16.85 0.08, 17.71 0.23 C18.57 0.38, 19.43 0.61, 20.26 0.91 C21.08 1.21, 21.88 1.59, 22.64 2.02 C23.4 2.46, 24.13 2.97, 24.79 3.53 C25.46 4.09, 26.09 4.72, 26.66 5.39 C27.22 6.06, 27.73 6.79, 28.16 7.55 C28.6 8.3, 28.98 9.11, 29.28 9.93 C29.57 10.75, 29.81 11.61, 29.96 12.47 C30.11 13.33, 30.15 14.66, 30.19 15.09 C30.22 15.53, 30.22 14.66, 30.19 15.09" stroke="none" stroke-width="0" fill="#343a40"></path><path d="M30.19 15.09 C30.19 15.97, 30.11 16.85, 29.96 17.71 C29.81 18.57, 29.57 19.43, 29.28 20.26 C28.98 21.08, 28.6 21.88, 28.16 22.64 C27.73 23.4, 27.22 24.13, 26.66 24.79 C26.09 25.46, 25.46 26.09, 24.79 26.66 C24.13 27.22, 23.4 27.73, 22.64 28.16 C21.88 28.6, 21.08 28.98, 20.26 29.28 C19.43 29.57, 18.57 29.81, 17.71 29.96 C16.85 30.11, 15.97 30.19, 15.09 30.19 C14.22 30.19, 13.33 30.11, 12.47 29.96 C11.61 29.81, 10.75 29.57, 9.93 29.28 C9.11 28.98, 8.3 28.6, 7.55 28.16 C6.79 27.73, 6.06 27.22, 5.39 26.66 C4.72 26.09, 4.09 25.46, 3.53 24.79 C2.97 24.13, 2.46 23.4, 2.02 22.64 C1.59 21.88, 1.21 21.08, 0.91 20.26 C0.61 19.43, 0.38 18.57, 0.23 17.71 C0.08 16.85, 0 15.97, 0 15.09 C0 14.22, 0.08 13.33, 0.23 12.47 C0.38 11.61, 0.61 10.75, 0.91 9.93 C1.21 9.11, 1.59 8.3, 2.02 7.55 C2.46 6.79, 2.97 6.06, 3.53 5.39 C4.09 4.72, 4.72 4.09, 5.39 3.53 C6.06 2.97, 6.79 2.46, 7.55 2.02 C8.3 1.59, 9.11 1.21, 9.93 0.91 C10.75 0.61, 11.61 0.38, 12.47 0.23 C13.33 0.08, 14.22 0, 15.09 0 C15.97 0, 16.85 0.08, 17.71 0.23 C18.57 0.38, 19.43 0.61, 20.26 0.91 C21.08 1.21, 21.88 1.59, 22.64 2.02 C23.4 2.46, 24.13 2.97, 24.79 3.53 C25.46 4.09, 26.09 4.72, 26.66 5.39 C27.22 6.06, 27.73 6.79, 28.16 7.55 C28.6 8.3, 28.98 9.11, 29.28 9.93 C29.57 10.75, 29.81 11.61, 29.96 12.47 C30.11 13.33, 30.15 14.66, 30.19 15.09 C30.22 15.53, 30.22 14.66, 30.19 15.09" stroke="#343a40" stroke-width="4" fill="none"></path></g><g stroke-linecap="round" transform="translate(34.576651161717564 25.287665999869205) rotate(0 11.39437716166708 11.394377161666853)"><path d="M22.79 11.39 C22.79 12.05, 22.73 12.72, 22.62 13.37 C22.5 14.02, 22.33 14.67, 22.1 15.29 C21.88 15.91, 21.59 16.52, 21.26 17.09 C20.93 17.66, 20.55 18.21, 20.12 18.72 C19.7 19.22, 19.22 19.7, 18.72 20.12 C18.21 20.55, 17.66 20.93, 17.09 21.26 C16.52 21.59, 15.91 21.88, 15.29 22.1 C14.67 22.33, 14.02 22.5, 13.37 22.62 C12.72 22.73, 12.05 22.79, 11.39 22.79 C10.73 22.79, 10.07 22.73, 9.42 22.62 C8.77 22.5, 8.12 22.33, 7.5 22.1 C6.88 21.88, 6.27 21.59, 5.7 21.26 C5.13 20.93, 4.58 20.55, 4.07 20.12 C3.56 19.7, 3.09 19.22, 2.67 18.72 C2.24 18.21, 1.86 17.66, 1.53 17.09 C1.2 16.52, 0.91 15.91, 0.69 15.29 C0.46 14.67, 0.29 14.02, 0.17 13.37 C0.06 12.72, 0 12.05, 0 11.39 C0 10.73, 0.06 10.07, 0.17 9.42 C0.29 8.77, 0.46 8.12, 0.69 7.5 C0.91 6.88, 1.2 6.27, 1.53 5.7 C1.86 5.13, 2.24 4.58, 2.67 4.07 C3.09 3.56, 3.56 3.09, 4.07 2.67 C4.58 2.24, 5.13 1.86, 5.7 1.53 C6.27 1.2, 6.88 0.91, 7.5 0.69 C8.12 0.46, 8.77 0.29, 9.42 0.17 C10.07 0.06, 10.73 0, 11.39 0 C12.05 0, 12.72 0.06, 13.37 0.17 C14.02 0.29, 14.67 0.46, 15.29 0.69 C15.91 0.91, 16.52 1.2, 17.09 1.53 C17.66 1.86, 18.21 2.24, 18.72 2.67 C19.22 3.09, 19.7 3.56, 20.12 4.07 C20.55 4.58, 20.93 5.13, 21.26 5.7 C21.59 6.27, 21.88 6.88, 22.1 7.5 C22.33 8.12, 22.5 8.77, 22.62 9.42 C22.73 10.07, 22.76 11.06, 22.79 11.39 C22.82 11.72, 22.82 11.06, 22.79 11.39" stroke="none" stroke-width="0" fill="#f8f0fc"></path><path d="M22.79 11.39 C22.79 12.05, 22.73 12.72, 22.62 13.37 C22.5 14.02, 22.33 14.67, 22.1 15.29 C21.88 15.91, 21.59 16.52, 21.26 17.09 C20.93 17.66, 20.55 18.21, 20.12 18.72 C19.7 19.22, 19.22 19.7, 18.72 20.12 C18.21 20.55, 17.66 20.93, 17.09 21.26 C16.52 21.59, 15.91 21.88, 15.29 22.1 C14.67 22.33, 14.02 22.5, 13.37 22.62 C12.72 22.73, 12.05 22.79, 11.39 22.79 C10.73 22.79, 10.07 22.73, 9.42 22.62 C8.77 22.5, 8.12 22.33, 7.5 22.1 C6.88 21.88, 6.27 21.59, 5.7 21.26 C5.13 20.93, 4.58 20.55, 4.07 20.12 C3.56 19.7, 3.09 19.22, 2.67 18.72 C2.24 18.21, 1.86 17.66, 1.53 17.09 C1.2 16.52, 0.91 15.91, 0.69 15.29 C0.46 14.67, 0.29 14.02, 0.17 13.37 C0.06 12.72, 0 12.05, 0 11.39 C0 10.73, 0.06 10.07, 0.17 9.42 C0.29 8.77, 0.46 8.12, 0.69 7.5 C0.91 6.88, 1.2 6.27, 1.53 5.7 C1.86 5.13, 2.24 4.58, 2.67 4.07 C3.09 3.56, 3.56 3.09, 4.07 2.67 C4.58 2.24, 5.13 1.86, 5.7 1.53 C6.27 1.2, 6.88 0.91, 7.5 0.69 C8.12 0.46, 8.77 0.29, 9.42 0.17 C10.07 0.06, 10.73 0, 11.39 0 C12.05 0, 12.72 0.06, 13.37 0.17 C14.02 0.29, 14.67 0.46, 15.29 0.69 C15.91 0.91, 16.52 1.2, 17.09 1.53 C17.66 1.86, 18.21 2.24, 18.72 2.67 C19.22 3.09, 19.7 3.56, 20.12 4.07 C20.55 4.58, 20.93 5.13, 21.26 5.7 C21.59 6.27, 21.88 6.88, 22.1 7.5 C22.33 8.12, 22.5 8.77, 22.62 9.42 C22.73 10.07, 22.76 11.06, 22.79 11.39 C22.82 11.72, 22.82 11.06, 22.79 11.39" stroke="transparent" stroke-width="4" fill="none"></path></g><g stroke-linecap="round" transform="translate(69.4703450440561 22.709727311619645) rotate(78.85211195104061 10.338714106306497 10.338714106306725)"><path d="M20.68 10.34 C20.68 10.94, 20.62 11.54, 20.52 12.13 C20.42 12.72, 20.26 13.31, 20.05 13.87 C19.85 14.44, 19.59 14.99, 19.29 15.51 C18.99 16.03, 18.64 16.53, 18.26 16.98 C17.87 17.44, 17.44 17.87, 16.98 18.26 C16.53 18.64, 16.03 18.99, 15.51 19.29 C14.99 19.59, 14.44 19.85, 13.87 20.05 C13.31 20.26, 12.72 20.42, 12.13 20.52 C11.54 20.62, 10.94 20.68, 10.34 20.68 C9.74 20.68, 9.13 20.62, 8.54 20.52 C7.95 20.42, 7.37 20.26, 6.8 20.05 C6.24 19.85, 5.69 19.59, 5.17 19.29 C4.65 18.99, 4.15 18.64, 3.69 18.26 C3.23 17.87, 2.8 17.44, 2.42 16.98 C2.03 16.53, 1.68 16.03, 1.39 15.51 C1.09 14.99, 0.83 14.44, 0.62 13.87 C0.42 13.31, 0.26 12.72, 0.16 12.13 C0.05 11.54, 0 10.94, 0 10.34 C0 9.74, 0.05 9.13, 0.16 8.54 C0.26 7.95, 0.42 7.37, 0.62 6.8 C0.83 6.24, 1.09 5.69, 1.39 5.17 C1.68 4.65, 2.03 4.15, 2.42 3.69 C2.8 3.23, 3.23 2.8, 3.69 2.42 C4.15 2.03, 4.65 1.68, 5.17 1.39 C5.69 1.09, 6.24 0.83, 6.8 0.62 C7.37 0.42, 7.95 0.26, 8.54 0.16 C9.13 0.05, 9.74 0, 10.34 0 C10.94 0, 11.54 0.05, 12.13 0.16 C12.72 0.26, 13.31 0.42, 13.87 0.62 C14.44 0.83, 14.99 1.09, 15.51 1.39 C16.03 1.68, 16.53 2.03, 16.98 2.42 C17.44 2.8, 17.87 3.23, 18.26 3.69 C18.64 4.15, 18.99 4.65, 19.29 5.17 C19.59 5.69, 19.85 6.24, 20.05 6.8 C20.26 7.37, 20.42 7.95, 20.52 8.54 C20.62 9.13, 20.65 10.04, 20.68 10.34 C20.7 10.64, 20.7 10.04, 20.68 10.34" stroke="none" stroke-width="0" fill="#eebefa"></path><path d="M20.68 10.34 C20.68 10.94, 20.62 11.54, 20.52 12.13 C20.42 12.72, 20.26 13.31, 20.05 13.87 C19.85 14.44, 19.59 14.99, 19.29 15.51 C18.99 16.03, 18.64 16.53, 18.26 16.98 C17.87 17.44, 17.44 17.87, 16.98 18.26 C16.53 18.64, 16.03 18.99, 15.51 19.29 C14.99 19.59, 14.44 19.85, 13.87 20.05 C13.31 20.26, 12.72 20.42, 12.13 20.52 C11.54 20.62, 10.94 20.68, 10.34 20.68 C9.74 20.68, 9.13 20.62, 8.54 20.52 C7.95 20.42, 7.37 20.26, 6.8 20.05 C6.24 19.85, 5.69 19.59, 5.17 19.29 C4.65 18.99, 4.15 18.64, 3.69 18.26 C3.23 17.87, 2.8 17.44, 2.42 16.98 C2.03 16.53, 1.68 16.03, 1.39 15.51 C1.09 14.99, 0.83 14.44, 0.62 13.87 C0.42 13.31, 0.26 12.72, 0.16 12.13 C0.05 11.54, 0 10.94, 0 10.34 C0 9.74, 0.05 9.13, 0.16 8.54 C0.26 7.95, 0.42 7.37, 0.62 6.8 C0.83 6.24, 1.09 5.69, 1.39 5.17 C1.68 4.65, 2.03 4.15, 2.42 3.69 C2.8 3.23, 3.23 2.8, 3.69 2.42 C4.15 2.03, 4.65 1.68, 5.17 1.39 C5.69 1.09, 6.24 0.83, 6.8 0.62 C7.37 0.42, 7.95 0.26, 8.54 0.16 C9.13 0.05, 9.74 0, 10.34 0 C10.94 0, 11.54 0.05, 12.13 0.16 C12.72 0.26, 13.31 0.42, 13.87 0.62 C14.44 0.83, 14.99 1.09, 15.51 1.39 C16.03 1.68, 16.53 2.03, 16.98 2.42 C17.44 2.8, 17.87 3.23, 18.26 3.69 C18.64 4.15, 18.99 4.65, 19.29 5.17 C19.59 5.69, 19.85 6.24, 20.05 6.8 C20.26 7.37, 20.42 7.95, 20.52 8.54 C20.62 9.13, 20.65 10.04, 20.68 10.34 C20.7 10.64, 20.7 10.04, 20.68 10.34" stroke="transparent" stroke-width="4" fill="none"></path></g><g stroke-linecap="round" transform="translate(49.58200592119874 12.257402699784507) rotate(0 12.835754907014007 12.835754907014234)"><path d="M25.67 12.84 C25.67 13.58, 25.61 14.33, 25.48 15.06 C25.35 15.8, 25.15 16.53, 24.9 17.23 C24.64 17.92, 24.32 18.61, 23.95 19.25 C23.58 19.9, 23.15 20.52, 22.67 21.09 C22.19 21.66, 21.66 22.19, 21.09 22.67 C20.52 23.15, 19.9 23.58, 19.25 23.95 C18.61 24.32, 17.92 24.64, 17.23 24.9 C16.53 25.15, 15.8 25.35, 15.06 25.48 C14.33 25.61, 13.58 25.67, 12.84 25.67 C12.09 25.67, 11.34 25.61, 10.61 25.48 C9.88 25.35, 9.14 25.15, 8.45 24.9 C7.75 24.64, 7.06 24.32, 6.42 23.95 C5.77 23.58, 5.15 23.15, 4.59 22.67 C4.02 22.19, 3.48 21.66, 3 21.09 C2.53 20.52, 2.09 19.9, 1.72 19.25 C1.35 18.61, 1.03 17.92, 0.77 17.23 C0.52 16.53, 0.32 15.8, 0.2 15.06 C0.07 14.33, 0 13.58, 0 12.84 C0 12.09, 0.07 11.34, 0.2 10.61 C0.32 9.88, 0.52 9.14, 0.77 8.45 C1.03 7.75, 1.35 7.06, 1.72 6.42 C2.09 5.77, 2.53 5.15, 3 4.59 C3.48 4.02, 4.02 3.48, 4.59 3 C5.15 2.53, 5.77 2.09, 6.42 1.72 C7.06 1.35, 7.75 1.03, 8.45 0.77 C9.14 0.52, 9.88 0.32, 10.61 0.2 C11.34 0.07, 12.09 0, 12.84 0 C13.58 0, 14.33 0.07, 15.06 0.2 C15.8 0.32, 16.53 0.52, 17.23 0.77 C17.92 1.03, 18.61 1.35, 19.25 1.72 C19.9 2.09, 20.52 2.53, 21.09 3 C21.66 3.48, 22.19 4.02, 22.67 4.59 C23.15 5.15, 23.58 5.77, 23.95 6.42 C24.32 7.06, 24.64 7.75, 24.9 8.45 C25.15 9.14, 25.35 9.88, 25.48 10.61 C25.61 11.34, 25.64 12.46, 25.67 12.84 C25.7 13.21, 25.7 12.46, 25.67 12.84" stroke="none" stroke-width="0" fill="#eebefa"></path><path d="M25.67 12.84 C25.67 13.58, 25.61 14.33, 25.48 15.06 C25.35 15.8, 25.15 16.53, 24.9 17.23 C24.64 17.92, 24.32 18.61, 23.95 19.25 C23.58 19.9, 23.15 20.52, 22.67 21.09 C22.19 21.66, 21.66 22.19, 21.09 22.67 C20.52 23.15, 19.9 23.58, 19.25 23.95 C18.61 24.32, 17.92 24.64, 17.23 24.9 C16.53 25.15, 15.8 25.35, 15.06 25.48 C14.33 25.61, 13.58 25.67, 12.84 25.67 C12.09 25.67, 11.34 25.61, 10.61 25.48 C9.88 25.35, 9.14 25.15, 8.45 24.9 C7.75 24.64, 7.06 24.32, 6.42 23.95 C5.77 23.58, 5.15 23.15, 4.59 22.67 C4.02 22.19, 3.48 21.66, 3 21.09 C2.53 20.52, 2.09 19.9, 1.72 19.25 C1.35 18.61, 1.03 17.92, 0.77 17.23 C0.52 16.53, 0.32 15.8, 0.2 15.06 C0.07 14.33, 0 13.58, 0 12.84 C0 12.09, 0.07 11.34, 0.2 10.61 C0.32 9.88, 0.52 9.14, 0.77 8.45 C1.03 7.75, 1.35 7.06, 1.72 6.42 C2.09 5.77, 2.53 5.15, 3 4.59 C3.48 4.02, 4.02 3.48, 4.59 3 C5.15 2.53, 5.77 2.09, 6.42 1.72 C7.06 1.35, 7.75 1.03, 8.45 0.77 C9.14 0.52, 9.88 0.32, 10.61 0.2 C11.34 0.07, 12.09 0, 12.84 0 C13.58 0, 14.33 0.07, 15.06 0.2 C15.8 0.32, 16.53 0.52, 17.23 0.77 C17.92 1.03, 18.61 1.35, 19.25 1.72 C19.9 2.09, 20.52 2.53, 21.09 3 C21.66 3.48, 22.19 4.02, 22.67 4.59 C23.15 5.15, 23.58 5.77, 23.95 6.42 C24.32 7.06, 24.64 7.75, 24.9 8.45 C25.15 9.14, 25.35 9.88, 25.48 10.61 C25.61 11.34, 25.64 12.46, 25.67 12.84 C25.7 13.21, 25.7 12.46, 25.67 12.84" stroke="transparent" stroke-width="4" fill="none"></path></g><g stroke-linecap="round" transform="translate(51.45730955145973 26.215690724395245) rotate(0 11.163117988389786 11.163117988389786)"><path d="M22.33 11.16 C22.33 11.81, 22.27 12.47, 22.16 13.1 C22.04 13.74, 21.87 14.37, 21.65 14.98 C21.43 15.59, 21.15 16.19, 20.83 16.74 C20.51 17.3, 20.13 17.84, 19.71 18.34 C19.3 18.83, 18.83 19.3, 18.34 19.71 C17.84 20.13, 17.3 20.51, 16.74 20.83 C16.19 21.15, 15.59 21.43, 14.98 21.65 C14.37 21.87, 13.74 22.04, 13.1 22.16 C12.47 22.27, 11.81 22.33, 11.16 22.33 C10.52 22.33, 9.86 22.27, 9.22 22.16 C8.59 22.04, 7.95 21.87, 7.35 21.65 C6.74 21.43, 6.14 21.15, 5.58 20.83 C5.02 20.51, 4.48 20.13, 3.99 19.71 C3.49 19.3, 3.03 18.83, 2.61 18.34 C2.2 17.84, 1.82 17.3, 1.5 16.74 C1.17 16.19, 0.89 15.59, 0.67 14.98 C0.45 14.37, 0.28 13.74, 0.17 13.1 C0.06 12.47, 0 11.81, 0 11.16 C0 10.52, 0.06 9.86, 0.17 9.22 C0.28 8.59, 0.45 7.95, 0.67 7.35 C0.89 6.74, 1.17 6.14, 1.5 5.58 C1.82 5.02, 2.2 4.48, 2.61 3.99 C3.03 3.49, 3.49 3.03, 3.99 2.61 C4.48 2.2, 5.02 1.82, 5.58 1.5 C6.14 1.17, 6.74 0.89, 7.35 0.67 C7.95 0.45, 8.59 0.28, 9.22 0.17 C9.86 0.06, 10.52 0, 11.16 0 C11.81 0, 12.47 0.06, 13.1 0.17 C13.74 0.28, 14.37 0.45, 14.98 0.67 C15.59 0.89, 16.19 1.17, 16.74 1.5 C17.3 1.82, 17.84 2.2, 18.34 2.61 C18.83 3.03, 19.3 3.49, 19.71 3.99 C20.13 4.48, 20.51 5.02, 20.83 5.58 C21.15 6.14, 21.43 6.74, 21.65 7.35 C21.87 7.95, 22.04 8.59, 22.16 9.22 C22.27 9.86, 22.3 10.84, 22.33 11.16 C22.35 11.49, 22.35 10.84, 22.33 11.16" stroke="none" stroke-width="0" fill="#f8f0fc"></path><path d="M22.33 11.16 C22.33 11.81, 22.27 12.47, 22.16 13.1 C22.04 13.74, 21.87 14.37, 21.65 14.98 C21.43 15.59, 21.15 16.19, 20.83 16.74 C20.51 17.3, 20.13 17.84, 19.71 18.34 C19.3 18.83, 18.83 19.3, 18.34 19.71 C17.84 20.13, 17.3 20.51, 16.74 20.83 C16.19 21.15, 15.59 21.43, 14.98 21.65 C14.37 21.87, 13.74 22.04, 13.1 22.16 C12.47 22.27, 11.81 22.33, 11.16 22.33 C10.52 22.33, 9.86 22.27, 9.22 22.16 C8.59 22.04, 7.95 21.87, 7.35 21.65 C6.74 21.43, 6.14 21.15, 5.58 20.83 C5.02 20.51, 4.48 20.13, 3.99 19.71 C3.49 19.3, 3.03 18.83, 2.61 18.34 C2.2 17.84, 1.82 17.3, 1.5 16.74 C1.17 16.19, 0.89 15.59, 0.67 14.98 C0.45 14.37, 0.28 13.74, 0.17 13.1 C0.06 12.47, 0 11.81, 0 11.16 C0 10.52, 0.06 9.86, 0.17 9.22 C0.28 8.59, 0.45 7.95, 0.67 7.35 C0.89 6.74, 1.17 6.14, 1.5 5.58 C1.82 5.02, 2.2 4.48, 2.61 3.99 C3.03 3.49, 3.49 3.03, 3.99 2.61 C4.48 2.2, 5.02 1.82, 5.58 1.5 C6.14 1.17, 6.74 0.89, 7.35 0.67 C7.95 0.45, 8.59 0.28, 9.22 0.17 C9.86 0.06, 10.52 0, 11.16 0 C11.81 0, 12.47 0.06, 13.1 0.17 C13.74 0.28, 14.37 0.45, 14.98 0.67 C15.59 0.89, 16.19 1.17, 16.74 1.5 C17.3 1.82, 17.84 2.2, 18.34 2.61 C18.83 3.03, 19.3 3.49, 19.71 3.99 C20.13 4.48, 20.51 5.02, 20.83 5.58 C21.15 6.14, 21.43 6.74, 21.65 7.35 C21.87 7.95, 22.04 8.59, 22.16 9.22 C22.27 9.86, 22.3 10.84, 22.33 11.16 C22.35 11.49, 22.35 10.84, 22.33 11.16" stroke="transparent" stroke-width="4" fill="none"></path></g><g stroke-linecap="round"><g transform="translate(31.934215029152256 92.77582717954283) rotate(0 30.66624611145312 -27.696780959488024)" fill-rule="evenodd"><path d="M0 0 L-5.59 -52.37 L66.93 -55.39 L61.64 -0.12 L0 0" stroke="none" stroke-width="0" fill="#ffec99" fill-rule="evenodd"></path><path d="M0 0 C-2.11 -19.72, -4.21 -39.45, -5.59 -52.37 M0 0 C-1.62 -15.15, -3.24 -30.29, -5.59 -52.37 M-5.59 -52.37 C15.23 -53.24, 36.06 -54.11, 66.93 -55.39 M-5.59 -52.37 C10.63 -53.05, 26.86 -53.72, 66.93 -55.39 M66.93 -55.39 C65.43 -39.75, 63.94 -24.12, 61.64 -0.12 M66.93 -55.39 C65.74 -43.01, 64.56 -30.63, 61.64 -0.12 M61.64 -0.12 C45.23 -0.09, 28.82 -0.06, 0 0 M61.64 -0.12 C43.63 -0.08, 25.62 -0.05, 0 0 M0 0 C0 0, 0 0, 0 0 M0 0 C0 0, 0 0, 0 0" stroke="#343a40" stroke-width="4" fill="none"></path></g></g><mask></mask><g stroke-linecap="round" transform="translate(34.63000874886893 57.187992260674946) rotate(224.99999999999986 8.597861376536684 3.65079996154509)"><path d="M1.83 0 C7.07 0, 12.31 0, 15.37 0 C16.59 0, 17.2 0.61, 17.2 1.83 C17.2 2.59, 17.2 3.35, 17.2 5.48 C17.2 6.69, 16.59 7.3, 15.37 7.3 C10.62 7.3, 5.87 7.3, 1.83 7.3 C0.61 7.3, 0 6.69, 0 5.48 C0 4.05, 0 2.63, 0 1.83 C0 0.61, 0.61 0, 1.83 0" stroke="none" stroke-width="0" fill="#343a40"></path><path d="M1.83 0 C7.1 0, 12.38 0, 15.37 0 M1.83 0 C5.67 0, 9.51 0, 15.37 0 M15.37 0 C16.59 0, 17.2 0.61, 17.2 1.83 M15.37 0 C16.59 0, 17.2 0.61, 17.2 1.83 M17.2 1.83 C17.2 3.17, 17.2 4.51, 17.2 5.48 M17.2 1.83 C17.2 3.22, 17.2 4.62, 17.2 5.48 M17.2 5.48 C17.2 6.69, 16.59 7.3, 15.37 7.3 M17.2 5.48 C17.2 6.69, 16.59 7.3, 15.37 7.3 M15.37 7.3 C10.74 7.3, 6.11 7.3, 1.83 7.3 M15.37 7.3 C12.38 7.3, 9.38 7.3, 1.83 7.3 M1.83 7.3 C0.61 7.3, 0 6.69, 0 5.48 M1.83 7.3 C0.61 7.3, 0 6.69, 0 5.48 M0 5.48 C0 4.37, 0 3.26, 0 1.83 M0 5.48 C0 4.09, 0 2.7, 0 1.83 M0 1.83 C0 0.61, 0.61 0, 1.83 0 M0 1.83 C0 0.61, 0.61 0, 1.83 0" stroke="transparent" stroke-width="4" fill="none"></path></g><g stroke-linecap="round" transform="translate(34.69125199573227 52.30212764982571) rotate(224.99999999999986 3.6346665775975 3.6346665775972724)"><path d="M7.27 3.63 C7.27 3.85, 7.25 4.06, 7.21 4.27 C7.18 4.47, 7.12 4.68, 7.05 4.88 C6.98 5.08, 6.89 5.27, 6.78 5.45 C6.68 5.63, 6.55 5.81, 6.42 5.97 C6.28 6.13, 6.13 6.28, 5.97 6.42 C5.81 6.55, 5.63 6.68, 5.45 6.78 C5.27 6.89, 5.08 6.98, 4.88 7.05 C4.68 7.12, 4.47 7.18, 4.27 7.21 C4.06 7.25, 3.85 7.27, 3.63 7.27 C3.42 7.27, 3.21 7.25, 3 7.21 C2.8 7.18, 2.59 7.12, 2.39 7.05 C2.19 6.98, 2 6.89, 1.82 6.78 C1.64 6.68, 1.46 6.55, 1.3 6.42 C1.14 6.28, 0.99 6.13, 0.85 5.97 C0.72 5.81, 0.59 5.63, 0.49 5.45 C0.38 5.27, 0.29 5.08, 0.22 4.88 C0.15 4.68, 0.09 4.47, 0.06 4.27 C0.02 4.06, 0 3.85, 0 3.63 C0 3.42, 0.02 3.21, 0.06 3 C0.09 2.8, 0.15 2.59, 0.22 2.39 C0.29 2.19, 0.38 2, 0.49 1.82 C0.59 1.64, 0.72 1.46, 0.85 1.3 C0.99 1.14, 1.14 0.99, 1.3 0.85 C1.46 0.72, 1.64 0.59, 1.82 0.49 C2 0.38, 2.19 0.29, 2.39 0.22 C2.59 0.15, 2.8 0.09, 3 0.06 C3.21 0.02, 3.42 0, 3.63 0 C3.85 0, 4.06 0.02, 4.27 0.06 C4.47 0.09, 4.68 0.15, 4.88 0.22 C5.08 0.29, 5.27 0.38, 5.45 0.49 C5.63 0.59, 5.81 0.72, 5.97 0.85 C6.13 0.99, 6.28 1.14, 6.42 1.3 C6.55 1.46, 6.68 1.64, 6.78 1.82 C6.89 2, 6.98 2.19, 7.05 2.39 C7.12 2.59, 7.18 2.8, 7.21 3 C7.25 3.21, 7.26 3.53, 7.27 3.63 C7.28 3.74, 7.28 3.53, 7.27 3.63" stroke="none" stroke-width="0" fill="#343a40"></path><path d="M7.27 3.63 C7.27 3.85, 7.25 4.06, 7.21 4.27 C7.18 4.47, 7.12 4.68, 7.05 4.88 C6.98 5.08, 6.89 5.27, 6.78 5.45 C6.68 5.63, 6.55 5.81, 6.42 5.97 C6.28 6.13, 6.13 6.28, 5.97 6.42 C5.81 6.55, 5.63 6.68, 5.45 6.78 C5.27 6.89, 5.08 6.98, 4.88 7.05 C4.68 7.12, 4.47 7.18, 4.27 7.21 C4.06 7.25, 3.85 7.27, 3.63 7.27 C3.42 7.27, 3.21 7.25, 3 7.21 C2.8 7.18, 2.59 7.12, 2.39 7.05 C2.19 6.98, 2 6.89, 1.82 6.78 C1.64 6.68, 1.46 6.55, 1.3 6.42 C1.14 6.28, 0.99 6.13, 0.85 5.97 C0.72 5.81, 0.59 5.63, 0.49 5.45 C0.38 5.27, 0.29 5.08, 0.22 4.88 C0.15 4.68, 0.09 4.47, 0.06 4.27 C0.02 4.06, 0 3.85, 0 3.63 C0 3.42, 0.02 3.21, 0.06 3 C0.09 2.8, 0.15 2.59, 0.22 2.39 C0.29 2.19, 0.38 2, 0.49 1.82 C0.59 1.64, 0.72 1.46, 0.85 1.3 C0.99 1.14, 1.14 0.99, 1.3 0.85 C1.46 0.72, 1.64 0.59, 1.82 0.49 C2 0.38, 2.19 0.29, 2.39 0.22 C2.59 0.15, 2.8 0.09, 3 0.06 C3.21 0.02, 3.42 0, 3.63 0 C3.85 0, 4.06 0.02, 4.27 0.06 C4.47 0.09, 4.68 0.15, 4.88 0.22 C5.08 0.29, 5.27 0.38, 5.45 0.49 C5.63 0.59, 5.81 0.72, 5.97 0.85 C6.13 0.99, 6.28 1.14, 6.42 1.3 C6.55 1.46, 6.68 1.64, 6.78 1.82 C6.89 2, 6.98 2.19, 7.05 2.39 C7.12 2.59, 7.18 2.8, 7.21 3 C7.25 3.21, 7.26 3.53, 7.27 3.63 C7.28 3.74, 7.28 3.53, 7.27 3.63" stroke="transparent" stroke-width="2" fill="none"></path></g><g stroke-linecap="round" transform="translate(41.038877291677636 66.79194821002784) rotate(0 5.945195826761164 5.945195826760937)"><path d="M11.89 5.95 C11.89 6.29, 11.86 6.64, 11.8 6.98 C11.74 7.32, 11.65 7.66, 11.53 7.98 C11.41 8.3, 11.27 8.62, 11.09 8.92 C10.92 9.22, 10.72 9.5, 10.5 9.77 C10.28 10.03, 10.03 10.28, 9.77 10.5 C9.5 10.72, 9.22 10.92, 8.92 11.09 C8.62 11.27, 8.3 11.41, 7.98 11.53 C7.66 11.65, 7.32 11.74, 6.98 11.8 C6.64 11.86, 6.29 11.89, 5.95 11.89 C5.6 11.89, 5.25 11.86, 4.91 11.8 C4.57 11.74, 4.24 11.65, 3.91 11.53 C3.59 11.41, 3.27 11.27, 2.97 11.09 C2.67 10.92, 2.39 10.72, 2.12 10.5 C1.86 10.28, 1.61 10.03, 1.39 9.77 C1.17 9.5, 0.97 9.22, 0.8 8.92 C0.62 8.62, 0.48 8.3, 0.36 7.98 C0.24 7.66, 0.15 7.32, 0.09 6.98 C0.03 6.64, 0 6.29, 0 5.95 C0 5.6, 0.03 5.25, 0.09 4.91 C0.15 4.57, 0.24 4.24, 0.36 3.91 C0.48 3.59, 0.62 3.27, 0.8 2.97 C0.97 2.67, 1.17 2.39, 1.39 2.12 C1.61 1.86, 1.86 1.61, 2.12 1.39 C2.39 1.17, 2.67 0.97, 2.97 0.8 C3.27 0.62, 3.59 0.48, 3.91 0.36 C4.24 0.24, 4.57 0.15, 4.91 0.09 C5.25 0.03, 5.6 0, 5.95 0 C6.29 0, 6.64 0.03, 6.98 0.09 C7.32 0.15, 7.66 0.24, 7.98 0.36 C8.3 0.48, 8.62 0.62, 8.92 0.8 C9.22 0.97, 9.5 1.17, 9.77 1.39 C10.03 1.61, 10.28 1.86, 10.5 2.12 C10.72 2.39, 10.92 2.67, 11.09 2.97 C11.27 3.27, 11.41 3.59, 11.53 3.91 C11.65 4.24, 11.74 4.57, 11.8 4.91 C11.86 5.25, 11.88 5.77, 11.89 5.95 C11.91 6.12, 11.91 5.77, 11.89 5.95" stroke="none" stroke-width="0" fill="#f783ac"></path><path d="M11.89 5.95 C11.89 6.29, 11.86 6.64, 11.8 6.98 C11.74 7.32, 11.65 7.66, 11.53 7.98 C11.41 8.3, 11.27 8.62, 11.09 8.92 C10.92 9.22, 10.72 9.5, 10.5 9.77 C10.28 10.03, 10.03 10.28, 9.77 10.5 C9.5 10.72, 9.22 10.92, 8.92 11.09 C8.62 11.27, 8.3 11.41, 7.98 11.53 C7.66 11.65, 7.32 11.74, 6.98 11.8 C6.64 11.86, 6.29 11.89, 5.95 11.89 C5.6 11.89, 5.25 11.86, 4.91 11.8 C4.57 11.74, 4.24 11.65, 3.91 11.53 C3.59 11.41, 3.27 11.27, 2.97 11.09 C2.67 10.92, 2.39 10.72, 2.12 10.5 C1.86 10.28, 1.61 10.03, 1.39 9.77 C1.17 9.5, 0.97 9.22, 0.8 8.92 C0.62 8.62, 0.48 8.3, 0.36 7.98 C0.24 7.66, 0.15 7.32, 0.09 6.98 C0.03 6.64, 0 6.29, 0 5.95 C0 5.6, 0.03 5.25, 0.09 4.91 C0.15 4.57, 0.24 4.24, 0.36 3.91 C0.48 3.59, 0.62 3.27, 0.8 2.97 C0.97 2.67, 1.17 2.39, 1.39 2.12 C1.61 1.86, 1.86 1.61, 2.12 1.39 C2.39 1.17, 2.67 0.97, 2.97 0.8 C3.27 0.62, 3.59 0.48, 3.91 0.36 C4.24 0.24, 4.57 0.15, 4.91 0.09 C5.25 0.03, 5.6 0, 5.95 0 C6.29 0, 6.64 0.03, 6.98 0.09 C7.32 0.15, 7.66 0.24, 7.98 0.36 C8.3 0.48, 8.62 0.62, 8.92 0.8 C9.22 0.97, 9.5 1.17, 9.77 1.39 C10.03 1.61, 10.28 1.86, 10.5 2.12 C10.72 2.39, 10.92 2.67, 11.09 2.97 C11.27 3.27, 11.41 3.59, 11.53 3.91 C11.65 4.24, 11.74 4.57, 11.8 4.91 C11.86 5.25, 11.88 5.77, 11.89 5.95 C11.91 6.12, 11.91 5.77, 11.89 5.95" stroke="transparent" stroke-width="2" fill="none"></path></g><g stroke-linecap="round" transform="translate(38.86419128852958 55.68823142514702) rotate(269.9999999999999 8.182043320627145 9.112690426036352)"><path d="M4.09 0 C6.9 0, 9.72 0, 12.27 0 C15 0, 16.36 1.36, 16.36 4.09 C16.36 6.99, 16.36 9.89, 16.36 14.13 C16.36 16.86, 15 18.23, 12.27 18.23 C9.01 18.23, 5.74 18.23, 4.09 18.23 C1.36 18.23, 0 16.86, 0 14.13 C0 11.56, 0 8.99, 0 4.09 C0 1.36, 1.36 0, 4.09 0" stroke="none" stroke-width="0" fill="#343a40"></path><path d="M4.09 0 C6.56 0, 9.03 0, 12.27 0 M4.09 0 C6.15 0, 8.2 0, 12.27 0 M12.27 0 C15 0, 16.36 1.36, 16.36 4.09 M12.27 0 C15 0, 16.36 1.36, 16.36 4.09 M16.36 4.09 C16.36 7.21, 16.36 10.32, 16.36 14.13 M16.36 4.09 C16.36 7.46, 16.36 10.82, 16.36 14.13 M16.36 14.13 C16.36 16.86, 15 18.23, 12.27 18.23 M16.36 14.13 C16.36 16.86, 15 18.23, 12.27 18.23 M12.27 18.23 C10.4 18.23, 8.52 18.23, 4.09 18.23 M12.27 18.23 C9.19 18.23, 6.1 18.23, 4.09 18.23 M4.09 18.23 C1.36 18.23, 0 16.86, 0 14.13 M4.09 18.23 C1.36 18.23, 0 16.86, 0 14.13 M0 14.13 C0 10.17, 0 6.21, 0 4.09 M0 14.13 C0 11.83, 0 9.53, 0 4.09 M0 4.09 C0 1.36, 1.36 0, 4.09 0 M0 4.09 C0 1.36, 1.36 0, 4.09 0" stroke="transparent" stroke-width="4" fill="none"></path></g><g stroke-linecap="round" transform="translate(37.973896378653535 51.70348605413892) rotate(269.9999999999999 9.07242020170429 9.072420201704517)"><path d="M18.14 9.07 C18.14 9.6, 18.1 10.13, 18.01 10.65 C17.92 11.16, 17.78 11.68, 17.6 12.18 C17.42 12.67, 17.19 13.15, 16.93 13.61 C16.67 14.06, 16.36 14.5, 16.02 14.9 C15.68 15.31, 15.31 15.68, 14.9 16.02 C14.5 16.36, 14.06 16.67, 13.61 16.93 C13.15 17.19, 12.67 17.42, 12.18 17.6 C11.68 17.78, 11.16 17.92, 10.65 18.01 C10.13 18.1, 9.6 18.14, 9.07 18.14 C8.55 18.14, 8.01 18.1, 7.5 18.01 C6.98 17.92, 6.46 17.78, 5.97 17.6 C5.48 17.42, 4.99 17.19, 4.54 16.93 C4.08 16.67, 3.64 16.36, 3.24 16.02 C2.84 15.68, 2.46 15.31, 2.12 14.9 C1.78 14.5, 1.48 14.06, 1.22 13.61 C0.95 13.15, 0.73 12.67, 0.55 12.18 C0.37 11.68, 0.23 11.16, 0.14 10.65 C0.05 10.13, 0 9.6, 0 9.07 C0 8.55, 0.05 8.01, 0.14 7.5 C0.23 6.98, 0.37 6.46, 0.55 5.97 C0.73 5.48, 0.95 4.99, 1.22 4.54 C1.48 4.08, 1.78 3.64, 2.12 3.24 C2.46 2.84, 2.84 2.46, 3.24 2.12 C3.64 1.78, 4.08 1.48, 4.54 1.22 C4.99 0.95, 5.48 0.73, 5.97 0.55 C6.46 0.37, 6.98 0.23, 7.5 0.14 C8.01 0.05, 8.55 0, 9.07 0 C9.6 0, 10.13 0.05, 10.65 0.14 C11.16 0.23, 11.68 0.37, 12.18 0.55 C12.67 0.73, 13.15 0.95, 13.61 1.22 C14.06 1.48, 14.5 1.78, 14.9 2.12 C15.31 2.46, 15.68 2.84, 16.02 3.24 C16.36 3.64, 16.67 4.08, 16.93 4.54 C17.19 4.99, 17.42 5.48, 17.6 5.97 C17.78 6.46, 17.92 6.98, 18.01 7.5 C18.1 8.01, 18.12 8.81, 18.14 9.07 C18.17 9.33, 18.17 8.81, 18.14 9.07" stroke="none" stroke-width="0" fill="#343a40"></path><path d="M18.14 9.07 C18.14 9.6, 18.1 10.13, 18.01 10.65 C17.92 11.16, 17.78 11.68, 17.6 12.18 C17.42 12.67, 17.19 13.15, 16.93 13.61 C16.67 14.06, 16.36 14.5, 16.02 14.9 C15.68 15.31, 15.31 15.68, 14.9 16.02 C14.5 16.36, 14.06 16.67, 13.61 16.93 C13.15 17.19, 12.67 17.42, 12.18 17.6 C11.68 17.78, 11.16 17.92, 10.65 18.01 C10.13 18.1, 9.6 18.14, 9.07 18.14 C8.55 18.14, 8.01 18.1, 7.5 18.01 C6.98 17.92, 6.46 17.78, 5.97 17.6 C5.48 17.42, 4.99 17.19, 4.54 16.93 C4.08 16.67, 3.64 16.36, 3.24 16.02 C2.84 15.68, 2.46 15.31, 2.12 14.9 C1.78 14.5, 1.48 14.06, 1.22 13.61 C0.95 13.15, 0.73 12.67, 0.55 12.18 C0.37 11.68, 0.23 11.16, 0.14 10.65 C0.05 10.13, 0 9.6, 0 9.07 C0 8.55, 0.05 8.01, 0.14 7.5 C0.23 6.98, 0.37 6.46, 0.55 5.97 C0.73 5.48, 0.95 4.99, 1.22 4.54 C1.48 4.08, 1.78 3.64, 2.12 3.24 C2.46 2.84, 2.84 2.46, 3.24 2.12 C3.64 1.78, 4.08 1.48, 4.54 1.22 C4.99 0.95, 5.48 0.73, 5.97 0.55 C6.46 0.37, 6.98 0.23, 7.5 0.14 C8.01 0.05, 8.55 0, 9.07 0 C9.6 0, 10.13 0.05, 10.65 0.14 C11.16 0.23, 11.68 0.37, 12.18 0.55 C12.67 0.73, 13.15 0.95, 13.61 1.22 C14.06 1.48, 14.5 1.78, 14.9 2.12 C15.31 2.46, 15.68 2.84, 16.02 3.24 C16.36 3.64, 16.67 4.08, 16.93 4.54 C17.19 4.99, 17.42 5.48, 17.6 5.97 C17.78 6.46, 17.92 6.98, 18.01 7.5 C18.1 8.01, 18.12 8.81, 18.14 9.07 C18.17 9.33, 18.17 8.81, 18.14 9.07" stroke="transparent" stroke-width="2" fill="none"></path></g><g stroke-linecap="round" transform="translate(43.810962658919834 60.000807201111456) rotate(0 3.212917919238862 3.212917919238862)"><path d="M6.43 3.21 C6.43 3.4, 6.41 3.59, 6.38 3.77 C6.34 3.95, 6.3 4.14, 6.23 4.31 C6.17 4.49, 6.09 4.66, 6 4.82 C5.9 4.98, 5.79 5.14, 5.67 5.28 C5.55 5.42, 5.42 5.55, 5.28 5.67 C5.14 5.79, 4.98 5.9, 4.82 6 C4.66 6.09, 4.49 6.17, 4.31 6.23 C4.14 6.3, 3.95 6.34, 3.77 6.38 C3.59 6.41, 3.4 6.43, 3.21 6.43 C3.03 6.43, 2.84 6.41, 2.66 6.38 C2.47 6.34, 2.29 6.3, 2.11 6.23 C1.94 6.17, 1.77 6.09, 1.61 6 C1.45 5.9, 1.29 5.79, 1.15 5.67 C1.01 5.55, 0.87 5.42, 0.75 5.28 C0.63 5.14, 0.52 4.98, 0.43 4.82 C0.34 4.66, 0.26 4.49, 0.19 4.31 C0.13 4.14, 0.08 3.95, 0.05 3.77 C0.02 3.59, 0 3.4, 0 3.21 C0 3.03, 0.02 2.84, 0.05 2.66 C0.08 2.47, 0.13 2.29, 0.19 2.11 C0.26 1.94, 0.34 1.77, 0.43 1.61 C0.52 1.45, 0.63 1.29, 0.75 1.15 C0.87 1.01, 1.01 0.87, 1.15 0.75 C1.29 0.63, 1.45 0.52, 1.61 0.43 C1.77 0.34, 1.94 0.26, 2.11 0.19 C2.29 0.13, 2.47 0.08, 2.66 0.05 C2.84 0.02, 3.03 0, 3.21 0 C3.4 0, 3.59 0.02, 3.77 0.05 C3.95 0.08, 4.14 0.13, 4.31 0.19 C4.49 0.26, 4.66 0.34, 4.82 0.43 C4.98 0.52, 5.14 0.63, 5.28 0.75 C5.42 0.87, 5.55 1.01, 5.67 1.15 C5.79 1.29, 5.9 1.45, 6 1.61 C6.09 1.77, 6.17 1.94, 6.23 2.11 C6.3 2.29, 6.34 2.47, 6.38 2.66 C6.41 2.84, 6.42 3.12, 6.43 3.21 C6.43 3.31, 6.43 3.12, 6.43 3.21" stroke="none" stroke-width="0" fill="#ffffff"></path><path d="M6.43 3.21 C6.43 3.4, 6.41 3.59, 6.38 3.77 C6.34 3.95, 6.3 4.14, 6.23 4.31 C6.17 4.49, 6.09 4.66, 6 4.82 C5.9 4.98, 5.79 5.14, 5.67 5.28 C5.55 5.42, 5.42 5.55, 5.28 5.67 C5.14 5.79, 4.98 5.9, 4.82 6 C4.66 6.09, 4.49 6.17, 4.31 6.23 C4.14 6.3, 3.95 6.34, 3.77 6.38 C3.59 6.41, 3.4 6.43, 3.21 6.43 C3.03 6.43, 2.84 6.41, 2.66 6.38 C2.47 6.34, 2.29 6.3, 2.11 6.23 C1.94 6.17, 1.77 6.09, 1.61 6 C1.45 5.9, 1.29 5.79, 1.15 5.67 C1.01 5.55, 0.87 5.42, 0.75 5.28 C0.63 5.14, 0.52 4.98, 0.43 4.82 C0.34 4.66, 0.26 4.49, 0.19 4.31 C0.13 4.14, 0.08 3.95, 0.05 3.77 C0.02 3.59, 0 3.4, 0 3.21 C0 3.03, 0.02 2.84, 0.05 2.66 C0.08 2.47, 0.13 2.29, 0.19 2.11 C0.26 1.94, 0.34 1.77, 0.43 1.61 C0.52 1.45, 0.63 1.29, 0.75 1.15 C0.87 1.01, 1.01 0.87, 1.15 0.75 C1.29 0.63, 1.45 0.52, 1.61 0.43 C1.77 0.34, 1.94 0.26, 2.11 0.19 C2.29 0.13, 2.47 0.08, 2.66 0.05 C2.84 0.02, 3.03 0, 3.21 0 C3.4 0, 3.59 0.02, 3.77 0.05 C3.95 0.08, 4.14 0.13, 4.31 0.19 C4.49 0.26, 4.66 0.34, 4.82 0.43 C4.98 0.52, 5.14 0.63, 5.28 0.75 C5.42 0.87, 5.55 1.01, 5.67 1.15 C5.79 1.29, 5.9 1.45, 6 1.61 C6.09 1.77, 6.17 1.94, 6.23 2.11 C6.3 2.29, 6.34 2.47, 6.38 2.66 C6.41 2.84, 6.42 3.12, 6.43 3.21 C6.43 3.31, 6.43 3.12, 6.43 3.21" stroke="transparent" stroke-width="2" fill="none"></path></g><g stroke-linecap="round" transform="translate(43.79907143213677 61.9620892078965) rotate(0 3.2248091460219257 4.419702898967444)"><path d="M1.61 0 C2.86 0, 4.11 0, 4.84 0 C5.91 0, 6.45 0.54, 6.45 1.61 C6.45 3, 6.45 4.38, 6.45 7.23 C6.45 8.3, 5.91 8.84, 4.84 8.84 C3.99 8.84, 3.15 8.84, 1.61 8.84 C0.54 8.84, 0 8.3, 0 7.23 C0 5.01, 0 2.79, 0 1.61 C0 0.54, 0.54 0, 1.61 0" stroke="none" stroke-width="0" fill="#ffffff"></path><path d="M1.61 0 C2.54 0, 3.46 0, 4.84 0 M1.61 0 C2.33 0, 3.06 0, 4.84 0 M4.84 0 C5.91 0, 6.45 0.54, 6.45 1.61 M4.84 0 C5.91 0, 6.45 0.54, 6.45 1.61 M6.45 1.61 C6.45 3.21, 6.45 4.8, 6.45 7.23 M6.45 1.61 C6.45 3.54, 6.45 5.46, 6.45 7.23 M6.45 7.23 C6.45 8.3, 5.91 8.84, 4.84 8.84 M6.45 7.23 C6.45 8.3, 5.91 8.84, 4.84 8.84 M4.84 8.84 C3.88 8.84, 2.92 8.84, 1.61 8.84 M4.84 8.84 C3.79 8.84, 2.74 8.84, 1.61 8.84 M1.61 8.84 C0.54 8.84, 0 8.3, 0 7.23 M1.61 8.84 C0.54 8.84, 0 8.3, 0 7.23 M0 7.23 C0 5.88, 0 4.54, 0 1.61 M0 7.23 C0 5.51, 0 3.79, 0 1.61 M0 1.61 C0 0.54, 0.54 0, 1.61 0 M0 1.61 C0 0.54, 0.54 0, 1.61 0" stroke="transparent" stroke-width="4" fill="none"></path></g><g stroke-linecap="round" transform="translate(73.41512378044035 57.18799226067313) rotate(135.00000000000017 8.59786137653714 3.65079996154509)"><path d="M1.83 0 C6.5 0, 11.18 0, 15.37 0 C16.59 0, 17.2 0.61, 17.2 1.83 C17.2 2.66, 17.2 3.49, 17.2 5.48 C17.2 6.69, 16.59 7.3, 15.37 7.3 C11.87 7.3, 8.37 7.3, 1.83 7.3 C0.61 7.3, 0 6.69, 0 5.48 C0 4.62, 0 3.76, 0 1.83 C0 0.61, 0.61 0, 1.83 0" stroke="none" stroke-width="0" fill="#343a40"></path><path d="M1.83 0 C6.11 0, 10.4 0, 15.37 0 M1.83 0 C5.42 0, 9.02 0, 15.37 0 M15.37 0 C16.59 0, 17.2 0.61, 17.2 1.83 M15.37 0 C16.59 0, 17.2 0.61, 17.2 1.83 M17.2 1.83 C17.2 3.13, 17.2 4.44, 17.2 5.48 M17.2 1.83 C17.2 2.83, 17.2 3.83, 17.2 5.48 M17.2 5.48 C17.2 6.69, 16.59 7.3, 15.37 7.3 M17.2 5.48 C17.2 6.69, 16.59 7.3, 15.37 7.3 M15.37 7.3 C11.75 7.3, 8.13 7.3, 1.83 7.3 M15.37 7.3 C10.06 7.3, 4.74 7.3, 1.83 7.3 M1.83 7.3 C0.61 7.3, 0 6.69, 0 5.48 M1.83 7.3 C0.61 7.3, 0 6.69, 0 5.48 M0 5.48 C0 4.73, 0 3.98, 0 1.83 M0 5.48 C0 4.15, 0 2.82, 0 1.83 M0 1.83 C0 0.61, 0.61 0, 1.83 0 M0 1.83 C0 0.61, 0.61 0, 1.83 0" stroke="transparent" stroke-width="4" fill="none"></path></g><g stroke-linecap="round" transform="translate(83.28027013145629 52.30212764982389) rotate(135.00000000000017 3.6346665775975 3.6346665775972724)"><path d="M7.27 3.63 C7.27 3.85, 7.25 4.06, 7.21 4.27 C7.18 4.47, 7.12 4.68, 7.05 4.88 C6.98 5.08, 6.89 5.27, 6.78 5.45 C6.68 5.63, 6.55 5.81, 6.42 5.97 C6.28 6.13, 6.13 6.28, 5.97 6.42 C5.81 6.55, 5.63 6.68, 5.45 6.78 C5.27 6.89, 5.08 6.98, 4.88 7.05 C4.68 7.12, 4.47 7.18, 4.27 7.21 C4.06 7.25, 3.85 7.27, 3.63 7.27 C3.42 7.27, 3.21 7.25, 3 7.21 C2.8 7.18, 2.59 7.12, 2.39 7.05 C2.19 6.98, 2 6.89, 1.82 6.78 C1.64 6.68, 1.46 6.55, 1.3 6.42 C1.14 6.28, 0.99 6.13, 0.85 5.97 C0.72 5.81, 0.59 5.63, 0.49 5.45 C0.38 5.27, 0.29 5.08, 0.22 4.88 C0.15 4.68, 0.09 4.47, 0.06 4.27 C0.02 4.06, 0 3.85, 0 3.63 C0 3.42, 0.02 3.21, 0.06 3 C0.09 2.8, 0.15 2.59, 0.22 2.39 C0.29 2.19, 0.38 2, 0.49 1.82 C0.59 1.64, 0.72 1.46, 0.85 1.3 C0.99 1.14, 1.14 0.99, 1.3 0.85 C1.46 0.72, 1.64 0.59, 1.82 0.49 C2 0.38, 2.19 0.29, 2.39 0.22 C2.59 0.15, 2.8 0.09, 3 0.06 C3.21 0.02, 3.42 0, 3.63 0 C3.85 0, 4.06 0.02, 4.27 0.06 C4.47 0.09, 4.68 0.15, 4.88 0.22 C5.08 0.29, 5.27 0.38, 5.45 0.49 C5.63 0.59, 5.81 0.72, 5.97 0.85 C6.13 0.99, 6.28 1.14, 6.42 1.3 C6.55 1.46, 6.68 1.64, 6.78 1.82 C6.89 2, 6.98 2.19, 7.05 2.39 C7.12 2.59, 7.18 2.8, 7.21 3 C7.25 3.21, 7.26 3.53, 7.27 3.63 C7.28 3.74, 7.28 3.53, 7.27 3.63" stroke="none" stroke-width="0" fill="#343a40"></path><path d="M7.27 3.63 C7.27 3.85, 7.25 4.06, 7.21 4.27 C7.18 4.47, 7.12 4.68, 7.05 4.88 C6.98 5.08, 6.89 5.27, 6.78 5.45 C6.68 5.63, 6.55 5.81, 6.42 5.97 C6.28 6.13, 6.13 6.28, 5.97 6.42 C5.81 6.55, 5.63 6.68, 5.45 6.78 C5.27 6.89, 5.08 6.98, 4.88 7.05 C4.68 7.12, 4.47 7.18, 4.27 7.21 C4.06 7.25, 3.85 7.27, 3.63 7.27 C3.42 7.27, 3.21 7.25, 3 7.21 C2.8 7.18, 2.59 7.12, 2.39 7.05 C2.19 6.98, 2 6.89, 1.82 6.78 C1.64 6.68, 1.46 6.55, 1.3 6.42 C1.14 6.28, 0.99 6.13, 0.85 5.97 C0.72 5.81, 0.59 5.63, 0.49 5.45 C0.38 5.27, 0.29 5.08, 0.22 4.88 C0.15 4.68, 0.09 4.47, 0.06 4.27 C0.02 4.06, 0 3.85, 0 3.63 C0 3.42, 0.02 3.21, 0.06 3 C0.09 2.8, 0.15 2.59, 0.22 2.39 C0.29 2.19, 0.38 2, 0.49 1.82 C0.59 1.64, 0.72 1.46, 0.85 1.3 C0.99 1.14, 1.14 0.99, 1.3 0.85 C1.46 0.72, 1.64 0.59, 1.82 0.49 C2 0.38, 2.19 0.29, 2.39 0.22 C2.59 0.15, 2.8 0.09, 3 0.06 C3.21 0.02, 3.42 0, 3.63 0 C3.85 0, 4.06 0.02, 4.27 0.06 C4.47 0.09, 4.68 0.15, 4.88 0.22 C5.08 0.29, 5.27 0.38, 5.45 0.49 C5.63 0.59, 5.81 0.72, 5.97 0.85 C6.13 0.99, 6.28 1.14, 6.42 1.3 C6.55 1.46, 6.68 1.64, 6.78 1.82 C6.89 2, 6.98 2.19, 7.05 2.39 C7.12 2.59, 7.18 2.8, 7.21 3 C7.25 3.21, 7.26 3.53, 7.27 3.63 C7.28 3.74, 7.28 3.53, 7.27 3.63" stroke="transparent" stroke-width="2" fill="none"></path></g><g stroke-linecap="round" transform="translate(72.31158633718178 66.79194821002784) rotate(0 5.945195826761392 5.9451958267618465)"><path d="M11.89 5.95 C11.89 6.29, 11.86 6.64, 11.8 6.98 C11.74 7.32, 11.65 7.66, 11.53 7.98 C11.41 8.3, 11.27 8.62, 11.09 8.92 C10.92 9.22, 10.72 9.5, 10.5 9.77 C10.28 10.03, 10.03 10.28, 9.77 10.5 C9.5 10.72, 9.22 10.92, 8.92 11.09 C8.62 11.27, 8.3 11.41, 7.98 11.53 C7.66 11.65, 7.32 11.74, 6.98 11.8 C6.64 11.86, 6.29 11.89, 5.95 11.89 C5.6 11.89, 5.25 11.86, 4.91 11.8 C4.57 11.74, 4.24 11.65, 3.91 11.53 C3.59 11.41, 3.27 11.27, 2.97 11.09 C2.67 10.92, 2.39 10.72, 2.12 10.5 C1.86 10.28, 1.61 10.03, 1.39 9.77 C1.17 9.5, 0.97 9.22, 0.8 8.92 C0.62 8.62, 0.48 8.3, 0.36 7.98 C0.24 7.66, 0.15 7.32, 0.09 6.98 C0.03 6.64, 0 6.29, 0 5.95 C0 5.6, 0.03 5.25, 0.09 4.91 C0.15 4.57, 0.24 4.24, 0.36 3.91 C0.48 3.59, 0.62 3.27, 0.8 2.97 C0.97 2.67, 1.17 2.39, 1.39 2.12 C1.61 1.86, 1.86 1.61, 2.12 1.39 C2.39 1.17, 2.67 0.97, 2.97 0.8 C3.27 0.62, 3.59 0.48, 3.91 0.36 C4.24 0.24, 4.57 0.15, 4.91 0.09 C5.25 0.03, 5.6 0, 5.95 0 C6.29 0, 6.64 0.03, 6.98 0.09 C7.32 0.15, 7.66 0.24, 7.98 0.36 C8.3 0.48, 8.62 0.62, 8.92 0.8 C9.22 0.97, 9.5 1.17, 9.77 1.39 C10.03 1.61, 10.28 1.86, 10.5 2.12 C10.72 2.39, 10.92 2.67, 11.09 2.97 C11.27 3.27, 11.41 3.59, 11.53 3.91 C11.65 4.24, 11.74 4.57, 11.8 4.91 C11.86 5.25, 11.88 5.77, 11.89 5.95 C11.91 6.12, 11.91 5.77, 11.89 5.95" stroke="none" stroke-width="0" fill="#f783ac"></path><path d="M11.89 5.95 C11.89 6.29, 11.86 6.64, 11.8 6.98 C11.74 7.32, 11.65 7.66, 11.53 7.98 C11.41 8.3, 11.27 8.62, 11.09 8.92 C10.92 9.22, 10.72 9.5, 10.5 9.77 C10.28 10.03, 10.03 10.28, 9.77 10.5 C9.5 10.72, 9.22 10.92, 8.92 11.09 C8.62 11.27, 8.3 11.41, 7.98 11.53 C7.66 11.65, 7.32 11.74, 6.98 11.8 C6.64 11.86, 6.29 11.89, 5.95 11.89 C5.6 11.89, 5.25 11.86, 4.91 11.8 C4.57 11.74, 4.24 11.65, 3.91 11.53 C3.59 11.41, 3.27 11.27, 2.97 11.09 C2.67 10.92, 2.39 10.72, 2.12 10.5 C1.86 10.28, 1.61 10.03, 1.39 9.77 C1.17 9.5, 0.97 9.22, 0.8 8.92 C0.62 8.62, 0.48 8.3, 0.36 7.98 C0.24 7.66, 0.15 7.32, 0.09 6.98 C0.03 6.64, 0 6.29, 0 5.95 C0 5.6, 0.03 5.25, 0.09 4.91 C0.15 4.57, 0.24 4.24, 0.36 3.91 C0.48 3.59, 0.62 3.27, 0.8 2.97 C0.97 2.67, 1.17 2.39, 1.39 2.12 C1.61 1.86, 1.86 1.61, 2.12 1.39 C2.39 1.17, 2.67 0.97, 2.97 0.8 C3.27 0.62, 3.59 0.48, 3.91 0.36 C4.24 0.24, 4.57 0.15, 4.91 0.09 C5.25 0.03, 5.6 0, 5.95 0 C6.29 0, 6.64 0.03, 6.98 0.09 C7.32 0.15, 7.66 0.24, 7.98 0.36 C8.3 0.48, 8.62 0.62, 8.92 0.8 C9.22 0.97, 9.5 1.17, 9.77 1.39 C10.03 1.61, 10.28 1.86, 10.5 2.12 C10.72 2.39, 10.92 2.67, 11.09 2.97 C11.27 3.27, 11.41 3.59, 11.53 3.91 C11.65 4.24, 11.74 4.57, 11.8 4.91 C11.86 5.25, 11.88 5.77, 11.89 5.95 C11.91 6.12, 11.91 5.77, 11.89 5.95" stroke="transparent" stroke-width="2" fill="none"></path></g><g stroke-linecap="round" transform="translate(69.94830716108481 55.75250161666372) rotate(90.0000000000001 8.246313512142024 9.112690426036352)"><path d="M4.12 0 C6.48 0, 8.83 0, 12.37 0 C15.12 0, 16.49 1.37, 16.49 4.12 C16.49 7.98, 16.49 11.84, 16.49 14.1 C16.49 16.85, 15.12 18.23, 12.37 18.23 C10.48 18.23, 8.6 18.23, 4.12 18.23 C1.37 18.23, 0 16.85, 0 14.1 C0 10.34, 0 6.58, 0 4.12 C0 1.37, 1.37 0, 4.12 0" stroke="none" stroke-width="0" fill="#343a40"></path><path d="M4.12 0 C5.95 0, 7.77 0, 12.37 0 M4.12 0 C6.45 0, 8.78 0, 12.37 0 M12.37 0 C15.12 0, 16.49 1.37, 16.49 4.12 M12.37 0 C15.12 0, 16.49 1.37, 16.49 4.12 M16.49 4.12 C16.49 7.91, 16.49 11.7, 16.49 14.1 M16.49 4.12 C16.49 7.6, 16.49 11.07, 16.49 14.1 M16.49 14.1 C16.49 16.85, 15.12 18.23, 12.37 18.23 M16.49 14.1 C16.49 16.85, 15.12 18.23, 12.37 18.23 M12.37 18.23 C9.78 18.23, 7.2 18.23, 4.12 18.23 M12.37 18.23 C9.95 18.23, 7.53 18.23, 4.12 18.23 M4.12 18.23 C1.37 18.23, 0 16.85, 0 14.1 M4.12 18.23 C1.37 18.23, 0 16.85, 0 14.1 M0 14.1 C0 11.37, 0 8.63, 0 4.12 M0 14.1 C0 11.74, 0 9.38, 0 4.12 M0 4.12 C0 1.37, 1.37 0, 4.12 0 M0 4.12 C0 1.37, 1.37 0, 4.12 0" stroke="transparent" stroke-width="4" fill="none"></path></g><g stroke-linecap="round" transform="translate(69.12211850032054 51.70348605413528) rotate(90.0000000000001 9.072420201704517 9.072420201704517)"><path d="M18.14 9.07 C18.14 9.6, 18.1 10.13, 18.01 10.65 C17.92 11.16, 17.78 11.68, 17.6 12.18 C17.42 12.67, 17.19 13.15, 16.93 13.61 C16.67 14.06, 16.36 14.5, 16.02 14.9 C15.68 15.31, 15.31 15.68, 14.9 16.02 C14.5 16.36, 14.06 16.67, 13.61 16.93 C13.15 17.19, 12.67 17.42, 12.18 17.6 C11.68 17.78, 11.16 17.92, 10.65 18.01 C10.13 18.1, 9.6 18.14, 9.07 18.14 C8.55 18.14, 8.01 18.1, 7.5 18.01 C6.98 17.92, 6.46 17.78, 5.97 17.6 C5.48 17.42, 4.99 17.19, 4.54 16.93 C4.08 16.67, 3.64 16.36, 3.24 16.02 C2.84 15.68, 2.46 15.31, 2.12 14.9 C1.78 14.5, 1.48 14.06, 1.22 13.61 C0.95 13.15, 0.73 12.67, 0.55 12.18 C0.37 11.68, 0.23 11.16, 0.14 10.65 C0.05 10.13, 0 9.6, 0 9.07 C0 8.55, 0.05 8.01, 0.14 7.5 C0.23 6.98, 0.37 6.46, 0.55 5.97 C0.73 5.48, 0.95 4.99, 1.22 4.54 C1.48 4.08, 1.78 3.64, 2.12 3.24 C2.46 2.84, 2.84 2.46, 3.24 2.12 C3.64 1.78, 4.08 1.48, 4.54 1.22 C4.99 0.95, 5.48 0.73, 5.97 0.55 C6.46 0.37, 6.98 0.23, 7.5 0.14 C8.01 0.05, 8.55 0, 9.07 0 C9.6 0, 10.13 0.05, 10.65 0.14 C11.16 0.23, 11.68 0.37, 12.18 0.55 C12.67 0.73, 13.15 0.95, 13.61 1.22 C14.06 1.48, 14.5 1.78, 14.9 2.12 C15.31 2.46, 15.68 2.84, 16.02 3.24 C16.36 3.64, 16.67 4.08, 16.93 4.54 C17.19 4.99, 17.42 5.48, 17.6 5.97 C17.78 6.46, 17.92 6.98, 18.01 7.5 C18.1 8.01, 18.12 8.81, 18.14 9.07 C18.17 9.33, 18.17 8.81, 18.14 9.07" stroke="none" stroke-width="0" fill="#343a40"></path><path d="M18.14 9.07 C18.14 9.6, 18.1 10.13, 18.01 10.65 C17.92 11.16, 17.78 11.68, 17.6 12.18 C17.42 12.67, 17.19 13.15, 16.93 13.61 C16.67 14.06, 16.36 14.5, 16.02 14.9 C15.68 15.31, 15.31 15.68, 14.9 16.02 C14.5 16.36, 14.06 16.67, 13.61 16.93 C13.15 17.19, 12.67 17.42, 12.18 17.6 C11.68 17.78, 11.16 17.92, 10.65 18.01 C10.13 18.1, 9.6 18.14, 9.07 18.14 C8.55 18.14, 8.01 18.1, 7.5 18.01 C6.98 17.92, 6.46 17.78, 5.97 17.6 C5.48 17.42, 4.99 17.19, 4.54 16.93 C4.08 16.67, 3.64 16.36, 3.24 16.02 C2.84 15.68, 2.46 15.31, 2.12 14.9 C1.78 14.5, 1.48 14.06, 1.22 13.61 C0.95 13.15, 0.73 12.67, 0.55 12.18 C0.37 11.68, 0.23 11.16, 0.14 10.65 C0.05 10.13, 0 9.6, 0 9.07 C0 8.55, 0.05 8.01, 0.14 7.5 C0.23 6.98, 0.37 6.46, 0.55 5.97 C0.73 5.48, 0.95 4.99, 1.22 4.54 C1.48 4.08, 1.78 3.64, 2.12 3.24 C2.46 2.84, 2.84 2.46, 3.24 2.12 C3.64 1.78, 4.08 1.48, 4.54 1.22 C4.99 0.95, 5.48 0.73, 5.97 0.55 C6.46 0.37, 6.98 0.23, 7.5 0.14 C8.01 0.05, 8.55 0, 9.07 0 C9.6 0, 10.13 0.05, 10.65 0.14 C11.16 0.23, 11.68 0.37, 12.18 0.55 C12.67 0.73, 13.15 0.95, 13.61 1.22 C14.06 1.48, 14.5 1.78, 14.9 2.12 C15.31 2.46, 15.68 2.84, 16.02 3.24 C16.36 3.64, 16.67 4.08, 16.93 4.54 C17.19 4.99, 17.42 5.48, 17.6 5.97 C17.78 6.46, 17.92 6.98, 18.01 7.5 C18.1 8.01, 18.12 8.81, 18.14 9.07 C18.17 9.33, 18.17 8.81, 18.14 9.07" stroke="transparent" stroke-width="2" fill="none"></path></g><g stroke-linecap="round" transform="translate(75.00405678498873 60.000807201111456) rotate(0 3.212917919238862 3.212917919238862)"><path d="M6.43 3.21 C6.43 3.4, 6.41 3.59, 6.38 3.77 C6.34 3.95, 6.3 4.14, 6.23 4.31 C6.17 4.49, 6.09 4.66, 6 4.82 C5.9 4.98, 5.79 5.14, 5.67 5.28 C5.55 5.42, 5.42 5.55, 5.28 5.67 C5.14 5.79, 4.98 5.9, 4.82 6 C4.66 6.09, 4.49 6.17, 4.31 6.23 C4.14 6.3, 3.95 6.34, 3.77 6.38 C3.59 6.41, 3.4 6.43, 3.21 6.43 C3.03 6.43, 2.84 6.41, 2.66 6.38 C2.47 6.34, 2.29 6.3, 2.11 6.23 C1.94 6.17, 1.77 6.09, 1.61 6 C1.45 5.9, 1.29 5.79, 1.15 5.67 C1.01 5.55, 0.87 5.42, 0.75 5.28 C0.63 5.14, 0.52 4.98, 0.43 4.82 C0.34 4.66, 0.26 4.49, 0.19 4.31 C0.13 4.14, 0.08 3.95, 0.05 3.77 C0.02 3.59, 0 3.4, 0 3.21 C0 3.03, 0.02 2.84, 0.05 2.66 C0.08 2.47, 0.13 2.29, 0.19 2.11 C0.26 1.94, 0.34 1.77, 0.43 1.61 C0.52 1.45, 0.63 1.29, 0.75 1.15 C0.87 1.01, 1.01 0.87, 1.15 0.75 C1.29 0.63, 1.45 0.52, 1.61 0.43 C1.77 0.34, 1.94 0.26, 2.11 0.19 C2.29 0.13, 2.47 0.08, 2.66 0.05 C2.84 0.02, 3.03 0, 3.21 0 C3.4 0, 3.59 0.02, 3.77 0.05 C3.95 0.08, 4.14 0.13, 4.31 0.19 C4.49 0.26, 4.66 0.34, 4.82 0.43 C4.98 0.52, 5.14 0.63, 5.28 0.75 C5.42 0.87, 5.55 1.01, 5.67 1.15 C5.79 1.29, 5.9 1.45, 6 1.61 C6.09 1.77, 6.17 1.94, 6.23 2.11 C6.3 2.29, 6.34 2.47, 6.38 2.66 C6.41 2.84, 6.42 3.12, 6.43 3.21 C6.43 3.31, 6.43 3.12, 6.43 3.21" stroke="none" stroke-width="0" fill="#ffffff"></path><path d="M6.43 3.21 C6.43 3.4, 6.41 3.59, 6.38 3.77 C6.34 3.95, 6.3 4.14, 6.23 4.31 C6.17 4.49, 6.09 4.66, 6 4.82 C5.9 4.98, 5.79 5.14, 5.67 5.28 C5.55 5.42, 5.42 5.55, 5.28 5.67 C5.14 5.79, 4.98 5.9, 4.82 6 C4.66 6.09, 4.49 6.17, 4.31 6.23 C4.14 6.3, 3.95 6.34, 3.77 6.38 C3.59 6.41, 3.4 6.43, 3.21 6.43 C3.03 6.43, 2.84 6.41, 2.66 6.38 C2.47 6.34, 2.29 6.3, 2.11 6.23 C1.94 6.17, 1.77 6.09, 1.61 6 C1.45 5.9, 1.29 5.79, 1.15 5.67 C1.01 5.55, 0.87 5.42, 0.75 5.28 C0.63 5.14, 0.52 4.98, 0.43 4.82 C0.34 4.66, 0.26 4.49, 0.19 4.31 C0.13 4.14, 0.08 3.95, 0.05 3.77 C0.02 3.59, 0 3.4, 0 3.21 C0 3.03, 0.02 2.84, 0.05 2.66 C0.08 2.47, 0.13 2.29, 0.19 2.11 C0.26 1.94, 0.34 1.77, 0.43 1.61 C0.52 1.45, 0.63 1.29, 0.75 1.15 C0.87 1.01, 1.01 0.87, 1.15 0.75 C1.29 0.63, 1.45 0.52, 1.61 0.43 C1.77 0.34, 1.94 0.26, 2.11 0.19 C2.29 0.13, 2.47 0.08, 2.66 0.05 C2.84 0.02, 3.03 0, 3.21 0 C3.4 0, 3.59 0.02, 3.77 0.05 C3.95 0.08, 4.14 0.13, 4.31 0.19 C4.49 0.26, 4.66 0.34, 4.82 0.43 C4.98 0.52, 5.14 0.63, 5.28 0.75 C5.42 0.87, 5.55 1.01, 5.67 1.15 C5.79 1.29, 5.9 1.45, 6 1.61 C6.09 1.77, 6.17 1.94, 6.23 2.11 C6.3 2.29, 6.34 2.47, 6.38 2.66 C6.41 2.84, 6.42 3.12, 6.43 3.21 C6.43 3.31, 6.43 3.12, 6.43 3.21" stroke="transparent" stroke-width="2" fill="none"></path></g><g stroke-linecap="round" transform="translate(74.99216555820385 61.9620892078965) rotate(0 3.224809146022153 4.419702898967444)"><path d="M1.61 0 C2.48 0, 3.36 0, 4.84 0 C5.91 0, 6.45 0.54, 6.45 1.61 C6.45 2.95, 6.45 4.29, 6.45 7.23 C6.45 8.3, 5.91 8.84, 4.84 8.84 C3.57 8.84, 2.3 8.84, 1.61 8.84 C0.54 8.84, 0 8.3, 0 7.23 C0 5.49, 0 3.75, 0 1.61 C0 0.54, 0.54 0, 1.61 0" stroke="none" stroke-width="0" fill="#ffffff"></path><path d="M1.61 0 C2.52 0, 3.44 0, 4.84 0 M1.61 0 C2.33 0, 3.06 0, 4.84 0 M4.84 0 C5.91 0, 6.45 0.54, 6.45 1.61 M4.84 0 C5.91 0, 6.45 0.54, 6.45 1.61 M6.45 1.61 C6.45 3.03, 6.45 4.45, 6.45 7.23 M6.45 1.61 C6.45 3.4, 6.45 5.19, 6.45 7.23 M6.45 7.23 C6.45 8.3, 5.91 8.84, 4.84 8.84 M6.45 7.23 C6.45 8.3, 5.91 8.84, 4.84 8.84 M4.84 8.84 C3.81 8.84, 2.79 8.84, 1.61 8.84 M4.84 8.84 C3.62 8.84, 2.4 8.84, 1.61 8.84 M1.61 8.84 C0.54 8.84, 0 8.3, 0 7.23 M1.61 8.84 C0.54 8.84, 0 8.3, 0 7.23 M0 7.23 C0 5.24, 0 3.25, 0 1.61 M0 7.23 C0 6.05, 0 4.88, 0 1.61 M0 1.61 C0 0.54, 0.54 0, 1.61 0 M0 1.61 C0 0.54, 0.54 0, 1.61 0" stroke="transparent" stroke-width="4" fill="none"></path></g><g stroke-linecap="round" transform="translate(56.73887821789731 75.23460117963441) rotate(270.0000000000001 5.881549200440986 5.881549200441441)"><path d="M11.76 5.88 C11.76 6.22, 11.73 6.57, 11.67 6.9 C11.61 7.24, 11.52 7.57, 11.41 7.89 C11.29 8.21, 11.15 8.53, 10.98 8.82 C10.8 9.12, 10.61 9.4, 10.39 9.66 C10.17 9.92, 9.92 10.17, 9.66 10.39 C9.4 10.61, 9.12 10.8, 8.82 10.98 C8.53 11.15, 8.21 11.29, 7.89 11.41 C7.57 11.52, 7.24 11.61, 6.9 11.67 C6.57 11.73, 6.22 11.76, 5.88 11.76 C5.54 11.76, 5.2 11.73, 4.86 11.67 C4.52 11.61, 4.19 11.52, 3.87 11.41 C3.55 11.29, 3.24 11.15, 2.94 10.98 C2.65 10.8, 2.36 10.61, 2.1 10.39 C1.84 10.17, 1.59 9.92, 1.38 9.66 C1.16 9.4, 0.96 9.12, 0.79 8.82 C0.62 8.53, 0.47 8.21, 0.35 7.89 C0.24 7.57, 0.15 7.24, 0.09 6.9 C0.03 6.57, 0 6.22, 0 5.88 C0 5.54, 0.03 5.2, 0.09 4.86 C0.15 4.52, 0.24 4.19, 0.35 3.87 C0.47 3.55, 0.62 3.24, 0.79 2.94 C0.96 2.65, 1.16 2.36, 1.38 2.1 C1.59 1.84, 1.84 1.59, 2.1 1.38 C2.36 1.16, 2.65 0.96, 2.94 0.79 C3.24 0.62, 3.55 0.47, 3.87 0.35 C4.19 0.24, 4.52 0.15, 4.86 0.09 C5.2 0.03, 5.54 0, 5.88 0 C6.22 0, 6.57 0.03, 6.9 0.09 C7.24 0.15, 7.57 0.24, 7.89 0.35 C8.21 0.47, 8.53 0.62, 8.82 0.79 C9.12 0.96, 9.4 1.16, 9.66 1.38 C9.92 1.59, 10.17 1.84, 10.39 2.1 C10.61 2.36, 10.8 2.65, 10.98 2.94 C11.15 3.24, 11.29 3.55, 11.41 3.87 C11.52 4.19, 11.61 4.52, 11.67 4.86 C11.73 5.2, 11.75 5.71, 11.76 5.88 C11.78 6.05, 11.78 5.71, 11.76 5.88" stroke="none" stroke-width="0" fill="#343a40"></path><path d="M11.76 5.88 C11.76 6.22, 11.73 6.57, 11.67 6.9 C11.61 7.24, 11.52 7.57, 11.41 7.89 C11.29 8.21, 11.15 8.53, 10.98 8.82 C10.8 9.12, 10.61 9.4, 10.39 9.66 C10.17 9.92, 9.92 10.17, 9.66 10.39 C9.4 10.61, 9.12 10.8, 8.82 10.98 C8.53 11.15, 8.21 11.29, 7.89 11.41 C7.57 11.52, 7.24 11.61, 6.9 11.67 C6.57 11.73, 6.22 11.76, 5.88 11.76 C5.54 11.76, 5.2 11.73, 4.86 11.67 C4.52 11.61, 4.19 11.52, 3.87 11.41 C3.55 11.29, 3.24 11.15, 2.94 10.98 C2.65 10.8, 2.36 10.61, 2.1 10.39 C1.84 10.17, 1.59 9.92, 1.38 9.66 C1.16 9.4, 0.96 9.12, 0.79 8.82 C0.62 8.53, 0.47 8.21, 0.35 7.89 C0.24 7.57, 0.15 7.24, 0.09 6.9 C0.03 6.57, 0 6.22, 0 5.88 C0 5.54, 0.03 5.2, 0.09 4.86 C0.15 4.52, 0.24 4.19, 0.35 3.87 C0.47 3.55, 0.62 3.24, 0.79 2.94 C0.96 2.65, 1.16 2.36, 1.38 2.1 C1.59 1.84, 1.84 1.59, 2.1 1.38 C2.36 1.16, 2.65 0.96, 2.94 0.79 C3.24 0.62, 3.55 0.47, 3.87 0.35 C4.19 0.24, 4.52 0.15, 4.86 0.09 C5.2 0.03, 5.54 0, 5.88 0 C6.22 0, 6.57 0.03, 6.9 0.09 C7.24 0.15, 7.57 0.24, 7.89 0.35 C8.21 0.47, 8.53 0.62, 8.82 0.79 C9.12 0.96, 9.4 1.16, 9.66 1.38 C9.92 1.59, 10.17 1.84, 10.39 2.1 C10.61 2.36, 10.8 2.65, 10.98 2.94 C11.15 3.24, 11.29 3.55, 11.41 3.87 C11.52 4.19, 11.61 4.52, 11.67 4.86 C11.73 5.2, 11.75 5.71, 11.76 5.88 C11.78 6.05, 11.78 5.71, 11.76 5.88" stroke="#343a40" stroke-width="1" fill="none"></path></g><g stroke-linecap="round" transform="translate(57.66040122380218 72.64118290635088) rotate(270.0000000000001 4.9551468456527346 5.871878732403275)"><path d="M2.48 0 C3.5 0, 4.53 0, 7.43 0 C9.08 0, 9.91 0.83, 9.91 2.48 C9.91 4.76, 9.91 7.04, 9.91 9.27 C9.91 10.92, 9.08 11.74, 7.43 11.74 C5.45 11.74, 3.48 11.74, 2.48 11.74 C0.83 11.74, 0 10.92, 0 9.27 C0 6.73, 0 4.19, 0 2.48 C0 0.83, 0.83 0, 2.48 0" stroke="none" stroke-width="0" fill="#343a40"></path><path d="M2.48 0 C4.34 0, 6.21 0, 7.43 0 M2.48 0 C3.85 0, 5.22 0, 7.43 0 M7.43 0 C9.08 0, 9.91 0.83, 9.91 2.48 M7.43 0 C9.08 0, 9.91 0.83, 9.91 2.48 M9.91 2.48 C9.91 3.94, 9.91 5.41, 9.91 9.27 M9.91 2.48 C9.91 4.63, 9.91 6.77, 9.91 9.27 M9.91 9.27 C9.91 10.92, 9.08 11.74, 7.43 11.74 M9.91 9.27 C9.91 10.92, 9.08 11.74, 7.43 11.74 M7.43 11.74 C5.83 11.74, 4.23 11.74, 2.48 11.74 M7.43 11.74 C5.67 11.74, 3.92 11.74, 2.48 11.74 M2.48 11.74 C0.83 11.74, 0 10.92, 0 9.27 M2.48 11.74 C0.83 11.74, 0 10.92, 0 9.27 M0 9.27 C0 6.86, 0 4.45, 0 2.48 M0 9.27 C0 7.37, 0 5.48, 0 2.48 M0 2.48 C0 0.83, 0.83 0, 2.48 0 M0 2.48 C0 0.83, 0.83 0, 2.48 0" stroke="#343a40" stroke-width="1" fill="none"></path></g><g stroke-linecap="round" transform="translate(58.55548788247279 76.93708813744524) rotate(270.0000000000001 4.0649395358648235 4.064939535865051)"><path d="M8.13 4.06 C8.13 4.3, 8.11 4.54, 8.07 4.77 C8.03 5, 7.97 5.23, 7.88 5.46 C7.8 5.68, 7.7 5.89, 7.59 6.1 C7.47 6.3, 7.33 6.5, 7.18 6.68 C7.03 6.86, 6.86 7.03, 6.68 7.18 C6.5 7.33, 6.3 7.47, 6.1 7.59 C5.89 7.7, 5.68 7.8, 5.46 7.88 C5.23 7.97, 5 8.03, 4.77 8.07 C4.54 8.11, 4.3 8.13, 4.06 8.13 C3.83 8.13, 3.59 8.11, 3.36 8.07 C3.13 8.03, 2.9 7.97, 2.67 7.88 C2.45 7.8, 2.24 7.7, 2.03 7.59 C1.83 7.47, 1.63 7.33, 1.45 7.18 C1.27 7.03, 1.1 6.86, 0.95 6.68 C0.8 6.5, 0.66 6.3, 0.54 6.1 C0.43 5.89, 0.33 5.68, 0.25 5.46 C0.16 5.23, 0.1 5, 0.06 4.77 C0.02 4.54, 0 4.3, 0 4.06 C0 3.83, 0.02 3.59, 0.06 3.36 C0.1 3.13, 0.16 2.9, 0.25 2.67 C0.33 2.45, 0.43 2.24, 0.54 2.03 C0.66 1.83, 0.8 1.63, 0.95 1.45 C1.1 1.27, 1.27 1.1, 1.45 0.95 C1.63 0.8, 1.83 0.66, 2.03 0.54 C2.24 0.43, 2.45 0.33, 2.67 0.25 C2.9 0.16, 3.13 0.1, 3.36 0.06 C3.59 0.02, 3.83 0, 4.06 0 C4.3 0, 4.54 0.02, 4.77 0.06 C5 0.1, 5.23 0.16, 5.46 0.25 C5.68 0.33, 5.89 0.43, 6.1 0.54 C6.3 0.66, 6.5 0.8, 6.68 0.95 C6.86 1.1, 7.03 1.27, 7.18 1.45 C7.33 1.63, 7.47 1.83, 7.59 2.03 C7.7 2.24, 7.8 2.45, 7.88 2.67 C7.97 2.9, 8.03 3.13, 8.07 3.36 C8.11 3.59, 8.12 3.95, 8.13 4.06 C8.14 4.18, 8.14 3.95, 8.13 4.06" stroke="none" stroke-width="0" fill="#f783ac"></path><path d="M8.13 4.06 C8.13 4.3, 8.11 4.54, 8.07 4.77 C8.03 5, 7.97 5.23, 7.88 5.46 C7.8 5.68, 7.7 5.89, 7.59 6.1 C7.47 6.3, 7.33 6.5, 7.18 6.68 C7.03 6.86, 6.86 7.03, 6.68 7.18 C6.5 7.33, 6.3 7.47, 6.1 7.59 C5.89 7.7, 5.68 7.8, 5.46 7.88 C5.23 7.97, 5 8.03, 4.77 8.07 C4.54 8.11, 4.3 8.13, 4.06 8.13 C3.83 8.13, 3.59 8.11, 3.36 8.07 C3.13 8.03, 2.9 7.97, 2.67 7.88 C2.45 7.8, 2.24 7.7, 2.03 7.59 C1.83 7.47, 1.63 7.33, 1.45 7.18 C1.27 7.03, 1.1 6.86, 0.95 6.68 C0.8 6.5, 0.66 6.3, 0.54 6.1 C0.43 5.89, 0.33 5.68, 0.25 5.46 C0.16 5.23, 0.1 5, 0.06 4.77 C0.02 4.54, 0 4.3, 0 4.06 C0 3.83, 0.02 3.59, 0.06 3.36 C0.1 3.13, 0.16 2.9, 0.25 2.67 C0.33 2.45, 0.43 2.24, 0.54 2.03 C0.66 1.83, 0.8 1.63, 0.95 1.45 C1.1 1.27, 1.27 1.1, 1.45 0.95 C1.63 0.8, 1.83 0.66, 2.03 0.54 C2.24 0.43, 2.45 0.33, 2.67 0.25 C2.9 0.16, 3.13 0.1, 3.36 0.06 C3.59 0.02, 3.83 0, 4.06 0 C4.3 0, 4.54 0.02, 4.77 0.06 C5 0.1, 5.23 0.16, 5.46 0.25 C5.68 0.33, 5.89 0.43, 6.1 0.54 C6.3 0.66, 6.5 0.8, 6.68 0.95 C6.86 1.1, 7.03 1.27, 7.18 1.45 C7.33 1.63, 7.47 1.83, 7.59 2.03 C7.7 2.24, 7.8 2.45, 7.88 2.67 C7.97 2.9, 8.03 3.13, 8.07 3.36 C8.11 3.59, 8.12 3.95, 8.13 4.06 C8.14 4.18, 8.14 3.95, 8.13 4.06" stroke="transparent" stroke-width="2" fill="none"></path></g><g stroke-linecap="round" transform="translate(59.93186544835089 75.59193475151187) rotate(270.0000000000001 2.6836826211035714 5.016500685996107)"><path d="M1.34 0 C2.05 0, 2.75 0, 4.03 0 C4.92 0, 5.37 0.45, 5.37 1.34 C5.37 4.25, 5.37 7.15, 5.37 8.69 C5.37 9.59, 4.92 10.03, 4.03 10.03 C3.46 10.03, 2.89 10.03, 1.34 10.03 C0.45 10.03, 0 9.59, 0 8.69 C0 6.52, 0 4.35, 0 1.34 C0 0.45, 0.45 0, 1.34 0" stroke="none" stroke-width="0" fill="#343a40"></path><path d="M1.34 0 C2.1 0, 2.87 0, 4.03 0 M1.34 0 C2.26 0, 3.18 0, 4.03 0 M4.03 0 C4.92 0, 5.37 0.45, 5.37 1.34 M4.03 0 C4.92 0, 5.37 0.45, 5.37 1.34 M5.37 1.34 C5.37 3.52, 5.37 5.7, 5.37 8.69 M5.37 1.34 C5.37 3.73, 5.37 6.12, 5.37 8.69 M5.37 8.69 C5.37 9.59, 4.92 10.03, 4.03 10.03 M5.37 8.69 C5.37 9.59, 4.92 10.03, 4.03 10.03 M4.03 10.03 C3.38 10.03, 2.74 10.03, 1.34 10.03 M4.03 10.03 C3.2 10.03, 2.38 10.03, 1.34 10.03 M1.34 10.03 C0.45 10.03, 0 9.59, 0 8.69 M1.34 10.03 C0.45 10.03, 0 9.59, 0 8.69 M0 8.69 C0 5.84, 0 2.99, 0 1.34 M0 8.69 C0 7.11, 0 5.52, 0 1.34 M0 1.34 C0 0.45, 0.45 0, 1.34 0 M0 1.34 C0 0.45, 0.45 0, 1.34 0" stroke="transparent" stroke-width="4" fill="none"></path></g><g stroke-linecap="round" transform="translate(58.96969330095271 75.90770548192268) rotate(0 3.650694326575831 2.3348385468143533)"><path d="M1.17 0 C2.45 0, 3.73 0, 6.13 0 C6.91 0, 7.3 0.39, 7.3 1.17 C7.3 1.72, 7.3 2.27, 7.3 3.5 C7.3 4.28, 6.91 4.67, 6.13 4.67 C4.15 4.67, 2.17 4.67, 1.17 4.67 C0.39 4.67, 0 4.28, 0 3.5 C0 2.71, 0 1.92, 0 1.17 C0 0.39, 0.39 0, 1.17 0" stroke="none" stroke-width="0" fill="#ffffff"></path><path d="M1.17 0 C2.94 0, 4.72 0, 6.13 0 M1.17 0 C2.53 0, 3.9 0, 6.13 0 M6.13 0 C6.91 0, 7.3 0.39, 7.3 1.17 M6.13 0 C6.91 0, 7.3 0.39, 7.3 1.17 M7.3 1.17 C7.3 1.79, 7.3 2.42, 7.3 3.5 M7.3 1.17 C7.3 2.08, 7.3 3, 7.3 3.5 M7.3 3.5 C7.3 4.28, 6.91 4.67, 6.13 4.67 M7.3 3.5 C7.3 4.28, 6.91 4.67, 6.13 4.67 M6.13 4.67 C5.11 4.67, 4.09 4.67, 1.17 4.67 M6.13 4.67 C4.33 4.67, 2.52 4.67, 1.17 4.67 M1.17 4.67 C0.39 4.67, 0 4.28, 0 3.5 M1.17 4.67 C0.39 4.67, 0 4.28, 0 3.5 M0 3.5 C0 2.7, 0 1.89, 0 1.17 M0 3.5 C0 2.98, 0 2.46, 0 1.17 M0 1.17 C0 0.39, 0.39 0, 1.17 0 M0 1.17 C0 0.39, 0.39 0, 1.17 0" stroke="transparent" stroke-width="1" fill="none"></path></g><g stroke-linecap="round" transform="translate(59.22504048040628 82.6544454245959) rotate(0 3.3953869864378703 0.5836204956885922)"><path d="M6.79 0.58 C6.79 0.62, 6.77 0.65, 6.74 0.68 C6.71 0.72, 6.65 0.75, 6.59 0.78 C6.52 0.81, 6.43 0.85, 6.34 0.88 C6.24 0.9, 6.12 0.93, 6 0.96 C5.87 0.98, 5.73 1.01, 5.58 1.03 C5.43 1.05, 5.26 1.07, 5.09 1.09 C4.92 1.11, 4.74 1.12, 4.56 1.13 C4.37 1.14, 4.18 1.15, 3.98 1.16 C3.79 1.16, 3.59 1.17, 3.4 1.17 C3.2 1.17, 3 1.16, 2.81 1.16 C2.61 1.15, 2.42 1.14, 2.23 1.13 C2.05 1.12, 1.87 1.11, 1.7 1.09 C1.53 1.07, 1.36 1.05, 1.21 1.03 C1.06 1.01, 0.92 0.98, 0.79 0.96 C0.67 0.93, 0.55 0.9, 0.45 0.88 C0.36 0.85, 0.27 0.81, 0.2 0.78 C0.14 0.75, 0.09 0.72, 0.05 0.68 C0.02 0.65, 0 0.62, 0 0.58 C0 0.55, 0.02 0.52, 0.05 0.48 C0.09 0.45, 0.14 0.42, 0.2 0.38 C0.27 0.35, 0.36 0.32, 0.45 0.29 C0.55 0.26, 0.67 0.23, 0.79 0.21 C0.92 0.18, 1.06 0.16, 1.21 0.14 C1.36 0.11, 1.53 0.1, 1.7 0.08 C1.87 0.06, 2.05 0.05, 2.23 0.04 C2.42 0.02, 2.61 0.01, 2.81 0.01 C3 0, 3.2 0, 3.4 0 C3.59 0, 3.79 0, 3.98 0.01 C4.18 0.01, 4.37 0.02, 4.56 0.04 C4.74 0.05, 4.92 0.06, 5.09 0.08 C5.26 0.1, 5.43 0.11, 5.58 0.14 C5.73 0.16, 5.87 0.18, 6 0.21 C6.12 0.23, 6.24 0.26, 6.34 0.29 C6.43 0.32, 6.52 0.35, 6.59 0.38 C6.65 0.42, 6.71 0.45, 6.74 0.48 C6.77 0.52, 6.78 0.57, 6.79 0.58 C6.8 0.6, 6.8 0.57, 6.79 0.58" stroke="none" stroke-width="0" fill="#f783ac"></path><path d="M6.79 0.58 C6.79 0.62, 6.77 0.65, 6.74 0.68 C6.71 0.72, 6.65 0.75, 6.59 0.78 C6.52 0.81, 6.43 0.85, 6.34 0.88 C6.24 0.9, 6.12 0.93, 6 0.96 C5.87 0.98, 5.73 1.01, 5.58 1.03 C5.43 1.05, 5.26 1.07, 5.09 1.09 C4.92 1.11, 4.74 1.12, 4.56 1.13 C4.37 1.14, 4.18 1.15, 3.98 1.16 C3.79 1.16, 3.59 1.17, 3.4 1.17 C3.2 1.17, 3 1.16, 2.81 1.16 C2.61 1.15, 2.42 1.14, 2.23 1.13 C2.05 1.12, 1.87 1.11, 1.7 1.09 C1.53 1.07, 1.36 1.05, 1.21 1.03 C1.06 1.01, 0.92 0.98, 0.79 0.96 C0.67 0.93, 0.55 0.9, 0.45 0.88 C0.36 0.85, 0.27 0.81, 0.2 0.78 C0.14 0.75, 0.09 0.72, 0.05 0.68 C0.02 0.65, 0 0.62, 0 0.58 C0 0.55, 0.02 0.52, 0.05 0.48 C0.09 0.45, 0.14 0.42, 0.2 0.38 C0.27 0.35, 0.36 0.32, 0.45 0.29 C0.55 0.26, 0.67 0.23, 0.79 0.21 C0.92 0.18, 1.06 0.16, 1.21 0.14 C1.36 0.11, 1.53 0.1, 1.7 0.08 C1.87 0.06, 2.05 0.05, 2.23 0.04 C2.42 0.02, 2.61 0.01, 2.81 0.01 C3 0, 3.2 0, 3.4 0 C3.59 0, 3.79 0, 3.98 0.01 C4.18 0.01, 4.37 0.02, 4.56 0.04 C4.74 0.05, 4.92 0.06, 5.09 0.08 C5.26 0.1, 5.43 0.11, 5.58 0.14 C5.73 0.16, 5.87 0.18, 6 0.21 C6.12 0.23, 6.24 0.26, 6.34 0.29 C6.43 0.32, 6.52 0.35, 6.59 0.38 C6.65 0.42, 6.71 0.45, 6.74 0.48 C6.77 0.52, 6.78 0.57, 6.79 0.58 C6.8 0.6, 6.8 0.57, 6.79 0.58" stroke="transparent" stroke-width="2" fill="none"></path></g></svg>