<svg version="1.1" xmlns="http://www.w3.org/2000/svg" viewBox="0 0 100.0260236247641 95.14100953141678" width="200.0520472495282" height="190.28201906283357">
  <!-- svg-source:excalidraw -->
  
  <defs>
    <style class="style-fonts">
      
    </style>
    
  </defs>
  <g stroke-linecap="round" transform="translate(38.16191339225679 30.668124781008373) rotate(0 17.517683594698156 16.70238978787893)"><path d="M35.04 16.7 C35.04 17.67, 34.95 18.65, 34.77 19.6 C34.59 20.55, 34.33 21.51, 33.98 22.41 C33.63 23.32, 33.2 24.22, 32.69 25.05 C32.18 25.89, 31.59 26.7, 30.94 27.44 C30.29 28.18, 29.55 28.88, 28.78 29.5 C28 30.12, 27.15 30.68, 26.28 31.17 C25.4 31.65, 24.46 32.07, 23.51 32.4 C22.56 32.73, 21.56 32.98, 20.56 33.15 C19.56 33.32, 18.53 33.4, 17.52 33.4 C16.5 33.4, 15.47 33.32, 14.48 33.15 C13.48 32.98, 12.48 32.73, 11.53 32.4 C10.57 32.07, 9.64 31.65, 8.76 31.17 C7.88 30.68, 7.03 30.12, 6.26 29.5 C5.48 28.88, 4.75 28.18, 4.1 27.44 C3.45 26.7, 2.85 25.89, 2.35 25.05 C1.84 24.22, 1.4 23.32, 1.06 22.41 C0.71 21.51, 0.44 20.55, 0.27 19.6 C0.09 18.65, 0 17.67, 0 16.7 C0 15.74, 0.09 14.75, 0.27 13.8 C0.44 12.85, 0.71 11.9, 1.06 10.99 C1.4 10.08, 1.84 9.19, 2.35 8.35 C2.85 7.51, 3.45 6.71, 4.1 5.97 C4.75 5.23, 5.48 4.53, 6.26 3.91 C7.03 3.29, 7.88 2.72, 8.76 2.24 C9.64 1.75, 10.57 1.34, 11.53 1.01 C12.48 0.68, 13.48 0.42, 14.48 0.25 C15.47 0.09, 16.5 0, 17.52 0 C18.53 0, 19.56 0.09, 20.56 0.25 C21.56 0.42, 22.56 0.68, 23.51 1.01 C24.46 1.34, 25.4 1.75, 26.28 2.24 C27.15 2.72, 28 3.29, 28.78 3.91 C29.55 4.53, 30.29 5.23, 30.94 5.97 C31.59 6.71, 32.18 7.51, 32.69 8.35 C33.2 9.19, 33.63 10.08, 33.98 10.99 C34.33 11.9, 34.59 12.85, 34.77 13.8 C34.95 14.75, 34.99 16.22, 35.04 16.7 C35.08 17.19, 35.08 16.22, 35.04 16.7" stroke="none" stroke-width="0" fill="#ced4da"></path><path d="M35.04 16.7 C35.04 17.67, 34.95 18.65, 34.77 19.6 C34.59 20.55, 34.33 21.51, 33.98 22.41 C33.63 23.32, 33.2 24.22, 32.69 25.05 C32.18 25.89, 31.59 26.7, 30.94 27.44 C30.29 28.18, 29.55 28.88, 28.78 29.5 C28 30.12, 27.15 30.68, 26.28 31.17 C25.4 31.65, 24.46 32.07, 23.51 32.4 C22.56 32.73, 21.56 32.98, 20.56 33.15 C19.56 33.32, 18.53 33.4, 17.52 33.4 C16.5 33.4, 15.47 33.32, 14.48 33.15 C13.48 32.98, 12.48 32.73, 11.53 32.4 C10.57 32.07, 9.64 31.65, 8.76 31.17 C7.88 30.68, 7.03 30.12, 6.26 29.5 C5.48 28.88, 4.75 28.18, 4.1 27.44 C3.45 26.7, 2.85 25.89, 2.35 25.05 C1.84 24.22, 1.4 23.32, 1.06 22.41 C0.71 21.51, 0.44 20.55, 0.27 19.6 C0.09 18.65, 0 17.67, 0 16.7 C0 15.74, 0.09 14.75, 0.27 13.8 C0.44 12.85, 0.71 11.9, 1.06 10.99 C1.4 10.08, 1.84 9.19, 2.35 8.35 C2.85 7.51, 3.45 6.71, 4.1 5.97 C4.75 5.23, 5.48 4.53, 6.26 3.91 C7.03 3.29, 7.88 2.72, 8.76 2.24 C9.64 1.75, 10.57 1.34, 11.53 1.01 C12.48 0.68, 13.48 0.42, 14.48 0.25 C15.47 0.09, 16.5 0, 17.52 0 C18.53 0, 19.56 0.09, 20.56 0.25 C21.56 0.42, 22.56 0.68, 23.51 1.01 C24.46 1.34, 25.4 1.75, 26.28 2.24 C27.15 2.72, 28 3.29, 28.78 3.91 C29.55 4.53, 30.29 5.23, 30.94 5.97 C31.59 6.71, 32.18 7.51, 32.69 8.35 C33.2 9.19, 33.63 10.08, 33.98 10.99 C34.33 11.9, 34.59 12.85, 34.77 13.8 C34.95 14.75, 34.99 16.22, 35.04 16.7 C35.08 17.19, 35.08 16.22, 35.04 16.7" stroke="#343a40" stroke-width="4" fill="none"></path></g><g stroke-linecap="round" transform="translate(13.832205751803485 53.139012181043654) rotate(330.00000000000006 10.469780818985328 10.469780818984873)"><path d="M5.23 0 C7.46 0, 9.69 0, 15.7 0 C19.19 0, 20.94 1.74, 20.94 5.23 C20.94 8.73, 20.94 12.22, 20.94 15.7 C20.94 19.19, 19.19 20.94, 15.7 20.94 C13.21 20.94, 10.72 20.94, 5.23 20.94 C1.74 20.94, 0 19.19, 0 15.7 C0 13.36, 0 11.01, 0 5.23 C0 1.74, 1.74 0, 5.23 0" stroke="none" stroke-width="0" fill="#e9ecef"></path><path d="M5.23 0 C7.68 0, 10.12 0, 15.7 0 M5.23 0 C9.06 0, 12.89 0, 15.7 0 M15.7 0 C19.19 0, 20.94 1.74, 20.94 5.23 M15.7 0 C19.19 0, 20.94 1.74, 20.94 5.23 M20.94 5.23 C20.94 9.19, 20.94 13.14, 20.94 15.7 M20.94 5.23 C20.94 8.93, 20.94 12.63, 20.94 15.7 M20.94 15.7 C20.94 19.19, 19.19 20.94, 15.7 20.94 M20.94 15.7 C20.94 19.19, 19.19 20.94, 15.7 20.94 M15.7 20.94 C13.57 20.94, 11.44 20.94, 5.23 20.94 M15.7 20.94 C13.21 20.94, 10.71 20.94, 5.23 20.94 M5.23 20.94 C1.74 20.94, 0 19.19, 0 15.7 M5.23 20.94 C1.74 20.94, 0 19.19, 0 15.7 M0 15.7 C0 12.37, 0 9.03, 0 5.23 M0 15.7 C0 11.63, 0 7.56, 0 5.23 M0 5.23 C0 1.74, 1.74 0, 5.23 0 M0 5.23 C0 1.74, 1.74 0, 5.23 0" stroke="#343a40" stroke-width="4" fill="none"></path></g><g stroke-linecap="round" transform="translate(20.239802531210444 59.546609072778665) rotate(330.00000000000006 4.062184193017401 4.062184193017856)"><path d="M2.03 0 C2.97 0, 3.91 0, 6.09 0 C7.45 0, 8.12 0.68, 8.12 2.03 C8.12 3.44, 8.12 4.85, 8.12 6.09 C8.12 7.45, 7.45 8.12, 6.09 8.12 C5.22 8.12, 4.34 8.12, 2.03 8.12 C0.68 8.12, 0 7.45, 0 6.09 C0 5.16, 0 4.23, 0 2.03 C0 0.68, 0.68 0, 2.03 0" stroke="none" stroke-width="0" fill="#343a40"></path><path d="M2.03 0 C2.87 0, 3.7 0, 6.09 0 M2.03 0 C3.57 0, 5.11 0, 6.09 0 M6.09 0 C7.45 0, 8.12 0.68, 8.12 2.03 M6.09 0 C7.45 0, 8.12 0.68, 8.12 2.03 M8.12 2.03 C8.12 3.48, 8.12 4.93, 8.12 6.09 M8.12 2.03 C8.12 3.16, 8.12 4.3, 8.12 6.09 M8.12 6.09 C8.12 7.45, 7.45 8.12, 6.09 8.12 M8.12 6.09 C8.12 7.45, 7.45 8.12, 6.09 8.12 M6.09 8.12 C4.83 8.12, 3.56 8.12, 2.03 8.12 M6.09 8.12 C4.64 8.12, 3.19 8.12, 2.03 8.12 M2.03 8.12 C0.68 8.12, 0 7.45, 0 6.09 M2.03 8.12 C0.68 8.12, 0 7.45, 0 6.09 M0 6.09 C0 4.81, 0 3.53, 0 2.03 M0 6.09 C0 4.99, 0 3.88, 0 2.03 M0 2.03 C0 0.68, 0.68 0, 2.03 0 M0 2.03 C0 0.68, 0.68 0, 2.03 0" stroke="#343a40" stroke-width="1" fill="none"></path></g><g stroke-linecap="round"><g transform="translate(29.276745186745757 85.14100953141678) rotate(0 26.141992090423173 -23.610618206795152)" fill-rule="evenodd"><path d="M0 0 L-4.77 -44.65 L57.05 -47.22 L52.55 -0.1 L0 0" stroke="none" stroke-width="0" fill="#343a40" fill-rule="evenodd"></path><path d="M0 0 C-1.61 -15.04, -3.21 -30.08, -4.77 -44.65 M0 0 C-1.23 -11.52, -2.46 -23.03, -4.77 -44.65 M-4.77 -44.65 C13.72 -45.42, 32.2 -46.19, 57.05 -47.22 M-4.77 -44.65 C11.17 -45.31, 27.11 -45.97, 57.05 -47.22 M57.05 -47.22 C55.65 -32.54, 54.25 -17.86, 52.55 -0.1 M57.05 -47.22 C55.44 -30.35, 53.83 -13.49, 52.55 -0.1 M52.55 -0.1 C36.2 -0.07, 19.86 -0.04, 0 0 M52.55 -0.1 C40.38 -0.08, 28.22 -0.05, 0 0 M0 0 C0 0, 0 0, 0 0 M0 0 C0 0, 0 0, 0 0" stroke="#343a40" stroke-width="4" fill="none"></path></g></g><mask></mask><g stroke-linecap="round"><g transform="translate(32.81166985532218 81.94543060976503) rotate(0 22.607066428518465 -20.417985453179426)" fill-rule="evenodd"><path d="M0 0 L-4.12 -38.61 L49.34 -40.84 L45.44 -0.09 L0 0" stroke="none" stroke-width="0" fill="#e9ecef" fill-rule="evenodd"></path><path d="M0 0 C-0.97 -9.06, -1.94 -18.13, -4.12 -38.61 M0 0 C-1.23 -11.56, -2.47 -23.13, -4.12 -38.61 M-4.12 -38.61 C14.84 -39.4, 33.8 -40.19, 49.34 -40.84 M-4.12 -38.61 C12.67 -39.31, 29.47 -40.01, 49.34 -40.84 M49.34 -40.84 C47.78 -24.57, 46.23 -8.3, 45.44 -0.09 M49.34 -40.84 C47.94 -26.22, 46.54 -11.61, 45.44 -0.09 M45.44 -0.09 C34.92 -0.07, 24.4 -0.05, 0 0 M45.44 -0.09 C28.44 -0.05, 11.45 -0.02, 0 0 M0 0 C0 0, 0 0, 0 0 M0 0 C0 0, 0 0, 0 0" stroke="#e9ecef" stroke-width="4" fill="none"></path></g></g><mask></mask><g stroke-linecap="round" transform="translate(49.588319632161074 70.91383264264368) rotate(270.0000000000001 5.847438256942496 5.847438256942951)"><path d="M11.69 5.85 C11.69 6.19, 11.66 6.53, 11.61 6.86 C11.55 7.2, 11.46 7.53, 11.34 7.85 C11.23 8.17, 11.08 8.48, 10.91 8.77 C10.74 9.06, 10.54 9.35, 10.33 9.61 C10.11 9.87, 9.87 10.11, 9.61 10.33 C9.35 10.54, 9.06 10.74, 8.77 10.91 C8.48 11.08, 8.17 11.23, 7.85 11.34 C7.53 11.46, 7.2 11.55, 6.86 11.61 C6.53 11.66, 6.19 11.69, 5.85 11.69 C5.51 11.69, 5.17 11.66, 4.83 11.61 C4.5 11.55, 4.17 11.46, 3.85 11.34 C3.53 11.23, 3.22 11.08, 2.92 10.91 C2.63 10.74, 2.35 10.54, 2.09 10.33 C1.83 10.11, 1.59 9.87, 1.37 9.61 C1.15 9.35, 0.95 9.06, 0.78 8.77 C0.61 8.48, 0.47 8.17, 0.35 7.85 C0.24 7.53, 0.15 7.2, 0.09 6.86 C0.03 6.53, 0 6.19, 0 5.85 C0 5.51, 0.03 5.17, 0.09 4.83 C0.15 4.5, 0.24 4.17, 0.35 3.85 C0.47 3.53, 0.61 3.22, 0.78 2.92 C0.95 2.63, 1.15 2.35, 1.37 2.09 C1.59 1.83, 1.83 1.59, 2.09 1.37 C2.35 1.15, 2.63 0.95, 2.92 0.78 C3.22 0.61, 3.53 0.47, 3.85 0.35 C4.17 0.24, 4.5 0.15, 4.83 0.09 C5.17 0.03, 5.51 0, 5.85 0 C6.19 0, 6.53 0.03, 6.86 0.09 C7.2 0.15, 7.53 0.24, 7.85 0.35 C8.17 0.47, 8.48 0.61, 8.77 0.78 C9.06 0.95, 9.35 1.15, 9.61 1.37 C9.87 1.59, 10.11 1.83, 10.33 2.09 C10.54 2.35, 10.74 2.63, 10.91 2.92 C11.08 3.22, 11.23 3.53, 11.34 3.85 C11.46 4.17, 11.55 4.5, 11.61 4.83 C11.66 5.17, 11.68 5.68, 11.69 5.85 C11.71 6.02, 11.71 5.68, 11.69 5.85" stroke="none" stroke-width="0" fill="#343a40"></path><path d="M11.69 5.85 C11.69 6.19, 11.66 6.53, 11.61 6.86 C11.55 7.2, 11.46 7.53, 11.34 7.85 C11.23 8.17, 11.08 8.48, 10.91 8.77 C10.74 9.06, 10.54 9.35, 10.33 9.61 C10.11 9.87, 9.87 10.11, 9.61 10.33 C9.35 10.54, 9.06 10.74, 8.77 10.91 C8.48 11.08, 8.17 11.23, 7.85 11.34 C7.53 11.46, 7.2 11.55, 6.86 11.61 C6.53 11.66, 6.19 11.69, 5.85 11.69 C5.51 11.69, 5.17 11.66, 4.83 11.61 C4.5 11.55, 4.17 11.46, 3.85 11.34 C3.53 11.23, 3.22 11.08, 2.92 10.91 C2.63 10.74, 2.35 10.54, 2.09 10.33 C1.83 10.11, 1.59 9.87, 1.37 9.61 C1.15 9.35, 0.95 9.06, 0.78 8.77 C0.61 8.48, 0.47 8.17, 0.35 7.85 C0.24 7.53, 0.15 7.2, 0.09 6.86 C0.03 6.53, 0 6.19, 0 5.85 C0 5.51, 0.03 5.17, 0.09 4.83 C0.15 4.5, 0.24 4.17, 0.35 3.85 C0.47 3.53, 0.61 3.22, 0.78 2.92 C0.95 2.63, 1.15 2.35, 1.37 2.09 C1.59 1.83, 1.83 1.59, 2.09 1.37 C2.35 1.15, 2.63 0.95, 2.92 0.78 C3.22 0.61, 3.53 0.47, 3.85 0.35 C4.17 0.24, 4.5 0.15, 4.83 0.09 C5.17 0.03, 5.51 0, 5.85 0 C6.19 0, 6.53 0.03, 6.86 0.09 C7.2 0.15, 7.53 0.24, 7.85 0.35 C8.17 0.47, 8.48 0.61, 8.77 0.78 C9.06 0.95, 9.35 1.15, 9.61 1.37 C9.87 1.59, 10.11 1.83, 10.33 2.09 C10.54 2.35, 10.74 2.63, 10.91 2.92 C11.08 3.22, 11.23 3.53, 11.34 3.85 C11.46 4.17, 11.55 4.5, 11.61 4.83 C11.66 5.17, 11.68 5.68, 11.69 5.85 C11.71 6.02, 11.71 5.68, 11.69 5.85" stroke="transparent" stroke-width="1" fill="none"></path></g><g stroke-linecap="round" transform="translate(50.5044981245519 62.04565843538512) rotate(270.0000000000001 4.92640871419826 12.127620733886033)"><path d="M2.46 0 C3.76 0, 5.05 0, 7.39 0 C9.03 0, 9.85 0.82, 9.85 2.46 C9.85 8.31, 9.85 14.15, 9.85 21.79 C9.85 23.43, 9.03 24.26, 7.39 24.26 C5.79 24.26, 4.19 24.26, 2.46 24.26 C0.82 24.26, 0 23.43, 0 21.79 C0 17.18, 0 12.57, 0 2.46 C0 0.82, 0.82 0, 2.46 0" stroke="none" stroke-width="0" fill="#343a40"></path><path d="M2.46 0 C3.99 0, 5.52 0, 7.39 0 M2.46 0 C4.27 0, 6.08 0, 7.39 0 M7.39 0 C9.03 0, 9.85 0.82, 9.85 2.46 M7.39 0 C9.03 0, 9.85 0.82, 9.85 2.46 M9.85 2.46 C9.85 10.15, 9.85 17.84, 9.85 21.79 M9.85 2.46 C9.85 10.11, 9.85 17.75, 9.85 21.79 M9.85 21.79 C9.85 23.43, 9.03 24.26, 7.39 24.26 M9.85 21.79 C9.85 23.43, 9.03 24.26, 7.39 24.26 M7.39 24.26 C5.95 24.26, 4.52 24.26, 2.46 24.26 M7.39 24.26 C5.78 24.26, 4.17 24.26, 2.46 24.26 M2.46 24.26 C0.82 24.26, 0 23.43, 0 21.79 M2.46 24.26 C0.82 24.26, 0 23.43, 0 21.79 M0 21.79 C0 14.82, 0 7.86, 0 2.46 M0 21.79 C0 15.51, 0 9.23, 0 2.46 M0 2.46 C0 0.82, 0.82 0, 2.46 0 M0 2.46 C0 0.82, 0.82 0, 2.46 0" stroke="transparent" stroke-width="1" fill="none"></path></g><g stroke-linecap="round" transform="translate(31.739770527166 52.926389158814345) rotate(0 23.63340002102177 6.878568514226572)"><path d="M3.44 0 C18.56 0, 33.69 0, 43.83 0 C46.12 0, 47.27 1.15, 47.27 3.44 C47.27 5.45, 47.27 7.47, 47.27 10.32 C47.27 12.61, 46.12 13.76, 43.83 13.76 C27.7 13.76, 11.58 13.76, 3.44 13.76 C1.15 13.76, 0 12.61, 0 10.32 C0 7.9, 0 5.48, 0 3.44 C0 1.15, 1.15 0, 3.44 0" stroke="none" stroke-width="0" fill="#343a40"></path><path d="M3.44 0 C15.31 0, 27.18 0, 43.83 0 M3.44 0 C17.45 0, 31.45 0, 43.83 0 M43.83 0 C46.12 0, 47.27 1.15, 47.27 3.44 M43.83 0 C46.12 0, 47.27 1.15, 47.27 3.44 M47.27 3.44 C47.27 5.4, 47.27 7.37, 47.27 10.32 M47.27 3.44 C47.27 4.92, 47.27 6.41, 47.27 10.32 M47.27 10.32 C47.27 12.61, 46.12 13.76, 43.83 13.76 M47.27 10.32 C47.27 12.61, 46.12 13.76, 43.83 13.76 M43.83 13.76 C27.68 13.76, 11.53 13.76, 3.44 13.76 M43.83 13.76 C29.54 13.76, 15.26 13.76, 3.44 13.76 M3.44 13.76 C1.15 13.76, 0 12.61, 0 10.32 M3.44 13.76 C1.15 13.76, 0 12.61, 0 10.32 M0 10.32 C0 7.9, 0 5.49, 0 3.44 M0 10.32 C0 7.62, 0 4.92, 0 3.44 M0 3.44 C0 1.15, 1.15 0, 3.44 0 M0 3.44 C0 1.15, 1.15 0, 3.44 0" stroke="transparent" stroke-width="4" fill="none"></path></g><g stroke-linecap="round" transform="translate(51.62216205819095 64.72922561040468) rotate(270.0000000000001 3.796575306390423 9.465230690723729)"><path d="M7.59 9.47 C7.59 10.01, 7.57 10.57, 7.54 11.11 C7.5 11.65, 7.44 12.19, 7.36 12.7 C7.29 13.22, 7.19 13.72, 7.08 14.2 C6.97 14.67, 6.85 15.13, 6.7 15.55 C6.56 15.97, 6.41 16.36, 6.24 16.72 C6.07 17.07, 5.89 17.39, 5.69 17.66 C5.5 17.94, 5.3 18.17, 5.1 18.36 C4.89 18.55, 4.67 18.69, 4.46 18.79 C4.24 18.88, 4.02 18.93, 3.8 18.93 C3.58 18.93, 3.35 18.88, 3.14 18.79 C2.92 18.69, 2.7 18.55, 2.5 18.36 C2.29 18.17, 2.09 17.94, 1.9 17.66 C1.71 17.39, 1.52 17.07, 1.36 16.72 C1.19 16.36, 1.03 15.97, 0.89 15.55 C0.75 15.13, 0.62 14.67, 0.51 14.2 C0.4 13.72, 0.3 13.22, 0.23 12.7 C0.15 12.19, 0.1 11.65, 0.06 11.11 C0.02 10.57, 0 10.01, 0 9.47 C0 8.92, 0.02 8.36, 0.06 7.82 C0.1 7.28, 0.15 6.74, 0.23 6.23 C0.3 5.71, 0.4 5.21, 0.51 4.73 C0.62 4.26, 0.75 3.8, 0.89 3.38 C1.03 2.96, 1.19 2.57, 1.36 2.21 C1.52 1.86, 1.71 1.54, 1.9 1.27 C2.09 0.99, 2.29 0.76, 2.5 0.57 C2.7 0.38, 2.92 0.24, 3.14 0.14 C3.35 0.05, 3.58 0, 3.8 0 C4.02 0, 4.24 0.05, 4.46 0.14 C4.67 0.24, 4.89 0.38, 5.1 0.57 C5.3 0.76, 5.5 0.99, 5.69 1.27 C5.89 1.54, 6.07 1.86, 6.24 2.21 C6.41 2.57, 6.56 2.96, 6.7 3.38 C6.85 3.8, 6.97 4.26, 7.08 4.73 C7.19 5.21, 7.29 5.71, 7.36 6.23 C7.44 6.74, 7.5 7.28, 7.54 7.82 C7.57 8.36, 7.58 9.19, 7.59 9.47 C7.6 9.74, 7.6 9.19, 7.59 9.47" stroke="none" stroke-width="0" fill="#ffffff"></path><path d="M7.59 9.47 C7.59 10.01, 7.57 10.57, 7.54 11.11 C7.5 11.65, 7.44 12.19, 7.36 12.7 C7.29 13.22, 7.19 13.72, 7.08 14.2 C6.97 14.67, 6.85 15.13, 6.7 15.55 C6.56 15.97, 6.41 16.36, 6.24 16.72 C6.07 17.07, 5.89 17.39, 5.69 17.66 C5.5 17.94, 5.3 18.17, 5.1 18.36 C4.89 18.55, 4.67 18.69, 4.46 18.79 C4.24 18.88, 4.02 18.93, 3.8 18.93 C3.58 18.93, 3.35 18.88, 3.14 18.79 C2.92 18.69, 2.7 18.55, 2.5 18.36 C2.29 18.17, 2.09 17.94, 1.9 17.66 C1.71 17.39, 1.52 17.07, 1.36 16.72 C1.19 16.36, 1.03 15.97, 0.89 15.55 C0.75 15.13, 0.62 14.67, 0.51 14.2 C0.4 13.72, 0.3 13.22, 0.23 12.7 C0.15 12.19, 0.1 11.65, 0.06 11.11 C0.02 10.57, 0 10.01, 0 9.47 C0 8.92, 0.02 8.36, 0.06 7.82 C0.1 7.28, 0.15 6.74, 0.23 6.23 C0.3 5.71, 0.4 5.21, 0.51 4.73 C0.62 4.26, 0.75 3.8, 0.89 3.38 C1.03 2.96, 1.19 2.57, 1.36 2.21 C1.52 1.86, 1.71 1.54, 1.9 1.27 C2.09 0.99, 2.29 0.76, 2.5 0.57 C2.7 0.38, 2.92 0.24, 3.14 0.14 C3.35 0.05, 3.58 0, 3.8 0 C4.02 0, 4.24 0.05, 4.46 0.14 C4.67 0.24, 4.89 0.38, 5.1 0.57 C5.3 0.76, 5.5 0.99, 5.69 1.27 C5.89 1.54, 6.07 1.86, 6.24 2.21 C6.41 2.57, 6.56 2.96, 6.7 3.38 C6.85 3.8, 6.97 4.26, 7.08 4.73 C7.19 5.21, 7.29 5.71, 7.36 6.23 C7.44 6.74, 7.5 7.28, 7.54 7.82 C7.57 8.36, 7.58 9.19, 7.59 9.47 C7.6 9.74, 7.6 9.19, 7.59 9.47" stroke="transparent" stroke-width="2" fill="none"></path></g><g stroke-linecap="round" transform="translate(35.184327872317226 51.94032017410609) rotate(269.9999999999999 6.974929731991324 7.768276566166605)"><path d="M3.49 0 C5.9 0, 8.32 0, 10.46 0 C12.79 0, 13.95 1.16, 13.95 3.49 C13.95 6.89, 13.95 10.3, 13.95 12.05 C13.95 14.37, 12.79 15.54, 10.46 15.54 C7.86 15.54, 5.25 15.54, 3.49 15.54 C1.16 15.54, 0 14.37, 0 12.05 C0 9.16, 0 6.26, 0 3.49 C0 1.16, 1.16 0, 3.49 0" stroke="none" stroke-width="0" fill="#343a40"></path><path d="M3.49 0 C5.65 0, 7.82 0, 10.46 0 M3.49 0 C5.03 0, 6.57 0, 10.46 0 M10.46 0 C12.79 0, 13.95 1.16, 13.95 3.49 M10.46 0 C12.79 0, 13.95 1.16, 13.95 3.49 M13.95 3.49 C13.95 6.54, 13.95 9.59, 13.95 12.05 M13.95 3.49 C13.95 5.93, 13.95 8.37, 13.95 12.05 M13.95 12.05 C13.95 14.37, 12.79 15.54, 10.46 15.54 M13.95 12.05 C13.95 14.37, 12.79 15.54, 10.46 15.54 M10.46 15.54 C8.94 15.54, 7.42 15.54, 3.49 15.54 M10.46 15.54 C8.49 15.54, 6.52 15.54, 3.49 15.54 M3.49 15.54 C1.16 15.54, 0 14.37, 0 12.05 M3.49 15.54 C1.16 15.54, 0 14.37, 0 12.05 M0 12.05 C0 9.87, 0 7.7, 0 3.49 M0 12.05 C0 9.64, 0 7.23, 0 3.49 M0 3.49 C0 1.16, 1.16 0, 3.49 0 M0 3.49 C0 1.16, 1.16 0, 3.49 0" stroke="transparent" stroke-width="4" fill="none"></path></g><g stroke-linecap="round" transform="translate(34.42537999172055 48.54345243904936) rotate(269.9999999999999 7.733947490409264 7.733947490409264)"><path d="M15.47 7.73 C15.47 8.18, 15.43 8.64, 15.35 9.08 C15.27 9.52, 15.15 9.96, 15 10.38 C14.85 10.8, 14.66 11.21, 14.43 11.6 C14.21 11.99, 13.95 12.36, 13.66 12.71 C13.37 13.05, 13.05 13.37, 12.71 13.66 C12.36 13.95, 11.99 14.21, 11.6 14.43 C11.21 14.66, 10.8 14.85, 10.38 15 C9.96 15.15, 9.52 15.27, 9.08 15.35 C8.64 15.43, 8.18 15.47, 7.73 15.47 C7.29 15.47, 6.83 15.43, 6.39 15.35 C5.95 15.27, 5.51 15.15, 5.09 15 C4.67 14.85, 4.25 14.66, 3.87 14.43 C3.48 14.21, 3.11 13.95, 2.76 13.66 C2.42 13.37, 2.1 13.05, 1.81 12.71 C1.52 12.36, 1.26 11.99, 1.04 11.6 C0.81 11.21, 0.62 10.8, 0.47 10.38 C0.31 9.96, 0.2 9.52, 0.12 9.08 C0.04 8.64, 0 8.18, 0 7.73 C0 7.29, 0.04 6.83, 0.12 6.39 C0.2 5.95, 0.31 5.51, 0.47 5.09 C0.62 4.67, 0.81 4.25, 1.04 3.87 C1.26 3.48, 1.52 3.11, 1.81 2.76 C2.1 2.42, 2.42 2.1, 2.76 1.81 C3.11 1.52, 3.48 1.26, 3.87 1.04 C4.25 0.81, 4.67 0.62, 5.09 0.47 C5.51 0.31, 5.95 0.2, 6.39 0.12 C6.83 0.04, 7.29 0, 7.73 0 C8.18 0, 8.64 0.04, 9.08 0.12 C9.52 0.2, 9.96 0.31, 10.38 0.47 C10.8 0.62, 11.21 0.81, 11.6 1.04 C11.99 1.26, 12.36 1.52, 12.71 1.81 C13.05 2.1, 13.37 2.42, 13.66 2.76 C13.95 3.11, 14.21 3.48, 14.43 3.87 C14.66 4.25, 14.85 4.67, 15 5.09 C15.15 5.51, 15.27 5.95, 15.35 6.39 C15.43 6.83, 15.45 7.51, 15.47 7.73 C15.49 7.96, 15.49 7.51, 15.47 7.73" stroke="none" stroke-width="0" fill="#343a40"></path><path d="M15.47 7.73 C15.47 8.18, 15.43 8.64, 15.35 9.08 C15.27 9.52, 15.15 9.96, 15 10.38 C14.85 10.8, 14.66 11.21, 14.43 11.6 C14.21 11.99, 13.95 12.36, 13.66 12.71 C13.37 13.05, 13.05 13.37, 12.71 13.66 C12.36 13.95, 11.99 14.21, 11.6 14.43 C11.21 14.66, 10.8 14.85, 10.38 15 C9.96 15.15, 9.52 15.27, 9.08 15.35 C8.64 15.43, 8.18 15.47, 7.73 15.47 C7.29 15.47, 6.83 15.43, 6.39 15.35 C5.95 15.27, 5.51 15.15, 5.09 15 C4.67 14.85, 4.25 14.66, 3.87 14.43 C3.48 14.21, 3.11 13.95, 2.76 13.66 C2.42 13.37, 2.1 13.05, 1.81 12.71 C1.52 12.36, 1.26 11.99, 1.04 11.6 C0.81 11.21, 0.62 10.8, 0.47 10.38 C0.31 9.96, 0.2 9.52, 0.12 9.08 C0.04 8.64, 0 8.18, 0 7.73 C0 7.29, 0.04 6.83, 0.12 6.39 C0.2 5.95, 0.31 5.51, 0.47 5.09 C0.62 4.67, 0.81 4.25, 1.04 3.87 C1.26 3.48, 1.52 3.11, 1.81 2.76 C2.1 2.42, 2.42 2.1, 2.76 1.81 C3.11 1.52, 3.48 1.26, 3.87 1.04 C4.25 0.81, 4.67 0.62, 5.09 0.47 C5.51 0.31, 5.95 0.2, 6.39 0.12 C6.83 0.04, 7.29 0, 7.73 0 C8.18 0, 8.64 0.04, 9.08 0.12 C9.52 0.2, 9.96 0.31, 10.38 0.47 C10.8 0.62, 11.21 0.81, 11.6 1.04 C11.99 1.26, 12.36 1.52, 12.71 1.81 C13.05 2.1, 13.37 2.42, 13.66 2.76 C13.95 3.11, 14.21 3.48, 14.43 3.87 C14.66 4.25, 14.85 4.67, 15 5.09 C15.15 5.51, 15.27 5.95, 15.35 6.39 C15.43 6.83, 15.45 7.51, 15.47 7.73 C15.49 7.96, 15.49 7.51, 15.47 7.73" stroke="transparent" stroke-width="2" fill="none"></path></g><g stroke-linecap="round" transform="translate(40.604855929446785 54.72788269963348) rotate(0 1.5544017995143804 3.7952769707208063)"><path d="M0.78 0 C1.22 0, 1.65 0, 2.33 0 C2.85 0, 3.11 0.26, 3.11 0.78 C3.11 2.56, 3.11 4.34, 3.11 6.81 C3.11 7.33, 2.85 7.59, 2.33 7.59 C1.82 7.59, 1.3 7.59, 0.78 7.59 C0.26 7.59, 0 7.33, 0 6.81 C0 5.55, 0 4.28, 0 0.78 C0 0.26, 0.26 0, 0.78 0" stroke="none" stroke-width="0" fill="#f8f1ee"></path><path d="M0.78 0 C1.2 0, 1.61 0, 2.33 0 M0.78 0 C1.11 0, 1.44 0, 2.33 0 M2.33 0 C2.85 0, 3.11 0.26, 3.11 0.78 M2.33 0 C2.85 0, 3.11 0.26, 3.11 0.78 M3.11 0.78 C3.11 3.14, 3.11 5.51, 3.11 6.81 M3.11 0.78 C3.11 2.8, 3.11 4.82, 3.11 6.81 M3.11 6.81 C3.11 7.33, 2.85 7.59, 2.33 7.59 M3.11 6.81 C3.11 7.33, 2.85 7.59, 2.33 7.59 M2.33 7.59 C1.85 7.59, 1.37 7.59, 0.78 7.59 M2.33 7.59 C1.87 7.59, 1.41 7.59, 0.78 7.59 M0.78 7.59 C0.26 7.59, 0 7.33, 0 6.81 M0.78 7.59 C0.26 7.59, 0 7.33, 0 6.81 M0 6.81 C0 4.44, 0 2.06, 0 0.78 M0 6.81 C0 4.44, 0 2.07, 0 0.78 M0 0.78 C0 0.26, 0.26 0, 0.78 0 M0 0.78 C0 0.26, 0.26 0, 0.78 0" stroke="#fa5252" stroke-width="4" fill="none"></path></g><g stroke-linecap="round" transform="translate(61.73732787231711 51.94032017410609) rotate(269.9999999999999 6.974929731991324 7.768276566166605)"><path d="M3.49 0 C5.23 0, 6.97 0, 10.46 0 C12.79 0, 13.95 1.16, 13.95 3.49 C13.95 5.83, 13.95 8.17, 13.95 12.05 C13.95 14.37, 12.79 15.54, 10.46 15.54 C8.01 15.54, 5.56 15.54, 3.49 15.54 C1.16 15.54, 0 14.37, 0 12.05 C0 9.69, 0 7.32, 0 3.49 C0 1.16, 1.16 0, 3.49 0" stroke="none" stroke-width="0" fill="#343a40"></path><path d="M3.49 0 C5.94 0, 8.39 0, 10.46 0 M3.49 0 C4.93 0, 6.38 0, 10.46 0 M10.46 0 C12.79 0, 13.95 1.16, 13.95 3.49 M10.46 0 C12.79 0, 13.95 1.16, 13.95 3.49 M13.95 3.49 C13.95 5.85, 13.95 8.22, 13.95 12.05 M13.95 3.49 C13.95 5.67, 13.95 7.86, 13.95 12.05 M13.95 12.05 C13.95 14.37, 12.79 15.54, 10.46 15.54 M13.95 12.05 C13.95 14.37, 12.79 15.54, 10.46 15.54 M10.46 15.54 C8.28 15.54, 6.09 15.54, 3.49 15.54 M10.46 15.54 C7.85 15.54, 5.23 15.54, 3.49 15.54 M3.49 15.54 C1.16 15.54, 0 14.37, 0 12.05 M3.49 15.54 C1.16 15.54, 0 14.37, 0 12.05 M0 12.05 C0 9.67, 0 7.29, 0 3.49 M0 12.05 C0 9.08, 0 6.11, 0 3.49 M0 3.49 C0 1.16, 1.16 0, 3.49 0 M0 3.49 C0 1.16, 1.16 0, 3.49 0" stroke="transparent" stroke-width="4" fill="none"></path></g><g stroke-linecap="round" transform="translate(60.97837999172043 48.54345243904936) rotate(269.9999999999999 7.733947490409264 7.733947490409264)"><path d="M15.47 7.73 C15.47 8.18, 15.43 8.64, 15.35 9.08 C15.27 9.52, 15.15 9.96, 15 10.38 C14.85 10.8, 14.66 11.21, 14.43 11.6 C14.21 11.99, 13.95 12.36, 13.66 12.71 C13.37 13.05, 13.05 13.37, 12.71 13.66 C12.36 13.95, 11.99 14.21, 11.6 14.43 C11.21 14.66, 10.8 14.85, 10.38 15 C9.96 15.15, 9.52 15.27, 9.08 15.35 C8.64 15.43, 8.18 15.47, 7.73 15.47 C7.29 15.47, 6.83 15.43, 6.39 15.35 C5.95 15.27, 5.51 15.15, 5.09 15 C4.67 14.85, 4.25 14.66, 3.87 14.43 C3.48 14.21, 3.11 13.95, 2.76 13.66 C2.42 13.37, 2.1 13.05, 1.81 12.71 C1.52 12.36, 1.26 11.99, 1.04 11.6 C0.81 11.21, 0.62 10.8, 0.47 10.38 C0.31 9.96, 0.2 9.52, 0.12 9.08 C0.04 8.64, 0 8.18, 0 7.73 C0 7.29, 0.04 6.83, 0.12 6.39 C0.2 5.95, 0.31 5.51, 0.47 5.09 C0.62 4.67, 0.81 4.25, 1.04 3.87 C1.26 3.48, 1.52 3.11, 1.81 2.76 C2.1 2.42, 2.42 2.1, 2.76 1.81 C3.11 1.52, 3.48 1.26, 3.87 1.04 C4.25 0.81, 4.67 0.62, 5.09 0.47 C5.51 0.31, 5.95 0.2, 6.39 0.12 C6.83 0.04, 7.29 0, 7.73 0 C8.18 0, 8.64 0.04, 9.08 0.12 C9.52 0.2, 9.96 0.31, 10.38 0.47 C10.8 0.62, 11.21 0.81, 11.6 1.04 C11.99 1.26, 12.36 1.52, 12.71 1.81 C13.05 2.1, 13.37 2.42, 13.66 2.76 C13.95 3.11, 14.21 3.48, 14.43 3.87 C14.66 4.25, 14.85 4.67, 15 5.09 C15.15 5.51, 15.27 5.95, 15.35 6.39 C15.43 6.83, 15.45 7.51, 15.47 7.73 C15.49 7.96, 15.49 7.51, 15.47 7.73" stroke="none" stroke-width="0" fill="#343a40"></path><path d="M15.47 7.73 C15.47 8.18, 15.43 8.64, 15.35 9.08 C15.27 9.52, 15.15 9.96, 15 10.38 C14.85 10.8, 14.66 11.21, 14.43 11.6 C14.21 11.99, 13.95 12.36, 13.66 12.71 C13.37 13.05, 13.05 13.37, 12.71 13.66 C12.36 13.95, 11.99 14.21, 11.6 14.43 C11.21 14.66, 10.8 14.85, 10.38 15 C9.96 15.15, 9.52 15.27, 9.08 15.35 C8.64 15.43, 8.18 15.47, 7.73 15.47 C7.29 15.47, 6.83 15.43, 6.39 15.35 C5.95 15.27, 5.51 15.15, 5.09 15 C4.67 14.85, 4.25 14.66, 3.87 14.43 C3.48 14.21, 3.11 13.95, 2.76 13.66 C2.42 13.37, 2.1 13.05, 1.81 12.71 C1.52 12.36, 1.26 11.99, 1.04 11.6 C0.81 11.21, 0.62 10.8, 0.47 10.38 C0.31 9.96, 0.2 9.52, 0.12 9.08 C0.04 8.64, 0 8.18, 0 7.73 C0 7.29, 0.04 6.83, 0.12 6.39 C0.2 5.95, 0.31 5.51, 0.47 5.09 C0.62 4.67, 0.81 4.25, 1.04 3.87 C1.26 3.48, 1.52 3.11, 1.81 2.76 C2.1 2.42, 2.42 2.1, 2.76 1.81 C3.11 1.52, 3.48 1.26, 3.87 1.04 C4.25 0.81, 4.67 0.62, 5.09 0.47 C5.51 0.31, 5.95 0.2, 6.39 0.12 C6.83 0.04, 7.29 0, 7.73 0 C8.18 0, 8.64 0.04, 9.08 0.12 C9.52 0.2, 9.96 0.31, 10.38 0.47 C10.8 0.62, 11.21 0.81, 11.6 1.04 C11.99 1.26, 12.36 1.52, 12.71 1.81 C13.05 2.1, 13.37 2.42, 13.66 2.76 C13.95 3.11, 14.21 3.48, 14.43 3.87 C14.66 4.25, 14.85 4.67, 15 5.09 C15.15 5.51, 15.27 5.95, 15.35 6.39 C15.43 6.83, 15.45 7.51, 15.47 7.73 C15.49 7.96, 15.49 7.51, 15.47 7.73" stroke="transparent" stroke-width="2" fill="none"></path></g><g stroke-linecap="round" transform="translate(67.15785592944667 54.72788269963348) rotate(0 1.5544017995143804 3.7952769707208063)"><path d="M0.78 0 C1.17 0, 1.56 0, 2.33 0 C2.85 0, 3.11 0.26, 3.11 0.78 C3.11 2.61, 3.11 4.45, 3.11 6.81 C3.11 7.33, 2.85 7.59, 2.33 7.59 C1.88 7.59, 1.44 7.59, 0.78 7.59 C0.26 7.59, 0 7.33, 0 6.81 C0 5.03, 0 3.26, 0 0.78 C0 0.26, 0.26 0, 0.78 0" stroke="none" stroke-width="0" fill="#f8f1ee"></path><path d="M0.78 0 C1.09 0, 1.41 0, 2.33 0 M0.78 0 C1.14 0, 1.51 0, 2.33 0 M2.33 0 C2.85 0, 3.11 0.26, 3.11 0.78 M2.33 0 C2.85 0, 3.11 0.26, 3.11 0.78 M3.11 0.78 C3.11 2.6, 3.11 4.43, 3.11 6.81 M3.11 0.78 C3.11 2.89, 3.11 5.01, 3.11 6.81 M3.11 6.81 C3.11 7.33, 2.85 7.59, 2.33 7.59 M3.11 6.81 C3.11 7.33, 2.85 7.59, 2.33 7.59 M2.33 7.59 C1.76 7.59, 1.18 7.59, 0.78 7.59 M2.33 7.59 C1.88 7.59, 1.43 7.59, 0.78 7.59 M0.78 7.59 C0.26 7.59, 0 7.33, 0 6.81 M0.78 7.59 C0.26 7.59, 0 7.33, 0 6.81 M0 6.81 C0 5.58, 0 4.34, 0 0.78 M0 6.81 C0 5.28, 0 3.74, 0 0.78 M0 0.78 C0 0.26, 0.26 0, 0.78 0 M0 0.78 C0 0.26, 0.26 0, 0.78 0" stroke="#fa5252" stroke-width="4" fill="none"></path></g><g stroke-linecap="round" transform="translate(51.238075052381646 72.34748172570653) rotate(270.0000000000001 4.197682836723288 3.46523069072191)"><path d="M8.4 3.47 C8.4 3.67, 8.37 3.87, 8.33 4.07 C8.29 4.26, 8.23 4.46, 8.14 4.65 C8.06 4.84, 7.95 5.02, 7.83 5.2 C7.71 5.37, 7.57 5.54, 7.41 5.69 C7.26 5.85, 7.08 5.99, 6.9 6.12 C6.71 6.25, 6.51 6.37, 6.3 6.47 C6.09 6.57, 5.86 6.65, 5.63 6.72 C5.41 6.79, 5.17 6.84, 4.93 6.88 C4.69 6.91, 4.44 6.93, 4.2 6.93 C3.95 6.93, 3.71 6.91, 3.47 6.88 C3.23 6.84, 2.99 6.79, 2.76 6.72 C2.53 6.65, 2.31 6.57, 2.1 6.47 C1.89 6.37, 1.69 6.25, 1.5 6.12 C1.31 5.99, 1.14 5.85, 0.98 5.69 C0.83 5.54, 0.68 5.37, 0.56 5.2 C0.44 5.02, 0.34 4.84, 0.25 4.65 C0.17 4.46, 0.11 4.26, 0.06 4.07 C0.02 3.87, 0 3.67, 0 3.47 C0 3.26, 0.02 3.06, 0.06 2.86 C0.11 2.67, 0.17 2.47, 0.25 2.28 C0.34 2.09, 0.44 1.91, 0.56 1.73 C0.68 1.56, 0.83 1.39, 0.98 1.24 C1.14 1.08, 1.31 0.94, 1.5 0.81 C1.69 0.68, 1.89 0.56, 2.1 0.46 C2.31 0.36, 2.53 0.28, 2.76 0.21 C2.99 0.14, 3.23 0.09, 3.47 0.05 C3.71 0.02, 3.95 0, 4.2 0 C4.44 0, 4.69 0.02, 4.93 0.05 C5.17 0.09, 5.41 0.14, 5.63 0.21 C5.86 0.28, 6.09 0.36, 6.3 0.46 C6.51 0.56, 6.71 0.68, 6.9 0.81 C7.08 0.94, 7.26 1.08, 7.41 1.24 C7.57 1.39, 7.71 1.56, 7.83 1.73 C7.95 1.91, 8.06 2.09, 8.14 2.28 C8.23 2.47, 8.29 2.67, 8.33 2.86 C8.37 3.06, 8.38 3.36, 8.4 3.47 C8.41 3.57, 8.41 3.36, 8.4 3.47" stroke="none" stroke-width="0" fill="#ffffff"></path><path d="M8.4 3.47 C8.4 3.67, 8.37 3.87, 8.33 4.07 C8.29 4.26, 8.23 4.46, 8.14 4.65 C8.06 4.84, 7.95 5.02, 7.83 5.2 C7.71 5.37, 7.57 5.54, 7.41 5.69 C7.26 5.85, 7.08 5.99, 6.9 6.12 C6.71 6.25, 6.51 6.37, 6.3 6.47 C6.09 6.57, 5.86 6.65, 5.63 6.72 C5.41 6.79, 5.17 6.84, 4.93 6.88 C4.69 6.91, 4.44 6.93, 4.2 6.93 C3.95 6.93, 3.71 6.91, 3.47 6.88 C3.23 6.84, 2.99 6.79, 2.76 6.72 C2.53 6.65, 2.31 6.57, 2.1 6.47 C1.89 6.37, 1.69 6.25, 1.5 6.12 C1.31 5.99, 1.14 5.85, 0.98 5.69 C0.83 5.54, 0.68 5.37, 0.56 5.2 C0.44 5.02, 0.34 4.84, 0.25 4.65 C0.17 4.46, 0.11 4.26, 0.06 4.07 C0.02 3.87, 0 3.67, 0 3.47 C0 3.26, 0.02 3.06, 0.06 2.86 C0.11 2.67, 0.17 2.47, 0.25 2.28 C0.34 2.09, 0.44 1.91, 0.56 1.73 C0.68 1.56, 0.83 1.39, 0.98 1.24 C1.14 1.08, 1.31 0.94, 1.5 0.81 C1.69 0.68, 1.89 0.56, 2.1 0.46 C2.31 0.36, 2.53 0.28, 2.76 0.21 C2.99 0.14, 3.23 0.09, 3.47 0.05 C3.71 0.02, 3.95 0, 4.2 0 C4.44 0, 4.69 0.02, 4.93 0.05 C5.17 0.09, 5.41 0.14, 5.63 0.21 C5.86 0.28, 6.09 0.36, 6.3 0.46 C6.51 0.56, 6.71 0.68, 6.9 0.81 C7.08 0.94, 7.26 1.08, 7.41 1.24 C7.57 1.39, 7.71 1.56, 7.83 1.73 C7.95 1.91, 8.06 2.09, 8.14 2.28 C8.23 2.47, 8.29 2.67, 8.33 2.86 C8.37 3.06, 8.38 3.36, 8.4 3.47 C8.41 3.57, 8.41 3.36, 8.4 3.47" stroke="transparent" stroke-width="2" fill="none"></path></g><g stroke-linecap="round" transform="translate(55.923402253513814 72.32197241289032) rotate(89.99999999999994 4.208271396917098 1.8074683971353807)"><path d="M0 0 L8.42 0 L8.42 3.61 L0 3.61" stroke="none" stroke-width="0" fill="#343a40"></path><path d="M0 0 C2.03 0, 4.05 0, 8.42 0 M0 0 C1.75 0, 3.51 0, 8.42 0 M8.42 0 C8.42 1.09, 8.42 2.17, 8.42 3.61 M8.42 0 C8.42 0.93, 8.42 1.86, 8.42 3.61 M8.42 3.61 C5.83 3.61, 3.24 3.61, 0 3.61 M8.42 3.61 C5.84 3.61, 3.26 3.61, 0 3.61 M0 3.61 C0 2.44, 0 1.27, 0 0 M0 3.61 C0 2.73, 0 1.84, 0 0" stroke="transparent" stroke-width="1" fill="none"></path></g><g stroke-linecap="round" transform="translate(46.583256823098964 72.21846454683691) rotate(89.99999999999994 4.104763530863693 1.8074683971353807)"><path d="M0 0 L8.21 0 L8.21 3.61 L0 3.61" stroke="none" stroke-width="0" fill="#343a40"></path><path d="M0 0 C2.15 0, 4.29 0, 8.21 0 M0 0 C2.67 0, 5.35 0, 8.21 0 M8.21 0 C8.21 1.07, 8.21 2.13, 8.21 3.61 M8.21 0 C8.21 0.81, 8.21 1.62, 8.21 3.61 M8.21 3.61 C5.76 3.61, 3.32 3.61, 0 3.61 M8.21 3.61 C6.01 3.61, 3.82 3.61, 0 3.61 M0 3.61 C0 2.54, 0 1.46, 0 0 M0 3.61 C0 2.39, 0 1.16, 0 0" stroke="transparent" stroke-width="1" fill="none"></path></g><g stroke-linecap="round" transform="translate(22.917942545529513 14.641597685738816) rotate(354.457375547017 4.203804858631884 4.203804858631884)"><path d="M8.41 4.2 C8.41 4.45, 8.39 4.69, 8.34 4.93 C8.3 5.17, 8.24 5.41, 8.15 5.64 C8.07 5.87, 7.97 6.09, 7.84 6.31 C7.72 6.52, 7.58 6.72, 7.42 6.91 C7.27 7.09, 7.09 7.27, 6.91 7.42 C6.72 7.58, 6.52 7.72, 6.31 7.84 C6.09 7.97, 5.87 8.07, 5.64 8.15 C5.41 8.24, 5.17 8.3, 4.93 8.34 C4.69 8.39, 4.45 8.41, 4.2 8.41 C3.96 8.41, 3.71 8.39, 3.47 8.34 C3.23 8.3, 2.99 8.24, 2.77 8.15 C2.54 8.07, 2.31 7.97, 2.1 7.84 C1.89 7.72, 1.69 7.58, 1.5 7.42 C1.32 7.27, 1.14 7.09, 0.98 6.91 C0.83 6.72, 0.68 6.52, 0.56 6.31 C0.44 6.09, 0.34 5.87, 0.25 5.64 C0.17 5.41, 0.11 5.17, 0.06 4.93 C0.02 4.69, 0 4.45, 0 4.2 C0 3.96, 0.02 3.71, 0.06 3.47 C0.11 3.23, 0.17 2.99, 0.25 2.77 C0.34 2.54, 0.44 2.31, 0.56 2.1 C0.68 1.89, 0.83 1.69, 0.98 1.5 C1.14 1.32, 1.32 1.14, 1.5 0.98 C1.69 0.83, 1.89 0.68, 2.1 0.56 C2.31 0.44, 2.54 0.34, 2.77 0.25 C2.99 0.17, 3.23 0.11, 3.47 0.06 C3.71 0.02, 3.96 0, 4.2 0 C4.45 0, 4.69 0.02, 4.93 0.06 C5.17 0.11, 5.41 0.17, 5.64 0.25 C5.87 0.34, 6.09 0.44, 6.31 0.56 C6.52 0.68, 6.72 0.83, 6.91 0.98 C7.09 1.14, 7.27 1.32, 7.42 1.5 C7.58 1.69, 7.72 1.89, 7.84 2.1 C7.97 2.31, 8.07 2.54, 8.15 2.77 C8.24 2.99, 8.3 3.23, 8.34 3.47 C8.39 3.71, 8.4 4.08, 8.41 4.2 C8.42 4.33, 8.42 4.08, 8.41 4.2" stroke="none" stroke-width="0" fill="#343a40"></path><path d="M8.41 4.2 C8.41 4.45, 8.39 4.69, 8.34 4.93 C8.3 5.17, 8.24 5.41, 8.15 5.64 C8.07 5.87, 7.97 6.09, 7.84 6.31 C7.72 6.52, 7.58 6.72, 7.42 6.91 C7.27 7.09, 7.09 7.27, 6.91 7.42 C6.72 7.58, 6.52 7.72, 6.31 7.84 C6.09 7.97, 5.87 8.07, 5.64 8.15 C5.41 8.24, 5.17 8.3, 4.93 8.34 C4.69 8.39, 4.45 8.41, 4.2 8.41 C3.96 8.41, 3.71 8.39, 3.47 8.34 C3.23 8.3, 2.99 8.24, 2.77 8.15 C2.54 8.07, 2.31 7.97, 2.1 7.84 C1.89 7.72, 1.69 7.58, 1.5 7.42 C1.32 7.27, 1.14 7.09, 0.98 6.91 C0.83 6.72, 0.68 6.52, 0.56 6.31 C0.44 6.09, 0.34 5.87, 0.25 5.64 C0.17 5.41, 0.11 5.17, 0.06 4.93 C0.02 4.69, 0 4.45, 0 4.2 C0 3.96, 0.02 3.71, 0.06 3.47 C0.11 3.23, 0.17 2.99, 0.25 2.77 C0.34 2.54, 0.44 2.31, 0.56 2.1 C0.68 1.89, 0.83 1.69, 0.98 1.5 C1.14 1.32, 1.32 1.14, 1.5 0.98 C1.69 0.83, 1.89 0.68, 2.1 0.56 C2.31 0.44, 2.54 0.34, 2.77 0.25 C2.99 0.17, 3.23 0.11, 3.47 0.06 C3.71 0.02, 3.96 0, 4.2 0 C4.45 0, 4.69 0.02, 4.93 0.06 C5.17 0.11, 5.41 0.17, 5.64 0.25 C5.87 0.34, 6.09 0.44, 6.31 0.56 C6.52 0.68, 6.72 0.83, 6.91 0.98 C7.09 1.14, 7.27 1.32, 7.42 1.5 C7.58 1.69, 7.72 1.89, 7.84 2.1 C7.97 2.31, 8.07 2.54, 8.15 2.77 C8.24 2.99, 8.3 3.23, 8.34 3.47 C8.39 3.71, 8.4 4.08, 8.41 4.2 C8.42 4.33, 8.42 4.08, 8.41 4.2" stroke="transparent" stroke-width="4" fill="none"></path></g><g stroke-linecap="round" transform="translate(20.904434694882184 33.38117451492144) rotate(354.457375547017 7.305557744896305 7.30555774489676)"><path d="M14.61 7.31 C14.61 7.73, 14.57 8.16, 14.5 8.57 C14.43 8.99, 14.32 9.41, 14.17 9.8 C14.03 10.2, 13.84 10.59, 13.63 10.96 C13.42 11.32, 13.17 11.68, 12.9 12 C12.63 12.33, 12.33 12.63, 12 12.9 C11.68 13.17, 11.32 13.42, 10.96 13.63 C10.59 13.84, 10.2 14.03, 9.8 14.17 C9.41 14.32, 8.99 14.43, 8.57 14.5 C8.16 14.57, 7.73 14.61, 7.31 14.61 C6.88 14.61, 6.45 14.57, 6.04 14.5 C5.62 14.43, 5.2 14.32, 4.81 14.17 C4.41 14.03, 4.02 13.84, 3.65 13.63 C3.29 13.42, 2.93 13.17, 2.61 12.9 C2.29 12.63, 1.98 12.33, 1.71 12 C1.44 11.68, 1.19 11.32, 0.98 10.96 C0.77 10.59, 0.59 10.2, 0.44 9.8 C0.3 9.41, 0.18 8.99, 0.11 8.57 C0.04 8.16, 0 7.73, 0 7.31 C0 6.88, 0.04 6.45, 0.11 6.04 C0.18 5.62, 0.3 5.2, 0.44 4.81 C0.59 4.41, 0.77 4.02, 0.98 3.65 C1.19 3.29, 1.44 2.93, 1.71 2.61 C1.98 2.29, 2.29 1.98, 2.61 1.71 C2.93 1.44, 3.29 1.19, 3.65 0.98 C4.02 0.77, 4.41 0.59, 4.81 0.44 C5.2 0.3, 5.62 0.18, 6.04 0.11 C6.45 0.04, 6.88 0, 7.31 0 C7.73 0, 8.16 0.04, 8.57 0.11 C8.99 0.18, 9.41 0.3, 9.8 0.44 C10.2 0.59, 10.59 0.77, 10.96 0.98 C11.32 1.19, 11.68 1.44, 12 1.71 C12.33 1.98, 12.63 2.29, 12.9 2.61 C13.17 2.93, 13.42 3.29, 13.63 3.65 C13.84 4.02, 14.03 4.41, 14.17 4.81 C14.32 5.2, 14.43 5.62, 14.5 6.04 C14.57 6.45, 14.59 7.09, 14.61 7.31 C14.63 7.52, 14.63 7.09, 14.61 7.31" stroke="none" stroke-width="0" fill="#343a40"></path><path d="M14.61 7.31 C14.61 7.73, 14.57 8.16, 14.5 8.57 C14.43 8.99, 14.32 9.41, 14.17 9.8 C14.03 10.2, 13.84 10.59, 13.63 10.96 C13.42 11.32, 13.17 11.68, 12.9 12 C12.63 12.33, 12.33 12.63, 12 12.9 C11.68 13.17, 11.32 13.42, 10.96 13.63 C10.59 13.84, 10.2 14.03, 9.8 14.17 C9.41 14.32, 8.99 14.43, 8.57 14.5 C8.16 14.57, 7.73 14.61, 7.31 14.61 C6.88 14.61, 6.45 14.57, 6.04 14.5 C5.62 14.43, 5.2 14.32, 4.81 14.17 C4.41 14.03, 4.02 13.84, 3.65 13.63 C3.29 13.42, 2.93 13.17, 2.61 12.9 C2.29 12.63, 1.98 12.33, 1.71 12 C1.44 11.68, 1.19 11.32, 0.98 10.96 C0.77 10.59, 0.59 10.2, 0.44 9.8 C0.3 9.41, 0.18 8.99, 0.11 8.57 C0.04 8.16, 0 7.73, 0 7.31 C0 6.88, 0.04 6.45, 0.11 6.04 C0.18 5.62, 0.3 5.2, 0.44 4.81 C0.59 4.41, 0.77 4.02, 0.98 3.65 C1.19 3.29, 1.44 2.93, 1.71 2.61 C1.98 2.29, 2.29 1.98, 2.61 1.71 C2.93 1.44, 3.29 1.19, 3.65 0.98 C4.02 0.77, 4.41 0.59, 4.81 0.44 C5.2 0.3, 5.62 0.18, 6.04 0.11 C6.45 0.04, 6.88 0, 7.31 0 C7.73 0, 8.16 0.04, 8.57 0.11 C8.99 0.18, 9.41 0.3, 9.8 0.44 C10.2 0.59, 10.59 0.77, 10.96 0.98 C11.32 1.19, 11.68 1.44, 12 1.71 C12.33 1.98, 12.63 2.29, 12.9 2.61 C13.17 2.93, 13.42 3.29, 13.63 3.65 C13.84 4.02, 14.03 4.41, 14.17 4.81 C14.32 5.2, 14.43 5.62, 14.5 6.04 C14.57 6.45, 14.59 7.09, 14.61 7.31 C14.63 7.52, 14.63 7.09, 14.61 7.31" stroke="transparent" stroke-width="4" fill="none"></path></g><g stroke-linecap="round" transform="translate(21.38742814422949 17.761489407130284) rotate(354.457375547017 6.307505161445988 12.937958167921352)"><path d="M7 0 L12.62 13 L7 25.88 L0 13" stroke="none" stroke-width="0" fill="#868e96" fill-rule="evenodd"></path><path d="M7 0 C8.77 4.09, 10.53 8.18, 12.62 13 M7 0 C8.83 4.24, 10.66 8.47, 12.62 13 M12.62 13 C10.44 18, 8.26 22.99, 7 25.88 M12.62 13 C11.1 16.47, 9.59 19.93, 7 25.88 M7 25.88 C5.39 22.91, 3.78 19.94, 0 13 M7 25.88 C5.41 22.96, 3.83 20.04, 0 13 M0 13 C1.53 10.16, 3.05 7.33, 7 0 M0 13 C2.52 8.32, 5.04 3.64, 7 0" stroke="#343a40" stroke-width="4" fill="none"></path></g><g stroke-linecap="round" transform="translate(25.358959128777315 16.945793957878777) rotate(354.457375547017 1.8693598525610469 1.8693598525615016)"><path d="M3.74 1.87 C3.74 1.98, 3.73 2.09, 3.71 2.19 C3.69 2.3, 3.66 2.41, 3.63 2.51 C3.59 2.61, 3.54 2.71, 3.49 2.8 C3.43 2.9, 3.37 2.99, 3.3 3.07 C3.23 3.15, 3.15 3.23, 3.07 3.3 C2.99 3.37, 2.9 3.43, 2.8 3.49 C2.71 3.54, 2.61 3.59, 2.51 3.63 C2.41 3.66, 2.3 3.69, 2.19 3.71 C2.09 3.73, 1.98 3.74, 1.87 3.74 C1.76 3.74, 1.65 3.73, 1.54 3.71 C1.44 3.69, 1.33 3.66, 1.23 3.63 C1.13 3.59, 1.03 3.54, 0.93 3.49 C0.84 3.43, 0.75 3.37, 0.67 3.3 C0.58 3.23, 0.51 3.15, 0.44 3.07 C0.37 2.99, 0.3 2.9, 0.25 2.8 C0.2 2.71, 0.15 2.61, 0.11 2.51 C0.08 2.41, 0.05 2.3, 0.03 2.19 C0.01 2.09, 0 1.98, 0 1.87 C0 1.76, 0.01 1.65, 0.03 1.54 C0.05 1.44, 0.08 1.33, 0.11 1.23 C0.15 1.13, 0.2 1.03, 0.25 0.93 C0.3 0.84, 0.37 0.75, 0.44 0.67 C0.51 0.58, 0.58 0.51, 0.67 0.44 C0.75 0.37, 0.84 0.3, 0.93 0.25 C1.03 0.2, 1.13 0.15, 1.23 0.11 C1.33 0.08, 1.44 0.05, 1.54 0.03 C1.65 0.01, 1.76 0, 1.87 0 C1.98 0, 2.09 0.01, 2.19 0.03 C2.3 0.05, 2.41 0.08, 2.51 0.11 C2.61 0.15, 2.71 0.2, 2.8 0.25 C2.9 0.3, 2.99 0.37, 3.07 0.44 C3.15 0.51, 3.23 0.58, 3.3 0.67 C3.37 0.75, 3.43 0.84, 3.49 0.93 C3.54 1.03, 3.59 1.13, 3.63 1.23 C3.66 1.33, 3.69 1.44, 3.71 1.54 C3.73 1.65, 3.73 1.82, 3.74 1.87 C3.74 1.92, 3.74 1.82, 3.74 1.87" stroke="none" stroke-width="0" fill="#868e96"></path><path d="M3.74 1.87 C3.74 1.98, 3.73 2.09, 3.71 2.19 C3.69 2.3, 3.66 2.41, 3.63 2.51 C3.59 2.61, 3.54 2.71, 3.49 2.8 C3.43 2.9, 3.37 2.99, 3.3 3.07 C3.23 3.15, 3.15 3.23, 3.07 3.3 C2.99 3.37, 2.9 3.43, 2.8 3.49 C2.71 3.54, 2.61 3.59, 2.51 3.63 C2.41 3.66, 2.3 3.69, 2.19 3.71 C2.09 3.73, 1.98 3.74, 1.87 3.74 C1.76 3.74, 1.65 3.73, 1.54 3.71 C1.44 3.69, 1.33 3.66, 1.23 3.63 C1.13 3.59, 1.03 3.54, 0.93 3.49 C0.84 3.43, 0.75 3.37, 0.67 3.3 C0.58 3.23, 0.51 3.15, 0.44 3.07 C0.37 2.99, 0.3 2.9, 0.25 2.8 C0.2 2.71, 0.15 2.61, 0.11 2.51 C0.08 2.41, 0.05 2.3, 0.03 2.19 C0.01 2.09, 0 1.98, 0 1.87 C0 1.76, 0.01 1.65, 0.03 1.54 C0.05 1.44, 0.08 1.33, 0.11 1.23 C0.15 1.13, 0.2 1.03, 0.25 0.93 C0.3 0.84, 0.37 0.75, 0.44 0.67 C0.51 0.58, 0.58 0.51, 0.67 0.44 C0.75 0.37, 0.84 0.3, 0.93 0.25 C1.03 0.2, 1.13 0.15, 1.23 0.11 C1.33 0.08, 1.44 0.05, 1.54 0.03 C1.65 0.01, 1.76 0, 1.87 0 C1.98 0, 2.09 0.01, 2.19 0.03 C2.3 0.05, 2.41 0.08, 2.51 0.11 C2.61 0.15, 2.71 0.2, 2.8 0.25 C2.9 0.3, 2.99 0.37, 3.07 0.44 C3.15 0.51, 3.23 0.58, 3.3 0.67 C3.37 0.75, 3.43 0.84, 3.49 0.93 C3.54 1.03, 3.59 1.13, 3.63 1.23 C3.66 1.33, 3.69 1.44, 3.71 1.54 C3.73 1.65, 3.73 1.82, 3.74 1.87 C3.74 1.92, 3.74 1.82, 3.74 1.87" stroke="transparent" stroke-width="4" fill="none"></path></g><g stroke-linecap="round" transform="translate(24.060755983859963 36.10469804030072) rotate(354.457375547017 4.047812994511332 4.047812994511332)"><path d="M8.1 4.05 C8.1 4.28, 8.07 4.52, 8.03 4.75 C7.99 4.98, 7.93 5.21, 7.85 5.43 C7.77 5.65, 7.67 5.87, 7.55 6.07 C7.44 6.27, 7.3 6.47, 7.15 6.65 C7 6.83, 6.83 7, 6.65 7.15 C6.47 7.3, 6.27 7.44, 6.07 7.55 C5.87 7.67, 5.65 7.77, 5.43 7.85 C5.21 7.93, 4.98 7.99, 4.75 8.03 C4.52 8.07, 4.28 8.1, 4.05 8.1 C3.81 8.1, 3.58 8.07, 3.34 8.03 C3.11 7.99, 2.88 7.93, 2.66 7.85 C2.44 7.77, 2.23 7.67, 2.02 7.55 C1.82 7.44, 1.63 7.3, 1.45 7.15 C1.27 7, 1.1 6.83, 0.95 6.65 C0.8 6.47, 0.66 6.27, 0.54 6.07 C0.43 5.87, 0.32 5.65, 0.24 5.43 C0.16 5.21, 0.1 4.98, 0.06 4.75 C0.02 4.52, 0 4.28, 0 4.05 C0 3.81, 0.02 3.58, 0.06 3.34 C0.1 3.11, 0.16 2.88, 0.24 2.66 C0.32 2.44, 0.43 2.23, 0.54 2.02 C0.66 1.82, 0.8 1.63, 0.95 1.45 C1.1 1.27, 1.27 1.1, 1.45 0.95 C1.63 0.8, 1.82 0.66, 2.02 0.54 C2.23 0.43, 2.44 0.32, 2.66 0.24 C2.88 0.16, 3.11 0.1, 3.34 0.06 C3.58 0.02, 3.81 0, 4.05 0 C4.28 0, 4.52 0.02, 4.75 0.06 C4.98 0.1, 5.21 0.16, 5.43 0.24 C5.65 0.32, 5.87 0.43, 6.07 0.54 C6.27 0.66, 6.47 0.8, 6.65 0.95 C6.83 1.1, 7 1.27, 7.15 1.45 C7.3 1.63, 7.44 1.82, 7.55 2.02 C7.67 2.23, 7.77 2.44, 7.85 2.66 C7.93 2.88, 7.99 3.11, 8.03 3.34 C8.07 3.58, 8.09 3.93, 8.1 4.05 C8.11 4.16, 8.11 3.93, 8.1 4.05" stroke="none" stroke-width="0" fill="#868e96"></path><path d="M8.1 4.05 C8.1 4.28, 8.07 4.52, 8.03 4.75 C7.99 4.98, 7.93 5.21, 7.85 5.43 C7.77 5.65, 7.67 5.87, 7.55 6.07 C7.44 6.27, 7.3 6.47, 7.15 6.65 C7 6.83, 6.83 7, 6.65 7.15 C6.47 7.3, 6.27 7.44, 6.07 7.55 C5.87 7.67, 5.65 7.77, 5.43 7.85 C5.21 7.93, 4.98 7.99, 4.75 8.03 C4.52 8.07, 4.28 8.1, 4.05 8.1 C3.81 8.1, 3.58 8.07, 3.34 8.03 C3.11 7.99, 2.88 7.93, 2.66 7.85 C2.44 7.77, 2.23 7.67, 2.02 7.55 C1.82 7.44, 1.63 7.3, 1.45 7.15 C1.27 7, 1.1 6.83, 0.95 6.65 C0.8 6.47, 0.66 6.27, 0.54 6.07 C0.43 5.87, 0.32 5.65, 0.24 5.43 C0.16 5.21, 0.1 4.98, 0.06 4.75 C0.02 4.52, 0 4.28, 0 4.05 C0 3.81, 0.02 3.58, 0.06 3.34 C0.1 3.11, 0.16 2.88, 0.24 2.66 C0.32 2.44, 0.43 2.23, 0.54 2.02 C0.66 1.82, 0.8 1.63, 0.95 1.45 C1.1 1.27, 1.27 1.1, 1.45 0.95 C1.63 0.8, 1.82 0.66, 2.02 0.54 C2.23 0.43, 2.44 0.32, 2.66 0.24 C2.88 0.16, 3.11 0.1, 3.34 0.06 C3.58 0.02, 3.81 0, 4.05 0 C4.28 0, 4.52 0.02, 4.75 0.06 C4.98 0.1, 5.21 0.16, 5.43 0.24 C5.65 0.32, 5.87 0.43, 6.07 0.54 C6.27 0.66, 6.47 0.8, 6.65 0.95 C6.83 1.1, 7 1.27, 7.15 1.45 C7.3 1.63, 7.44 1.82, 7.55 2.02 C7.67 2.23, 7.77 2.44, 7.85 2.66 C7.93 2.88, 7.99 3.11, 8.03 3.34 C8.07 3.58, 8.09 3.93, 8.1 4.05 C8.11 4.16, 8.11 3.93, 8.1 4.05" stroke="transparent" stroke-width="4" fill="none"></path></g><g stroke-linecap="round" transform="translate(31.881943600998966 10) rotate(0 11.894292114814562 7.850232795777629)"><path d="M12 0 L23.79 8 L12 15.7 L0 8" stroke="none" stroke-width="0" fill="#ffec99" fill-rule="evenodd"></path><path d="M12 0 C14.56 1.74, 17.13 3.48, 23.79 8 M23.79 8 C19.72 10.65, 15.66 13.31, 12 15.7 M12 15.7 C7.46 12.79, 2.92 9.87, 0 8 M0 8 C3.22 5.85, 6.44 3.71, 12 0" stroke="#343a40" stroke-width="4.5" fill="none" stroke-dasharray="8 12"></path></g><g stroke-linecap="round" transform="translate(55.0758132248875 10) rotate(0 11.894292114814562 7.850232795777629)"><path d="M12 0 L23.79 8 L12 15.7 L0 8" stroke="none" stroke-width="0" fill="#ffec99" fill-rule="evenodd"></path><path d="M12 0 C16.63 3.14, 21.25 6.28, 23.79 8 M23.79 8 C20.97 9.84, 18.15 11.68, 12 15.7 M12 15.7 C8.35 13.36, 4.71 11.02, 0 8 M0 8 C3.56 5.62, 7.13 3.25, 12 0" stroke="#343a40" stroke-width="4.5" fill="none" stroke-dasharray="8 12"></path></g><g stroke-linecap="round" transform="translate(79.41174755790325 13.189674886454668) rotate(362.12507525692973 4.203804858631884 4.203804858631884)"><path d="M8.41 4.2 C8.41 4.45, 8.39 4.69, 8.34 4.93 C8.3 5.17, 8.24 5.41, 8.15 5.64 C8.07 5.87, 7.97 6.09, 7.84 6.31 C7.72 6.52, 7.58 6.72, 7.42 6.91 C7.27 7.09, 7.09 7.27, 6.91 7.42 C6.72 7.58, 6.52 7.72, 6.31 7.84 C6.09 7.97, 5.87 8.07, 5.64 8.15 C5.41 8.24, 5.17 8.3, 4.93 8.34 C4.69 8.39, 4.45 8.41, 4.2 8.41 C3.96 8.41, 3.71 8.39, 3.47 8.34 C3.23 8.3, 2.99 8.24, 2.77 8.15 C2.54 8.07, 2.31 7.97, 2.1 7.84 C1.89 7.72, 1.69 7.58, 1.5 7.42 C1.32 7.27, 1.14 7.09, 0.98 6.91 C0.83 6.72, 0.68 6.52, 0.56 6.31 C0.44 6.09, 0.34 5.87, 0.25 5.64 C0.17 5.41, 0.11 5.17, 0.06 4.93 C0.02 4.69, 0 4.45, 0 4.2 C0 3.96, 0.02 3.71, 0.06 3.47 C0.11 3.23, 0.17 2.99, 0.25 2.77 C0.34 2.54, 0.44 2.31, 0.56 2.1 C0.68 1.89, 0.83 1.69, 0.98 1.5 C1.14 1.32, 1.32 1.14, 1.5 0.98 C1.69 0.83, 1.89 0.68, 2.1 0.56 C2.31 0.44, 2.54 0.34, 2.77 0.25 C2.99 0.17, 3.23 0.11, 3.47 0.06 C3.71 0.02, 3.96 0, 4.2 0 C4.45 0, 4.69 0.02, 4.93 0.06 C5.17 0.11, 5.41 0.17, 5.64 0.25 C5.87 0.34, 6.09 0.44, 6.31 0.56 C6.52 0.68, 6.72 0.83, 6.91 0.98 C7.09 1.14, 7.27 1.32, 7.42 1.5 C7.58 1.69, 7.72 1.89, 7.84 2.1 C7.97 2.31, 8.07 2.54, 8.15 2.77 C8.24 2.99, 8.3 3.23, 8.34 3.47 C8.39 3.71, 8.4 4.08, 8.41 4.2 C8.42 4.33, 8.42 4.08, 8.41 4.2" stroke="none" stroke-width="0" fill="#343a40"></path><path d="M8.41 4.2 C8.41 4.45, 8.39 4.69, 8.34 4.93 C8.3 5.17, 8.24 5.41, 8.15 5.64 C8.07 5.87, 7.97 6.09, 7.84 6.31 C7.72 6.52, 7.58 6.72, 7.42 6.91 C7.27 7.09, 7.09 7.27, 6.91 7.42 C6.72 7.58, 6.52 7.72, 6.31 7.84 C6.09 7.97, 5.87 8.07, 5.64 8.15 C5.41 8.24, 5.17 8.3, 4.93 8.34 C4.69 8.39, 4.45 8.41, 4.2 8.41 C3.96 8.41, 3.71 8.39, 3.47 8.34 C3.23 8.3, 2.99 8.24, 2.77 8.15 C2.54 8.07, 2.31 7.97, 2.1 7.84 C1.89 7.72, 1.69 7.58, 1.5 7.42 C1.32 7.27, 1.14 7.09, 0.98 6.91 C0.83 6.72, 0.68 6.52, 0.56 6.31 C0.44 6.09, 0.34 5.87, 0.25 5.64 C0.17 5.41, 0.11 5.17, 0.06 4.93 C0.02 4.69, 0 4.45, 0 4.2 C0 3.96, 0.02 3.71, 0.06 3.47 C0.11 3.23, 0.17 2.99, 0.25 2.77 C0.34 2.54, 0.44 2.31, 0.56 2.1 C0.68 1.89, 0.83 1.69, 0.98 1.5 C1.14 1.32, 1.32 1.14, 1.5 0.98 C1.69 0.83, 1.89 0.68, 2.1 0.56 C2.31 0.44, 2.54 0.34, 2.77 0.25 C2.99 0.17, 3.23 0.11, 3.47 0.06 C3.71 0.02, 3.96 0, 4.2 0 C4.45 0, 4.69 0.02, 4.93 0.06 C5.17 0.11, 5.41 0.17, 5.64 0.25 C5.87 0.34, 6.09 0.44, 6.31 0.56 C6.52 0.68, 6.72 0.83, 6.91 0.98 C7.09 1.14, 7.27 1.32, 7.42 1.5 C7.58 1.69, 7.72 1.89, 7.84 2.1 C7.97 2.31, 8.07 2.54, 8.15 2.77 C8.24 2.99, 8.3 3.23, 8.34 3.47 C8.39 3.71, 8.4 4.08, 8.41 4.2 C8.42 4.33, 8.42 4.08, 8.41 4.2" stroke="transparent" stroke-width="4" fill="none"></path></g><g stroke-linecap="round" transform="translate(75.41490813497057 32.02161625353256) rotate(362.12507525692973 7.305557744896305 7.30555774489676)"><path d="M14.61 7.31 C14.61 7.73, 14.57 8.16, 14.5 8.57 C14.43 8.99, 14.32 9.41, 14.17 9.8 C14.03 10.2, 13.84 10.59, 13.63 10.96 C13.42 11.32, 13.17 11.68, 12.9 12 C12.63 12.33, 12.33 12.63, 12 12.9 C11.68 13.17, 11.32 13.42, 10.96 13.63 C10.59 13.84, 10.2 14.03, 9.8 14.17 C9.41 14.32, 8.99 14.43, 8.57 14.5 C8.16 14.57, 7.73 14.61, 7.31 14.61 C6.88 14.61, 6.45 14.57, 6.04 14.5 C5.62 14.43, 5.2 14.32, 4.81 14.17 C4.41 14.03, 4.02 13.84, 3.65 13.63 C3.29 13.42, 2.93 13.17, 2.61 12.9 C2.29 12.63, 1.98 12.33, 1.71 12 C1.44 11.68, 1.19 11.32, 0.98 10.96 C0.77 10.59, 0.59 10.2, 0.44 9.8 C0.3 9.41, 0.18 8.99, 0.11 8.57 C0.04 8.16, 0 7.73, 0 7.31 C0 6.88, 0.04 6.45, 0.11 6.04 C0.18 5.62, 0.3 5.2, 0.44 4.81 C0.59 4.41, 0.77 4.02, 0.98 3.65 C1.19 3.29, 1.44 2.93, 1.71 2.61 C1.98 2.29, 2.29 1.98, 2.61 1.71 C2.93 1.44, 3.29 1.19, 3.65 0.98 C4.02 0.77, 4.41 0.59, 4.81 0.44 C5.2 0.3, 5.62 0.18, 6.04 0.11 C6.45 0.04, 6.88 0, 7.31 0 C7.73 0, 8.16 0.04, 8.57 0.11 C8.99 0.18, 9.41 0.3, 9.8 0.44 C10.2 0.59, 10.59 0.77, 10.96 0.98 C11.32 1.19, 11.68 1.44, 12 1.71 C12.33 1.98, 12.63 2.29, 12.9 2.61 C13.17 2.93, 13.42 3.29, 13.63 3.65 C13.84 4.02, 14.03 4.41, 14.17 4.81 C14.32 5.2, 14.43 5.62, 14.5 6.04 C14.57 6.45, 14.59 7.09, 14.61 7.31 C14.63 7.52, 14.63 7.09, 14.61 7.31" stroke="none" stroke-width="0" fill="#343a40"></path><path d="M14.61 7.31 C14.61 7.73, 14.57 8.16, 14.5 8.57 C14.43 8.99, 14.32 9.41, 14.17 9.8 C14.03 10.2, 13.84 10.59, 13.63 10.96 C13.42 11.32, 13.17 11.68, 12.9 12 C12.63 12.33, 12.33 12.63, 12 12.9 C11.68 13.17, 11.32 13.42, 10.96 13.63 C10.59 13.84, 10.2 14.03, 9.8 14.17 C9.41 14.32, 8.99 14.43, 8.57 14.5 C8.16 14.57, 7.73 14.61, 7.31 14.61 C6.88 14.61, 6.45 14.57, 6.04 14.5 C5.62 14.43, 5.2 14.32, 4.81 14.17 C4.41 14.03, 4.02 13.84, 3.65 13.63 C3.29 13.42, 2.93 13.17, 2.61 12.9 C2.29 12.63, 1.98 12.33, 1.71 12 C1.44 11.68, 1.19 11.32, 0.98 10.96 C0.77 10.59, 0.59 10.2, 0.44 9.8 C0.3 9.41, 0.18 8.99, 0.11 8.57 C0.04 8.16, 0 7.73, 0 7.31 C0 6.88, 0.04 6.45, 0.11 6.04 C0.18 5.62, 0.3 5.2, 0.44 4.81 C0.59 4.41, 0.77 4.02, 0.98 3.65 C1.19 3.29, 1.44 2.93, 1.71 2.61 C1.98 2.29, 2.29 1.98, 2.61 1.71 C2.93 1.44, 3.29 1.19, 3.65 0.98 C4.02 0.77, 4.41 0.59, 4.81 0.44 C5.2 0.3, 5.62 0.18, 6.04 0.11 C6.45 0.04, 6.88 0, 7.31 0 C7.73 0, 8.16 0.04, 8.57 0.11 C8.99 0.18, 9.41 0.3, 9.8 0.44 C10.2 0.59, 10.59 0.77, 10.96 0.98 C11.32 1.19, 11.68 1.44, 12 1.71 C12.33 1.98, 12.63 2.29, 12.9 2.61 C13.17 2.93, 13.42 3.29, 13.63 3.65 C13.84 4.02, 14.03 4.41, 14.17 4.81 C14.32 5.2, 14.43 5.62, 14.5 6.04 C14.57 6.45, 14.59 7.09, 14.61 7.31 C14.63 7.52, 14.63 7.09, 14.61 7.31" stroke="transparent" stroke-width="4" fill="none"></path></g><g stroke-linecap="round" transform="translate(76.33174063741353 16.388988603857797) rotate(362.12507525692973 6.307505161445988 12.937958167921352)"><path d="M7 0 L12.62 13 L7 25.88 L0 13" stroke="none" stroke-width="0" fill="#868e96" fill-rule="evenodd"></path><path d="M7 0 C8.99 4.61, 10.99 9.23, 12.62 13 M7 0 C8.78 4.13, 10.56 8.25, 12.62 13 M12.62 13 C11.37 15.86, 10.12 18.73, 7 25.88 M12.62 13 C10.95 16.81, 9.29 20.62, 7 25.88 M7 25.88 C4.81 21.84, 2.61 17.81, 0 13 M7 25.88 C4.71 21.67, 2.43 17.47, 0 13 M0 13 C2.71 7.96, 5.43 2.92, 7 0 M0 13 C2.36 8.61, 4.72 4.23, 7 0" stroke="#343a40" stroke-width="4" fill="none"></path></g><g stroke-linecap="round" transform="translate(81.63800732073014 15.50027791041066) rotate(362.12507525692973 1.8693598525610469 1.8693598525615016)"><path d="M3.74 1.87 C3.74 1.98, 3.73 2.09, 3.71 2.19 C3.69 2.3, 3.66 2.41, 3.63 2.51 C3.59 2.61, 3.54 2.71, 3.49 2.8 C3.43 2.9, 3.37 2.99, 3.3 3.07 C3.23 3.15, 3.15 3.23, 3.07 3.3 C2.99 3.37, 2.9 3.43, 2.8 3.49 C2.71 3.54, 2.61 3.59, 2.51 3.63 C2.41 3.66, 2.3 3.69, 2.19 3.71 C2.09 3.73, 1.98 3.74, 1.87 3.74 C1.76 3.74, 1.65 3.73, 1.54 3.71 C1.44 3.69, 1.33 3.66, 1.23 3.63 C1.13 3.59, 1.03 3.54, 0.93 3.49 C0.84 3.43, 0.75 3.37, 0.67 3.3 C0.58 3.23, 0.51 3.15, 0.44 3.07 C0.37 2.99, 0.3 2.9, 0.25 2.8 C0.2 2.71, 0.15 2.61, 0.11 2.51 C0.08 2.41, 0.05 2.3, 0.03 2.19 C0.01 2.09, 0 1.98, 0 1.87 C0 1.76, 0.01 1.65, 0.03 1.54 C0.05 1.44, 0.08 1.33, 0.11 1.23 C0.15 1.13, 0.2 1.03, 0.25 0.93 C0.3 0.84, 0.37 0.75, 0.44 0.67 C0.51 0.58, 0.58 0.51, 0.67 0.44 C0.75 0.37, 0.84 0.3, 0.93 0.25 C1.03 0.2, 1.13 0.15, 1.23 0.11 C1.33 0.08, 1.44 0.05, 1.54 0.03 C1.65 0.01, 1.76 0, 1.87 0 C1.98 0, 2.09 0.01, 2.19 0.03 C2.3 0.05, 2.41 0.08, 2.51 0.11 C2.61 0.15, 2.71 0.2, 2.8 0.25 C2.9 0.3, 2.99 0.37, 3.07 0.44 C3.15 0.51, 3.23 0.58, 3.3 0.67 C3.37 0.75, 3.43 0.84, 3.49 0.93 C3.54 1.03, 3.59 1.13, 3.63 1.23 C3.66 1.33, 3.69 1.44, 3.71 1.54 C3.73 1.65, 3.73 1.82, 3.74 1.87 C3.74 1.92, 3.74 1.82, 3.74 1.87" stroke="none" stroke-width="0" fill="#868e96"></path><path d="M3.74 1.87 C3.74 1.98, 3.73 2.09, 3.71 2.19 C3.69 2.3, 3.66 2.41, 3.63 2.51 C3.59 2.61, 3.54 2.71, 3.49 2.8 C3.43 2.9, 3.37 2.99, 3.3 3.07 C3.23 3.15, 3.15 3.23, 3.07 3.3 C2.99 3.37, 2.9 3.43, 2.8 3.49 C2.71 3.54, 2.61 3.59, 2.51 3.63 C2.41 3.66, 2.3 3.69, 2.19 3.71 C2.09 3.73, 1.98 3.74, 1.87 3.74 C1.76 3.74, 1.65 3.73, 1.54 3.71 C1.44 3.69, 1.33 3.66, 1.23 3.63 C1.13 3.59, 1.03 3.54, 0.93 3.49 C0.84 3.43, 0.75 3.37, 0.67 3.3 C0.58 3.23, 0.51 3.15, 0.44 3.07 C0.37 2.99, 0.3 2.9, 0.25 2.8 C0.2 2.71, 0.15 2.61, 0.11 2.51 C0.08 2.41, 0.05 2.3, 0.03 2.19 C0.01 2.09, 0 1.98, 0 1.87 C0 1.76, 0.01 1.65, 0.03 1.54 C0.05 1.44, 0.08 1.33, 0.11 1.23 C0.15 1.13, 0.2 1.03, 0.25 0.93 C0.3 0.84, 0.37 0.75, 0.44 0.67 C0.51 0.58, 0.58 0.51, 0.67 0.44 C0.75 0.37, 0.84 0.3, 0.93 0.25 C1.03 0.2, 1.13 0.15, 1.23 0.11 C1.33 0.08, 1.44 0.05, 1.54 0.03 C1.65 0.01, 1.76 0, 1.87 0 C1.98 0, 2.09 0.01, 2.19 0.03 C2.3 0.05, 2.41 0.08, 2.51 0.11 C2.61 0.15, 2.71 0.2, 2.8 0.25 C2.9 0.3, 2.99 0.37, 3.07 0.44 C3.15 0.51, 3.23 0.58, 3.3 0.67 C3.37 0.75, 3.43 0.84, 3.49 0.93 C3.54 1.03, 3.59 1.13, 3.63 1.23 C3.66 1.33, 3.69 1.44, 3.71 1.54 C3.73 1.65, 3.73 1.82, 3.74 1.87 C3.74 1.92, 3.74 1.82, 3.74 1.87" stroke="transparent" stroke-width="4" fill="none"></path></g><g stroke-linecap="round" transform="translate(78.74204991558145 34.74004376149787) rotate(362.12507525692973 4.047812994511332 4.047812994511332)"><path d="M8.1 4.05 C8.1 4.28, 8.07 4.52, 8.03 4.75 C7.99 4.98, 7.93 5.21, 7.85 5.43 C7.77 5.65, 7.67 5.87, 7.55 6.07 C7.44 6.27, 7.3 6.47, 7.15 6.65 C7 6.83, 6.83 7, 6.65 7.15 C6.47 7.3, 6.27 7.44, 6.07 7.55 C5.87 7.67, 5.65 7.77, 5.43 7.85 C5.21 7.93, 4.98 7.99, 4.75 8.03 C4.52 8.07, 4.28 8.1, 4.05 8.1 C3.81 8.1, 3.58 8.07, 3.34 8.03 C3.11 7.99, 2.88 7.93, 2.66 7.85 C2.44 7.77, 2.23 7.67, 2.02 7.55 C1.82 7.44, 1.63 7.3, 1.45 7.15 C1.27 7, 1.1 6.83, 0.95 6.65 C0.8 6.47, 0.66 6.27, 0.54 6.07 C0.43 5.87, 0.32 5.65, 0.24 5.43 C0.16 5.21, 0.1 4.98, 0.06 4.75 C0.02 4.52, 0 4.28, 0 4.05 C0 3.81, 0.02 3.58, 0.06 3.34 C0.1 3.11, 0.16 2.88, 0.24 2.66 C0.32 2.44, 0.43 2.23, 0.54 2.02 C0.66 1.82, 0.8 1.63, 0.95 1.45 C1.1 1.27, 1.27 1.1, 1.45 0.95 C1.63 0.8, 1.82 0.66, 2.02 0.54 C2.23 0.43, 2.44 0.32, 2.66 0.24 C2.88 0.16, 3.11 0.1, 3.34 0.06 C3.58 0.02, 3.81 0, 4.05 0 C4.28 0, 4.52 0.02, 4.75 0.06 C4.98 0.1, 5.21 0.16, 5.43 0.24 C5.65 0.32, 5.87 0.43, 6.07 0.54 C6.27 0.66, 6.47 0.8, 6.65 0.95 C6.83 1.1, 7 1.27, 7.15 1.45 C7.3 1.63, 7.44 1.82, 7.55 2.02 C7.67 2.23, 7.77 2.44, 7.85 2.66 C7.93 2.88, 7.99 3.11, 8.03 3.34 C8.07 3.58, 8.09 3.93, 8.1 4.05 C8.11 4.16, 8.11 3.93, 8.1 4.05" stroke="none" stroke-width="0" fill="#868e96"></path><path d="M8.1 4.05 C8.1 4.28, 8.07 4.52, 8.03 4.75 C7.99 4.98, 7.93 5.21, 7.85 5.43 C7.77 5.65, 7.67 5.87, 7.55 6.07 C7.44 6.27, 7.3 6.47, 7.15 6.65 C7 6.83, 6.83 7, 6.65 7.15 C6.47 7.3, 6.27 7.44, 6.07 7.55 C5.87 7.67, 5.65 7.77, 5.43 7.85 C5.21 7.93, 4.98 7.99, 4.75 8.03 C4.52 8.07, 4.28 8.1, 4.05 8.1 C3.81 8.1, 3.58 8.07, 3.34 8.03 C3.11 7.99, 2.88 7.93, 2.66 7.85 C2.44 7.77, 2.23 7.67, 2.02 7.55 C1.82 7.44, 1.63 7.3, 1.45 7.15 C1.27 7, 1.1 6.83, 0.95 6.65 C0.8 6.47, 0.66 6.27, 0.54 6.07 C0.43 5.87, 0.32 5.65, 0.24 5.43 C0.16 5.21, 0.1 4.98, 0.06 4.75 C0.02 4.52, 0 4.28, 0 4.05 C0 3.81, 0.02 3.58, 0.06 3.34 C0.1 3.11, 0.16 2.88, 0.24 2.66 C0.32 2.44, 0.43 2.23, 0.54 2.02 C0.66 1.82, 0.8 1.63, 0.95 1.45 C1.1 1.27, 1.27 1.1, 1.45 0.95 C1.63 0.8, 1.82 0.66, 2.02 0.54 C2.23 0.43, 2.44 0.32, 2.66 0.24 C2.88 0.16, 3.11 0.1, 3.34 0.06 C3.58 0.02, 3.81 0, 4.05 0 C4.28 0, 4.52 0.02, 4.75 0.06 C4.98 0.1, 5.21 0.16, 5.43 0.24 C5.65 0.32, 5.87 0.43, 6.07 0.54 C6.27 0.66, 6.47 0.8, 6.65 0.95 C6.83 1.1, 7 1.27, 7.15 1.45 C7.3 1.63, 7.44 1.82, 7.55 2.02 C7.67 2.23, 7.77 2.44, 7.85 2.66 C7.93 2.88, 7.99 3.11, 8.03 3.34 C8.07 3.58, 8.09 3.93, 8.1 4.05 C8.11 4.16, 8.11 3.93, 8.1 4.05" stroke="transparent" stroke-width="4" fill="none"></path></g></svg>