<svg version="1.1" xmlns="http://www.w3.org/2000/svg" viewBox="0 0 125.33745482857421 95.49887964634036" width="250.67490965714842" height="190.9977592926807">
  <!-- svg-source:excalidraw -->
  
  <defs>
    <style class="style-fonts">
      
    </style>
    
  </defs>
  <g stroke-linecap="round" transform="translate(51.58450655416436 10) rotate(0 28.820862800442455 22.842355534065064)"><path d="M57.64 22.84 C57.64 24.16, 57.49 25.51, 57.2 26.81 C56.91 28.11, 56.47 29.41, 55.9 30.65 C55.33 31.9, 54.61 33.12, 53.78 34.26 C52.95 35.41, 51.97 36.51, 50.9 37.53 C49.83 38.54, 48.62 39.49, 47.35 40.34 C46.07 41.19, 44.68 41.96, 43.23 42.62 C41.79 43.29, 40.25 43.85, 38.68 44.31 C37.11 44.76, 35.47 45.11, 33.83 45.34 C32.18 45.57, 30.49 45.68, 28.82 45.68 C27.15 45.68, 25.46 45.57, 23.82 45.34 C22.17 45.11, 20.53 44.76, 18.96 44.31 C17.4 43.85, 15.86 43.29, 14.41 42.62 C12.97 41.96, 11.57 41.19, 10.3 40.34 C9.02 39.49, 7.82 38.54, 6.74 37.53 C5.67 36.51, 4.7 35.41, 3.86 34.26 C3.03 33.12, 2.31 31.9, 1.74 30.65 C1.17 29.41, 0.73 28.11, 0.44 26.81 C0.15 25.51, 0 24.16, 0 22.84 C0 21.52, 0.15 20.18, 0.44 18.88 C0.73 17.57, 1.17 16.27, 1.74 15.03 C2.31 13.79, 3.03 12.57, 3.86 11.42 C4.7 10.28, 5.67 9.17, 6.74 8.16 C7.82 7.15, 9.02 6.19, 10.3 5.34 C11.57 4.49, 12.97 3.72, 14.41 3.06 C15.86 2.4, 17.4 1.83, 18.96 1.38 C20.53 0.93, 22.17 0.58, 23.82 0.35 C25.46 0.12, 27.15 0, 28.82 0 C30.49 0, 32.18 0.12, 33.83 0.35 C35.47 0.58, 37.11 0.93, 38.68 1.38 C40.25 1.83, 41.79 2.4, 43.23 3.06 C44.68 3.72, 46.07 4.49, 47.35 5.34 C48.62 6.19, 49.83 7.15, 50.9 8.16 C51.97 9.17, 52.95 10.28, 53.78 11.42 C54.61 12.57, 55.33 13.79, 55.9 15.03 C56.47 16.27, 56.91 17.57, 57.2 18.88 C57.49 20.18, 57.57 22.18, 57.64 22.84 C57.71 23.5, 57.71 22.18, 57.64 22.84" stroke="none" stroke-width="0" fill="#343a40"></path><path d="M57.64 22.84 C57.64 24.16, 57.49 25.51, 57.2 26.81 C56.91 28.11, 56.47 29.41, 55.9 30.65 C55.33 31.9, 54.61 33.12, 53.78 34.26 C52.95 35.41, 51.97 36.51, 50.9 37.53 C49.83 38.54, 48.62 39.49, 47.35 40.34 C46.07 41.19, 44.68 41.96, 43.23 42.62 C41.79 43.29, 40.25 43.85, 38.68 44.31 C37.11 44.76, 35.47 45.11, 33.83 45.34 C32.18 45.57, 30.49 45.68, 28.82 45.68 C27.15 45.68, 25.46 45.57, 23.82 45.34 C22.17 45.11, 20.53 44.76, 18.96 44.31 C17.4 43.85, 15.86 43.29, 14.41 42.62 C12.97 41.96, 11.57 41.19, 10.3 40.34 C9.02 39.49, 7.82 38.54, 6.74 37.53 C5.67 36.51, 4.7 35.41, 3.86 34.26 C3.03 33.12, 2.31 31.9, 1.74 30.65 C1.17 29.41, 0.73 28.11, 0.44 26.81 C0.15 25.51, 0 24.16, 0 22.84 C0 21.52, 0.15 20.18, 0.44 18.88 C0.73 17.57, 1.17 16.27, 1.74 15.03 C2.31 13.79, 3.03 12.57, 3.86 11.42 C4.7 10.28, 5.67 9.17, 6.74 8.16 C7.82 7.15, 9.02 6.19, 10.3 5.34 C11.57 4.49, 12.97 3.72, 14.41 3.06 C15.86 2.4, 17.4 1.83, 18.96 1.38 C20.53 0.93, 22.17 0.58, 23.82 0.35 C25.46 0.12, 27.15 0, 28.82 0 C30.49 0, 32.18 0.12, 33.83 0.35 C35.47 0.58, 37.11 0.93, 38.68 1.38 C40.25 1.83, 41.79 2.4, 43.23 3.06 C44.68 3.72, 46.07 4.49, 47.35 5.34 C48.62 6.19, 49.83 7.15, 50.9 8.16 C51.97 9.17, 52.95 10.28, 53.78 11.42 C54.61 12.57, 55.33 13.79, 55.9 15.03 C56.47 16.27, 56.91 17.57, 57.2 18.88 C57.49 20.18, 57.57 22.18, 57.64 22.84 C57.71 23.5, 57.71 22.18, 57.64 22.84" stroke="transparent" stroke-width="4" fill="none"></path></g><g stroke-linecap="round" transform="translate(25.5939844581294 36.41774725308278) rotate(344.99999999999994 9.405024318705728 21.741484788696653)"><path d="M4.7 0 C7.27 0, 9.84 0, 14.11 0 C17.24 0, 18.81 1.57, 18.81 4.7 C18.81 17.7, 18.81 30.69, 18.81 38.78 C18.81 41.92, 17.24 43.48, 14.11 43.48 C11.63 43.48, 9.15 43.48, 4.7 43.48 C1.57 43.48, 0 41.92, 0 38.78 C0 29.89, 0 21, 0 4.7 C0 1.57, 1.57 0, 4.7 0" stroke="none" stroke-width="0" fill="#343a40"></path><path d="M4.7 0 C8.31 0, 11.93 0, 14.11 0 M4.7 0 C7.69 0, 10.67 0, 14.11 0 M14.11 0 C17.24 0, 18.81 1.57, 18.81 4.7 M14.11 0 C17.24 0, 18.81 1.57, 18.81 4.7 M18.81 4.7 C18.81 13.52, 18.81 22.34, 18.81 38.78 M18.81 4.7 C18.81 17.03, 18.81 29.35, 18.81 38.78 M18.81 38.78 C18.81 41.92, 17.24 43.48, 14.11 43.48 M18.81 38.78 C18.81 41.92, 17.24 43.48, 14.11 43.48 M14.11 43.48 C10.62 43.48, 7.14 43.48, 4.7 43.48 M14.11 43.48 C11.52 43.48, 8.92 43.48, 4.7 43.48 M4.7 43.48 C1.57 43.48, 0 41.92, 0 38.78 M4.7 43.48 C1.57 43.48, 0 41.92, 0 38.78 M0 38.78 C0 28.3, 0 17.82, 0 4.7 M0 38.78 C0 28.84, 0 18.9, 0 4.7 M0 4.7 C0 1.57, 1.57 0, 4.7 0 M0 4.7 C0 1.57, 1.57 0, 4.7 0" stroke="transparent" stroke-width="2" fill="none"></path></g><g stroke-linecap="round" transform="translate(10.279527602885537 10.198694692318895) rotate(344.99999999999994 16.212663135155708 16.212663135155708)"><path d="M32.43 16.21 C32.43 17.15, 32.34 18.1, 32.18 19.03 C32.02 19.95, 31.77 20.88, 31.45 21.76 C31.13 22.64, 30.72 23.51, 30.25 24.32 C29.78 25.13, 29.24 25.92, 28.63 26.63 C28.03 27.35, 27.35 28.03, 26.63 28.63 C25.92 29.24, 25.13 29.78, 24.32 30.25 C23.51 30.72, 22.64 31.13, 21.76 31.45 C20.88 31.77, 19.95 32.02, 19.03 32.18 C18.1 32.34, 17.15 32.43, 16.21 32.43 C15.27 32.43, 14.32 32.34, 13.4 32.18 C12.47 32.02, 11.55 31.77, 10.67 31.45 C9.79 31.13, 8.92 30.72, 8.11 30.25 C7.29 29.78, 6.51 29.24, 5.79 28.63 C5.07 28.03, 4.4 27.35, 3.79 26.63 C3.19 25.92, 2.64 25.13, 2.17 24.32 C1.7 23.51, 1.3 22.64, 0.98 21.76 C0.66 20.88, 0.41 19.95, 0.25 19.03 C0.08 18.1, 0 17.15, 0 16.21 C0 15.27, 0.08 14.32, 0.25 13.4 C0.41 12.47, 0.66 11.55, 0.98 10.67 C1.3 9.79, 1.7 8.92, 2.17 8.11 C2.64 7.29, 3.19 6.51, 3.79 5.79 C4.4 5.07, 5.07 4.4, 5.79 3.79 C6.51 3.19, 7.29 2.64, 8.11 2.17 C8.92 1.7, 9.79 1.3, 10.67 0.98 C11.55 0.66, 12.47 0.41, 13.4 0.25 C14.32 0.08, 15.27 0, 16.21 0 C17.15 0, 18.1 0.08, 19.03 0.25 C19.95 0.41, 20.88 0.66, 21.76 0.98 C22.64 1.3, 23.51 1.7, 24.32 2.17 C25.13 2.64, 25.92 3.19, 26.63 3.79 C27.35 4.4, 28.03 5.07, 28.63 5.79 C29.24 6.51, 29.78 7.29, 30.25 8.11 C30.72 8.92, 31.13 9.79, 31.45 10.67 C31.77 11.55, 32.02 12.47, 32.18 13.4 C32.34 14.32, 32.38 15.74, 32.43 16.21 C32.47 16.68, 32.47 15.74, 32.43 16.21" stroke="none" stroke-width="0" fill="#e9ecef"></path><path d="M32.43 16.21 C32.43 17.15, 32.34 18.1, 32.18 19.03 C32.02 19.95, 31.77 20.88, 31.45 21.76 C31.13 22.64, 30.72 23.51, 30.25 24.32 C29.78 25.13, 29.24 25.92, 28.63 26.63 C28.03 27.35, 27.35 28.03, 26.63 28.63 C25.92 29.24, 25.13 29.78, 24.32 30.25 C23.51 30.72, 22.64 31.13, 21.76 31.45 C20.88 31.77, 19.95 32.02, 19.03 32.18 C18.1 32.34, 17.15 32.43, 16.21 32.43 C15.27 32.43, 14.32 32.34, 13.4 32.18 C12.47 32.02, 11.55 31.77, 10.67 31.45 C9.79 31.13, 8.92 30.72, 8.11 30.25 C7.29 29.78, 6.51 29.24, 5.79 28.63 C5.07 28.03, 4.4 27.35, 3.79 26.63 C3.19 25.92, 2.64 25.13, 2.17 24.32 C1.7 23.51, 1.3 22.64, 0.98 21.76 C0.66 20.88, 0.41 19.95, 0.25 19.03 C0.08 18.1, 0 17.15, 0 16.21 C0 15.27, 0.08 14.32, 0.25 13.4 C0.41 12.47, 0.66 11.55, 0.98 10.67 C1.3 9.79, 1.7 8.92, 2.17 8.11 C2.64 7.29, 3.19 6.51, 3.79 5.79 C4.4 5.07, 5.07 4.4, 5.79 3.79 C6.51 3.19, 7.29 2.64, 8.11 2.17 C8.92 1.7, 9.79 1.3, 10.67 0.98 C11.55 0.66, 12.47 0.41, 13.4 0.25 C14.32 0.08, 15.27 0, 16.21 0 C17.15 0, 18.1 0.08, 19.03 0.25 C19.95 0.41, 20.88 0.66, 21.76 0.98 C22.64 1.3, 23.51 1.7, 24.32 2.17 C25.13 2.64, 25.92 3.19, 26.63 3.79 C27.35 4.4, 28.03 5.07, 28.63 5.79 C29.24 6.51, 29.78 7.29, 30.25 8.11 C30.72 8.92, 31.13 9.79, 31.45 10.67 C31.77 11.55, 32.02 12.47, 32.18 13.4 C32.34 14.32, 32.38 15.74, 32.43 16.21 C32.47 16.68, 32.47 15.74, 32.43 16.21" stroke="#343a40" stroke-width="4" fill="none"></path></g><g stroke-linecap="round" transform="translate(13.164098543378259 17.335600260059437) rotate(344.99999999999994 9.565516347715857 10.083937403075652)"><path d="M19.13 10.08 C19.13 10.67, 19.08 11.26, 18.99 11.83 C18.89 12.41, 18.74 12.98, 18.55 13.53 C18.36 14.08, 18.13 14.62, 17.85 15.13 C17.57 15.63, 17.25 16.12, 16.89 16.57 C16.54 17.01, 16.14 17.43, 15.71 17.81 C15.29 18.18, 14.83 18.53, 14.35 18.82 C13.87 19.11, 13.36 19.36, 12.84 19.56 C12.32 19.76, 11.77 19.91, 11.23 20.01 C10.68 20.12, 10.12 20.17, 9.57 20.17 C9.01 20.17, 8.45 20.12, 7.9 20.01 C7.36 19.91, 6.81 19.76, 6.29 19.56 C5.77 19.36, 5.26 19.11, 4.78 18.82 C4.3 18.53, 3.84 18.18, 3.42 17.81 C2.99 17.43, 2.59 17.01, 2.24 16.57 C1.88 16.12, 1.56 15.63, 1.28 15.13 C1 14.62, 0.77 14.08, 0.58 13.53 C0.39 12.98, 0.24 12.41, 0.15 11.83 C0.05 11.26, 0 10.67, 0 10.08 C0 9.5, 0.05 8.91, 0.15 8.33 C0.24 7.76, 0.39 7.18, 0.58 6.64 C0.77 6.09, 1 5.55, 1.28 5.04 C1.56 4.54, 1.88 4.05, 2.24 3.6 C2.59 3.15, 2.99 2.73, 3.42 2.36 C3.84 1.98, 4.3 1.64, 4.78 1.35 C5.26 1.06, 5.77 0.81, 6.29 0.61 C6.81 0.41, 7.36 0.25, 7.9 0.15 C8.45 0.05, 9.01 0, 9.57 0 C10.12 0, 10.68 0.05, 11.23 0.15 C11.77 0.25, 12.32 0.41, 12.84 0.61 C13.36 0.81, 13.87 1.06, 14.35 1.35 C14.83 1.64, 15.29 1.98, 15.71 2.36 C16.14 2.73, 16.54 3.15, 16.89 3.6 C17.25 4.05, 17.57 4.54, 17.85 5.04 C18.13 5.55, 18.36 6.09, 18.55 6.64 C18.74 7.18, 18.89 7.76, 18.99 8.33 C19.08 8.91, 19.11 9.79, 19.13 10.08 C19.16 10.38, 19.16 9.79, 19.13 10.08" stroke="none" stroke-width="0" fill="#868e96"></path><path d="M19.13 10.08 C19.13 10.67, 19.08 11.26, 18.99 11.83 C18.89 12.41, 18.74 12.98, 18.55 13.53 C18.36 14.08, 18.13 14.62, 17.85 15.13 C17.57 15.63, 17.25 16.12, 16.89 16.57 C16.54 17.01, 16.14 17.43, 15.71 17.81 C15.29 18.18, 14.83 18.53, 14.35 18.82 C13.87 19.11, 13.36 19.36, 12.84 19.56 C12.32 19.76, 11.77 19.91, 11.23 20.01 C10.68 20.12, 10.12 20.17, 9.57 20.17 C9.01 20.17, 8.45 20.12, 7.9 20.01 C7.36 19.91, 6.81 19.76, 6.29 19.56 C5.77 19.36, 5.26 19.11, 4.78 18.82 C4.3 18.53, 3.84 18.18, 3.42 17.81 C2.99 17.43, 2.59 17.01, 2.24 16.57 C1.88 16.12, 1.56 15.63, 1.28 15.13 C1 14.62, 0.77 14.08, 0.58 13.53 C0.39 12.98, 0.24 12.41, 0.15 11.83 C0.05 11.26, 0 10.67, 0 10.08 C0 9.5, 0.05 8.91, 0.15 8.33 C0.24 7.76, 0.39 7.18, 0.58 6.64 C0.77 6.09, 1 5.55, 1.28 5.04 C1.56 4.54, 1.88 4.05, 2.24 3.6 C2.59 3.15, 2.99 2.73, 3.42 2.36 C3.84 1.98, 4.3 1.64, 4.78 1.35 C5.26 1.06, 5.77 0.81, 6.29 0.61 C6.81 0.41, 7.36 0.25, 7.9 0.15 C8.45 0.05, 9.01 0, 9.57 0 C10.12 0, 10.68 0.05, 11.23 0.15 C11.77 0.25, 12.32 0.41, 12.84 0.61 C13.36 0.81, 13.87 1.06, 14.35 1.35 C14.83 1.64, 15.29 1.98, 15.71 2.36 C16.14 2.73, 16.54 3.15, 16.89 3.6 C17.25 4.05, 17.57 4.54, 17.85 5.04 C18.13 5.55, 18.36 6.09, 18.55 6.64 C18.74 7.18, 18.89 7.76, 18.99 8.33 C19.08 8.91, 19.11 9.79, 19.13 10.08 C19.16 10.38, 19.16 9.79, 19.13 10.08" stroke="transparent" stroke-width="2" fill="none"></path></g><g stroke-linecap="round" transform="translate(9.891786028247225 20.166452349065366) rotate(344.99999999999994 9.825362642309983 8.06027253872071)"><path d="M19.65 8.06 C19.65 8.53, 19.6 9, 19.5 9.46 C19.4 9.92, 19.25 10.38, 19.06 10.82 C18.86 11.26, 18.62 11.69, 18.33 12.09 C18.05 12.49, 17.72 12.88, 17.35 13.24 C16.99 13.6, 16.58 13.93, 16.14 14.23 C15.71 14.53, 15.23 14.81, 14.74 15.04 C14.25 15.27, 13.72 15.47, 13.19 15.63 C12.65 15.79, 12.09 15.92, 11.53 16 C10.97 16.08, 10.39 16.12, 9.83 16.12 C9.26 16.12, 8.68 16.08, 8.12 16 C7.56 15.92, 7 15.79, 6.46 15.63 C5.93 15.47, 5.41 15.27, 4.91 15.04 C4.42 14.81, 3.95 14.53, 3.51 14.23 C3.07 13.93, 2.66 13.6, 2.3 13.24 C1.93 12.88, 1.6 12.49, 1.32 12.09 C1.03 11.69, 0.79 11.26, 0.59 10.82 C0.4 10.38, 0.25 9.92, 0.15 9.46 C0.05 9, 0 8.53, 0 8.06 C0 7.59, 0.05 7.12, 0.15 6.66 C0.25 6.2, 0.4 5.74, 0.59 5.3 C0.79 4.87, 1.03 4.43, 1.32 4.03 C1.6 3.63, 1.93 3.24, 2.3 2.88 C2.66 2.52, 3.07 2.19, 3.51 1.89 C3.95 1.59, 4.42 1.31, 4.91 1.08 C5.41 0.85, 5.93 0.65, 6.46 0.49 C7 0.33, 7.56 0.2, 8.12 0.12 C8.68 0.04, 9.26 0, 9.83 0 C10.39 0, 10.97 0.04, 11.53 0.12 C12.09 0.2, 12.65 0.33, 13.19 0.49 C13.72 0.65, 14.25 0.85, 14.74 1.08 C15.23 1.31, 15.71 1.59, 16.14 1.89 C16.58 2.19, 16.99 2.52, 17.35 2.88 C17.72 3.24, 18.05 3.63, 18.33 4.03 C18.62 4.43, 18.86 4.87, 19.06 5.3 C19.25 5.74, 19.4 6.2, 19.5 6.66 C19.6 7.12, 19.63 7.83, 19.65 8.06 C19.68 8.29, 19.68 7.83, 19.65 8.06" stroke="none" stroke-width="0" fill="#343a40"></path><path d="M19.65 8.06 C19.65 8.53, 19.6 9, 19.5 9.46 C19.4 9.92, 19.25 10.38, 19.06 10.82 C18.86 11.26, 18.62 11.69, 18.33 12.09 C18.05 12.49, 17.72 12.88, 17.35 13.24 C16.99 13.6, 16.58 13.93, 16.14 14.23 C15.71 14.53, 15.23 14.81, 14.74 15.04 C14.25 15.27, 13.72 15.47, 13.19 15.63 C12.65 15.79, 12.09 15.92, 11.53 16 C10.97 16.08, 10.39 16.12, 9.83 16.12 C9.26 16.12, 8.68 16.08, 8.12 16 C7.56 15.92, 7 15.79, 6.46 15.63 C5.93 15.47, 5.41 15.27, 4.91 15.04 C4.42 14.81, 3.95 14.53, 3.51 14.23 C3.07 13.93, 2.66 13.6, 2.3 13.24 C1.93 12.88, 1.6 12.49, 1.32 12.09 C1.03 11.69, 0.79 11.26, 0.59 10.82 C0.4 10.38, 0.25 9.92, 0.15 9.46 C0.05 9, 0 8.53, 0 8.06 C0 7.59, 0.05 7.12, 0.15 6.66 C0.25 6.2, 0.4 5.74, 0.59 5.3 C0.79 4.87, 1.03 4.43, 1.32 4.03 C1.6 3.63, 1.93 3.24, 2.3 2.88 C2.66 2.52, 3.07 2.19, 3.51 1.89 C3.95 1.59, 4.42 1.31, 4.91 1.08 C5.41 0.85, 5.93 0.65, 6.46 0.49 C7 0.33, 7.56 0.2, 8.12 0.12 C8.68 0.04, 9.26 0, 9.83 0 C10.39 0, 10.97 0.04, 11.53 0.12 C12.09 0.2, 12.65 0.33, 13.19 0.49 C13.72 0.65, 14.25 0.85, 14.74 1.08 C15.23 1.31, 15.71 1.59, 16.14 1.89 C16.58 2.19, 16.99 2.52, 17.35 2.88 C17.72 3.24, 18.05 3.63, 18.33 4.03 C18.62 4.43, 18.86 4.87, 19.06 5.3 C19.25 5.74, 19.4 6.2, 19.5 6.66 C19.6 7.12, 19.63 7.83, 19.65 8.06 C19.68 8.29, 19.68 7.83, 19.65 8.06" stroke="transparent" stroke-width="2" fill="none"></path></g><g stroke-linecap="round" transform="translate(28.983870850395306 43.97965742141059) rotate(344.99999999999994 6.575826351656815 16.27209057640357)"><path d="M3.29 0 C5.63 0, 7.97 0, 9.86 0 C12.06 0, 13.15 1.1, 13.15 3.29 C13.15 10.54, 13.15 17.79, 13.15 29.26 C13.15 31.45, 12.06 32.54, 9.86 32.54 C7.98 32.54, 6.1 32.54, 3.29 32.54 C1.1 32.54, 0 31.45, 0 29.26 C0 22.63, 0 16.01, 0 3.29 C0 1.1, 1.1 0, 3.29 0" stroke="none" stroke-width="0" fill="#ced4da"></path><path d="M3.29 0 C5.04 0, 6.79 0, 9.86 0 M3.29 0 C5.8 0, 8.3 0, 9.86 0 M9.86 0 C12.06 0, 13.15 1.1, 13.15 3.29 M9.86 0 C12.06 0, 13.15 1.1, 13.15 3.29 M13.15 3.29 C13.15 10.88, 13.15 18.46, 13.15 29.26 M13.15 3.29 C13.15 10.92, 13.15 18.55, 13.15 29.26 M13.15 29.26 C13.15 31.45, 12.06 32.54, 9.86 32.54 M13.15 29.26 C13.15 31.45, 12.06 32.54, 9.86 32.54 M9.86 32.54 C8.26 32.54, 6.65 32.54, 3.29 32.54 M9.86 32.54 C8.14 32.54, 6.42 32.54, 3.29 32.54 M3.29 32.54 C1.1 32.54, 0 31.45, 0 29.26 M3.29 32.54 C1.1 32.54, 0 31.45, 0 29.26 M0 29.26 C0 23.75, 0 18.24, 0 3.29 M0 29.26 C0 20.15, 0 11.05, 0 3.29 M0 3.29 C0 1.1, 1.1 0, 3.29 0 M0 3.29 C0 1.1, 1.1 0, 3.29 0" stroke="transparent" stroke-width="2" fill="none"></path></g><g stroke-linecap="round" transform="translate(30.08050085252853 46.19900202239478) rotate(344.99999999999994 4.653961563355324 14.35433419735)"><path d="M2.33 0 C4.08 0, 5.83 0, 6.98 0 C8.53 0, 9.31 0.78, 9.31 2.33 C9.31 9.05, 9.31 15.77, 9.31 26.38 C9.31 27.93, 8.53 28.71, 6.98 28.71 C5.86 28.71, 4.73 28.71, 2.33 28.71 C0.78 28.71, 0 27.93, 0 26.38 C0 17.66, 0 8.94, 0 2.33 C0 0.78, 0.78 0, 2.33 0" stroke="none" stroke-width="0" fill="#868e96"></path><path d="M2.33 0 C3.98 0, 5.64 0, 6.98 0 M2.33 0 C4.12 0, 5.92 0, 6.98 0 M6.98 0 C8.53 0, 9.31 0.78, 9.31 2.33 M6.98 0 C8.53 0, 9.31 0.78, 9.31 2.33 M9.31 2.33 C9.31 8.44, 9.31 14.56, 9.31 26.38 M9.31 2.33 C9.31 9.62, 9.31 16.91, 9.31 26.38 M9.31 26.38 C9.31 27.93, 8.53 28.71, 6.98 28.71 M9.31 26.38 C9.31 27.93, 8.53 28.71, 6.98 28.71 M6.98 28.71 C5.5 28.71, 4.01 28.71, 2.33 28.71 M6.98 28.71 C5.33 28.71, 3.69 28.71, 2.33 28.71 M2.33 28.71 C0.78 28.71, 0 27.93, 0 26.38 M2.33 28.71 C0.78 28.71, 0 27.93, 0 26.38 M0 26.38 C0 17.26, 0 8.13, 0 2.33 M0 26.38 C0 19.18, 0 11.97, 0 2.33 M0 2.33 C0 0.78, 0.78 0, 2.33 0 M0 2.33 C0 0.78, 0.78 0, 2.33 0" stroke="transparent" stroke-width="2" fill="none"></path></g><g stroke-linecap="round" transform="translate(56.2109082373745 13.666716736517628) rotate(0 24.194461102360492 19.175639753808355)"><path d="M48.39 19.18 C48.39 20.29, 48.26 21.41, 48.02 22.51 C47.78 23.6, 47.41 24.69, 46.93 25.73 C46.45 26.78, 45.85 27.8, 45.15 28.76 C44.45 29.72, 43.63 30.65, 42.73 31.5 C41.83 32.35, 40.82 33.15, 39.75 33.87 C38.67 34.58, 37.5 35.23, 36.29 35.78 C35.08 36.34, 33.79 36.82, 32.47 37.19 C31.15 37.57, 29.77 37.87, 28.4 38.06 C27.02 38.25, 25.59 38.35, 24.19 38.35 C22.79 38.35, 21.37 38.25, 19.99 38.06 C18.61 37.87, 17.24 37.57, 15.92 37.19 C14.6 36.82, 13.31 36.34, 12.1 35.78 C10.88 35.23, 9.72 34.58, 8.64 33.87 C7.57 33.15, 6.56 32.35, 5.66 31.5 C4.76 30.65, 3.94 29.72, 3.24 28.76 C2.54 27.8, 1.94 26.78, 1.46 25.73 C0.98 24.69, 0.61 23.6, 0.37 22.51 C0.12 21.41, 0 20.29, 0 19.18 C0 18.07, 0.12 16.94, 0.37 15.85 C0.61 14.75, 0.98 13.66, 1.46 12.62 C1.94 11.57, 2.54 10.55, 3.24 9.59 C3.94 8.63, 4.76 7.7, 5.66 6.85 C6.56 6, 7.57 5.2, 8.64 4.49 C9.72 3.77, 10.88 3.12, 12.1 2.57 C13.31 2.01, 14.6 1.54, 15.92 1.16 C17.24 0.78, 18.61 0.48, 19.99 0.29 C21.37 0.1, 22.79 0, 24.19 0 C25.59 0, 27.02 0.1, 28.4 0.29 C29.77 0.48, 31.15 0.78, 32.47 1.16 C33.79 1.54, 35.08 2.01, 36.29 2.57 C37.5 3.12, 38.67 3.77, 39.75 4.49 C40.82 5.2, 41.83 6, 42.73 6.85 C43.63 7.7, 44.45 8.63, 45.15 9.59 C45.85 10.55, 46.45 11.57, 46.93 12.62 C47.41 13.66, 47.78 14.75, 48.02 15.85 C48.26 16.94, 48.33 18.62, 48.39 19.18 C48.45 19.73, 48.45 18.62, 48.39 19.18" stroke="none" stroke-width="0" fill="#ffd43b"></path><path d="M48.39 19.18 C48.39 20.29, 48.26 21.41, 48.02 22.51 C47.78 23.6, 47.41 24.69, 46.93 25.73 C46.45 26.78, 45.85 27.8, 45.15 28.76 C44.45 29.72, 43.63 30.65, 42.73 31.5 C41.83 32.35, 40.82 33.15, 39.75 33.87 C38.67 34.58, 37.5 35.23, 36.29 35.78 C35.08 36.34, 33.79 36.82, 32.47 37.19 C31.15 37.57, 29.77 37.87, 28.4 38.06 C27.02 38.25, 25.59 38.35, 24.19 38.35 C22.79 38.35, 21.37 38.25, 19.99 38.06 C18.61 37.87, 17.24 37.57, 15.92 37.19 C14.6 36.82, 13.31 36.34, 12.1 35.78 C10.88 35.23, 9.72 34.58, 8.64 33.87 C7.57 33.15, 6.56 32.35, 5.66 31.5 C4.76 30.65, 3.94 29.72, 3.24 28.76 C2.54 27.8, 1.94 26.78, 1.46 25.73 C0.98 24.69, 0.61 23.6, 0.37 22.51 C0.12 21.41, 0 20.29, 0 19.18 C0 18.07, 0.12 16.94, 0.37 15.85 C0.61 14.75, 0.98 13.66, 1.46 12.62 C1.94 11.57, 2.54 10.55, 3.24 9.59 C3.94 8.63, 4.76 7.7, 5.66 6.85 C6.56 6, 7.57 5.2, 8.64 4.49 C9.72 3.77, 10.88 3.12, 12.1 2.57 C13.31 2.01, 14.6 1.54, 15.92 1.16 C17.24 0.78, 18.61 0.48, 19.99 0.29 C21.37 0.1, 22.79 0, 24.19 0 C25.59 0, 27.02 0.1, 28.4 0.29 C29.77 0.48, 31.15 0.78, 32.47 1.16 C33.79 1.54, 35.08 2.01, 36.29 2.57 C37.5 3.12, 38.67 3.77, 39.75 4.49 C40.82 5.2, 41.83 6, 42.73 6.85 C43.63 7.7, 44.45 8.63, 45.15 9.59 C45.85 10.55, 46.45 11.57, 46.93 12.62 C47.41 13.66, 47.78 14.75, 48.02 15.85 C48.26 16.94, 48.33 18.62, 48.39 19.18 C48.45 19.73, 48.45 18.62, 48.39 19.18" stroke="transparent" stroke-width="4" fill="none"></path></g><g stroke-linecap="round"><g transform="translate(54.2322950660332 85.49887964634036) rotate(0 26.141992090422946 -23.610618206795152)" fill-rule="evenodd"><path d="M0 0 L-4.77 -44.65 L57.05 -47.22 L52.55 -0.1 L0 0" stroke="none" stroke-width="0" fill="#343a40" fill-rule="evenodd"></path><path d="M0 0 C-1.17 -10.93, -2.33 -21.85, -4.77 -44.65 M0 0 C-1.72 -16.14, -3.45 -32.29, -4.77 -44.65 M-4.77 -44.65 C14.63 -45.45, 34.02 -46.26, 57.05 -47.22 M-4.77 -44.65 C13.04 -45.39, 30.86 -46.13, 57.05 -47.22 M57.05 -47.22 C55.48 -30.78, 53.91 -14.34, 52.55 -0.1 M57.05 -47.22 C55.33 -29.23, 53.61 -11.23, 52.55 -0.1 M52.55 -0.1 C39.43 -0.08, 26.31 -0.05, 0 0 M52.55 -0.1 C39.58 -0.08, 26.62 -0.05, 0 0 M0 0 C0 0, 0 0, 0 0 M0 0 C0 0, 0 0, 0 0" stroke="#343a40" stroke-width="4" fill="none"></path></g></g><mask></mask><g stroke-linecap="round"><g transform="translate(57.767219734609625 82.30330072469224) rotate(0 22.607066428518237 -20.417985453179426)" fill-rule="evenodd"><path d="M0 0 L-4.12 -38.61 L49.34 -40.84 L45.44 -0.09 L0 0" stroke="none" stroke-width="0" fill="#ffec99" fill-rule="evenodd"></path><path d="M0 0 C-0.92 -8.58, -1.83 -17.16, -4.12 -38.61 M0 0 C-1.36 -12.74, -2.72 -25.48, -4.12 -38.61 M-4.12 -38.61 C17.22 -39.5, 38.57 -40.39, 49.34 -40.84 M-4.12 -38.61 C12.39 -39.3, 28.9 -39.98, 49.34 -40.84 M49.34 -40.84 C47.83 -25.02, 46.31 -9.2, 45.44 -0.09 M49.34 -40.84 C47.9 -25.8, 46.46 -10.76, 45.44 -0.09 M45.44 -0.09 C36.24 -0.07, 27.05 -0.05, 0 0 M45.44 -0.09 C27.47 -0.05, 9.51 -0.02, 0 0 M0 0 C0 0, 0 0, 0 0 M0 0 C0 0, 0 0, 0 0" stroke="#ffec99" stroke-width="4" fill="none"></path></g></g><mask></mask><g stroke-linecap="round" transform="translate(45.4928217729489 32.955367573873446) rotate(0 34.922316527812654 5.621214013282042)"><path d="M2.81 0 C23.69 0, 44.56 0, 67.03 0 C68.91 0, 69.84 0.94, 69.84 2.81 C69.84 4.71, 69.84 6.62, 69.84 8.43 C69.84 10.31, 68.91 11.24, 67.03 11.24 C49.02 11.24, 31.01 11.24, 2.81 11.24 C0.94 11.24, 0 10.31, 0 8.43 C0 7.18, 0 5.93, 0 2.81 C0 0.94, 0.94 0, 2.81 0" stroke="none" stroke-width="0" fill="#343a40"></path><path d="M2.81 0 C26.48 0, 50.16 0, 67.03 0 M2.81 0 C27 0, 51.2 0, 67.03 0 M67.03 0 C68.91 0, 69.84 0.94, 69.84 2.81 M67.03 0 C68.91 0, 69.84 0.94, 69.84 2.81 M69.84 2.81 C69.84 4.62, 69.84 6.43, 69.84 8.43 M69.84 2.81 C69.84 4.86, 69.84 6.91, 69.84 8.43 M69.84 8.43 C69.84 10.31, 68.91 11.24, 67.03 11.24 M69.84 8.43 C69.84 10.31, 68.91 11.24, 67.03 11.24 M67.03 11.24 C53.92 11.24, 40.8 11.24, 2.81 11.24 M67.03 11.24 C45.21 11.24, 23.38 11.24, 2.81 11.24 M2.81 11.24 C0.94 11.24, 0 10.31, 0 8.43 M2.81 11.24 C0.94 11.24, 0 10.31, 0 8.43 M0 8.43 C0 6.73, 0 5.04, 0 2.81 M0 8.43 C0 6.23, 0 4.02, 0 2.81 M0 2.81 C0 0.94, 0.94 0, 2.81 0 M0 2.81 C0 0.94, 0.94 0, 2.81 0" stroke="transparent" stroke-width="4" fill="none"></path></g><g stroke-linecap="round" transform="translate(56.53037282364721 54.03006832805477) rotate(224.99999999999986 7.329401299497022 3.1121899749832664)"><path d="M1.56 0 C5.9 0, 10.25 0, 13.1 0 C14.14 0, 14.66 0.52, 14.66 1.56 C14.66 2.55, 14.66 3.54, 14.66 4.67 C14.66 5.71, 14.14 6.22, 13.1 6.22 C9.99 6.22, 6.88 6.22, 1.56 6.22 C0.52 6.22, 0 5.71, 0 4.67 C0 3.62, 0 2.57, 0 1.56 C0 0.52, 0.52 0, 1.56 0" stroke="none" stroke-width="0" fill="#343a40"></path><path d="M1.56 0 C5.94 0, 10.32 0, 13.1 0 M1.56 0 C3.92 0, 6.29 0, 13.1 0 M13.1 0 C14.14 0, 14.66 0.52, 14.66 1.56 M13.1 0 C14.14 0, 14.66 0.52, 14.66 1.56 M14.66 1.56 C14.66 2.64, 14.66 3.72, 14.66 4.67 M14.66 1.56 C14.66 2.73, 14.66 3.91, 14.66 4.67 M14.66 4.67 C14.66 5.71, 14.14 6.22, 13.1 6.22 M14.66 4.67 C14.66 5.71, 14.14 6.22, 13.1 6.22 M13.1 6.22 C8.82 6.22, 4.55 6.22, 1.56 6.22 M13.1 6.22 C9.7 6.22, 6.3 6.22, 1.56 6.22 M1.56 6.22 C0.52 6.22, 0 5.71, 0 4.67 M1.56 6.22 C0.52 6.22, 0 5.71, 0 4.67 M0 4.67 C0 4.03, 0 3.4, 0 1.56 M0 4.67 C0 3.79, 0 2.91, 0 1.56 M0 1.56 C0 0.52, 0.52 0, 1.56 0 M0 1.56 C0 0.52, 0.52 0, 1.56 0" stroke="transparent" stroke-width="4" fill="none"></path></g><g stroke-linecap="round" transform="translate(56.5825807290189 49.865025317980326) rotate(224.99999999999986 3.098436782172257 3.09843678217203)"><path d="M6.2 3.1 C6.2 3.28, 6.18 3.46, 6.15 3.64 C6.12 3.81, 6.07 3.99, 6.01 4.16 C5.95 4.33, 5.87 4.49, 5.78 4.65 C5.69 4.8, 5.59 4.95, 5.47 5.09 C5.36 5.23, 5.23 5.36, 5.09 5.47 C4.95 5.59, 4.8 5.69, 4.65 5.78 C4.49 5.87, 4.33 5.95, 4.16 6.01 C3.99 6.07, 3.81 6.12, 3.64 6.15 C3.46 6.18, 3.28 6.2, 3.1 6.2 C2.92 6.2, 2.74 6.18, 2.56 6.15 C2.38 6.12, 2.21 6.07, 2.04 6.01 C1.87 5.95, 1.7 5.87, 1.55 5.78 C1.39 5.69, 1.24 5.59, 1.11 5.47 C0.97 5.36, 0.84 5.23, 0.72 5.09 C0.61 4.95, 0.5 4.8, 0.42 4.65 C0.33 4.49, 0.25 4.33, 0.19 4.16 C0.13 3.99, 0.08 3.81, 0.05 3.64 C0.02 3.46, 0 3.28, 0 3.1 C0 2.92, 0.02 2.74, 0.05 2.56 C0.08 2.38, 0.13 2.21, 0.19 2.04 C0.25 1.87, 0.33 1.7, 0.42 1.55 C0.5 1.39, 0.61 1.24, 0.72 1.11 C0.84 0.97, 0.97 0.84, 1.11 0.72 C1.24 0.61, 1.39 0.5, 1.55 0.42 C1.7 0.33, 1.87 0.25, 2.04 0.19 C2.21 0.13, 2.38 0.08, 2.56 0.05 C2.74 0.02, 2.92 0, 3.1 0 C3.28 0, 3.46 0.02, 3.64 0.05 C3.81 0.08, 3.99 0.13, 4.16 0.19 C4.33 0.25, 4.49 0.33, 4.65 0.42 C4.8 0.5, 4.95 0.61, 5.09 0.72 C5.23 0.84, 5.36 0.97, 5.47 1.11 C5.59 1.24, 5.69 1.39, 5.78 1.55 C5.87 1.7, 5.95 1.87, 6.01 2.04 C6.07 2.21, 6.12 2.38, 6.15 2.56 C6.18 2.74, 6.19 3.01, 6.2 3.1 C6.2 3.19, 6.2 3.01, 6.2 3.1" stroke="none" stroke-width="0" fill="#343a40"></path><path d="M6.2 3.1 C6.2 3.28, 6.18 3.46, 6.15 3.64 C6.12 3.81, 6.07 3.99, 6.01 4.16 C5.95 4.33, 5.87 4.49, 5.78 4.65 C5.69 4.8, 5.59 4.95, 5.47 5.09 C5.36 5.23, 5.23 5.36, 5.09 5.47 C4.95 5.59, 4.8 5.69, 4.65 5.78 C4.49 5.87, 4.33 5.95, 4.16 6.01 C3.99 6.07, 3.81 6.12, 3.64 6.15 C3.46 6.18, 3.28 6.2, 3.1 6.2 C2.92 6.2, 2.74 6.18, 2.56 6.15 C2.38 6.12, 2.21 6.07, 2.04 6.01 C1.87 5.95, 1.7 5.87, 1.55 5.78 C1.39 5.69, 1.24 5.59, 1.11 5.47 C0.97 5.36, 0.84 5.23, 0.72 5.09 C0.61 4.95, 0.5 4.8, 0.42 4.65 C0.33 4.49, 0.25 4.33, 0.19 4.16 C0.13 3.99, 0.08 3.81, 0.05 3.64 C0.02 3.46, 0 3.28, 0 3.1 C0 2.92, 0.02 2.74, 0.05 2.56 C0.08 2.38, 0.13 2.21, 0.19 2.04 C0.25 1.87, 0.33 1.7, 0.42 1.55 C0.5 1.39, 0.61 1.24, 0.72 1.11 C0.84 0.97, 0.97 0.84, 1.11 0.72 C1.24 0.61, 1.39 0.5, 1.55 0.42 C1.7 0.33, 1.87 0.25, 2.04 0.19 C2.21 0.13, 2.38 0.08, 2.56 0.05 C2.74 0.02, 2.92 0, 3.1 0 C3.28 0, 3.46 0.02, 3.64 0.05 C3.81 0.08, 3.99 0.13, 4.16 0.19 C4.33 0.25, 4.49 0.33, 4.65 0.42 C4.8 0.5, 4.95 0.61, 5.09 0.72 C5.23 0.84, 5.36 0.97, 5.47 1.11 C5.59 1.24, 5.69 1.39, 5.78 1.55 C5.87 1.7, 5.95 1.87, 6.01 2.04 C6.07 2.21, 6.12 2.38, 6.15 2.56 C6.18 2.74, 6.19 3.01, 6.2 3.1 C6.2 3.19, 6.2 3.01, 6.2 3.1" stroke="transparent" stroke-width="2" fill="none"></path></g><g stroke-linecap="round" transform="translate(61.99372788007577 62.21713300992997) rotate(0 5.0680889246878 5.0680889246878)"><path d="M10.14 5.07 C10.14 5.36, 10.11 5.66, 10.06 5.95 C10.01 6.24, 9.93 6.53, 9.83 6.8 C9.73 7.08, 9.6 7.35, 9.46 7.6 C9.31 7.86, 9.14 8.1, 8.95 8.33 C8.76 8.55, 8.55 8.76, 8.33 8.95 C8.1 9.14, 7.86 9.31, 7.6 9.46 C7.35 9.6, 7.08 9.73, 6.8 9.83 C6.53 9.93, 6.24 10.01, 5.95 10.06 C5.66 10.11, 5.36 10.14, 5.07 10.14 C4.77 10.14, 4.48 10.11, 4.19 10.06 C3.9 10.01, 3.61 9.93, 3.33 9.83 C3.06 9.73, 2.79 9.6, 2.53 9.46 C2.28 9.31, 2.04 9.14, 1.81 8.95 C1.59 8.76, 1.37 8.55, 1.19 8.33 C1 8.1, 0.83 7.86, 0.68 7.6 C0.53 7.35, 0.41 7.08, 0.31 6.8 C0.21 6.53, 0.13 6.24, 0.08 5.95 C0.03 5.66, 0 5.36, 0 5.07 C0 4.77, 0.03 4.48, 0.08 4.19 C0.13 3.9, 0.21 3.61, 0.31 3.33 C0.41 3.06, 0.53 2.79, 0.68 2.53 C0.83 2.28, 1 2.04, 1.19 1.81 C1.37 1.59, 1.59 1.37, 1.81 1.19 C2.04 1, 2.28 0.83, 2.53 0.68 C2.79 0.53, 3.06 0.41, 3.33 0.31 C3.61 0.21, 3.9 0.13, 4.19 0.08 C4.48 0.03, 4.77 0, 5.07 0 C5.36 0, 5.66 0.03, 5.95 0.08 C6.24 0.13, 6.53 0.21, 6.8 0.31 C7.08 0.41, 7.35 0.53, 7.6 0.68 C7.86 0.83, 8.1 1, 8.33 1.19 C8.55 1.37, 8.76 1.59, 8.95 1.81 C9.14 2.04, 9.31 2.28, 9.46 2.53 C9.6 2.79, 9.73 3.06, 9.83 3.33 C9.93 3.61, 10.01 3.9, 10.06 4.19 C10.11 4.48, 10.12 4.92, 10.14 5.07 C10.15 5.21, 10.15 4.92, 10.14 5.07" stroke="none" stroke-width="0" fill="#f783ac"></path><path d="M10.14 5.07 C10.14 5.36, 10.11 5.66, 10.06 5.95 C10.01 6.24, 9.93 6.53, 9.83 6.8 C9.73 7.08, 9.6 7.35, 9.46 7.6 C9.31 7.86, 9.14 8.1, 8.95 8.33 C8.76 8.55, 8.55 8.76, 8.33 8.95 C8.1 9.14, 7.86 9.31, 7.6 9.46 C7.35 9.6, 7.08 9.73, 6.8 9.83 C6.53 9.93, 6.24 10.01, 5.95 10.06 C5.66 10.11, 5.36 10.14, 5.07 10.14 C4.77 10.14, 4.48 10.11, 4.19 10.06 C3.9 10.01, 3.61 9.93, 3.33 9.83 C3.06 9.73, 2.79 9.6, 2.53 9.46 C2.28 9.31, 2.04 9.14, 1.81 8.95 C1.59 8.76, 1.37 8.55, 1.19 8.33 C1 8.1, 0.83 7.86, 0.68 7.6 C0.53 7.35, 0.41 7.08, 0.31 6.8 C0.21 6.53, 0.13 6.24, 0.08 5.95 C0.03 5.66, 0 5.36, 0 5.07 C0 4.77, 0.03 4.48, 0.08 4.19 C0.13 3.9, 0.21 3.61, 0.31 3.33 C0.41 3.06, 0.53 2.79, 0.68 2.53 C0.83 2.28, 1 2.04, 1.19 1.81 C1.37 1.59, 1.59 1.37, 1.81 1.19 C2.04 1, 2.28 0.83, 2.53 0.68 C2.79 0.53, 3.06 0.41, 3.33 0.31 C3.61 0.21, 3.9 0.13, 4.19 0.08 C4.48 0.03, 4.77 0, 5.07 0 C5.36 0, 5.66 0.03, 5.95 0.08 C6.24 0.13, 6.53 0.21, 6.8 0.31 C7.08 0.41, 7.35 0.53, 7.6 0.68 C7.86 0.83, 8.1 1, 8.33 1.19 C8.55 1.37, 8.76 1.59, 8.95 1.81 C9.14 2.04, 9.31 2.28, 9.46 2.53 C9.6 2.79, 9.73 3.06, 9.83 3.33 C9.93 3.61, 10.01 3.9, 10.06 4.19 C10.11 4.48, 10.12 4.92, 10.14 5.07 C10.15 5.21, 10.15 4.92, 10.14 5.07" stroke="transparent" stroke-width="2" fill="none"></path></g><g stroke-linecap="round" transform="translate(60.13987775160467 52.75157027656678) rotate(269.9999999999999 6.974929731991097 7.768276566166605)"><path d="M3.49 0 C6.1 0, 8.72 0, 10.46 0 C12.79 0, 13.95 1.16, 13.95 3.49 C13.95 6.74, 13.95 9.99, 13.95 12.05 C13.95 14.37, 12.79 15.54, 10.46 15.54 C8.49 15.54, 6.51 15.54, 3.49 15.54 C1.16 15.54, 0 14.37, 0 12.05 C0 8.8, 0 5.56, 0 3.49 C0 1.16, 1.16 0, 3.49 0" stroke="none" stroke-width="0" fill="#343a40"></path><path d="M3.49 0 C5.02 0, 6.55 0, 10.46 0 M3.49 0 C5.16 0, 6.84 0, 10.46 0 M10.46 0 C12.79 0, 13.95 1.16, 13.95 3.49 M10.46 0 C12.79 0, 13.95 1.16, 13.95 3.49 M13.95 3.49 C13.95 6.07, 13.95 8.66, 13.95 12.05 M13.95 3.49 C13.95 6.77, 13.95 10.06, 13.95 12.05 M13.95 12.05 C13.95 14.37, 12.79 15.54, 10.46 15.54 M13.95 12.05 C13.95 14.37, 12.79 15.54, 10.46 15.54 M10.46 15.54 C8.15 15.54, 5.84 15.54, 3.49 15.54 M10.46 15.54 C8.88 15.54, 7.3 15.54, 3.49 15.54 M3.49 15.54 C1.16 15.54, 0 14.37, 0 12.05 M3.49 15.54 C1.16 15.54, 0 14.37, 0 12.05 M0 12.05 C0 8.63, 0 5.22, 0 3.49 M0 12.05 C0 9.12, 0 6.19, 0 3.49 M0 3.49 C0 1.16, 1.16 0, 3.49 0 M0 3.49 C0 1.16, 1.16 0, 3.49 0" stroke="transparent" stroke-width="4" fill="none"></path></g><g stroke-linecap="round" transform="translate(59.38092987100799 49.35470254151369) rotate(269.9999999999999 7.733947490409491 7.733947490409264)"><path d="M15.47 7.73 C15.47 8.18, 15.43 8.64, 15.35 9.08 C15.27 9.52, 15.15 9.96, 15 10.38 C14.85 10.8, 14.66 11.21, 14.43 11.6 C14.21 11.99, 13.95 12.36, 13.66 12.71 C13.37 13.05, 13.05 13.37, 12.71 13.66 C12.36 13.95, 11.99 14.21, 11.6 14.43 C11.21 14.66, 10.8 14.85, 10.38 15 C9.96 15.15, 9.52 15.27, 9.08 15.35 C8.64 15.43, 8.18 15.47, 7.73 15.47 C7.29 15.47, 6.83 15.43, 6.39 15.35 C5.95 15.27, 5.51 15.15, 5.09 15 C4.67 14.85, 4.25 14.66, 3.87 14.43 C3.48 14.21, 3.11 13.95, 2.76 13.66 C2.42 13.37, 2.1 13.05, 1.81 12.71 C1.52 12.36, 1.26 11.99, 1.04 11.6 C0.81 11.21, 0.62 10.8, 0.47 10.38 C0.31 9.96, 0.2 9.52, 0.12 9.08 C0.04 8.64, 0 8.18, 0 7.73 C0 7.29, 0.04 6.83, 0.12 6.39 C0.2 5.95, 0.31 5.51, 0.47 5.09 C0.62 4.67, 0.81 4.25, 1.04 3.87 C1.26 3.48, 1.52 3.11, 1.81 2.76 C2.1 2.42, 2.42 2.1, 2.76 1.81 C3.11 1.52, 3.48 1.26, 3.87 1.04 C4.25 0.81, 4.67 0.62, 5.09 0.47 C5.51 0.31, 5.95 0.2, 6.39 0.12 C6.83 0.04, 7.29 0, 7.73 0 C8.18 0, 8.64 0.04, 9.08 0.12 C9.52 0.2, 9.96 0.31, 10.38 0.47 C10.8 0.62, 11.21 0.81, 11.6 1.04 C11.99 1.26, 12.36 1.52, 12.71 1.81 C13.05 2.1, 13.37 2.42, 13.66 2.76 C13.95 3.11, 14.21 3.48, 14.43 3.87 C14.66 4.25, 14.85 4.67, 15 5.09 C15.15 5.51, 15.27 5.95, 15.35 6.39 C15.43 6.83, 15.45 7.51, 15.47 7.73 C15.49 7.96, 15.49 7.51, 15.47 7.73" stroke="none" stroke-width="0" fill="#343a40"></path><path d="M15.47 7.73 C15.47 8.18, 15.43 8.64, 15.35 9.08 C15.27 9.52, 15.15 9.96, 15 10.38 C14.85 10.8, 14.66 11.21, 14.43 11.6 C14.21 11.99, 13.95 12.36, 13.66 12.71 C13.37 13.05, 13.05 13.37, 12.71 13.66 C12.36 13.95, 11.99 14.21, 11.6 14.43 C11.21 14.66, 10.8 14.85, 10.38 15 C9.96 15.15, 9.52 15.27, 9.08 15.35 C8.64 15.43, 8.18 15.47, 7.73 15.47 C7.29 15.47, 6.83 15.43, 6.39 15.35 C5.95 15.27, 5.51 15.15, 5.09 15 C4.67 14.85, 4.25 14.66, 3.87 14.43 C3.48 14.21, 3.11 13.95, 2.76 13.66 C2.42 13.37, 2.1 13.05, 1.81 12.71 C1.52 12.36, 1.26 11.99, 1.04 11.6 C0.81 11.21, 0.62 10.8, 0.47 10.38 C0.31 9.96, 0.2 9.52, 0.12 9.08 C0.04 8.64, 0 8.18, 0 7.73 C0 7.29, 0.04 6.83, 0.12 6.39 C0.2 5.95, 0.31 5.51, 0.47 5.09 C0.62 4.67, 0.81 4.25, 1.04 3.87 C1.26 3.48, 1.52 3.11, 1.81 2.76 C2.1 2.42, 2.42 2.1, 2.76 1.81 C3.11 1.52, 3.48 1.26, 3.87 1.04 C4.25 0.81, 4.67 0.62, 5.09 0.47 C5.51 0.31, 5.95 0.2, 6.39 0.12 C6.83 0.04, 7.29 0, 7.73 0 C8.18 0, 8.64 0.04, 9.08 0.12 C9.52 0.2, 9.96 0.31, 10.38 0.47 C10.8 0.62, 11.21 0.81, 11.6 1.04 C11.99 1.26, 12.36 1.52, 12.71 1.81 C13.05 2.1, 13.37 2.42, 13.66 2.76 C13.95 3.11, 14.21 3.48, 14.43 3.87 C14.66 4.25, 14.85 4.67, 15 5.09 C15.15 5.51, 15.27 5.95, 15.35 6.39 C15.43 6.83, 15.45 7.51, 15.47 7.73 C15.49 7.96, 15.49 7.51, 15.47 7.73" stroke="transparent" stroke-width="2" fill="none"></path></g><g stroke-linecap="round" transform="translate(64.35684182238992 56.42790292631253) rotate(0 2.7389095661287683 2.738909566129223)"><path d="M5.48 2.74 C5.48 2.9, 5.46 3.06, 5.44 3.21 C5.41 3.37, 5.37 3.53, 5.31 3.68 C5.26 3.82, 5.19 3.97, 5.11 4.11 C5.03 4.25, 4.94 4.38, 4.84 4.5 C4.74 4.62, 4.62 4.74, 4.5 4.84 C4.38 4.94, 4.25 5.03, 4.11 5.11 C3.97 5.19, 3.82 5.26, 3.68 5.31 C3.53 5.37, 3.37 5.41, 3.21 5.44 C3.06 5.46, 2.9 5.48, 2.74 5.48 C2.58 5.48, 2.42 5.46, 2.26 5.44 C2.11 5.41, 1.95 5.37, 1.8 5.31 C1.65 5.26, 1.51 5.19, 1.37 5.11 C1.23 5.03, 1.1 4.94, 0.98 4.84 C0.86 4.74, 0.74 4.62, 0.64 4.5 C0.54 4.38, 0.45 4.25, 0.37 4.11 C0.29 3.97, 0.22 3.82, 0.17 3.68 C0.11 3.53, 0.07 3.37, 0.04 3.21 C0.01 3.06, 0 2.9, 0 2.74 C0 2.58, 0.01 2.42, 0.04 2.26 C0.07 2.11, 0.11 1.95, 0.17 1.8 C0.22 1.65, 0.29 1.51, 0.37 1.37 C0.45 1.23, 0.54 1.1, 0.64 0.98 C0.74 0.86, 0.86 0.74, 0.98 0.64 C1.1 0.54, 1.23 0.45, 1.37 0.37 C1.51 0.29, 1.65 0.22, 1.8 0.17 C1.95 0.11, 2.11 0.07, 2.26 0.04 C2.42 0.01, 2.58 0, 2.74 0 C2.9 0, 3.06 0.01, 3.21 0.04 C3.37 0.07, 3.53 0.11, 3.68 0.17 C3.82 0.22, 3.97 0.29, 4.11 0.37 C4.25 0.45, 4.38 0.54, 4.5 0.64 C4.62 0.74, 4.74 0.86, 4.84 0.98 C4.94 1.1, 5.03 1.23, 5.11 1.37 C5.19 1.51, 5.26 1.65, 5.31 1.8 C5.37 1.95, 5.41 2.11, 5.44 2.26 C5.46 2.42, 5.47 2.66, 5.48 2.74 C5.48 2.82, 5.48 2.66, 5.48 2.74" stroke="none" stroke-width="0" fill="#ffffff"></path><path d="M5.48 2.74 C5.48 2.9, 5.46 3.06, 5.44 3.21 C5.41 3.37, 5.37 3.53, 5.31 3.68 C5.26 3.82, 5.19 3.97, 5.11 4.11 C5.03 4.25, 4.94 4.38, 4.84 4.5 C4.74 4.62, 4.62 4.74, 4.5 4.84 C4.38 4.94, 4.25 5.03, 4.11 5.11 C3.97 5.19, 3.82 5.26, 3.68 5.31 C3.53 5.37, 3.37 5.41, 3.21 5.44 C3.06 5.46, 2.9 5.48, 2.74 5.48 C2.58 5.48, 2.42 5.46, 2.26 5.44 C2.11 5.41, 1.95 5.37, 1.8 5.31 C1.65 5.26, 1.51 5.19, 1.37 5.11 C1.23 5.03, 1.1 4.94, 0.98 4.84 C0.86 4.74, 0.74 4.62, 0.64 4.5 C0.54 4.38, 0.45 4.25, 0.37 4.11 C0.29 3.97, 0.22 3.82, 0.17 3.68 C0.11 3.53, 0.07 3.37, 0.04 3.21 C0.01 3.06, 0 2.9, 0 2.74 C0 2.58, 0.01 2.42, 0.04 2.26 C0.07 2.11, 0.11 1.95, 0.17 1.8 C0.22 1.65, 0.29 1.51, 0.37 1.37 C0.45 1.23, 0.54 1.1, 0.64 0.98 C0.74 0.86, 0.86 0.74, 0.98 0.64 C1.1 0.54, 1.23 0.45, 1.37 0.37 C1.51 0.29, 1.65 0.22, 1.8 0.17 C1.95 0.11, 2.11 0.07, 2.26 0.04 C2.42 0.01, 2.58 0, 2.74 0 C2.9 0, 3.06 0.01, 3.21 0.04 C3.37 0.07, 3.53 0.11, 3.68 0.17 C3.82 0.22, 3.97 0.29, 4.11 0.37 C4.25 0.45, 4.38 0.54, 4.5 0.64 C4.62 0.74, 4.74 0.86, 4.84 0.98 C4.94 1.1, 5.03 1.23, 5.11 1.37 C5.19 1.51, 5.26 1.65, 5.31 1.8 C5.37 1.95, 5.41 2.11, 5.44 2.26 C5.46 2.42, 5.47 2.66, 5.48 2.74 C5.48 2.82, 5.48 2.66, 5.48 2.74" stroke="transparent" stroke-width="2" fill="none"></path></g><g stroke-linecap="round" transform="translate(64.34670493261956 58.09983298655425) rotate(0 2.749046455899361 3.7676550891465013)"><path d="M1.37 0 C2.15 0, 2.93 0, 4.12 0 C5.04 0, 5.5 0.46, 5.5 1.37 C5.5 3.13, 5.5 4.89, 5.5 6.16 C5.5 7.08, 5.04 7.54, 4.12 7.54 C3.11 7.54, 2.1 7.54, 1.37 7.54 C0.46 7.54, 0 7.08, 0 6.16 C0 4.5, 0 2.83, 0 1.37 C0 0.46, 0.46 0, 1.37 0" stroke="none" stroke-width="0" fill="#ffffff"></path><path d="M1.37 0 C2.47 0, 3.57 0, 4.12 0 M1.37 0 C2.22 0, 3.07 0, 4.12 0 M4.12 0 C5.04 0, 5.5 0.46, 5.5 1.37 M4.12 0 C5.04 0, 5.5 0.46, 5.5 1.37 M5.5 1.37 C5.5 2.63, 5.5 3.89, 5.5 6.16 M5.5 1.37 C5.5 2.76, 5.5 4.15, 5.5 6.16 M5.5 6.16 C5.5 7.08, 5.04 7.54, 4.12 7.54 M5.5 6.16 C5.5 7.08, 5.04 7.54, 4.12 7.54 M4.12 7.54 C3.45 7.54, 2.77 7.54, 1.37 7.54 M4.12 7.54 C3.26 7.54, 2.4 7.54, 1.37 7.54 M1.37 7.54 C0.46 7.54, 0 7.08, 0 6.16 M1.37 7.54 C0.46 7.54, 0 7.08, 0 6.16 M0 6.16 C0 4.69, 0 3.22, 0 1.37 M0 6.16 C0 5.13, 0 4.1, 0 1.37 M0 1.37 C0 0.46, 0.46 0, 1.37 0 M0 1.37 C0 0.46, 0.46 0, 1.37 0" stroke="transparent" stroke-width="4" fill="none"></path></g><g stroke-linecap="round" transform="translate(89.5934404940931 54.03006832805113) rotate(135.00000000000017 7.329401299497249 3.1121899749832664)"><path d="M1.56 0 C5.59 0, 9.62 0, 13.1 0 C14.14 0, 14.66 0.52, 14.66 1.56 C14.66 2.5, 14.66 3.44, 14.66 4.67 C14.66 5.71, 14.14 6.22, 13.1 6.22 C8.54 6.22, 3.97 6.22, 1.56 6.22 C0.52 6.22, 0 5.71, 0 4.67 C0 4.03, 0 3.4, 0 1.56 C0 0.52, 0.52 0, 1.56 0" stroke="none" stroke-width="0" fill="#343a40"></path><path d="M1.56 0 C5.75 0, 9.93 0, 13.1 0 M1.56 0 C4.44 0, 7.33 0, 13.1 0 M13.1 0 C14.14 0, 14.66 0.52, 14.66 1.56 M13.1 0 C14.14 0, 14.66 0.52, 14.66 1.56 M14.66 1.56 C14.66 2.29, 14.66 3.03, 14.66 4.67 M14.66 1.56 C14.66 2.66, 14.66 3.77, 14.66 4.67 M14.66 4.67 C14.66 5.71, 14.14 6.22, 13.1 6.22 M14.66 4.67 C14.66 5.71, 14.14 6.22, 13.1 6.22 M13.1 6.22 C9.45 6.22, 5.81 6.22, 1.56 6.22 M13.1 6.22 C9.83 6.22, 6.56 6.22, 1.56 6.22 M1.56 6.22 C0.52 6.22, 0 5.71, 0 4.67 M1.56 6.22 C0.52 6.22, 0 5.71, 0 4.67 M0 4.67 C0 3.46, 0 2.26, 0 1.56 M0 4.67 C0 3.68, 0 2.7, 0 1.56 M0 1.56 C0 0.52, 0.52 0, 1.56 0 M0 1.56 C0 0.52, 0.52 0, 1.56 0" stroke="transparent" stroke-width="4" fill="none"></path></g><g stroke-linecap="round" transform="translate(98.00316162337049 49.865025317980326) rotate(135.00000000000017 3.0984367821724845 3.09843678217203)"><path d="M6.2 3.1 C6.2 3.28, 6.18 3.46, 6.15 3.64 C6.12 3.81, 6.07 3.99, 6.01 4.16 C5.95 4.33, 5.87 4.49, 5.78 4.65 C5.69 4.8, 5.59 4.95, 5.47 5.09 C5.36 5.23, 5.23 5.36, 5.09 5.47 C4.95 5.59, 4.8 5.69, 4.65 5.78 C4.49 5.87, 4.33 5.95, 4.16 6.01 C3.99 6.07, 3.81 6.12, 3.64 6.15 C3.46 6.18, 3.28 6.2, 3.1 6.2 C2.92 6.2, 2.74 6.18, 2.56 6.15 C2.38 6.12, 2.21 6.07, 2.04 6.01 C1.87 5.95, 1.7 5.87, 1.55 5.78 C1.39 5.69, 1.24 5.59, 1.11 5.47 C0.97 5.36, 0.84 5.23, 0.72 5.09 C0.61 4.95, 0.5 4.8, 0.42 4.65 C0.33 4.49, 0.25 4.33, 0.19 4.16 C0.13 3.99, 0.08 3.81, 0.05 3.64 C0.02 3.46, 0 3.28, 0 3.1 C0 2.92, 0.02 2.74, 0.05 2.56 C0.08 2.38, 0.13 2.21, 0.19 2.04 C0.25 1.87, 0.33 1.7, 0.42 1.55 C0.5 1.39, 0.61 1.24, 0.72 1.11 C0.84 0.97, 0.97 0.84, 1.11 0.72 C1.24 0.61, 1.39 0.5, 1.55 0.42 C1.7 0.33, 1.87 0.25, 2.04 0.19 C2.21 0.13, 2.38 0.08, 2.56 0.05 C2.74 0.02, 2.92 0, 3.1 0 C3.28 0, 3.46 0.02, 3.64 0.05 C3.81 0.08, 3.99 0.13, 4.16 0.19 C4.33 0.25, 4.49 0.33, 4.65 0.42 C4.8 0.5, 4.95 0.61, 5.09 0.72 C5.23 0.84, 5.36 0.97, 5.47 1.11 C5.59 1.24, 5.69 1.39, 5.78 1.55 C5.87 1.7, 5.95 1.87, 6.01 2.04 C6.07 2.21, 6.12 2.38, 6.15 2.56 C6.18 2.74, 6.19 3.01, 6.2 3.1 C6.2 3.19, 6.2 3.01, 6.2 3.1" stroke="none" stroke-width="0" fill="#343a40"></path><path d="M6.2 3.1 C6.2 3.28, 6.18 3.46, 6.15 3.64 C6.12 3.81, 6.07 3.99, 6.01 4.16 C5.95 4.33, 5.87 4.49, 5.78 4.65 C5.69 4.8, 5.59 4.95, 5.47 5.09 C5.36 5.23, 5.23 5.36, 5.09 5.47 C4.95 5.59, 4.8 5.69, 4.65 5.78 C4.49 5.87, 4.33 5.95, 4.16 6.01 C3.99 6.07, 3.81 6.12, 3.64 6.15 C3.46 6.18, 3.28 6.2, 3.1 6.2 C2.92 6.2, 2.74 6.18, 2.56 6.15 C2.38 6.12, 2.21 6.07, 2.04 6.01 C1.87 5.95, 1.7 5.87, 1.55 5.78 C1.39 5.69, 1.24 5.59, 1.11 5.47 C0.97 5.36, 0.84 5.23, 0.72 5.09 C0.61 4.95, 0.5 4.8, 0.42 4.65 C0.33 4.49, 0.25 4.33, 0.19 4.16 C0.13 3.99, 0.08 3.81, 0.05 3.64 C0.02 3.46, 0 3.28, 0 3.1 C0 2.92, 0.02 2.74, 0.05 2.56 C0.08 2.38, 0.13 2.21, 0.19 2.04 C0.25 1.87, 0.33 1.7, 0.42 1.55 C0.5 1.39, 0.61 1.24, 0.72 1.11 C0.84 0.97, 0.97 0.84, 1.11 0.72 C1.24 0.61, 1.39 0.5, 1.55 0.42 C1.7 0.33, 1.87 0.25, 2.04 0.19 C2.21 0.13, 2.38 0.08, 2.56 0.05 C2.74 0.02, 2.92 0, 3.1 0 C3.28 0, 3.46 0.02, 3.64 0.05 C3.81 0.08, 3.99 0.13, 4.16 0.19 C4.33 0.25, 4.49 0.33, 4.65 0.42 C4.8 0.5, 4.95 0.61, 5.09 0.72 C5.23 0.84, 5.36 0.97, 5.47 1.11 C5.59 1.24, 5.69 1.39, 5.78 1.55 C5.87 1.7, 5.95 1.87, 6.01 2.04 C6.07 2.21, 6.12 2.38, 6.15 2.56 C6.18 2.74, 6.19 3.01, 6.2 3.1 C6.2 3.19, 6.2 3.01, 6.2 3.1" stroke="transparent" stroke-width="2" fill="none"></path></g><g stroke-linecap="round" transform="translate(88.65271018728208 62.21713300992997) rotate(0 5.068088924688027 5.0680889246878)"><path d="M10.14 5.07 C10.14 5.36, 10.11 5.66, 10.06 5.95 C10.01 6.24, 9.93 6.53, 9.83 6.8 C9.73 7.08, 9.6 7.35, 9.46 7.6 C9.31 7.86, 9.14 8.1, 8.95 8.33 C8.76 8.55, 8.55 8.76, 8.33 8.95 C8.1 9.14, 7.86 9.31, 7.6 9.46 C7.35 9.6, 7.08 9.73, 6.8 9.83 C6.53 9.93, 6.24 10.01, 5.95 10.06 C5.66 10.11, 5.36 10.14, 5.07 10.14 C4.77 10.14, 4.48 10.11, 4.19 10.06 C3.9 10.01, 3.61 9.93, 3.33 9.83 C3.06 9.73, 2.79 9.6, 2.53 9.46 C2.28 9.31, 2.04 9.14, 1.81 8.95 C1.59 8.76, 1.37 8.55, 1.19 8.33 C1 8.1, 0.83 7.86, 0.68 7.6 C0.53 7.35, 0.41 7.08, 0.31 6.8 C0.21 6.53, 0.13 6.24, 0.08 5.95 C0.03 5.66, 0 5.36, 0 5.07 C0 4.77, 0.03 4.48, 0.08 4.19 C0.13 3.9, 0.21 3.61, 0.31 3.33 C0.41 3.06, 0.53 2.79, 0.68 2.53 C0.83 2.28, 1 2.04, 1.19 1.81 C1.37 1.59, 1.59 1.37, 1.81 1.19 C2.04 1, 2.28 0.83, 2.53 0.68 C2.79 0.53, 3.06 0.41, 3.33 0.31 C3.61 0.21, 3.9 0.13, 4.19 0.08 C4.48 0.03, 4.77 0, 5.07 0 C5.36 0, 5.66 0.03, 5.95 0.08 C6.24 0.13, 6.53 0.21, 6.8 0.31 C7.08 0.41, 7.35 0.53, 7.6 0.68 C7.86 0.83, 8.1 1, 8.33 1.19 C8.55 1.37, 8.76 1.59, 8.95 1.81 C9.14 2.04, 9.31 2.28, 9.46 2.53 C9.6 2.79, 9.73 3.06, 9.83 3.33 C9.93 3.61, 10.01 3.9, 10.06 4.19 C10.11 4.48, 10.12 4.92, 10.14 5.07 C10.15 5.21, 10.15 4.92, 10.14 5.07" stroke="none" stroke-width="0" fill="#f783ac"></path><path d="M10.14 5.07 C10.14 5.36, 10.11 5.66, 10.06 5.95 C10.01 6.24, 9.93 6.53, 9.83 6.8 C9.73 7.08, 9.6 7.35, 9.46 7.6 C9.31 7.86, 9.14 8.1, 8.95 8.33 C8.76 8.55, 8.55 8.76, 8.33 8.95 C8.1 9.14, 7.86 9.31, 7.6 9.46 C7.35 9.6, 7.08 9.73, 6.8 9.83 C6.53 9.93, 6.24 10.01, 5.95 10.06 C5.66 10.11, 5.36 10.14, 5.07 10.14 C4.77 10.14, 4.48 10.11, 4.19 10.06 C3.9 10.01, 3.61 9.93, 3.33 9.83 C3.06 9.73, 2.79 9.6, 2.53 9.46 C2.28 9.31, 2.04 9.14, 1.81 8.95 C1.59 8.76, 1.37 8.55, 1.19 8.33 C1 8.1, 0.83 7.86, 0.68 7.6 C0.53 7.35, 0.41 7.08, 0.31 6.8 C0.21 6.53, 0.13 6.24, 0.08 5.95 C0.03 5.66, 0 5.36, 0 5.07 C0 4.77, 0.03 4.48, 0.08 4.19 C0.13 3.9, 0.21 3.61, 0.31 3.33 C0.41 3.06, 0.53 2.79, 0.68 2.53 C0.83 2.28, 1 2.04, 1.19 1.81 C1.37 1.59, 1.59 1.37, 1.81 1.19 C2.04 1, 2.28 0.83, 2.53 0.68 C2.79 0.53, 3.06 0.41, 3.33 0.31 C3.61 0.21, 3.9 0.13, 4.19 0.08 C4.48 0.03, 4.77 0, 5.07 0 C5.36 0, 5.66 0.03, 5.95 0.08 C6.24 0.13, 6.53 0.21, 6.8 0.31 C7.08 0.41, 7.35 0.53, 7.6 0.68 C7.86 0.83, 8.1 1, 8.33 1.19 C8.55 1.37, 8.76 1.59, 8.95 1.81 C9.14 2.04, 9.31 2.28, 9.46 2.53 C9.6 2.79, 9.73 3.06, 9.83 3.33 C9.93 3.61, 10.01 3.9, 10.06 4.19 C10.11 4.48, 10.12 4.92, 10.14 5.07 C10.15 5.21, 10.15 4.92, 10.14 5.07" stroke="transparent" stroke-width="2" fill="none"></path></g><g stroke-linecap="round" transform="translate(86.63809042246112 52.80635855525907) rotate(90.0000000000001 7.029718010677925 7.768276566167515)"><path d="M3.51 0 C5.22 0, 6.92 0, 10.54 0 C12.89 0, 14.06 1.17, 14.06 3.51 C14.06 5.4, 14.06 7.28, 14.06 12.02 C14.06 14.36, 12.89 15.54, 10.54 15.54 C8.54 15.54, 6.53 15.54, 3.51 15.54 C1.17 15.54, 0 14.36, 0 12.02 C0 10.22, 0 8.41, 0 3.51 C0 1.17, 1.17 0, 3.51 0" stroke="none" stroke-width="0" fill="#343a40"></path><path d="M3.51 0 C5.12 0, 6.72 0, 10.54 0 M3.51 0 C5.64 0, 7.76 0, 10.54 0 M10.54 0 C12.89 0, 14.06 1.17, 14.06 3.51 M10.54 0 C12.89 0, 14.06 1.17, 14.06 3.51 M14.06 3.51 C14.06 5.78, 14.06 8.05, 14.06 12.02 M14.06 3.51 C14.06 6.76, 14.06 10.01, 14.06 12.02 M14.06 12.02 C14.06 14.36, 12.89 15.54, 10.54 15.54 M14.06 12.02 C14.06 14.36, 12.89 15.54, 10.54 15.54 M10.54 15.54 C7.83 15.54, 5.11 15.54, 3.51 15.54 M10.54 15.54 C7.88 15.54, 5.22 15.54, 3.51 15.54 M3.51 15.54 C1.17 15.54, 0 14.36, 0 12.02 M3.51 15.54 C1.17 15.54, 0 14.36, 0 12.02 M0 12.02 C0 9.67, 0 7.32, 0 3.51 M0 12.02 C0 10.27, 0 8.52, 0 3.51 M0 3.51 C0 1.17, 1.17 0, 3.51 0 M0 3.51 C0 1.17, 1.17 0, 3.51 0" stroke="transparent" stroke-width="4" fill="none"></path></g><g stroke-linecap="round" transform="translate(85.93379106490693 49.35470254151005) rotate(90.0000000000001 7.733947490409719 7.733947490409264)"><path d="M15.47 7.73 C15.47 8.18, 15.43 8.64, 15.35 9.08 C15.27 9.52, 15.15 9.96, 15 10.38 C14.85 10.8, 14.66 11.21, 14.43 11.6 C14.21 11.99, 13.95 12.36, 13.66 12.71 C13.37 13.05, 13.05 13.37, 12.71 13.66 C12.36 13.95, 11.99 14.21, 11.6 14.43 C11.21 14.66, 10.8 14.85, 10.38 15 C9.96 15.15, 9.52 15.27, 9.08 15.35 C8.64 15.43, 8.18 15.47, 7.73 15.47 C7.29 15.47, 6.83 15.43, 6.39 15.35 C5.95 15.27, 5.51 15.15, 5.09 15 C4.67 14.85, 4.25 14.66, 3.87 14.43 C3.48 14.21, 3.11 13.95, 2.76 13.66 C2.42 13.37, 2.1 13.05, 1.81 12.71 C1.52 12.36, 1.26 11.99, 1.04 11.6 C0.81 11.21, 0.62 10.8, 0.47 10.38 C0.31 9.96, 0.2 9.52, 0.12 9.08 C0.04 8.64, 0 8.18, 0 7.73 C0 7.29, 0.04 6.83, 0.12 6.39 C0.2 5.95, 0.31 5.51, 0.47 5.09 C0.62 4.67, 0.81 4.25, 1.04 3.87 C1.26 3.48, 1.52 3.11, 1.81 2.76 C2.1 2.42, 2.42 2.1, 2.76 1.81 C3.11 1.52, 3.48 1.26, 3.87 1.04 C4.25 0.81, 4.67 0.62, 5.09 0.47 C5.51 0.31, 5.95 0.2, 6.39 0.12 C6.83 0.04, 7.29 0, 7.73 0 C8.18 0, 8.64 0.04, 9.08 0.12 C9.52 0.2, 9.96 0.31, 10.38 0.47 C10.8 0.62, 11.21 0.81, 11.6 1.04 C11.99 1.26, 12.36 1.52, 12.71 1.81 C13.05 2.1, 13.37 2.42, 13.66 2.76 C13.95 3.11, 14.21 3.48, 14.43 3.87 C14.66 4.25, 14.85 4.67, 15 5.09 C15.15 5.51, 15.27 5.95, 15.35 6.39 C15.43 6.83, 15.45 7.51, 15.47 7.73 C15.49 7.96, 15.49 7.51, 15.47 7.73" stroke="none" stroke-width="0" fill="#343a40"></path><path d="M15.47 7.73 C15.47 8.18, 15.43 8.64, 15.35 9.08 C15.27 9.52, 15.15 9.96, 15 10.38 C14.85 10.8, 14.66 11.21, 14.43 11.6 C14.21 11.99, 13.95 12.36, 13.66 12.71 C13.37 13.05, 13.05 13.37, 12.71 13.66 C12.36 13.95, 11.99 14.21, 11.6 14.43 C11.21 14.66, 10.8 14.85, 10.38 15 C9.96 15.15, 9.52 15.27, 9.08 15.35 C8.64 15.43, 8.18 15.47, 7.73 15.47 C7.29 15.47, 6.83 15.43, 6.39 15.35 C5.95 15.27, 5.51 15.15, 5.09 15 C4.67 14.85, 4.25 14.66, 3.87 14.43 C3.48 14.21, 3.11 13.95, 2.76 13.66 C2.42 13.37, 2.1 13.05, 1.81 12.71 C1.52 12.36, 1.26 11.99, 1.04 11.6 C0.81 11.21, 0.62 10.8, 0.47 10.38 C0.31 9.96, 0.2 9.52, 0.12 9.08 C0.04 8.64, 0 8.18, 0 7.73 C0 7.29, 0.04 6.83, 0.12 6.39 C0.2 5.95, 0.31 5.51, 0.47 5.09 C0.62 4.67, 0.81 4.25, 1.04 3.87 C1.26 3.48, 1.52 3.11, 1.81 2.76 C2.1 2.42, 2.42 2.1, 2.76 1.81 C3.11 1.52, 3.48 1.26, 3.87 1.04 C4.25 0.81, 4.67 0.62, 5.09 0.47 C5.51 0.31, 5.95 0.2, 6.39 0.12 C6.83 0.04, 7.29 0, 7.73 0 C8.18 0, 8.64 0.04, 9.08 0.12 C9.52 0.2, 9.96 0.31, 10.38 0.47 C10.8 0.62, 11.21 0.81, 11.6 1.04 C11.99 1.26, 12.36 1.52, 12.71 1.81 C13.05 2.1, 13.37 2.42, 13.66 2.76 C13.95 3.11, 14.21 3.48, 14.43 3.87 C14.66 4.25, 14.85 4.67, 15 5.09 C15.15 5.51, 15.27 5.95, 15.35 6.39 C15.43 6.83, 15.45 7.51, 15.47 7.73 C15.49 7.96, 15.49 7.51, 15.47 7.73" stroke="transparent" stroke-width="2" fill="none"></path></g><g stroke-linecap="round" transform="translate(90.94795496208872 56.42790292631253) rotate(0 2.7389095661289957 2.738909566129223)"><path d="M5.48 2.74 C5.48 2.9, 5.46 3.06, 5.44 3.21 C5.41 3.37, 5.37 3.53, 5.31 3.68 C5.26 3.82, 5.19 3.97, 5.11 4.11 C5.03 4.25, 4.94 4.38, 4.84 4.5 C4.74 4.62, 4.62 4.74, 4.5 4.84 C4.38 4.94, 4.25 5.03, 4.11 5.11 C3.97 5.19, 3.82 5.26, 3.68 5.31 C3.53 5.37, 3.37 5.41, 3.21 5.44 C3.06 5.46, 2.9 5.48, 2.74 5.48 C2.58 5.48, 2.42 5.46, 2.26 5.44 C2.11 5.41, 1.95 5.37, 1.8 5.31 C1.65 5.26, 1.51 5.19, 1.37 5.11 C1.23 5.03, 1.1 4.94, 0.98 4.84 C0.86 4.74, 0.74 4.62, 0.64 4.5 C0.54 4.38, 0.45 4.25, 0.37 4.11 C0.29 3.97, 0.22 3.82, 0.17 3.68 C0.11 3.53, 0.07 3.37, 0.04 3.21 C0.01 3.06, 0 2.9, 0 2.74 C0 2.58, 0.01 2.42, 0.04 2.26 C0.07 2.11, 0.11 1.95, 0.17 1.8 C0.22 1.65, 0.29 1.51, 0.37 1.37 C0.45 1.23, 0.54 1.1, 0.64 0.98 C0.74 0.86, 0.86 0.74, 0.98 0.64 C1.1 0.54, 1.23 0.45, 1.37 0.37 C1.51 0.29, 1.65 0.22, 1.8 0.17 C1.95 0.11, 2.11 0.07, 2.26 0.04 C2.42 0.01, 2.58 0, 2.74 0 C2.9 0, 3.06 0.01, 3.21 0.04 C3.37 0.07, 3.53 0.11, 3.68 0.17 C3.82 0.22, 3.97 0.29, 4.11 0.37 C4.25 0.45, 4.38 0.54, 4.5 0.64 C4.62 0.74, 4.74 0.86, 4.84 0.98 C4.94 1.1, 5.03 1.23, 5.11 1.37 C5.19 1.51, 5.26 1.65, 5.31 1.8 C5.37 1.95, 5.41 2.11, 5.44 2.26 C5.46 2.42, 5.47 2.66, 5.48 2.74 C5.48 2.82, 5.48 2.66, 5.48 2.74" stroke="none" stroke-width="0" fill="#ffffff"></path><path d="M5.48 2.74 C5.48 2.9, 5.46 3.06, 5.44 3.21 C5.41 3.37, 5.37 3.53, 5.31 3.68 C5.26 3.82, 5.19 3.97, 5.11 4.11 C5.03 4.25, 4.94 4.38, 4.84 4.5 C4.74 4.62, 4.62 4.74, 4.5 4.84 C4.38 4.94, 4.25 5.03, 4.11 5.11 C3.97 5.19, 3.82 5.26, 3.68 5.31 C3.53 5.37, 3.37 5.41, 3.21 5.44 C3.06 5.46, 2.9 5.48, 2.74 5.48 C2.58 5.48, 2.42 5.46, 2.26 5.44 C2.11 5.41, 1.95 5.37, 1.8 5.31 C1.65 5.26, 1.51 5.19, 1.37 5.11 C1.23 5.03, 1.1 4.94, 0.98 4.84 C0.86 4.74, 0.74 4.62, 0.64 4.5 C0.54 4.38, 0.45 4.25, 0.37 4.11 C0.29 3.97, 0.22 3.82, 0.17 3.68 C0.11 3.53, 0.07 3.37, 0.04 3.21 C0.01 3.06, 0 2.9, 0 2.74 C0 2.58, 0.01 2.42, 0.04 2.26 C0.07 2.11, 0.11 1.95, 0.17 1.8 C0.22 1.65, 0.29 1.51, 0.37 1.37 C0.45 1.23, 0.54 1.1, 0.64 0.98 C0.74 0.86, 0.86 0.74, 0.98 0.64 C1.1 0.54, 1.23 0.45, 1.37 0.37 C1.51 0.29, 1.65 0.22, 1.8 0.17 C1.95 0.11, 2.11 0.07, 2.26 0.04 C2.42 0.01, 2.58 0, 2.74 0 C2.9 0, 3.06 0.01, 3.21 0.04 C3.37 0.07, 3.53 0.11, 3.68 0.17 C3.82 0.22, 3.97 0.29, 4.11 0.37 C4.25 0.45, 4.38 0.54, 4.5 0.64 C4.62 0.74, 4.74 0.86, 4.84 0.98 C4.94 1.1, 5.03 1.23, 5.11 1.37 C5.19 1.51, 5.26 1.65, 5.31 1.8 C5.37 1.95, 5.41 2.11, 5.44 2.26 C5.46 2.42, 5.47 2.66, 5.48 2.74 C5.48 2.82, 5.48 2.66, 5.48 2.74" stroke="transparent" stroke-width="2" fill="none"></path></g><g stroke-linecap="round" transform="translate(90.93781807231653 58.09983298655425) rotate(0 2.749046455899588 3.7676550891465013)"><path d="M1.37 0 C2.26 0, 3.15 0, 4.12 0 C5.04 0, 5.5 0.46, 5.5 1.37 C5.5 3.06, 5.5 4.75, 5.5 6.16 C5.5 7.08, 5.04 7.54, 4.12 7.54 C3.48 7.54, 2.84 7.54, 1.37 7.54 C0.46 7.54, 0 7.08, 0 6.16 C0 4.51, 0 2.87, 0 1.37 C0 0.46, 0.46 0, 1.37 0" stroke="none" stroke-width="0" fill="#ffffff"></path><path d="M1.37 0 C2.44 0, 3.51 0, 4.12 0 M1.37 0 C2.39 0, 3.4 0, 4.12 0 M4.12 0 C5.04 0, 5.5 0.46, 5.5 1.37 M4.12 0 C5.04 0, 5.5 0.46, 5.5 1.37 M5.5 1.37 C5.5 2.34, 5.5 3.32, 5.5 6.16 M5.5 1.37 C5.5 2.84, 5.5 4.31, 5.5 6.16 M5.5 6.16 C5.5 7.08, 5.04 7.54, 4.12 7.54 M5.5 6.16 C5.5 7.08, 5.04 7.54, 4.12 7.54 M4.12 7.54 C3.44 7.54, 2.77 7.54, 1.37 7.54 M4.12 7.54 C3.57 7.54, 3.01 7.54, 1.37 7.54 M1.37 7.54 C0.46 7.54, 0 7.08, 0 6.16 M1.37 7.54 C0.46 7.54, 0 7.08, 0 6.16 M0 6.16 C0 4.53, 0 2.91, 0 1.37 M0 6.16 C0 4.64, 0 3.11, 0 1.37 M0 1.37 C0 0.46, 0.46 0, 1.37 0 M0 1.37 C0 0.46, 0.46 0, 1.37 0" stroke="transparent" stroke-width="4" fill="none"></path></g><g stroke-linecap="round" transform="translate(74.54386951144852 69.8307609464755) rotate(270.0000000000001 5.847438256942496 5.847438256942951)"><path d="M11.69 5.85 C11.69 6.19, 11.66 6.53, 11.61 6.86 C11.55 7.2, 11.46 7.53, 11.34 7.85 C11.23 8.17, 11.08 8.48, 10.91 8.77 C10.74 9.06, 10.54 9.35, 10.33 9.61 C10.11 9.87, 9.87 10.11, 9.61 10.33 C9.35 10.54, 9.06 10.74, 8.77 10.91 C8.48 11.08, 8.17 11.23, 7.85 11.34 C7.53 11.46, 7.2 11.55, 6.86 11.61 C6.53 11.66, 6.19 11.69, 5.85 11.69 C5.51 11.69, 5.17 11.66, 4.83 11.61 C4.5 11.55, 4.17 11.46, 3.85 11.34 C3.53 11.23, 3.22 11.08, 2.92 10.91 C2.63 10.74, 2.35 10.54, 2.09 10.33 C1.83 10.11, 1.59 9.87, 1.37 9.61 C1.15 9.35, 0.95 9.06, 0.78 8.77 C0.61 8.48, 0.47 8.17, 0.35 7.85 C0.24 7.53, 0.15 7.2, 0.09 6.86 C0.03 6.53, 0 6.19, 0 5.85 C0 5.51, 0.03 5.17, 0.09 4.83 C0.15 4.5, 0.24 4.17, 0.35 3.85 C0.47 3.53, 0.61 3.22, 0.78 2.92 C0.95 2.63, 1.15 2.35, 1.37 2.09 C1.59 1.83, 1.83 1.59, 2.09 1.37 C2.35 1.15, 2.63 0.95, 2.92 0.78 C3.22 0.61, 3.53 0.47, 3.85 0.35 C4.17 0.24, 4.5 0.15, 4.83 0.09 C5.17 0.03, 5.51 0, 5.85 0 C6.19 0, 6.53 0.03, 6.86 0.09 C7.2 0.15, 7.53 0.24, 7.85 0.35 C8.17 0.47, 8.48 0.61, 8.77 0.78 C9.06 0.95, 9.35 1.15, 9.61 1.37 C9.87 1.59, 10.11 1.83, 10.33 2.09 C10.54 2.35, 10.74 2.63, 10.91 2.92 C11.08 3.22, 11.23 3.53, 11.34 3.85 C11.46 4.17, 11.55 4.5, 11.61 4.83 C11.66 5.17, 11.68 5.68, 11.69 5.85 C11.71 6.02, 11.71 5.68, 11.69 5.85" stroke="none" stroke-width="0" fill="#343a40"></path><path d="M11.69 5.85 C11.69 6.19, 11.66 6.53, 11.61 6.86 C11.55 7.2, 11.46 7.53, 11.34 7.85 C11.23 8.17, 11.08 8.48, 10.91 8.77 C10.74 9.06, 10.54 9.35, 10.33 9.61 C10.11 9.87, 9.87 10.11, 9.61 10.33 C9.35 10.54, 9.06 10.74, 8.77 10.91 C8.48 11.08, 8.17 11.23, 7.85 11.34 C7.53 11.46, 7.2 11.55, 6.86 11.61 C6.53 11.66, 6.19 11.69, 5.85 11.69 C5.51 11.69, 5.17 11.66, 4.83 11.61 C4.5 11.55, 4.17 11.46, 3.85 11.34 C3.53 11.23, 3.22 11.08, 2.92 10.91 C2.63 10.74, 2.35 10.54, 2.09 10.33 C1.83 10.11, 1.59 9.87, 1.37 9.61 C1.15 9.35, 0.95 9.06, 0.78 8.77 C0.61 8.48, 0.47 8.17, 0.35 7.85 C0.24 7.53, 0.15 7.2, 0.09 6.86 C0.03 6.53, 0 6.19, 0 5.85 C0 5.51, 0.03 5.17, 0.09 4.83 C0.15 4.5, 0.24 4.17, 0.35 3.85 C0.47 3.53, 0.61 3.22, 0.78 2.92 C0.95 2.63, 1.15 2.35, 1.37 2.09 C1.59 1.83, 1.83 1.59, 2.09 1.37 C2.35 1.15, 2.63 0.95, 2.92 0.78 C3.22 0.61, 3.53 0.47, 3.85 0.35 C4.17 0.24, 4.5 0.15, 4.83 0.09 C5.17 0.03, 5.51 0, 5.85 0 C6.19 0, 6.53 0.03, 6.86 0.09 C7.2 0.15, 7.53 0.24, 7.85 0.35 C8.17 0.47, 8.48 0.61, 8.77 0.78 C9.06 0.95, 9.35 1.15, 9.61 1.37 C9.87 1.59, 10.11 1.83, 10.33 2.09 C10.54 2.35, 10.74 2.63, 10.91 2.92 C11.08 3.22, 11.23 3.53, 11.34 3.85 C11.46 4.17, 11.55 4.5, 11.61 4.83 C11.66 5.17, 11.68 5.68, 11.69 5.85 C11.71 6.02, 11.71 5.68, 11.69 5.85" stroke="transparent" stroke-width="1" fill="none"></path></g><g stroke-linecap="round" transform="translate(75.46004800383935 67.25238359883224) rotate(270.0000000000001 4.92640871419826 5.83782387426163)"><path d="M2.46 0 C4.1 0, 5.74 0, 7.39 0 C9.03 0, 9.85 0.82, 9.85 2.46 C9.85 4.76, 9.85 7.05, 9.85 9.21 C9.85 10.85, 9.03 11.68, 7.39 11.68 C6.32 11.68, 5.25 11.68, 2.46 11.68 C0.82 11.68, 0 10.85, 0 9.21 C0 7.31, 0 5.4, 0 2.46 C0 0.82, 0.82 0, 2.46 0" stroke="none" stroke-width="0" fill="#343a40"></path><path d="M2.46 0 C4.41 0, 6.35 0, 7.39 0 M2.46 0 C4.04 0, 5.63 0, 7.39 0 M7.39 0 C9.03 0, 9.85 0.82, 9.85 2.46 M7.39 0 C9.03 0, 9.85 0.82, 9.85 2.46 M9.85 2.46 C9.85 4.95, 9.85 7.44, 9.85 9.21 M9.85 2.46 C9.85 4.83, 9.85 7.19, 9.85 9.21 M9.85 9.21 C9.85 10.85, 9.03 11.68, 7.39 11.68 M9.85 9.21 C9.85 10.85, 9.03 11.68, 7.39 11.68 M7.39 11.68 C5.89 11.68, 4.4 11.68, 2.46 11.68 M7.39 11.68 C6.25 11.68, 5.1 11.68, 2.46 11.68 M2.46 11.68 C0.82 11.68, 0 10.85, 0 9.21 M2.46 11.68 C0.82 11.68, 0 10.85, 0 9.21 M0 9.21 C0 7.05, 0 4.88, 0 2.46 M0 9.21 C0 7, 0 4.78, 0 2.46 M0 2.46 C0 0.82, 0.82 0, 2.46 0 M0 2.46 C0 0.82, 0.82 0, 2.46 0" stroke="transparent" stroke-width="1" fill="none"></path></g><g stroke-linecap="round" transform="translate(76.92607707766956 71.99686217553972) rotate(270.0000000000001 3.4652306907216825 3.46523069072191)"><path d="M6.93 3.47 C6.93 3.67, 6.91 3.87, 6.88 4.07 C6.84 4.26, 6.79 4.46, 6.72 4.65 C6.65 4.84, 6.57 5.02, 6.47 5.2 C6.37 5.37, 6.25 5.54, 6.12 5.69 C5.99 5.85, 5.85 5.99, 5.69 6.12 C5.54 6.25, 5.37 6.37, 5.2 6.47 C5.02 6.57, 4.84 6.65, 4.65 6.72 C4.46 6.79, 4.26 6.84, 4.07 6.88 C3.87 6.91, 3.67 6.93, 3.47 6.93 C3.26 6.93, 3.06 6.91, 2.86 6.88 C2.67 6.84, 2.47 6.79, 2.28 6.72 C2.09 6.65, 1.91 6.57, 1.73 6.47 C1.56 6.37, 1.39 6.25, 1.24 6.12 C1.08 5.99, 0.94 5.85, 0.81 5.69 C0.68 5.54, 0.56 5.37, 0.46 5.2 C0.36 5.02, 0.28 4.84, 0.21 4.65 C0.14 4.46, 0.09 4.26, 0.05 4.07 C0.02 3.87, 0 3.67, 0 3.47 C0 3.26, 0.02 3.06, 0.05 2.86 C0.09 2.67, 0.14 2.47, 0.21 2.28 C0.28 2.09, 0.36 1.91, 0.46 1.73 C0.56 1.56, 0.68 1.39, 0.81 1.24 C0.94 1.08, 1.08 0.94, 1.24 0.81 C1.39 0.68, 1.56 0.56, 1.73 0.46 C1.91 0.36, 2.09 0.28, 2.28 0.21 C2.47 0.14, 2.67 0.09, 2.86 0.05 C3.06 0.02, 3.26 0, 3.47 0 C3.67 0, 3.87 0.02, 4.07 0.05 C4.26 0.09, 4.46 0.14, 4.65 0.21 C4.84 0.28, 5.02 0.36, 5.2 0.46 C5.37 0.56, 5.54 0.68, 5.69 0.81 C5.85 0.94, 5.99 1.08, 6.12 1.24 C6.25 1.39, 6.37 1.56, 6.47 1.73 C6.57 1.91, 6.65 2.09, 6.72 2.28 C6.79 2.47, 6.84 2.67, 6.88 2.86 C6.91 3.06, 6.92 3.36, 6.93 3.47 C6.94 3.57, 6.94 3.36, 6.93 3.47" stroke="none" stroke-width="0" fill="#f783ac"></path><path d="M6.93 3.47 C6.93 3.67, 6.91 3.87, 6.88 4.07 C6.84 4.26, 6.79 4.46, 6.72 4.65 C6.65 4.84, 6.57 5.02, 6.47 5.2 C6.37 5.37, 6.25 5.54, 6.12 5.69 C5.99 5.85, 5.85 5.99, 5.69 6.12 C5.54 6.25, 5.37 6.37, 5.2 6.47 C5.02 6.57, 4.84 6.65, 4.65 6.72 C4.46 6.79, 4.26 6.84, 4.07 6.88 C3.87 6.91, 3.67 6.93, 3.47 6.93 C3.26 6.93, 3.06 6.91, 2.86 6.88 C2.67 6.84, 2.47 6.79, 2.28 6.72 C2.09 6.65, 1.91 6.57, 1.73 6.47 C1.56 6.37, 1.39 6.25, 1.24 6.12 C1.08 5.99, 0.94 5.85, 0.81 5.69 C0.68 5.54, 0.56 5.37, 0.46 5.2 C0.36 5.02, 0.28 4.84, 0.21 4.65 C0.14 4.46, 0.09 4.26, 0.05 4.07 C0.02 3.87, 0 3.67, 0 3.47 C0 3.26, 0.02 3.06, 0.05 2.86 C0.09 2.67, 0.14 2.47, 0.21 2.28 C0.28 2.09, 0.36 1.91, 0.46 1.73 C0.56 1.56, 0.68 1.39, 0.81 1.24 C0.94 1.08, 1.08 0.94, 1.24 0.81 C1.39 0.68, 1.56 0.56, 1.73 0.46 C1.91 0.36, 2.09 0.28, 2.28 0.21 C2.47 0.14, 2.67 0.09, 2.86 0.05 C3.06 0.02, 3.26 0, 3.47 0 C3.67 0, 3.87 0.02, 4.07 0.05 C4.26 0.09, 4.46 0.14, 4.65 0.21 C4.84 0.28, 5.02 0.36, 5.2 0.46 C5.37 0.56, 5.54 0.68, 5.69 0.81 C5.85 0.94, 5.99 1.08, 6.12 1.24 C6.25 1.39, 6.37 1.56, 6.47 1.73 C6.57 1.91, 6.65 2.09, 6.72 2.28 C6.79 2.47, 6.84 2.67, 6.88 2.86 C6.91 3.06, 6.92 3.36, 6.93 3.47 C6.94 3.57, 6.94 3.36, 6.93 3.47" stroke="transparent" stroke-width="2" fill="none"></path></g><g stroke-linecap="round" transform="translate(78.09939484567667 70.85016202033512) rotate(270.0000000000001 2.287753434154183 4.276406077819047)"><path d="M1.14 0 C1.99 0, 2.83 0, 3.43 0 C4.19 0, 4.58 0.38, 4.58 1.14 C4.58 3.32, 4.58 5.5, 4.58 7.41 C4.58 8.17, 4.19 8.55, 3.43 8.55 C2.75 8.55, 2.07 8.55, 1.14 8.55 C0.38 8.55, 0 8.17, 0 7.41 C0 5.65, 0 3.89, 0 1.14 C0 0.38, 0.38 0, 1.14 0" stroke="none" stroke-width="0" fill="#343a40"></path><path d="M1.14 0 C1.75 0, 2.35 0, 3.43 0 M1.14 0 C1.81 0, 2.47 0, 3.43 0 M3.43 0 C4.19 0, 4.58 0.38, 4.58 1.14 M3.43 0 C4.19 0, 4.58 0.38, 4.58 1.14 M4.58 1.14 C4.58 2.69, 4.58 4.24, 4.58 7.41 M4.58 1.14 C4.58 3.1, 4.58 5.06, 4.58 7.41 M4.58 7.41 C4.58 8.17, 4.19 8.55, 3.43 8.55 M4.58 7.41 C4.58 8.17, 4.19 8.55, 3.43 8.55 M3.43 8.55 C2.73 8.55, 2.03 8.55, 1.14 8.55 M3.43 8.55 C2.94 8.55, 2.44 8.55, 1.14 8.55 M1.14 8.55 C0.38 8.55, 0 8.17, 0 7.41 M1.14 8.55 C0.38 8.55, 0 8.17, 0 7.41 M0 7.41 C0 5.64, 0 3.87, 0 1.14 M0 7.41 C0 5.86, 0 4.31, 0 1.14 M0 1.14 C0 0.38, 0.38 0, 1.14 0 M0 1.14 C0 0.38, 0.38 0, 1.14 0" stroke="transparent" stroke-width="4" fill="none"></path></g><g stroke-linecap="round" transform="translate(77.27917392344398 71.11934644893336) rotate(0 3.1120999245567873 1.9903750397552358)"><path d="M1 0 C2.67 0, 4.34 0, 5.23 0 C5.89 0, 6.22 0.33, 6.22 1 C6.22 1.4, 6.22 1.81, 6.22 2.99 C6.22 3.65, 5.89 3.98, 5.23 3.98 C4 3.98, 2.77 3.98, 1 3.98 C0.33 3.98, 0 3.65, 0 2.99 C0 2.58, 0 2.17, 0 1 C0 0.33, 0.33 0, 1 0" stroke="none" stroke-width="0" fill="#ffffff"></path><path d="M1 0 C2 0, 3 0, 5.23 0 M1 0 C2.5 0, 4.01 0, 5.23 0 M5.23 0 C5.89 0, 6.22 0.33, 6.22 1 M5.23 0 C5.89 0, 6.22 0.33, 6.22 1 M6.22 1 C6.22 1.62, 6.22 2.25, 6.22 2.99 M6.22 1 C6.22 1.56, 6.22 2.12, 6.22 2.99 M6.22 2.99 C6.22 3.65, 5.89 3.98, 5.23 3.98 M6.22 2.99 C6.22 3.65, 5.89 3.98, 5.23 3.98 M5.23 3.98 C3.59 3.98, 1.95 3.98, 1 3.98 M5.23 3.98 C3.89 3.98, 2.55 3.98, 1 3.98 M1 3.98 C0.33 3.98, 0 3.65, 0 2.99 M1 3.98 C0.33 3.98, 0 3.65, 0 2.99 M0 2.99 C0 2.29, 0 1.6, 0 1 M0 2.99 C0 2.25, 0 1.51, 0 1 M0 1 C0 0.33, 0.33 0, 1 0 M0 1 C0 0.33, 0.33 0, 1 0" stroke="transparent" stroke-width="1" fill="none"></path></g><g stroke-linecap="round" transform="translate(77.49684921116432 76.87072604643981) rotate(0 2.89445859857733 0.49751777008077624)"><path d="M5.79 0.5 C5.79 0.53, 5.77 0.56, 5.74 0.58 C5.72 0.61, 5.67 0.64, 5.61 0.67 C5.56 0.69, 5.48 0.72, 5.4 0.75 C5.32 0.77, 5.22 0.8, 5.11 0.82 C5 0.84, 4.88 0.86, 4.75 0.88 C4.63 0.9, 4.49 0.91, 4.34 0.93 C4.2 0.94, 4.04 0.96, 3.88 0.97 C3.73 0.97, 3.56 0.98, 3.4 0.99 C3.23 0.99, 3.06 1, 2.89 1 C2.73 1, 2.56 0.99, 2.39 0.99 C2.23 0.98, 2.06 0.97, 1.9 0.97 C1.75 0.96, 1.59 0.94, 1.45 0.93 C1.3 0.91, 1.16 0.9, 1.03 0.88 C0.91 0.86, 0.78 0.84, 0.68 0.82 C0.57 0.8, 0.47 0.77, 0.39 0.75 C0.3 0.72, 0.23 0.69, 0.17 0.67 C0.12 0.64, 0.07 0.61, 0.04 0.58 C0.01 0.56, 0 0.53, 0 0.5 C0 0.47, 0.01 0.44, 0.04 0.41 C0.07 0.38, 0.12 0.35, 0.17 0.33 C0.23 0.3, 0.3 0.27, 0.39 0.25 C0.47 0.22, 0.57 0.2, 0.68 0.18 C0.78 0.16, 0.91 0.13, 1.03 0.12 C1.16 0.1, 1.3 0.08, 1.45 0.07 C1.59 0.05, 1.75 0.04, 1.9 0.03 C2.06 0.02, 2.23 0.01, 2.39 0.01 C2.56 0, 2.73 0, 2.89 0 C3.06 0, 3.23 0, 3.4 0.01 C3.56 0.01, 3.73 0.02, 3.88 0.03 C4.04 0.04, 4.2 0.05, 4.34 0.07 C4.49 0.08, 4.63 0.1, 4.75 0.12 C4.88 0.13, 5 0.16, 5.11 0.18 C5.22 0.2, 5.32 0.22, 5.4 0.25 C5.48 0.27, 5.56 0.3, 5.61 0.33 C5.67 0.35, 5.72 0.38, 5.74 0.41 C5.77 0.44, 5.78 0.48, 5.79 0.5 C5.8 0.51, 5.8 0.48, 5.79 0.5" stroke="none" stroke-width="0" fill="#f783ac"></path><path d="M5.79 0.5 C5.79 0.53, 5.77 0.56, 5.74 0.58 C5.72 0.61, 5.67 0.64, 5.61 0.67 C5.56 0.69, 5.48 0.72, 5.4 0.75 C5.32 0.77, 5.22 0.8, 5.11 0.82 C5 0.84, 4.88 0.86, 4.75 0.88 C4.63 0.9, 4.49 0.91, 4.34 0.93 C4.2 0.94, 4.04 0.96, 3.88 0.97 C3.73 0.97, 3.56 0.98, 3.4 0.99 C3.23 0.99, 3.06 1, 2.89 1 C2.73 1, 2.56 0.99, 2.39 0.99 C2.23 0.98, 2.06 0.97, 1.9 0.97 C1.75 0.96, 1.59 0.94, 1.45 0.93 C1.3 0.91, 1.16 0.9, 1.03 0.88 C0.91 0.86, 0.78 0.84, 0.68 0.82 C0.57 0.8, 0.47 0.77, 0.39 0.75 C0.3 0.72, 0.23 0.69, 0.17 0.67 C0.12 0.64, 0.07 0.61, 0.04 0.58 C0.01 0.56, 0 0.53, 0 0.5 C0 0.47, 0.01 0.44, 0.04 0.41 C0.07 0.38, 0.12 0.35, 0.17 0.33 C0.23 0.3, 0.3 0.27, 0.39 0.25 C0.47 0.22, 0.57 0.2, 0.68 0.18 C0.78 0.16, 0.91 0.13, 1.03 0.12 C1.16 0.1, 1.3 0.08, 1.45 0.07 C1.59 0.05, 1.75 0.04, 1.9 0.03 C2.06 0.02, 2.23 0.01, 2.39 0.01 C2.56 0, 2.73 0, 2.89 0 C3.06 0, 3.23 0, 3.4 0.01 C3.56 0.01, 3.73 0.02, 3.88 0.03 C4.04 0.04, 4.2 0.05, 4.34 0.07 C4.49 0.08, 4.63 0.1, 4.75 0.12 C4.88 0.13, 5 0.16, 5.11 0.18 C5.22 0.2, 5.32 0.22, 5.4 0.25 C5.48 0.27, 5.56 0.3, 5.61 0.33 C5.67 0.35, 5.72 0.38, 5.74 0.41 C5.77 0.44, 5.78 0.48, 5.79 0.5 C5.8 0.51, 5.8 0.48, 5.79 0.5" stroke="transparent" stroke-width="2" fill="none"></path></g><g stroke-linecap="round" transform="translate(49.78745230833965 35.33756343618006) rotate(0 30.65994251814527 3.2120411201631214)"><path d="M1.61 0 C19.68 0, 37.76 0, 59.71 0 C60.78 0, 61.32 0.54, 61.32 1.61 C61.32 2.8, 61.32 4, 61.32 4.82 C61.32 5.89, 60.78 6.42, 59.71 6.42 C37.94 6.42, 16.16 6.42, 1.61 6.42 C0.54 6.42, 0 5.89, 0 4.82 C0 3.55, 0 2.27, 0 1.61 C0 0.54, 0.54 0, 1.61 0" stroke="none" stroke-width="0" fill="#fab005"></path><path d="M1.61 0 C24.15 0, 46.7 0, 59.71 0 M1.61 0 C15.09 0, 28.58 0, 59.71 0 M59.71 0 C60.78 0, 61.32 0.54, 61.32 1.61 M59.71 0 C60.78 0, 61.32 0.54, 61.32 1.61 M61.32 1.61 C61.32 2.72, 61.32 3.84, 61.32 4.82 M61.32 1.61 C61.32 2.51, 61.32 3.41, 61.32 4.82 M61.32 4.82 C61.32 5.89, 60.78 6.42, 59.71 6.42 M61.32 4.82 C61.32 5.89, 60.78 6.42, 59.71 6.42 M59.71 6.42 C45.5 6.42, 31.29 6.42, 1.61 6.42 M59.71 6.42 C44.59 6.42, 29.47 6.42, 1.61 6.42 M1.61 6.42 C0.54 6.42, 0 5.89, 0 4.82 M1.61 6.42 C0.54 6.42, 0 5.89, 0 4.82 M0 4.82 C0 3.68, 0 2.53, 0 1.61 M0 4.82 C0 4.16, 0 3.51, 0 1.61 M0 1.61 C0 0.54, 0.54 0, 1.61 0 M0 1.61 C0 0.54, 0.54 0, 1.61 0" stroke="transparent" stroke-width="4" fill="none"></path></g><g stroke-linecap="round" transform="translate(56.34991979153256 21.74238550267728) rotate(0 7.563686304549265 2.5047205749024215)"><path d="M1.25 0 C4.81 0, 8.37 0, 13.88 0 C14.71 0, 15.13 0.42, 15.13 1.25 C15.13 2.14, 15.13 3.04, 15.13 3.76 C15.13 4.59, 14.71 5.01, 13.88 5.01 C10.63 5.01, 7.39 5.01, 1.25 5.01 C0.42 5.01, 0 4.59, 0 3.76 C0 3.2, 0 2.65, 0 1.25 C0 0.42, 0.42 0, 1.25 0" stroke="none" stroke-width="0" fill="#343a40"></path><path d="M1.25 0 C3.87 0, 6.48 0, 13.88 0 M1.25 0 C6.07 0, 10.88 0, 13.88 0 M13.88 0 C14.71 0, 15.13 0.42, 15.13 1.25 M13.88 0 C14.71 0, 15.13 0.42, 15.13 1.25 M15.13 1.25 C15.13 1.98, 15.13 2.7, 15.13 3.76 M15.13 1.25 C15.13 2.03, 15.13 2.8, 15.13 3.76 M15.13 3.76 C15.13 4.59, 14.71 5.01, 13.88 5.01 M15.13 3.76 C15.13 4.59, 14.71 5.01, 13.88 5.01 M13.88 5.01 C9.04 5.01, 4.2 5.01, 1.25 5.01 M13.88 5.01 C10.51 5.01, 7.15 5.01, 1.25 5.01 M1.25 5.01 C0.42 5.01, 0 4.59, 0 3.76 M1.25 5.01 C0.42 5.01, 0 4.59, 0 3.76 M0 3.76 C0 3.17, 0 2.59, 0 1.25 M0 3.76 C0 2.85, 0 1.95, 0 1.25 M0 1.25 C0 0.42, 0.42 0, 1.25 0 M0 1.25 C0 0.42, 0.42 0, 1.25 0" stroke="transparent" stroke-width="4" fill="none"></path></g><g stroke-linecap="round" transform="translate(90.43911520878919 21.74238550267728) rotate(0 6.8362654649761225 2.5047205749024215)"><path d="M1.25 0 C5.41 0, 9.57 0, 12.42 0 C13.26 0, 13.67 0.42, 13.67 1.25 C13.67 2.06, 13.67 2.88, 13.67 3.76 C13.67 4.59, 13.26 5.01, 12.42 5.01 C8.5 5.01, 4.58 5.01, 1.25 5.01 C0.42 5.01, 0 4.59, 0 3.76 C0 2.82, 0 1.89, 0 1.25 C0 0.42, 0.42 0, 1.25 0" stroke="none" stroke-width="0" fill="#343a40"></path><path d="M1.25 0 C5.69 0, 10.14 0, 12.42 0 M1.25 0 C3.93 0, 6.6 0, 12.42 0 M12.42 0 C13.26 0, 13.67 0.42, 13.67 1.25 M12.42 0 C13.26 0, 13.67 0.42, 13.67 1.25 M13.67 1.25 C13.67 1.95, 13.67 2.64, 13.67 3.76 M13.67 1.25 C13.67 1.87, 13.67 2.49, 13.67 3.76 M13.67 3.76 C13.67 4.59, 13.26 5.01, 12.42 5.01 M13.67 3.76 C13.67 4.59, 13.26 5.01, 12.42 5.01 M12.42 5.01 C9.99 5.01, 7.55 5.01, 1.25 5.01 M12.42 5.01 C9.53 5.01, 6.63 5.01, 1.25 5.01 M1.25 5.01 C0.42 5.01, 0 4.59, 0 3.76 M1.25 5.01 C0.42 5.01, 0 4.59, 0 3.76 M0 3.76 C0 3.21, 0 2.67, 0 1.25 M0 3.76 C0 3.09, 0 2.42, 0 1.25 M0 1.25 C0 0.42, 0.42 0, 1.25 0 M0 1.25 C0 0.42, 0.42 0, 1.25 0" stroke="transparent" stroke-width="4" fill="none"></path></g><g stroke-linecap="round" transform="translate(75.43472347258694 23.08511823095614) rotate(0 5.560531457608477 1.2051686185832295)"><path d="M0.6 0 C4.18 0, 7.76 0, 10.52 0 C10.92 0, 11.12 0.2, 11.12 0.6 C11.12 1.05, 11.12 1.49, 11.12 1.81 C11.12 2.21, 10.92 2.41, 10.52 2.41 C8.02 2.41, 5.52 2.41, 0.6 2.41 C0.2 2.41, 0 2.21, 0 1.81 C0 1.51, 0 1.21, 0 0.6 C0 0.2, 0.2 0, 0.6 0" stroke="none" stroke-width="0" fill="#343a40"></path><path d="M0.6 0 C3.44 0, 6.28 0, 10.52 0 M0.6 0 C4.2 0, 7.8 0, 10.52 0 M10.52 0 C10.92 0, 11.12 0.2, 11.12 0.6 M10.52 0 C10.92 0, 11.12 0.2, 11.12 0.6 M11.12 0.6 C11.12 1, 11.12 1.41, 11.12 1.81 M11.12 0.6 C11.12 1.05, 11.12 1.49, 11.12 1.81 M11.12 1.81 C11.12 2.21, 10.92 2.41, 10.52 2.41 M11.12 1.81 C11.12 2.21, 10.92 2.41, 10.52 2.41 M10.52 2.41 C7.79 2.41, 5.06 2.41, 0.6 2.41 M10.52 2.41 C7.4 2.41, 4.28 2.41, 0.6 2.41 M0.6 2.41 C0.2 2.41, 0 2.21, 0 1.81 M0.6 2.41 C0.2 2.41, 0 2.21, 0 1.81 M0 1.81 C0 1.4, 0 0.99, 0 0.6 M0 1.81 C0 1.5, 0 1.19, 0 0.6 M0 0.6 C0 0.2, 0.2 0, 0.6 0 M0 0.6 C0 0.2, 0.2 0, 0.6 0" stroke="#343a40" stroke-width="2" fill="none"></path></g><g stroke-linecap="round" transform="translate(74.84925274077705 23.08741225652193) rotate(0 1.2028746153062002 1.2028746153064276)"><path d="M2.41 1.2 C2.41 1.27, 2.4 1.34, 2.39 1.41 C2.38 1.48, 2.36 1.55, 2.33 1.61 C2.31 1.68, 2.28 1.74, 2.24 1.8 C2.21 1.86, 2.17 1.92, 2.12 1.98 C2.08 2.03, 2.03 2.08, 1.98 2.12 C1.92 2.17, 1.86 2.21, 1.8 2.24 C1.74 2.28, 1.68 2.31, 1.61 2.33 C1.55 2.36, 1.48 2.38, 1.41 2.39 C1.34 2.4, 1.27 2.41, 1.2 2.41 C1.13 2.41, 1.06 2.4, 0.99 2.39 C0.93 2.38, 0.86 2.36, 0.79 2.33 C0.73 2.31, 0.66 2.28, 0.6 2.24 C0.54 2.21, 0.48 2.17, 0.43 2.12 C0.38 2.08, 0.33 2.03, 0.28 1.98 C0.24 1.92, 0.2 1.86, 0.16 1.8 C0.13 1.74, 0.1 1.68, 0.07 1.61 C0.05 1.55, 0.03 1.48, 0.02 1.41 C0.01 1.34, 0 1.27, 0 1.2 C0 1.13, 0.01 1.06, 0.02 0.99 C0.03 0.93, 0.05 0.86, 0.07 0.79 C0.1 0.73, 0.13 0.66, 0.16 0.6 C0.2 0.54, 0.24 0.48, 0.28 0.43 C0.33 0.38, 0.38 0.33, 0.43 0.28 C0.48 0.24, 0.54 0.2, 0.6 0.16 C0.66 0.13, 0.73 0.1, 0.79 0.07 C0.86 0.05, 0.93 0.03, 0.99 0.02 C1.06 0.01, 1.13 0, 1.2 0 C1.27 0, 1.34 0.01, 1.41 0.02 C1.48 0.03, 1.55 0.05, 1.61 0.07 C1.68 0.1, 1.74 0.13, 1.8 0.16 C1.86 0.2, 1.92 0.24, 1.98 0.28 C2.03 0.33, 2.08 0.38, 2.12 0.43 C2.17 0.48, 2.21 0.54, 2.24 0.6 C2.28 0.66, 2.31 0.73, 2.33 0.79 C2.36 0.86, 2.38 0.93, 2.39 0.99 C2.4 1.06, 2.4 1.17, 2.41 1.2 C2.41 1.24, 2.41 1.17, 2.41 1.2" stroke="none" stroke-width="0" fill="#343a40"></path><path d="M2.41 1.2 C2.41 1.27, 2.4 1.34, 2.39 1.41 C2.38 1.48, 2.36 1.55, 2.33 1.61 C2.31 1.68, 2.28 1.74, 2.24 1.8 C2.21 1.86, 2.17 1.92, 2.12 1.98 C2.08 2.03, 2.03 2.08, 1.98 2.12 C1.92 2.17, 1.86 2.21, 1.8 2.24 C1.74 2.28, 1.68 2.31, 1.61 2.33 C1.55 2.36, 1.48 2.38, 1.41 2.39 C1.34 2.4, 1.27 2.41, 1.2 2.41 C1.13 2.41, 1.06 2.4, 0.99 2.39 C0.93 2.38, 0.86 2.36, 0.79 2.33 C0.73 2.31, 0.66 2.28, 0.6 2.24 C0.54 2.21, 0.48 2.17, 0.43 2.12 C0.38 2.08, 0.33 2.03, 0.28 1.98 C0.24 1.92, 0.2 1.86, 0.16 1.8 C0.13 1.74, 0.1 1.68, 0.07 1.61 C0.05 1.55, 0.03 1.48, 0.02 1.41 C0.01 1.34, 0 1.27, 0 1.2 C0 1.13, 0.01 1.06, 0.02 0.99 C0.03 0.93, 0.05 0.86, 0.07 0.79 C0.1 0.73, 0.13 0.66, 0.16 0.6 C0.2 0.54, 0.24 0.48, 0.28 0.43 C0.33 0.38, 0.38 0.33, 0.43 0.28 C0.48 0.24, 0.54 0.2, 0.6 0.16 C0.66 0.13, 0.73 0.1, 0.79 0.07 C0.86 0.05, 0.93 0.03, 0.99 0.02 C1.06 0.01, 1.13 0, 1.2 0 C1.27 0, 1.34 0.01, 1.41 0.02 C1.48 0.03, 1.55 0.05, 1.61 0.07 C1.68 0.1, 1.74 0.13, 1.8 0.16 C1.86 0.2, 1.92 0.24, 1.98 0.28 C2.03 0.33, 2.08 0.38, 2.12 0.43 C2.17 0.48, 2.21 0.54, 2.24 0.6 C2.28 0.66, 2.31 0.73, 2.33 0.79 C2.36 0.86, 2.38 0.93, 2.39 0.99 C2.4 1.06, 2.4 1.17, 2.41 1.2 C2.41 1.24, 2.41 1.17, 2.41 1.2" stroke="#343a40" stroke-width="2" fill="none"></path></g><g stroke-linecap="round" transform="translate(84.8692186728108 23.08741225652193) rotate(0 1.2028746153062002 1.2028746153064276)"><path d="M2.41 1.2 C2.41 1.27, 2.4 1.34, 2.39 1.41 C2.38 1.48, 2.36 1.55, 2.33 1.61 C2.31 1.68, 2.28 1.74, 2.24 1.8 C2.21 1.86, 2.17 1.92, 2.12 1.98 C2.08 2.03, 2.03 2.08, 1.98 2.12 C1.92 2.17, 1.86 2.21, 1.8 2.24 C1.74 2.28, 1.68 2.31, 1.61 2.33 C1.55 2.36, 1.48 2.38, 1.41 2.39 C1.34 2.4, 1.27 2.41, 1.2 2.41 C1.13 2.41, 1.06 2.4, 0.99 2.39 C0.93 2.38, 0.86 2.36, 0.79 2.33 C0.73 2.31, 0.66 2.28, 0.6 2.24 C0.54 2.21, 0.48 2.17, 0.43 2.12 C0.38 2.08, 0.33 2.03, 0.28 1.98 C0.24 1.92, 0.2 1.86, 0.16 1.8 C0.13 1.74, 0.1 1.68, 0.07 1.61 C0.05 1.55, 0.03 1.48, 0.02 1.41 C0.01 1.34, 0 1.27, 0 1.2 C0 1.13, 0.01 1.06, 0.02 0.99 C0.03 0.93, 0.05 0.86, 0.07 0.79 C0.1 0.73, 0.13 0.66, 0.16 0.6 C0.2 0.54, 0.24 0.48, 0.28 0.43 C0.33 0.38, 0.38 0.33, 0.43 0.28 C0.48 0.24, 0.54 0.2, 0.6 0.16 C0.66 0.13, 0.73 0.1, 0.79 0.07 C0.86 0.05, 0.93 0.03, 0.99 0.02 C1.06 0.01, 1.13 0, 1.2 0 C1.27 0, 1.34 0.01, 1.41 0.02 C1.48 0.03, 1.55 0.05, 1.61 0.07 C1.68 0.1, 1.74 0.13, 1.8 0.16 C1.86 0.2, 1.92 0.24, 1.98 0.28 C2.03 0.33, 2.08 0.38, 2.12 0.43 C2.17 0.48, 2.21 0.54, 2.24 0.6 C2.28 0.66, 2.31 0.73, 2.33 0.79 C2.36 0.86, 2.38 0.93, 2.39 0.99 C2.4 1.06, 2.4 1.17, 2.41 1.2 C2.41 1.24, 2.41 1.17, 2.41 1.2" stroke="none" stroke-width="0" fill="#343a40"></path><path d="M2.41 1.2 C2.41 1.27, 2.4 1.34, 2.39 1.41 C2.38 1.48, 2.36 1.55, 2.33 1.61 C2.31 1.68, 2.28 1.74, 2.24 1.8 C2.21 1.86, 2.17 1.92, 2.12 1.98 C2.08 2.03, 2.03 2.08, 1.98 2.12 C1.92 2.17, 1.86 2.21, 1.8 2.24 C1.74 2.28, 1.68 2.31, 1.61 2.33 C1.55 2.36, 1.48 2.38, 1.41 2.39 C1.34 2.4, 1.27 2.41, 1.2 2.41 C1.13 2.41, 1.06 2.4, 0.99 2.39 C0.93 2.38, 0.86 2.36, 0.79 2.33 C0.73 2.31, 0.66 2.28, 0.6 2.24 C0.54 2.21, 0.48 2.17, 0.43 2.12 C0.38 2.08, 0.33 2.03, 0.28 1.98 C0.24 1.92, 0.2 1.86, 0.16 1.8 C0.13 1.74, 0.1 1.68, 0.07 1.61 C0.05 1.55, 0.03 1.48, 0.02 1.41 C0.01 1.34, 0 1.27, 0 1.2 C0 1.13, 0.01 1.06, 0.02 0.99 C0.03 0.93, 0.05 0.86, 0.07 0.79 C0.1 0.73, 0.13 0.66, 0.16 0.6 C0.2 0.54, 0.24 0.48, 0.28 0.43 C0.33 0.38, 0.38 0.33, 0.43 0.28 C0.48 0.24, 0.54 0.2, 0.6 0.16 C0.66 0.13, 0.73 0.1, 0.79 0.07 C0.86 0.05, 0.93 0.03, 0.99 0.02 C1.06 0.01, 1.13 0, 1.2 0 C1.27 0, 1.34 0.01, 1.41 0.02 C1.48 0.03, 1.55 0.05, 1.61 0.07 C1.68 0.1, 1.74 0.13, 1.8 0.16 C1.86 0.2, 1.92 0.24, 1.98 0.28 C2.03 0.33, 2.08 0.38, 2.12 0.43 C2.17 0.48, 2.21 0.54, 2.24 0.6 C2.28 0.66, 2.31 0.73, 2.33 0.79 C2.36 0.86, 2.38 0.93, 2.39 0.99 C2.4 1.06, 2.4 1.17, 2.41 1.2 C2.41 1.24, 2.41 1.17, 2.41 1.2" stroke="#343a40" stroke-width="2" fill="none"></path></g><g stroke-linecap="round" transform="translate(75.44085338260993 23.07898829966689) rotate(89.9999999999999 5.560531457608477 1.2051686185832295)"><path d="M0.6 0 C4.31 0, 8.01 0, 10.52 0 C10.92 0, 11.12 0.2, 11.12 0.6 C11.12 0.97, 11.12 1.35, 11.12 1.81 C11.12 2.21, 10.92 2.41, 10.52 2.41 C6.97 2.41, 3.43 2.41, 0.6 2.41 C0.2 2.41, 0 2.21, 0 1.81 C0 1.48, 0 1.16, 0 0.6 C0 0.2, 0.2 0, 0.6 0" stroke="none" stroke-width="0" fill="#343a40"></path><path d="M0.6 0 C2.87 0, 5.15 0, 10.52 0 M0.6 0 C3.33 0, 6.06 0, 10.52 0 M10.52 0 C10.92 0, 11.12 0.2, 11.12 0.6 M10.52 0 C10.92 0, 11.12 0.2, 11.12 0.6 M11.12 0.6 C11.12 0.98, 11.12 1.35, 11.12 1.81 M11.12 0.6 C11.12 0.87, 11.12 1.14, 11.12 1.81 M11.12 1.81 C11.12 2.21, 10.92 2.41, 10.52 2.41 M11.12 1.81 C11.12 2.21, 10.92 2.41, 10.52 2.41 M10.52 2.41 C7.57 2.41, 4.63 2.41, 0.6 2.41 M10.52 2.41 C8.3 2.41, 6.08 2.41, 0.6 2.41 M0.6 2.41 C0.2 2.41, 0 2.21, 0 1.81 M0.6 2.41 C0.2 2.41, 0 2.21, 0 1.81 M0 1.81 C0 1.53, 0 1.25, 0 0.6 M0 1.81 C0 1.34, 0 0.87, 0 0.6 M0 0.6 C0 0.2, 0.2 0, 0.6 0 M0 0.6 C0 0.2, 0.2 0, 0.6 0" stroke="#343a40" stroke-width="2" fill="none"></path></g><g stroke-linecap="round" transform="translate(79.79851020262504 18.13815472883107) rotate(89.9999999999999 1.2028746153062002 1.2028746153064276)"><path d="M2.41 1.2 C2.41 1.27, 2.4 1.34, 2.39 1.41 C2.38 1.48, 2.36 1.55, 2.33 1.61 C2.31 1.68, 2.28 1.74, 2.24 1.8 C2.21 1.86, 2.17 1.92, 2.12 1.98 C2.08 2.03, 2.03 2.08, 1.98 2.12 C1.92 2.17, 1.86 2.21, 1.8 2.24 C1.74 2.28, 1.68 2.31, 1.61 2.33 C1.55 2.36, 1.48 2.38, 1.41 2.39 C1.34 2.4, 1.27 2.41, 1.2 2.41 C1.13 2.41, 1.06 2.4, 0.99 2.39 C0.93 2.38, 0.86 2.36, 0.79 2.33 C0.73 2.31, 0.66 2.28, 0.6 2.24 C0.54 2.21, 0.48 2.17, 0.43 2.12 C0.38 2.08, 0.33 2.03, 0.28 1.98 C0.24 1.92, 0.2 1.86, 0.16 1.8 C0.13 1.74, 0.1 1.68, 0.07 1.61 C0.05 1.55, 0.03 1.48, 0.02 1.41 C0.01 1.34, 0 1.27, 0 1.2 C0 1.13, 0.01 1.06, 0.02 0.99 C0.03 0.93, 0.05 0.86, 0.07 0.79 C0.1 0.73, 0.13 0.66, 0.16 0.6 C0.2 0.54, 0.24 0.48, 0.28 0.43 C0.33 0.38, 0.38 0.33, 0.43 0.28 C0.48 0.24, 0.54 0.2, 0.6 0.16 C0.66 0.13, 0.73 0.1, 0.79 0.07 C0.86 0.05, 0.93 0.03, 0.99 0.02 C1.06 0.01, 1.13 0, 1.2 0 C1.27 0, 1.34 0.01, 1.41 0.02 C1.48 0.03, 1.55 0.05, 1.61 0.07 C1.68 0.1, 1.74 0.13, 1.8 0.16 C1.86 0.2, 1.92 0.24, 1.98 0.28 C2.03 0.33, 2.08 0.38, 2.12 0.43 C2.17 0.48, 2.21 0.54, 2.24 0.6 C2.28 0.66, 2.31 0.73, 2.33 0.79 C2.36 0.86, 2.38 0.93, 2.39 0.99 C2.4 1.06, 2.4 1.17, 2.41 1.2 C2.41 1.24, 2.41 1.17, 2.41 1.2" stroke="none" stroke-width="0" fill="#343a40"></path><path d="M2.41 1.2 C2.41 1.27, 2.4 1.34, 2.39 1.41 C2.38 1.48, 2.36 1.55, 2.33 1.61 C2.31 1.68, 2.28 1.74, 2.24 1.8 C2.21 1.86, 2.17 1.92, 2.12 1.98 C2.08 2.03, 2.03 2.08, 1.98 2.12 C1.92 2.17, 1.86 2.21, 1.8 2.24 C1.74 2.28, 1.68 2.31, 1.61 2.33 C1.55 2.36, 1.48 2.38, 1.41 2.39 C1.34 2.4, 1.27 2.41, 1.2 2.41 C1.13 2.41, 1.06 2.4, 0.99 2.39 C0.93 2.38, 0.86 2.36, 0.79 2.33 C0.73 2.31, 0.66 2.28, 0.6 2.24 C0.54 2.21, 0.48 2.17, 0.43 2.12 C0.38 2.08, 0.33 2.03, 0.28 1.98 C0.24 1.92, 0.2 1.86, 0.16 1.8 C0.13 1.74, 0.1 1.68, 0.07 1.61 C0.05 1.55, 0.03 1.48, 0.02 1.41 C0.01 1.34, 0 1.27, 0 1.2 C0 1.13, 0.01 1.06, 0.02 0.99 C0.03 0.93, 0.05 0.86, 0.07 0.79 C0.1 0.73, 0.13 0.66, 0.16 0.6 C0.2 0.54, 0.24 0.48, 0.28 0.43 C0.33 0.38, 0.38 0.33, 0.43 0.28 C0.48 0.24, 0.54 0.2, 0.6 0.16 C0.66 0.13, 0.73 0.1, 0.79 0.07 C0.86 0.05, 0.93 0.03, 0.99 0.02 C1.06 0.01, 1.13 0, 1.2 0 C1.27 0, 1.34 0.01, 1.41 0.02 C1.48 0.03, 1.55 0.05, 1.61 0.07 C1.68 0.1, 1.74 0.13, 1.8 0.16 C1.86 0.2, 1.92 0.24, 1.98 0.28 C2.03 0.33, 2.08 0.38, 2.12 0.43 C2.17 0.48, 2.21 0.54, 2.24 0.6 C2.28 0.66, 2.31 0.73, 2.33 0.79 C2.36 0.86, 2.38 0.93, 2.39 0.99 C2.4 1.06, 2.4 1.17, 2.41 1.2 C2.41 1.24, 2.41 1.17, 2.41 1.2" stroke="#343a40" stroke-width="2" fill="none"></path></g><g stroke-linecap="round" transform="translate(79.79851020262504 28.15812066086437) rotate(89.9999999999999 1.2028746153062002 1.2028746153064276)"><path d="M2.41 1.2 C2.41 1.27, 2.4 1.34, 2.39 1.41 C2.38 1.48, 2.36 1.55, 2.33 1.61 C2.31 1.68, 2.28 1.74, 2.24 1.8 C2.21 1.86, 2.17 1.92, 2.12 1.98 C2.08 2.03, 2.03 2.08, 1.98 2.12 C1.92 2.17, 1.86 2.21, 1.8 2.24 C1.74 2.28, 1.68 2.31, 1.61 2.33 C1.55 2.36, 1.48 2.38, 1.41 2.39 C1.34 2.4, 1.27 2.41, 1.2 2.41 C1.13 2.41, 1.06 2.4, 0.99 2.39 C0.93 2.38, 0.86 2.36, 0.79 2.33 C0.73 2.31, 0.66 2.28, 0.6 2.24 C0.54 2.21, 0.48 2.17, 0.43 2.12 C0.38 2.08, 0.33 2.03, 0.28 1.98 C0.24 1.92, 0.2 1.86, 0.16 1.8 C0.13 1.74, 0.1 1.68, 0.07 1.61 C0.05 1.55, 0.03 1.48, 0.02 1.41 C0.01 1.34, 0 1.27, 0 1.2 C0 1.13, 0.01 1.06, 0.02 0.99 C0.03 0.93, 0.05 0.86, 0.07 0.79 C0.1 0.73, 0.13 0.66, 0.16 0.6 C0.2 0.54, 0.24 0.48, 0.28 0.43 C0.33 0.38, 0.38 0.33, 0.43 0.28 C0.48 0.24, 0.54 0.2, 0.6 0.16 C0.66 0.13, 0.73 0.1, 0.79 0.07 C0.86 0.05, 0.93 0.03, 0.99 0.02 C1.06 0.01, 1.13 0, 1.2 0 C1.27 0, 1.34 0.01, 1.41 0.02 C1.48 0.03, 1.55 0.05, 1.61 0.07 C1.68 0.1, 1.74 0.13, 1.8 0.16 C1.86 0.2, 1.92 0.24, 1.98 0.28 C2.03 0.33, 2.08 0.38, 2.12 0.43 C2.17 0.48, 2.21 0.54, 2.24 0.6 C2.28 0.66, 2.31 0.73, 2.33 0.79 C2.36 0.86, 2.38 0.93, 2.39 0.99 C2.4 1.06, 2.4 1.17, 2.41 1.2 C2.41 1.24, 2.41 1.17, 2.41 1.2" stroke="none" stroke-width="0" fill="#343a40"></path><path d="M2.41 1.2 C2.41 1.27, 2.4 1.34, 2.39 1.41 C2.38 1.48, 2.36 1.55, 2.33 1.61 C2.31 1.68, 2.28 1.74, 2.24 1.8 C2.21 1.86, 2.17 1.92, 2.12 1.98 C2.08 2.03, 2.03 2.08, 1.98 2.12 C1.92 2.17, 1.86 2.21, 1.8 2.24 C1.74 2.28, 1.68 2.31, 1.61 2.33 C1.55 2.36, 1.48 2.38, 1.41 2.39 C1.34 2.4, 1.27 2.41, 1.2 2.41 C1.13 2.41, 1.06 2.4, 0.99 2.39 C0.93 2.38, 0.86 2.36, 0.79 2.33 C0.73 2.31, 0.66 2.28, 0.6 2.24 C0.54 2.21, 0.48 2.17, 0.43 2.12 C0.38 2.08, 0.33 2.03, 0.28 1.98 C0.24 1.92, 0.2 1.86, 0.16 1.8 C0.13 1.74, 0.1 1.68, 0.07 1.61 C0.05 1.55, 0.03 1.48, 0.02 1.41 C0.01 1.34, 0 1.27, 0 1.2 C0 1.13, 0.01 1.06, 0.02 0.99 C0.03 0.93, 0.05 0.86, 0.07 0.79 C0.1 0.73, 0.13 0.66, 0.16 0.6 C0.2 0.54, 0.24 0.48, 0.28 0.43 C0.33 0.38, 0.38 0.33, 0.43 0.28 C0.48 0.24, 0.54 0.2, 0.6 0.16 C0.66 0.13, 0.73 0.1, 0.79 0.07 C0.86 0.05, 0.93 0.03, 0.99 0.02 C1.06 0.01, 1.13 0, 1.2 0 C1.27 0, 1.34 0.01, 1.41 0.02 C1.48 0.03, 1.55 0.05, 1.61 0.07 C1.68 0.1, 1.74 0.13, 1.8 0.16 C1.86 0.2, 1.92 0.24, 1.98 0.28 C2.03 0.33, 2.08 0.38, 2.12 0.43 C2.17 0.48, 2.21 0.54, 2.24 0.6 C2.28 0.66, 2.31 0.73, 2.33 0.79 C2.36 0.86, 2.38 0.93, 2.39 0.99 C2.4 1.06, 2.4 1.17, 2.41 1.2 C2.41 1.24, 2.41 1.17, 2.41 1.2" stroke="#343a40" stroke-width="2" fill="none"></path></g><g stroke-linecap="round" transform="translate(51.40127271908614 35.337563448376386) rotate(0 28.97544140340733 1.9903670763678747)"><path d="M1 0 C19.39 0, 37.79 0, 56.96 0 C57.62 0, 57.95 0.33, 57.95 1 C57.95 1.75, 57.95 2.5, 57.95 2.99 C57.95 3.65, 57.62 3.98, 56.96 3.98 C44.59 3.98, 32.23 3.98, 1 3.98 C0.33 3.98, 0 3.65, 0 2.99 C0 2.36, 0 1.74, 0 1 C0 0.33, 0.33 0, 1 0" stroke="none" stroke-width="0" fill="#ffd43b"></path><path d="M1 0 C14.25 0, 27.5 0, 56.96 0 M1 0 C23.18 0, 45.37 0, 56.96 0 M56.96 0 C57.62 0, 57.95 0.33, 57.95 1 M56.96 0 C57.62 0, 57.95 0.33, 57.95 1 M57.95 1 C57.95 1.58, 57.95 2.17, 57.95 2.99 M57.95 1 C57.95 1.79, 57.95 2.58, 57.95 2.99 M57.95 2.99 C57.95 3.65, 57.62 3.98, 56.96 3.98 M57.95 2.99 C57.95 3.65, 57.62 3.98, 56.96 3.98 M56.96 3.98 C41.3 3.98, 25.65 3.98, 1 3.98 M56.96 3.98 C39.36 3.98, 21.76 3.98, 1 3.98 M1 3.98 C0.33 3.98, 0 3.65, 0 2.99 M1 3.98 C0.33 3.98, 0 3.65, 0 2.99 M0 2.99 C0 2.42, 0 1.85, 0 1 M0 2.99 C0 2.39, 0 1.8, 0 1 M0 1 C0 0.33, 0.33 0, 1 0 M0 1 C0 0.33, 0.33 0, 1 0" stroke="transparent" stroke-width="4" fill="none"></path></g></svg>